<svg width="135" height="135" viewBox="0 0 135 135" fill="none" xmlns="http://www.w3.org/2000/svg">
<path d="M135 0H0V135H135V0Z" fill="#FFF1E1"/>
<path d="M93.8006 94.3392C108.555 79.5607 108.555 55.5999 93.8006 40.8214C79.046 26.0429 55.124 26.0429 40.3694 40.8214C25.6148 55.5999 25.6148 79.5607 40.3694 94.3392C55.124 109.118 79.046 109.118 93.8006 94.3392Z" fill="#EBB264" stroke="#4D2636" stroke-miterlimit="10"/>
<path opacity="0.65" d="M124.831 80.899C123.303 78.1542 119.395 77.2542 118.946 77.1642C118.856 77.1642 118.811 77.1192 118.721 77.1192C114.992 76.7592 112.207 77.3442 110.275 78.9641C107.715 81.124 107.445 84.3639 107.265 86.2988L107.22 86.6138C107.13 87.6487 107.041 88.5937 106.996 89.3586C106.861 91.2035 106.726 92.8235 106.546 93.3634C106.457 93.4084 106.277 93.4534 106.097 93.5434C104.705 94.0384 103.896 93.6784 103.402 93.4084C101.111 91.9685 99.7628 87.0637 99.3135 83.2389C98.46 76.1293 97.1571 70.6845 95.2703 66.3647C96.3934 66.9497 97.6064 67.3097 98.8194 67.3097C99.2237 67.3097 99.628 67.2647 99.9874 67.1747C101.65 66.8597 102.773 64.9698 102.593 62.8099C102.413 60.83 100.976 58.4451 97.4716 58.3551C96.618 58.3101 95.9442 58.4001 95.3152 58.4451C93.6979 58.5801 92.8893 58.6701 89.9242 55.3403C89.2503 54.5303 88.0374 54.4403 87.1838 55.0703C86.9592 55.2503 86.7795 55.4303 86.6447 55.6553C86.4201 55.5203 86.2404 55.3403 86.0157 55.2053C80.6247 51.3355 73.7512 51.2005 69.4384 51.6505C68.4501 50.0306 67.3269 48.4556 66.114 46.9707C65.5749 45.1708 63.7779 44.0458 61.8461 44.3158L59.7346 44.6308C58.7013 44.8108 57.8028 45.3508 57.2188 46.2057C56.6348 47.0607 56.4102 48.1406 56.5899 49.1306C56.6348 49.4456 56.7246 49.7606 56.7696 50.0756L56.2754 50.3455C53.1756 46.8807 50.2105 45.5308 47.7846 46.6107C47.3802 46.7907 46.931 47.0607 46.4817 47.5107C46.2571 47.4207 45.9876 47.3307 45.7629 47.2857C45.4485 44.9008 44.6398 42.4709 43.4718 40.401C41.0009 35.9912 37.1373 33.5614 32.555 33.5614H32.5101C28.5117 33.5614 23.3004 35.2263 20.7397 39.7711C19.4818 42.0209 18.8978 44.8108 18.9427 48.3656C18.9427 49.8506 19.1224 51.2905 19.2572 52.6404C19.3021 53.1354 19.347 53.5854 19.392 54.0804C19.0775 54.4403 18.8529 54.8903 18.8529 55.3403C18.8079 56.1952 18.763 57.0952 18.763 57.9952C18.6282 58.1302 18.4935 58.2201 18.2688 58.3101C17.9094 58.4901 17.5051 58.6701 17.1008 58.7601C17.0559 58.5801 17.0109 58.4451 16.966 58.2651C16.7414 57.4102 15.9327 55.8803 14.4951 55.3853C13.6416 55.0703 12.6981 55.2503 11.9344 55.7903C10.1374 57.0952 9.28385 59.4351 9.64325 62.045C10.0027 64.6998 11.6199 66.5897 14.001 67.2197C14.8545 67.4447 15.7081 67.5347 16.6066 67.4897C16.6066 67.5347 16.6066 67.5347 16.5617 67.5797C16.5168 67.6697 16.4718 67.7597 16.4718 67.8947C16.4269 68.0297 16.382 68.1197 16.3371 68.2547C16.2921 68.3447 16.2921 68.4797 16.2472 68.5696C16.2023 68.7046 16.1574 68.8396 16.1574 68.9296C16.1124 69.0196 16.1124 69.1546 16.0675 69.2446C16.0226 69.3796 16.0226 69.5146 15.9777 69.6496C15.9328 69.7396 15.9327 69.8296 15.9327 69.9646C15.8878 70.0996 15.8878 70.2346 15.8429 70.3696V70.4145C15.8429 70.5045 15.798 70.5945 15.798 70.6845C15.798 70.8195 15.7531 70.9545 15.7531 71.0895V71.1345V71.2245C15.7531 71.3145 15.753 71.3595 15.7081 71.4495C15.7081 71.5845 15.6632 71.7195 15.6632 71.8995V71.9895C15.6632 72.0795 15.6632 72.1245 15.6632 72.2145C15.6632 72.3495 15.6632 72.5294 15.6183 72.7094V72.7544C15.6183 72.7994 15.6183 72.8894 15.6183 72.9344C15.6183 73.2044 15.6183 73.4294 15.6183 73.6544C15.6183 73.7894 15.6183 73.9694 15.6632 74.2394C15.6632 74.3744 15.6632 74.5094 15.7081 74.5993C15.798 75.4093 15.9777 77.5242 16.5168 79.5941C16.6066 79.9541 16.6965 80.2691 16.7863 80.5841C16.8312 80.674 16.8313 80.764 16.8762 80.854L17.595 82.519C17.6399 82.609 17.6848 82.6989 17.7297 82.7889C17.8645 83.0139 18.0442 83.2389 18.179 83.4639C19.5267 85.6238 21.2788 87.5137 21.773 88.0087C21.8179 88.0537 21.8628 88.0987 21.9078 88.1437L21.9527 88.1887C22.0425 88.2787 22.1324 88.3687 22.1773 88.4137C22.2672 88.5037 22.357 88.5937 22.4918 88.6837C22.5817 88.7737 22.6715 88.8186 22.7613 88.9086C22.8512 88.9986 22.986 89.0886 23.0758 89.1786C23.1657 89.2686 23.2555 89.3136 23.3454 89.3586C23.4352 89.4486 23.57 89.5386 23.6598 89.5836L23.7048 89.6286C23.7946 89.6736 23.8395 89.7186 23.9294 89.8086C24.0192 89.8986 24.154 89.9436 24.2439 90.0336L24.2888 90.0786C24.3787 90.1236 24.4236 90.1686 24.5134 90.2136C24.6033 90.3036 24.738 90.3486 24.8279 90.4386L24.9177 90.4836C24.9627 90.5286 25.0525 90.5736 25.0974 90.6186C25.2322 90.6636 25.3221 90.7536 25.4568 90.7986L25.5467 90.8436C25.5916 90.8886 25.6815 90.8885 25.7264 90.9335C25.8612 91.0235 26.0409 91.0685 26.1756 91.1585L26.2206 91.2035C26.2655 91.2485 26.3104 91.2485 26.3553 91.2935C26.58 91.3835 26.7597 91.4735 26.9843 91.5635L27.0741 91.6085C27.1191 91.6085 27.164 91.6535 27.2089 91.6535C26.58 92.2835 26.0858 93.0035 25.6815 93.7684C24.5134 95.9733 24.8279 98.4032 26.5351 100.473C28.1973 102.498 30.5334 103.443 32.6898 102.993C33.6332 102.813 34.352 102.228 34.7114 101.373C35.2954 99.9781 34.7114 98.3582 34.2621 97.5932C34.1723 97.4582 34.0824 97.3232 33.9926 97.1882C34.352 96.9183 34.7114 96.7383 35.1157 96.6033C35.4751 96.4683 35.7447 96.4233 36.0142 96.4683C36.1041 96.4683 36.149 96.4683 36.2388 96.4683C36.6432 96.8283 37.0475 97.1432 37.4069 97.4132C37.6764 97.6382 37.9909 97.7732 38.3054 97.8182C38.8894 98.4032 39.4285 99.0331 40.0126 99.7081C40.9111 100.743 41.8545 101.823 42.9327 102.858C45.4934 105.288 47.9643 106.728 50.4801 107.313C55.5566 108.528 60.2737 105.783 63.0141 102.813C66.114 99.4381 66.9675 94.8934 65.3952 90.0786C64.6314 87.8287 63.3735 85.5788 61.8461 83.7339C62.1156 83.2389 62.2953 82.7439 62.475 82.204C62.7895 82.159 63.104 82.069 63.3735 81.934C65.9792 80.764 66.9675 77.2992 66.2038 71.9895L66.9226 71.6295C67.1922 71.9895 67.5066 72.3495 67.7762 72.7094C68.4501 73.5194 69.3935 74.0144 70.4268 74.1044C71.46 74.1944 72.4933 73.8344 73.257 73.1594L74.8294 71.7645C75.4584 71.2245 75.8178 70.5495 75.9975 69.7846C76.7612 71.0895 77.3452 72.6194 77.7495 74.3294C77.3901 74.1044 76.9409 74.0144 76.4916 74.1044C75.4584 74.2394 74.6946 75.1843 74.7396 76.2193C75.0091 80.5841 74.4251 81.079 73.1223 82.114C72.673 82.474 72.1339 82.9239 71.5499 83.5539C69.1689 86.0738 69.7978 88.7737 71.0557 90.2586C71.9991 91.3835 73.2121 91.9685 74.3802 91.9685C74.9642 91.9685 75.5033 91.8335 75.9525 91.5185C76.1772 91.3835 76.3569 91.2035 76.5815 91.0235C75.9525 92.8235 75.1439 94.6234 74.0657 96.3333C73.5715 97.0082 71.0557 100.563 71.9542 103.848C72.2687 105.018 73.1223 106.593 75.5033 107.493C77.0757 108.123 79.1422 108.303 81.2088 106.683C81.2986 106.818 81.3885 106.953 81.4783 107.088L81.5232 107.178C81.5682 107.268 81.658 107.313 81.7029 107.403C81.7479 107.448 81.7479 107.448 81.7928 107.493C81.8377 107.583 81.9276 107.628 81.9725 107.718L82.0174 107.763C82.1971 107.943 82.3768 108.123 82.5565 108.303L82.6014 108.348C82.6913 108.393 82.7362 108.483 82.8261 108.528L82.9159 108.573C83.0058 108.618 83.0507 108.708 83.1405 108.753L83.1855 108.798C83.3652 108.933 83.5898 109.068 83.7695 109.203L83.8593 109.248C83.9492 109.293 84.039 109.338 84.084 109.383L84.1738 109.428C84.2637 109.473 84.3535 109.518 84.4434 109.563L84.4883 109.608C84.7129 109.698 84.8926 109.833 85.1172 109.923L85.2071 109.968C85.2969 110.013 85.3868 110.058 85.4766 110.058L85.5665 110.103C85.6563 110.148 85.7462 110.193 85.836 110.193L85.881 110.238C86.1056 110.328 86.3302 110.418 86.5099 110.463L86.5998 110.508C86.6896 110.553 86.7795 110.553 86.8244 110.598L86.9142 110.643C87.0041 110.688 87.049 110.688 87.1389 110.733H87.2287C87.4533 110.778 87.633 110.868 87.8577 110.913H87.9475C88.0374 110.913 88.0823 110.958 88.1721 110.958L88.5765 111.048C88.6663 111.048 88.7562 111.093 88.846 111.093H88.8909C88.9808 111.093 89.0706 111.138 89.1605 111.138L90.059 111.273L91.5864 111.453H91.6314H91.6763H91.7212H91.9009C92.5299 111.498 93.024 111.498 93.3385 111.498C93.5182 111.498 93.653 111.498 93.653 111.498C93.6979 111.498 93.7428 111.498 93.7428 111.498C96.8876 111.228 99.2237 109.608 100.122 107.043C100.212 106.728 100.302 106.413 100.392 106.053C102.593 107.313 104.255 107.898 108.209 106.998C111.623 106.188 114.004 103.848 115.127 100.248C116.115 96.9633 115.711 93.7234 115.576 92.7785C114.903 88.6387 115.756 87.4237 116.026 87.1537C116.295 86.8837 116.655 86.8837 116.834 86.8837C119.799 88.0537 122.001 88.1437 123.528 87.1537C124.516 86.5238 124.966 85.5788 125.1 84.7689C125.595 83.4189 125.505 82.069 124.831 80.899ZM52.0075 99.5281C51.9626 99.5281 51.9177 99.5281 51.8727 99.5731C51.8278 99.5731 51.6032 99.5731 51.5133 99.5731C51.3786 99.5731 51.2438 99.5731 51.109 99.5731H51.0192C50.9743 99.5731 50.8844 99.5731 50.8395 99.5281C50.5699 99.4831 50.3453 99.3931 50.0308 99.3031C49.9859 99.2581 49.941 99.2581 49.896 99.2131C49.8062 99.1681 49.7613 99.1682 49.7163 99.1232C49.4917 98.9882 49.2222 98.8532 49.0425 98.7632C48.8628 98.6732 48.3686 98.3132 47.8744 97.9082C47.3802 97.5032 47.0658 97.2332 46.6614 96.7833C46.1223 96.1983 45.5383 95.5683 44.9543 94.8934C44.4601 94.3084 43.921 93.7234 43.3819 93.1384L44.0109 92.3735L44.3253 92.3285C44.4152 92.3285 44.55 92.2835 44.6398 92.2835L45.8079 92.0135L48.5034 91.3385C50.6598 93.6784 52.9959 95.8383 55.4218 97.7732C55.4667 97.8182 55.5566 97.8632 55.6015 97.9082C55.0175 98.3582 54.4335 98.7182 53.8944 98.9882C53.2654 99.3031 52.7263 99.4831 52.1423 99.6181L52.0075 99.5281ZM25.951 48.0507C25.9959 47.3757 26.0409 46.7907 26.0858 46.6107C26.1307 46.3857 26.1756 46.1157 26.2655 45.8907C26.2655 45.8458 26.3104 45.7558 26.3104 45.7108C26.3104 45.6658 26.3553 45.6208 26.3553 45.5308C26.4901 45.2608 26.58 44.9908 26.7147 44.7658C26.7597 44.7208 26.8046 44.6758 26.8495 44.5858L26.8944 44.4958C26.9843 44.4058 27.0741 44.2708 27.164 44.1808C27.2089 44.1358 27.3886 43.9558 27.3886 43.9558C27.4335 43.9109 27.4335 43.9108 27.5234 43.8658L27.6582 43.7759C28.1074 43.4609 28.6465 43.1909 29.2755 42.9209C29.8146 42.6959 30.5334 42.5159 31.2522 42.3809C31.2073 42.4709 31.2072 42.6059 31.2072 42.6959C30.9826 45.7558 30.9826 48.9056 31.2522 52.0555L30.0841 52.7754L28.3321 53.9904C28.2422 53.9904 28.1523 53.9454 28.0625 53.9454L26.3553 53.8104C26.3104 53.2704 26.2655 52.7754 26.1756 52.2354C26.0858 51.3355 25.9959 50.4805 25.951 49.7156C25.951 49.0856 25.951 48.6806 25.951 48.0507Z" fill="#EBB264"/>
<path d="M56.5898 65.2848C56.5898 65.2848 68.6297 83.3739 53.0856 87.5587C53.0856 87.5587 32.7796 96.1533 23.3004 86.4788C22.7613 85.9388 20.2905 83.3289 19.1673 80.764C18.0891 78.2892 17.7747 74.3743 17.7297 73.4744C17.3703 60.155 37.0475 51.1104 37.0475 51.1104C50.6148 42.4708 55.7811 63.5749 55.7811 63.5749L56.5898 65.2848Z" stroke="#353643" stroke-miterlimit="10" stroke-linecap="round" stroke-linejoin="round"/>
<path d="M21.9527 63.44C25.8162 59.9751 24.1989 54.3054 23.9294 49.8506C23.8845 49.1756 23.8845 48.6806 23.9294 47.9607C23.9743 47.2857 24.0192 46.5657 24.1091 46.2058C24.154 45.8908 24.2439 45.6208 24.3337 45.3058C24.3786 45.2158 24.5134 44.7658 24.4685 44.8108C24.6482 44.4058 24.8279 44.0009 25.0525 43.6409C25.0525 43.6409 25.2771 43.3259 25.3221 43.2809C25.4568 43.1459 25.5916 42.9659 25.7264 42.8309C26.1307 42.3809 26.1307 42.4259 26.4901 42.1559C27.1191 41.706 27.8379 41.346 28.5567 41.076C30.129 40.446 32.6898 39.9511 34.6665 40.356C35.1157 40.446 35.6099 40.581 36.0142 40.761C36.2388 40.851 36.4635 40.941 36.6881 41.031C36.6881 41.031 36.733 41.076 36.7779 41.076C36.8678 41.121 37.0026 41.211 37.0924 41.256C37.4518 41.481 37.7663 41.751 38.1257 42.021C38.1706 42.066 38.3952 42.2909 38.4402 42.2909C38.5749 42.4259 38.6648 42.5609 38.7996 42.6959C39.0691 43.0559 39.3387 43.4159 39.6082 43.7759C39.6531 43.8659 39.6981 43.9559 39.743 44.0459C39.8328 44.2259 39.9676 44.4508 40.0575 44.6308C40.2372 44.9908 40.3719 45.3508 40.5516 45.7108C40.5516 45.7108 40.5516 45.7108 40.5516 45.7558V45.8008C40.5966 45.9808 40.6864 46.1608 40.7313 46.3407C40.911 46.8357 41.0009 47.3757 41.1357 47.8707C41.1357 47.9157 41.1357 48.0057 41.1806 48.0507C41.2704 48.8606 41.7646 50.3006 42.7979 50.1656C43.8312 50.0756 44.0558 48.5456 43.9659 47.7357C43.6964 45.5758 42.9776 43.3709 41.8994 41.481C39.9676 38.0161 36.7779 35.6313 32.6898 35.6763C28.8262 35.6763 24.6482 37.3412 22.7164 40.851C21.4585 43.1009 21.144 45.8908 21.189 48.4107C21.2339 50.7955 21.6382 53.1354 21.773 55.5203C21.773 55.5203 21.773 55.9703 21.773 56.1053C21.773 56.3753 21.7281 56.6453 21.7281 56.9153V56.9603C21.6831 57.1402 21.6831 57.2752 21.6382 57.4552C21.5933 57.5902 21.5933 57.6802 21.5484 57.8152C21.5484 57.8602 21.5484 57.9052 21.5034 57.9052C21.5034 57.9052 21.5034 57.9052 21.5034 57.9502C21.2788 58.5802 21.144 58.8052 20.7397 59.2552C20.3803 59.7051 19.976 59.9751 19.4818 60.2901C18.4036 60.8751 17.1457 61.1451 15.8878 61.1001C15.798 61.1001 15.5284 61.0551 15.2589 60.9651C15.4835 60.3351 15.4386 59.6151 15.2589 59.0302C15.0792 58.4002 14.2705 57.0053 13.372 57.6352C12.0243 58.6252 11.6649 60.3801 11.8895 61.955C12.1141 63.6649 13.0126 65.0149 14.7647 65.4199C17.1906 65.9148 20.0658 65.1499 21.9527 63.44Z" fill="#471343"/>
<path d="M27.5683 94.5783C26.7148 96.1533 27.0742 97.6832 28.1973 99.0331C29.2306 100.248 30.758 101.193 32.3753 100.878C33.4535 100.653 32.9593 99.1231 32.5999 98.5381C32.2855 97.9982 31.7464 97.5032 31.1623 97.2332C31.2971 96.9632 31.4319 96.7382 31.4768 96.6482C32.2855 95.7033 33.3187 94.9383 34.4868 94.5333C35.0259 94.3533 35.5201 94.2633 36.1041 94.2633C36.6432 94.2633 36.9127 94.3533 37.5417 94.5783C37.5417 94.5783 37.5417 94.5783 37.5866 94.5783C37.5866 94.5783 37.6315 94.6233 37.6765 94.6233C37.7663 94.6683 37.9011 94.7133 37.9909 94.8033C38.1257 94.8933 38.2605 94.9833 38.3953 95.0733C38.3953 95.0733 38.3953 95.0733 38.4402 95.1183C38.6648 95.2983 38.8445 95.4333 39.0691 95.6133C39.159 95.7033 39.4735 95.9733 39.4735 95.9733C41.1357 97.6832 42.5733 99.5731 44.2804 101.238C46.1223 102.993 48.3686 104.613 50.8844 105.198C54.7929 106.098 58.7912 104.163 61.4417 101.328C64.2271 98.3132 64.6314 94.3983 63.3735 90.6185C62.6996 88.5486 61.5316 86.5237 60.1389 84.8588C59.6447 84.2738 58.3419 83.4189 57.5782 84.0938C56.7695 84.8138 57.4883 86.1187 58.0274 86.7487C58.0724 86.7937 58.1173 86.8387 58.1173 86.8837C58.4318 87.3337 58.7013 87.7836 58.9709 88.2336C59.0607 88.4136 59.1506 88.5486 59.2404 88.7286C59.2404 88.7286 59.2404 88.7736 59.2854 88.7736C59.2854 88.7736 59.2854 88.7736 59.2854 88.8186C59.465 89.1786 59.5998 89.5386 59.7795 89.8985C59.8694 90.1235 59.9143 90.3035 60.0042 90.5285C60.0491 90.6185 60.0491 90.7085 60.094 90.7985C60.1838 91.2485 60.2737 91.6535 60.3635 92.1034C60.3635 92.2834 60.4085 92.4634 60.4085 92.5984C60.4085 92.5984 60.4085 92.9134 60.4085 93.0034C60.4085 93.4084 60.3635 93.8584 60.2737 94.2633C60.2737 94.3983 60.2288 94.4883 60.1838 94.6233C60.1838 94.6683 60.1838 94.7133 60.1838 94.7133C60.1389 94.9383 60.0491 95.1633 59.9592 95.3883C59.7795 95.8383 59.5998 96.2432 59.3303 96.6482C58.297 98.4031 56.1855 99.9331 54.6581 100.653C53.9393 101.013 53.2205 101.283 52.4568 101.463C52.0075 101.553 52.0524 101.553 51.4235 101.553C51.2438 101.553 51.0192 101.553 50.8395 101.553C50.7945 101.553 50.4351 101.508 50.3902 101.508C49.941 101.418 49.5366 101.283 49.1323 101.148C49.1772 101.148 48.7729 100.968 48.6381 100.923C48.3686 100.788 48.099 100.653 47.8295 100.473C47.515 100.293 46.931 99.8431 46.4368 99.4381C45.8977 98.9881 45.5383 98.6281 45.0441 98.1332C41.9443 94.9383 38.8445 89.8985 33.6781 90.4385C31.2522 90.7085 28.7813 92.3284 27.5683 94.5783Z" fill="#471343"/>
<path d="M56.5898 65.2848C56.5898 65.2848 68.6297 83.3739 53.0856 87.5587C53.0856 87.5587 30.3536 97.1432 21.773 84.6338C21.773 84.6338 20.6948 83.4639 19.5267 81.619L19.1673 80.764L18.8079 79.9091C18.2239 77.7492 18.0891 76.2192 18.0891 76.2192C14.6748 61.4149 37.0924 51.1104 37.0924 51.1104C50.6597 42.4708 55.8261 63.5748 55.8261 63.5748L56.5898 65.2848Z" fill="#BF6A58"/>
<path d="M56.6348 96.1083C40.956 83.7789 31.7464 62.8099 33.2289 42.8759C35.8795 43.1459 38.53 43.3709 41.1806 43.5959C39.9227 60.92 47.8744 79.0091 61.4867 89.8086C59.8694 91.8335 58.2521 93.9484 56.6348 96.1083Z" fill="#A8494C" stroke="#353643" stroke-miterlimit="10" stroke-linecap="round" stroke-linejoin="round"/>
<path d="M33.3636 52.8204C36.1939 54.4403 39.0691 55.7453 41.9893 56.8252C39.6082 58.6701 37.362 60.65 35.1606 62.8549C34.3071 59.5701 33.723 56.1953 33.3636 52.8204Z" fill="#E19376" stroke="#353643" stroke-miterlimit="10" stroke-linecap="round" stroke-linejoin="round"/>
<path d="M35.1157 62.72C38.1706 63.8449 41.1805 64.6999 44.2354 65.2848C42.2138 67.4897 40.282 69.8746 38.4851 72.3945C37.1373 69.2446 36.0142 66.0048 35.1157 62.72Z" fill="#E19376" stroke="#353643" stroke-miterlimit="10" stroke-linecap="round" stroke-linejoin="round"/>
<path d="M38.4402 72.2594C41.585 72.8444 44.7298 73.1594 47.7847 73.2494C46.1225 75.7693 44.595 78.4242 43.2921 81.2591C41.4502 78.4242 39.8329 75.3643 38.4402 72.2594Z" fill="#E19376" stroke="#353643" stroke-miterlimit="10" stroke-linecap="round" stroke-linejoin="round"/>
<path d="M43.2022 81.124C46.3919 81.169 49.4917 80.944 52.5466 80.539C51.2887 83.2839 50.2554 86.1638 49.4018 89.2236C47.1107 86.7487 45.0441 84.0039 43.2022 81.124Z" fill="#E19376" stroke="#353643" stroke-miterlimit="10" stroke-linecap="round" stroke-linejoin="round"/>
<path d="M38.7097 95.7033C26.58 86.0288 19.976 70.9995 21.0542 55.5203C23.3454 55.6553 25.6365 55.8353 27.9726 55.9703C27.0741 69.1996 32.7347 82.024 43.0674 90.3036C41.5849 92.1035 40.1473 93.9034 38.7097 95.7033Z" fill="#2D6670" stroke="#353643" stroke-miterlimit="10" stroke-linecap="round" stroke-linejoin="round"/>
<path d="M24.5134 63.4399C23.9743 63.4849 23.4352 63.0349 23.3903 62.3599C23.3454 61.7299 23.7497 61.145 24.2888 61.145C24.8279 61.1 25.3221 61.5949 25.367 62.2249C25.4568 62.8549 25.0525 63.3949 24.5134 63.4399Z" fill="#E19376" stroke="#353643" stroke-miterlimit="10" stroke-linecap="round" stroke-linejoin="round"/>
<path d="M25.5018 69.1096C24.9627 69.2446 24.4236 68.8396 24.2439 68.2096C24.1091 67.5797 24.4685 66.9947 25.0076 66.8597C25.5467 66.7697 26.0858 67.1747 26.2206 67.7597C26.3553 68.3896 26.0409 68.9746 25.5018 69.1096Z" fill="#E19376" stroke="#353643" stroke-miterlimit="10" stroke-linecap="round" stroke-linejoin="round"/>
<path d="M27.2089 74.5994C26.7148 74.8243 26.0858 74.4644 25.8612 73.8794C25.6366 73.2945 25.9061 72.6195 26.4452 72.4845C26.9843 72.3045 27.5683 72.6645 27.748 73.2045C27.9726 73.7444 27.748 74.3744 27.2089 74.5994Z" fill="#E19376" stroke="#353643" stroke-miterlimit="10" stroke-linecap="round" stroke-linejoin="round"/>
<path d="M29.6349 79.774C29.1407 80.044 28.5117 79.819 28.1973 79.2341C27.8828 78.6491 28.1074 78.0192 28.6016 77.7492C29.0958 77.5242 29.7247 77.7492 29.9943 78.2891C30.2638 78.8741 30.1291 79.504 29.6349 79.774Z" fill="#E19376" stroke="#353643" stroke-miterlimit="10" stroke-linecap="round" stroke-linejoin="round"/>
<path d="M32.6898 84.6338C32.2405 84.9488 31.5666 84.8138 31.2072 84.2739C30.8478 83.7339 30.9377 83.0589 31.3869 82.7439C31.8362 82.4289 32.5101 82.6089 32.8245 83.1039C33.2289 83.6439 33.139 84.2738 32.6898 84.6338Z" fill="#E19376" stroke="#353643" stroke-miterlimit="10" stroke-linecap="round" stroke-linejoin="round"/>
<path d="M36.3736 89.0437C35.9693 89.4486 35.2954 89.3586 34.8462 88.8637C34.3969 88.3687 34.3969 87.6937 34.8462 87.3337C35.2505 86.9737 35.9244 87.0637 36.3287 87.5137C36.778 88.0087 36.778 88.6837 36.3736 89.0437Z" fill="#E19376" stroke="#353643" stroke-miterlimit="10" stroke-linecap="round" stroke-linejoin="round"/>
<path d="M62.5354 79.9426C65.5328 78.621 64.8751 70.5247 61.0664 61.8592C57.2578 53.1937 51.7404 47.2404 48.743 48.562C45.7456 49.8837 46.4033 57.9799 50.212 66.6454C54.0206 75.3109 59.538 81.2643 62.5354 79.9426Z" fill="#2D6670" stroke="#353643" stroke-miterlimit="10" stroke-linecap="round" stroke-linejoin="round"/>
<path d="M56.5898 65.2848C56.5898 65.2848 68.6297 83.3739 53.0856 87.5587C53.0856 87.5587 30.3536 97.1432 21.773 84.6338C21.773 84.6338 20.6948 83.4639 19.5267 81.619L19.1673 80.764L18.8079 79.9091C18.2239 77.7492 18.0891 76.2192 18.0891 76.2192C14.6748 61.4149 37.0924 51.1104 37.0924 51.1104C50.6597 42.4708 55.8261 63.5748 55.8261 63.5748L56.5898 65.2848Z" stroke="#353643" stroke-miterlimit="10" stroke-linecap="round" stroke-linejoin="round"/>
<path d="M51.0193 55.6103C51.0193 55.6103 50.2106 68.1647 60.0042 72.8444L69.8877 67.6697L61.2172 50.1655L51.0193 55.6103Z" fill="#A8494C" stroke="#353643" stroke-miterlimit="10" stroke-linecap="round" stroke-linejoin="round"/>
<path d="M51.0192 55.6103L64.2721 56.4652L52.8162 64.9698L67.327 61.91L60.0042 72.8444C59.9593 72.8444 51.0192 69.2896 51.0192 55.6103Z" fill="#EAC8AF" stroke="#353643" stroke-miterlimit="10" stroke-linecap="round" stroke-linejoin="round"/>
<path d="M63.9126 47.3307C68.9891 53.3154 72.4035 60.515 73.7962 68.2546C73.9759 69.1996 73.2571 70.1445 72.2687 70.3245C71.5948 70.4595 70.876 70.5945 70.2021 70.6845C69.2587 70.8645 68.4051 70.2795 68.2254 69.4246C66.9675 62.5849 64.0024 56.2402 59.5099 50.9305C58.9259 50.2555 59.0606 49.2206 59.7795 48.5906C60.3186 48.1406 60.8576 47.6906 61.3968 47.2407C62.1156 46.5657 63.2836 46.6107 63.9126 47.3307Z" fill="#A8494C" stroke="#353643" stroke-miterlimit="10" stroke-linecap="round" stroke-linejoin="round"/>
<path d="M65.5298 54.3953C65.5298 54.3953 77.1205 51.2005 84.9375 56.8702C90.9125 61.145 95.3152 66.9497 97.2919 83.5539C97.7411 87.3337 99.7628 97.9982 106.771 95.5233C108.883 94.7583 108.613 94.5783 109.242 86.8387C109.511 83.8239 109.646 78.2891 118.497 79.1891C118.497 79.1891 124.561 80.449 123.169 84.3638C123.169 84.3638 123.079 87.2437 117.373 84.9488C117.373 84.9488 112.072 83.6889 113.6 93.1384C114.094 96.1532 114.049 103.578 107.804 105.063C101.65 106.503 102.818 103.713 94.0573 100.968C91.7661 100.248 92.5748 96.1532 92.7994 91.3835C92.7994 91.3835 94.3717 60.965 69.7079 56.8702L66.3834 56.5552L65.5298 54.3953Z" fill="#709BA6" stroke="#353643" stroke-miterlimit="10"/>
<path d="M88.4866 56.7352C88.4866 56.7352 94.4167 66.2748 99.628 65.2399C100.931 64.9699 101.605 60.5601 97.4716 60.4251C94.1023 60.3351 93.069 62 88.4866 56.7352Z" fill="#709BA6"/>
<path d="M76.851 77.1193C76.851 77.0293 76.9858 76.9843 77.0307 77.1193C77.5249 79.9541 78.9625 87.1987 74.9193 89.7186C73.7961 90.3936 70.292 87.8287 73.0773 84.8589C75.2337 82.564 76.9858 82.834 76.851 77.1193Z" fill="#709BA6"/>
<path d="M76.9409 82.5189C76.9409 82.4739 77.0307 82.4739 77.0307 82.5189C77.0307 84.0489 77.0757 87.9637 74.7396 88.9086C74.1106 89.1786 73.8411 88.2787 75.3236 86.7037C76.4916 85.4888 76.4916 85.4888 76.9409 82.5189Z" fill="#EAC8AF"/>
<path d="M66.3834 56.5552C66.3834 56.5552 82.3319 53.2704 89.2054 67.0847C91.9907 72.6644 95.0457 80.494 93.8776 91.5185C93.5631 94.3534 93.9225 98.7181 97.6513 102.273C99.1338 103.668 99.3585 108.978 93.653 109.473C93.653 109.473 79.5016 109.923 82.4217 99.6181C82.4217 99.6181 90.1488 80.674 84.623 70.7295C84.623 70.7295 82.1971 60.56 67.237 59.7501L66.3834 56.5552Z" fill="#709BA6" stroke="#353643" stroke-miterlimit="10"/>
<path d="M92.6197 103.758C88.846 100.203 88.5315 95.8383 88.846 93.0035C90.0141 81.934 88.4866 73.6094 85.7013 68.0297C81.3884 59.3901 71.9991 57.9502 66.7429 57.6802L67.3269 59.7951C82.287 60.6051 84.7129 70.7746 84.7129 70.7746C90.2387 80.7191 82.5116 99.6631 82.5116 99.6631C80.1305 107.898 88.7562 109.248 92.2603 109.473C94.0573 107.628 93.653 104.748 92.6197 103.758Z" fill="#2D6670"/>
<path d="M67.3269 61.9099C67.3269 61.9099 78.2886 61.9099 80.2653 76.3542C80.2653 76.3542 81.658 88.4587 75.7728 97.3682C75.7728 97.3682 71.1006 103.398 76.267 105.468C79.5465 106.773 82.3768 104.028 85.0274 94.3084C87.5432 84.9488 92.3951 60.965 67.282 59.795V61.9099H67.3269Z" fill="#709BA6" stroke="#353643" stroke-miterlimit="10"/>
<path d="M93.4284 61.28C93.3835 61.28 93.3835 61.19 93.4284 61.19C94.9558 61.01 98.8194 60.56 99.9874 62.765C100.302 63.395 99.4483 63.755 97.7412 62.405C96.4384 61.415 96.4384 61.415 93.4284 61.28Z" fill="#EAC8AF"/>
<path d="M69.3485 71.3145C64.0024 64.7898 60.3635 57.0952 58.7462 48.8156C58.5665 47.8257 59.1955 46.8357 60.2287 46.7007C60.9475 46.6107 61.6214 46.4757 62.3402 46.3857C63.2836 46.2508 64.1821 46.8357 64.3618 47.7807C65.7994 55.0703 69.0341 61.91 73.7512 67.6697C74.3802 68.4346 74.2454 69.5146 73.5266 70.1446C72.9875 70.5945 72.4484 71.0895 71.9542 71.5395C71.1455 72.1694 69.9775 72.0794 69.3485 71.3145Z" fill="#BF6A58" stroke="#353643" stroke-miterlimit="10" stroke-linecap="round" stroke-linejoin="round"/>
<path d="M81.8377 51.4256C90.0007 51.4256 96.6181 44.7974 96.6181 36.6212C96.6181 28.445 90.0007 21.8169 81.8377 21.8169C73.6748 21.8169 67.0574 28.445 67.0574 36.6212C67.0574 44.7974 73.6748 51.4256 81.8377 51.4256Z" fill="#2D6670" stroke="#353643" stroke-miterlimit="10"/>
<path d="M69.4833 33.8763C69.708 33.9213 69.9326 33.7863 70.0224 33.5614C70.0674 33.3364 69.9326 33.1114 69.708 33.0214C69.4833 32.9314 69.2587 33.1114 69.1689 33.3364C69.079 33.6064 69.2138 33.8313 69.4833 33.8763Z" fill="#F3F0E8"/>
<path d="M71.3253 30.3665C71.4601 30.1865 71.3702 29.9165 71.1905 29.7816C71.0108 29.6466 70.7412 29.7365 70.6065 29.9165C70.4717 30.1415 70.5616 30.4115 70.7413 30.5015C70.921 30.5915 71.1905 30.5465 71.3253 30.3665Z" fill="#F3F0E8"/>
<path d="M73.5266 27.0367C73.3919 26.8567 73.0774 26.8567 72.8977 26.9917C72.718 27.1717 72.718 27.4417 72.8527 27.5767C73.0324 27.7566 73.302 27.7566 73.4817 27.6217C73.6614 27.4867 73.7063 27.2167 73.5266 27.0367Z" fill="#F3F0E8"/>
<path d="M76.5815 25.0568C76.4917 24.8318 76.2221 24.7418 75.9975 24.8768C75.7729 24.9668 75.683 25.2368 75.8178 25.4618C75.9526 25.6867 76.1772 25.7767 76.4018 25.6417C76.5815 25.5517 76.6714 25.2818 76.5815 25.0568Z" fill="#F3F0E8"/>
<path d="M79.5016 23.7068C79.3669 23.7068 79.277 23.7968 79.2321 23.8868C79.1872 23.9768 79.1422 24.1118 79.1872 24.2018C79.2321 24.3368 79.277 24.4268 79.3669 24.4718C79.4567 24.5168 79.5466 24.5618 79.6813 24.5618C79.906 24.5168 80.0407 24.2918 80.0407 24.0668C79.9958 23.8418 79.7712 23.6618 79.5016 23.7068Z" fill="#F3F0E8"/>
<path d="M83.2304 23.5718C83.0058 23.5268 82.7812 23.7518 82.7362 23.9768C82.7362 24.2018 82.871 24.4268 83.1406 24.4268C83.3652 24.4718 83.5898 24.2918 83.5898 24.0668C83.6797 23.7968 83.5 23.6168 83.2304 23.5718Z" fill="#F3F0E8"/>
<path d="M86.8693 24.4718C86.6447 24.3818 86.3752 24.5168 86.2853 24.7418C86.1954 24.9668 86.3302 25.1918 86.5099 25.2817C86.7346 25.3717 86.9592 25.2817 87.049 25.0568C87.1838 24.8318 87.094 24.5618 86.8693 24.4718Z" fill="#F3F0E8"/>
<path d="M90.059 26.4067C89.8793 26.2717 89.5648 26.2717 89.4301 26.4967C89.2953 26.6767 89.3402 26.9467 89.5199 27.0817C89.6996 27.2167 89.9692 27.2167 90.1039 27.0367C90.2836 26.8567 90.2836 26.5417 90.059 26.4067Z" fill="#F3F0E8"/>
<path d="M92.6197 29.1516C92.4849 28.9716 92.2154 28.9266 91.9908 29.0616C91.8111 29.1966 91.7661 29.4666 91.9009 29.6465C92.0357 29.8265 92.3052 29.8715 92.4849 29.7815C92.6646 29.6015 92.7545 29.3316 92.6197 29.1516Z" fill="#F3F0E8"/>
<path d="M93.9675 33.0214C94.1921 32.9764 94.3269 32.7064 94.237 32.4814C94.1472 32.2564 93.9226 32.1214 93.6979 32.2114C93.4733 32.3014 93.3385 32.5264 93.4284 32.7514C93.5182 32.9314 93.7429 33.0664 93.9675 33.0214Z" fill="#F3F0E8"/>
<path d="M94.4617 35.7213C94.237 35.7213 94.0573 35.9462 94.0573 36.1712C94.0573 36.3962 94.282 36.5762 94.5066 36.5762C94.7312 36.5762 94.9109 36.3962 94.9109 36.1262C94.9109 35.9012 94.6863 35.7213 94.4617 35.7213Z" fill="#F3F0E8"/>
<path d="M94.1921 39.3211C93.9675 39.2761 93.7428 39.4111 93.653 39.6361C93.6081 39.861 93.7428 40.086 93.9675 40.176C94.1921 40.266 94.4167 40.086 94.5066 39.861C94.5964 39.6361 94.4616 39.3661 94.1921 39.3211Z" fill="#F3F0E8"/>
<path d="M92.9342 42.6959C92.7096 42.5609 92.44 42.6509 92.3502 42.8309C92.2154 43.0109 92.3053 43.2809 92.485 43.4159C92.6647 43.5509 92.9342 43.4609 93.069 43.2809C93.2038 43.1009 93.1588 42.8309 92.9342 42.6959Z" fill="#F3F0E8"/>
<path d="M90.1488 45.5758C89.9691 45.7108 89.9692 45.9807 90.1039 46.1607C90.2387 46.3407 90.5532 46.3407 90.7329 46.2057C90.9126 46.0257 90.9126 45.7558 90.7778 45.6208C90.5981 45.4408 90.3285 45.4408 90.1488 45.5758Z" fill="#F3F0E8"/>
<path d="M87.3186 47.5557C87.0939 47.6457 87.049 47.9156 87.1389 48.1406C87.2287 48.3656 87.4983 48.4556 87.7229 48.3206C87.9475 48.2306 88.0374 47.9606 87.9026 47.7356C87.7678 47.5557 87.4983 47.4657 87.3186 47.5557Z" fill="#F3F0E8"/>
<path d="M84.3086 48.7256C84.2187 48.6806 84.1289 48.6356 83.9941 48.6356C83.7695 48.6806 83.6347 48.9056 83.6347 49.1306C83.6796 49.3557 83.9043 49.5357 84.1289 49.4907C84.2637 49.4907 84.3535 49.4007 84.3984 49.3107C84.4434 49.2206 84.4883 49.0856 84.4434 48.9956C84.4883 48.9056 84.3984 48.8156 84.3086 48.7256Z" fill="#F3F0E8"/>
<path d="M80.5349 48.8157C80.3103 48.7707 80.0857 48.9507 80.0857 49.1756C80.0407 49.4006 80.2204 49.6256 80.4451 49.6706C80.6697 49.7156 80.8943 49.4906 80.9392 49.2656C80.9392 48.9956 80.7595 48.8157 80.5349 48.8157Z" fill="#F3F0E8"/>
<path d="M77.1655 47.9157C76.9409 47.8257 76.7163 47.9157 76.6264 48.1407C76.5366 48.3656 76.6264 48.6356 76.8511 48.7256C77.0757 48.8156 77.3453 48.6806 77.4351 48.4556C77.48 48.2757 77.3452 48.0057 77.1655 47.9157Z" fill="#F3F0E8"/>
<path d="M73.5715 46.2057C73.4368 46.3857 73.4368 46.6557 73.6165 46.8357C73.7962 46.9707 74.1106 46.9707 74.2454 46.7457C74.3802 46.5657 74.3353 46.2957 74.1556 46.1607C73.9759 46.0257 73.7063 46.0257 73.5715 46.2057Z" fill="#F3F0E8"/>
<path d="M71.1905 43.4609C71.0108 43.5959 70.9209 43.8659 71.0557 44.0458C71.1905 44.2258 71.46 44.2708 71.6847 44.1358C71.8644 44.0008 71.9093 43.7309 71.7745 43.5509C71.6397 43.4159 71.4151 43.3259 71.1905 43.4609Z" fill="#F3F0E8"/>
<path d="M69.708 40.176C69.4833 40.221 69.3486 40.491 69.4384 40.716C69.5283 40.941 69.7529 41.076 69.9775 40.986C70.2022 40.896 70.3369 40.671 70.2471 40.446C70.1572 40.266 69.9326 40.1311 69.708 40.176Z" fill="#F3F0E8"/>
<path d="M69.6181 37.0262C69.6181 36.8012 69.3935 36.6212 69.1689 36.6212C68.9443 36.6212 68.7646 36.8012 68.7646 37.0712C68.7646 37.2962 68.9892 37.5212 69.2138 37.4762C69.4384 37.4762 69.6181 37.2512 69.6181 37.0262Z" fill="#F3F0E8"/>
<path d="M92.0213 38.1634C92.8809 32.5378 89.0248 27.2793 83.4083 26.4183C77.7919 25.5572 72.5419 29.4196 71.6823 35.0452C70.8226 40.6708 74.6788 45.9292 80.2952 46.7903C85.9117 47.6513 91.1616 43.7889 92.0213 38.1634Z" fill="#709BA6" stroke="#353643" stroke-miterlimit="10"/>
<path d="M74.6497 35.3163L77.1655 33.5163L78.9625 35.8562L82.3319 33.2914L83.8593 36.0362L86.9592 33.2914L88.6663 35.6313" stroke="#353643" stroke-width="2" stroke-miterlimit="10" stroke-linecap="round" stroke-linejoin="round"/>
<path d="M74.6497 39.1861L77.1655 37.3862L78.9625 39.7711L82.3319 37.1612L83.8593 39.9511L86.9592 37.1612L88.6663 39.5011" stroke="#353643" stroke-width="2" stroke-miterlimit="10" stroke-linecap="round" stroke-linejoin="round"/>
</svg>
