<svg width="135" height="135" viewBox="0 0 135 135" fill="none" xmlns="http://www.w3.org/2000/svg">
<path d="M135 0H0V135H135V0Z" fill="#FFF1E1"/>
<path d="M94.2093 94.1427C108.964 79.4004 108.964 55.4983 94.2093 40.7559C79.4547 26.0136 55.5327 26.0136 40.7781 40.7559C26.0235 55.4983 26.0235 79.4004 40.7781 94.1427C55.5327 108.885 79.4547 108.885 94.2093 94.1427Z" fill="#EBB264" stroke="#4D2636" stroke-miterlimit="10"/>
<g opacity="0.6">
<path opacity="0.6" d="M98.1687 32.9192C94.8892 30.8094 89.8127 30.0463 86.2636 35.0289C86.1737 35.1635 85.8143 35.6573 84.2869 38.1261C84.197 38.2608 84.1072 38.3955 84.0623 38.5301C83.9275 38.7097 83.8376 38.8892 83.7029 39.0688C83.3435 37.9466 83.029 37.0937 82.7145 36.5102C78.806 28.9242 72.1571 24.3007 62.9924 22.6399C57.6913 21.6972 52.6597 22.2808 48.0773 24.4354C43.1805 26.6798 39.8561 30.181 37.9243 32.7396C37.0707 33.8618 36.307 35.0289 35.723 36.1511C35.094 37.3182 34.4651 38.5301 33.9709 39.6523C32.713 42.166 31.8145 44.5451 31.2754 46.7895C30.5117 49.752 30.2871 52.3555 30.6465 54.555C30.7812 55.4528 31.0059 56.3505 31.3203 57.2483C31.3203 57.2932 31.3652 57.383 31.4102 57.4278C32.8028 61.0637 35.6331 63.9814 39.4517 65.5974C39.4967 65.5974 39.5416 65.6423 39.5865 65.6423C41.5632 66.4503 43.6747 66.8991 45.5166 66.8543C37.6997 75.1585 31.1855 83.8667 30.7812 84.3605C30.2421 85.0787 30.2421 86.0662 30.7812 86.7844C36.6664 94.55 42.6863 100.475 48.7512 104.38C53.693 107.567 58.6347 109.408 63.4866 109.857C64.2953 109.946 65.059 109.946 65.7778 109.946C72.831 109.946 77.054 106.849 77.2337 106.715C77.9974 106.131 78.2669 105.143 77.8626 104.291C77.6829 103.887 77.5032 103.393 77.3684 102.809C77.009 101.283 76.8293 99.3529 76.8743 97.0188C76.8743 96.8841 76.8743 96.7046 76.8743 96.525L76.9192 95.7619C76.9192 95.5824 76.9192 95.4477 76.9641 95.2682L77.009 94.5051C77.009 94.3255 77.054 94.1909 77.054 94.0113L77.0989 93.2482C77.0989 93.2033 77.0989 93.1135 77.0989 93.0687C80.4683 98.141 86.0839 100.34 86.8476 100.61C89.1388 101.597 91.2503 101.687 93.0922 100.924C94.4849 100.34 95.3834 99.3978 95.8775 98.6347C99.4715 98.0512 101.628 95.4926 101.942 91.4976C102.661 89.5225 101.808 87.5475 101.403 86.8293C101.224 86.2457 100.999 85.7071 100.729 85.1684C99.202 82.0263 97.7644 72.3754 97.1804 68.156C99.6063 63.3979 98.8875 58.8642 98.6629 57.7421C98.618 56.3056 98.4383 54.8692 98.1238 53.5675L102.931 43.8269C102.931 43.782 102.976 43.782 102.976 43.7371C103.919 41.6723 104.054 36.7795 98.1687 32.9192Z" fill="#EBB264"/>
</g>
<path d="M77.2786 81.4876C76.8294 82.2058 73.3252 97.9614 76.2453 104.605C76.2453 104.605 57.8261 118.385 32.6681 85.0787C32.6681 85.0787 51.9858 59.3131 63.9359 53.8368C63.9359 53.8817 80.9625 75.5176 77.2786 81.4876Z" fill="#BF6A58" stroke="#353643" stroke-miterlimit="10"/>
<path d="M77.2786 81.4877C77.3685 81.353 77.4134 81.2632 77.4583 81.1286C77.2786 78.3006 77.054 75.5176 76.9192 75.2034C76.6946 74.575 67.7545 66.944 67.7545 66.944L60.5216 61.1086C62.9475 68.9191 61.1955 72.6448 59.3086 75.8318C53.1539 86.0662 54.277 86.9639 55.8045 90.3754C60.297 100.385 75.6613 102.809 75.6613 102.809C73.8643 95.4926 76.8743 82.161 77.2786 81.4877Z" fill="#A8494C"/>
<path d="M67.6647 69.7271L77.7279 78.6148C77.8177 79.7819 77.6829 80.7694 77.2337 81.4876C76.9192 81.9814 75.1671 89.6123 75.0773 96.525C70.1355 90.555 64.7445 80.9939 67.6647 69.7271Z" fill="#4D2636" stroke="#353643" stroke-miterlimit="10"/>
<path d="M95.608 54.1959L101.403 42.4354C101.403 42.4354 103.335 38.0364 97.3152 34.0862C95.3834 32.8294 91.2952 31.3032 88.1954 35.6573C87.3867 36.7795 83.6579 42.8842 83.6579 42.8842C83.6579 42.8842 94.6197 49.8418 95.608 54.1959Z" fill="#EAC8AF" stroke="#353643" stroke-miterlimit="10"/>
<path d="M98.5281 48.2707C98.5281 48.2707 96.821 37.2733 86.1288 38.7994" stroke="#353643" stroke-miterlimit="10"/>
<path d="M101.403 42.4354C101.403 42.4354 95.2486 33.4578 89.1837 34.4902" stroke="#353643" stroke-miterlimit="10"/>
<path d="M80.4234 41.1785C80.4234 41.1785 96.5514 42.0762 96.9108 57.5176C96.9108 57.5176 98.1238 62.3655 95.3385 67.3031C95.3385 67.3031 97.0456 81.2183 99.1122 85.5724C99.6962 86.7844 100.056 88.0861 100.145 89.4328C100.28 92.2158 99.5614 96.0312 94.8443 96.2557C94.8443 96.2557 93.1371 100.52 87.7911 98.2307C87.7911 98.2307 77.6829 94.6846 76.9192 85.4826C76.9192 85.4826 65.9126 77.1784 66.9459 71.6572C66.9459 71.6572 55.2204 59.9415 60.881 50.9191C65.059 44.3206 74.044 41.5825 80.4234 41.1785Z" fill="#BF6A58" stroke="#353643" stroke-miterlimit="10"/>
<path d="M81.5465 41.3132C82.8942 41.4927 85.2753 41.9865 87.7911 43.1984C90.1721 46.1161 92.1488 49.4378 94.2153 55.4079C94.8892 57.2932 96.2819 62.9041 94.1255 63.4428C90.5315 64.3854 89.9924 58.3705 89.633 55.8119C89.0939 51.9515 84.6912 44.5002 80.6929 43.0638C81.3219 43.0638 81.4117 42.1211 81.5465 41.3132Z" fill="#709BA6" stroke="#353643" stroke-miterlimit="10"/>
<path d="M100.235 90.4652C100.235 90.4652 98.7977 92.5749 96.7761 92.3056C96.7761 92.3056 88.9142 91.0487 87.7012 86.6497C87.7012 86.6497 97.0007 88.4452 99.786 87.0986C99.786 87.1435 100.864 88.9839 100.235 90.4652Z" fill="#EAC8AF" stroke="#353643" stroke-miterlimit="10"/>
<path d="M86.8925 93.4727C86.8925 93.4727 96.2819 100.879 96.776 92.3056" stroke="#353643" stroke-miterlimit="10"/>
<path d="M75.257 59.5824C75.4816 58.9091 76.0656 58.55 76.6497 58.3705C77.2337 58.1909 77.8626 58.2358 78.4017 58.3705C78.9408 58.5051 79.4799 58.6847 79.9741 58.9091C80.2437 58.9989 80.4683 59.1336 80.6929 59.2682L81.0523 59.4478C81.1871 59.4927 81.3219 59.6273 81.4566 59.7171C81.9508 60.0762 82.3102 60.4802 82.6696 60.9291C83.029 61.3779 83.2986 61.8717 83.5681 62.3655C83.7927 62.8592 84.0174 63.4428 84.0623 64.0712C84.1521 64.6547 84.0623 65.3729 83.7029 66.0014V66.0463C83.5232 66.3605 83.1189 66.4951 82.7595 66.3156C82.445 66.136 82.3102 65.732 82.4899 65.3729C82.4899 65.3729 82.4899 65.3281 82.5348 65.3281C82.9392 64.7445 82.8044 63.757 82.445 62.9041C82.0856 62.0513 81.5016 61.1535 80.8277 60.57C80.7378 60.4802 80.648 60.4353 80.5581 60.3904L80.2437 60.2109C80.019 60.0762 79.7944 59.9415 79.5698 59.8518C79.1205 59.6273 78.6713 59.4478 78.222 59.3131C77.7728 59.1784 77.2786 59.1336 76.8743 59.2233C76.6497 59.2682 76.47 59.358 76.2903 59.4927C76.1106 59.5824 75.9758 59.8069 75.9309 59.9415V59.9864C75.841 60.166 75.6613 60.2109 75.4816 60.166C75.257 59.8966 75.1671 59.7171 75.257 59.5824Z" fill="#471343"/>
<path d="M86.9375 60.5251C86.8926 60.8842 86.5332 61.1984 85.7245 60.8842C85.3651 60.7495 85.0057 60.5251 84.6912 60.2558C83.7927 59.4927 81.1871 57.4278 78.6713 56.2608C78.3119 56.0812 78.3568 55.5874 78.7162 55.5426C79.8843 55.4528 80.7828 55.363 82.6247 55.9914C83.5232 56.3057 86.1288 58.0563 86.4882 58.954C86.7129 59.3131 86.9824 60.0762 86.9375 60.5251Z" fill="#471343"/>
<path d="M78.0873 62.4553C77.2337 64.0712 76.9192 65.6872 78.0423 66.2707C79.1655 66.8543 80.7827 65.8219 81.6363 64.2059C82.4899 62.5899 82.4001 61.1087 81.2769 60.5251C80.1538 59.8967 78.9408 60.8393 78.0873 62.4553Z" fill="#471343"/>
<path d="M92.1488 60.2109C92.1937 60.57 92.5531 60.8393 92.9574 60.8393C93.3617 60.7944 93.7211 60.4802 93.6762 60.1211C93.6313 59.762 93.2719 59.4927 92.8676 59.4927C92.4183 59.5376 92.1038 59.8518 92.1488 60.2109Z" fill="#471343"/>
<path d="M92.465 57.2476C92.8858 57.219 93.2065 56.8951 93.1812 56.5241C93.156 56.1531 92.7943 55.8755 92.3735 55.9041C91.9527 55.9327 91.632 56.2566 91.6573 56.6277C91.6825 56.9987 92.0441 57.2762 92.465 57.2476Z" fill="#471343"/>
<path d="M90.6663 53.1186C90.7112 53.4777 91.0706 53.747 91.4749 53.747C91.8792 53.7022 92.2386 53.3879 92.1937 53.0288C92.1488 52.6697 91.7894 52.4004 91.3851 52.4004C90.9807 52.4004 90.6213 52.7146 90.6663 53.1186Z" fill="#471343"/>
<path d="M89.049 49.7072C89.0939 50.0663 89.4533 50.3356 89.8576 50.3356C90.2619 50.2907 90.6213 49.9765 90.5764 49.6174C90.5315 49.2583 90.1721 48.989 89.7678 48.989C89.3634 48.989 89.049 49.3481 89.049 49.7072Z" fill="#471343"/>
<path d="M87.0273 46.8344C87.0722 47.1935 87.4316 47.4628 87.836 47.4628C88.2403 47.4179 88.5997 47.1037 88.5548 46.7446C88.5098 46.3855 88.1504 46.1161 87.7461 46.1161C87.3418 46.1161 87.0273 46.4304 87.0273 46.8344Z" fill="#471343"/>
<path d="M83.8826 46.5201C83.8826 46.5201 87.0722 54.5101 75.1222 54.2408C75.1222 54.2408 67.7096 53.0288 65.8677 48.8992L66.9458 46.3406C66.9458 46.3406 66.2271 37.3182 58.2753 36.7346C53.7379 36.4204 46.9542 44.5002 44.0341 47.9565C42.5965 49.7072 39.1373 54.0164 44.9775 57.0238C45.921 57.5176 48.7512 57.7869 48.7512 55.0488C48.7512 55.0488 48.4817 54.7346 48.0324 54.5999C47.3586 54.4204 47.2238 53.5226 47.7629 53.1186C48.4368 52.6248 49.3802 52.4004 50.5482 53.2084C52.9292 54.7795 56.2986 62.1859 47.1788 64.1161C43.0907 64.969 34.2405 62.2308 32.8478 53.6573C31.9942 48.3156 35.094 41.2234 37.6548 36.4653C40.6198 30.989 48.9758 21.5626 62.8577 24.0314C68.6979 25.0638 76.47 27.802 81.1422 36.8244C82.3551 39.1137 83.8826 46.5201 83.8826 46.5201Z" fill="#EAC8AF" stroke="#353643" stroke-miterlimit="10"/>
<path d="M83.8826 46.5201C83.8826 46.5201 75.212 52.5351 66.9458 46.3855" stroke="#353643" stroke-miterlimit="10"/>
<path d="M81.1871 36.8693C81.1871 36.8693 75.257 43.5575 66.0923 42.9291" stroke="#353643" stroke-miterlimit="10"/>
<path d="M74.8976 29.373C74.5831 29.7321 71.3485 37.5426 63.6663 39.1585" stroke="#353643" stroke-miterlimit="10"/>
<path d="M62.9026 24.0763C62.9026 24.0763 66.7212 32.4254 60.9259 37.363" stroke="#353643" stroke-miterlimit="10"/>
<path d="M55.9392 37.2733C55.9392 37.2733 57.1522 26.0065 49.1555 25.7371" stroke="#353643" stroke-miterlimit="10"/>
<path d="M51.1323 40.4603C50.7279 40.191 46.46 31.0339 39.7662 33.4129" stroke="#353643" stroke-miterlimit="10"/>
<path d="M47.1339 44.4553C47.1339 44.4553 43.4501 37.4528 35.9925 39.9216" stroke="#353643" stroke-miterlimit="10"/>
<path d="M42.6863 49.8867C42.6863 49.8867 37.0258 44.7695 33.4767 46.7446" stroke="#353643" stroke-miterlimit="10"/>
<path d="M42.1023 54.4653C42.1023 54.4653 37.9692 57.742 33.5217 56.1261" stroke="#353643" stroke-miterlimit="10"/>
<path d="M45.0224 57.1136C45.0224 57.1136 44.7529 63.3979 40.5749 63.2632" stroke="#353643" stroke-miterlimit="10"/>
<path d="M48.0773 56.8892C48.0773 56.8892 53.5582 57.8318 51.0424 62.6348" stroke="#353643" stroke-miterlimit="10"/>
<path d="M48.7962 55.1386C48.7962 55.1386 50.1888 54.151 52.0308 54.9141" stroke="#353643" stroke-miterlimit="10"/>
<path d="M73.8194 54.2408C73.8194 54.2408 69.3718 45.4877 61.1505 45.6673C61.1505 45.6673 56.0291 45.6224 51.1772 48.1361C46.8644 50.3805 48.8411 50.6049 48.8411 50.6049C48.8411 50.6049 59.4883 58.0114 70.45 56.575" fill="#709BA6"/>
<path d="M73.8194 54.2408C73.8194 54.2408 69.3718 45.4877 61.1505 45.6673C61.1505 45.6673 56.0291 45.6224 51.1772 48.1361C46.8644 50.3805 48.8411 50.6049 48.8411 50.6049C48.8411 50.6049 59.4883 58.0114 70.45 56.575" stroke="#353643" stroke-miterlimit="10"/>
<path d="M57.9609 54.9141C57.7812 55.4528 57.871 56.0363 58.1406 56.4852C58.3652 56.9341 58.7695 57.2034 59.2188 57.3381C59.668 57.4727 60.1622 57.383 60.5216 57.1136C60.9259 56.8892 61.1955 56.575 61.3752 56.171C61.465 55.9914 61.5549 55.767 61.5998 55.4977C61.6447 55.2283 61.6447 54.959 61.5998 54.6448C61.5549 54.3755 61.465 54.0613 61.2853 53.8368L61.5099 53.5226C61.7795 53.6573 62.0041 53.8817 62.2287 54.151C62.4533 54.4204 62.6331 54.7795 62.7229 55.2283C62.8128 55.6772 62.7678 56.171 62.633 56.6199C62.4983 57.1136 62.2287 57.5625 61.9143 57.8767C61.5998 58.2358 61.2404 58.4603 60.8361 58.5949C60.0723 58.8642 59.3535 58.8194 58.7695 58.55C58.1406 58.2807 57.6464 57.7869 57.3319 57.0687C57.1971 56.7096 57.1073 56.3056 57.1073 55.9017C57.1073 55.4977 57.1971 55.0488 57.3319 54.6448L57.9609 54.9141Z" fill="#EAC8AF" stroke="#353643" stroke-miterlimit="10" stroke-linecap="round" stroke-linejoin="round"/>
<path d="M53.7379 53.4328C53.5133 53.9715 53.5133 54.555 53.693 55.0039C53.8727 55.4528 54.2321 55.8119 54.6364 55.9914C55.0407 56.171 55.5349 56.171 55.9842 55.9465C56.3885 55.767 56.7479 55.4977 56.9725 55.1386C57.1073 54.959 57.1971 54.7346 57.287 54.5101C57.3768 54.2857 57.4217 53.9715 57.4217 53.7022C57.4217 53.3879 57.3319 53.1186 57.242 52.8493L57.5116 52.5351C57.7362 52.7146 57.9608 52.9391 58.1405 53.2533C58.3202 53.5675 58.455 53.9266 58.455 54.3755C58.455 54.8243 58.3652 55.3181 58.1405 55.767C57.9159 56.2159 57.6014 56.6199 57.242 56.9341C56.8826 57.2483 56.4783 57.4278 56.074 57.5176C55.3103 57.6972 54.5915 57.5176 54.0075 57.2034C53.4234 56.8443 53.0191 56.3056 52.7945 55.5426C52.7046 55.1835 52.6597 54.7795 52.7496 54.3755C52.7945 53.9715 52.9293 53.5226 53.1539 53.1635L53.7379 53.4328Z" fill="#EAC8AF" stroke="#353643" stroke-miterlimit="10" stroke-linecap="round" stroke-linejoin="round"/>
<path d="M75.3019 100.879C75.3019 100.879 59.2637 92.4851 62.8128 81.0837C63.9359 77.4478 66.3169 73.1834 62.5432 65.8667" stroke="#353643" stroke-miterlimit="10" stroke-linecap="round" stroke-linejoin="round"/>
<path d="M75.6164 102.764C75.6164 102.764 60.252 100.34 55.7595 90.3305C54.2321 86.9191 53.109 86.0213 59.2637 75.7869C61.1505 72.6448 62.7678 69.368 60.3419 61.5126" stroke="#353643" stroke-miterlimit="10" stroke-linecap="round" stroke-linejoin="round"/>
<path d="M34.2854 98.0063C42.4483 98.0063 49.0657 91.3944 49.0657 83.2383C49.0657 75.0821 42.4483 68.4702 34.2854 68.4702C26.1224 68.4702 19.5051 75.0821 19.5051 83.2383C19.5051 91.3944 26.1224 98.0063 34.2854 98.0063Z" fill="#2D6670" stroke="#353643" stroke-miterlimit="10"/>
<path d="M21.8861 80.545C22.1107 80.5899 22.3353 80.4552 22.4252 80.2308C22.4701 80.0063 22.3353 79.7819 22.1107 79.6921C21.8861 79.6024 21.6614 79.7819 21.5716 80.0063C21.5267 80.2308 21.6614 80.5001 21.8861 80.545Z" fill="#F3F0E8"/>
<path d="M23.7729 76.9989C23.9077 76.8193 23.8178 76.55 23.6381 76.4153C23.4584 76.2807 23.1889 76.3704 23.0541 76.55C22.9193 76.7295 23.0092 77.0438 23.1889 77.1335C23.3686 77.2682 23.6381 77.2233 23.7729 76.9989Z" fill="#F3F0E8"/>
<path d="M25.9742 73.7221C25.8395 73.5425 25.525 73.5425 25.3453 73.6772C25.1656 73.8567 25.1656 74.1261 25.3004 74.2607C25.4801 74.4403 25.7496 74.4403 25.9293 74.3056C26.109 74.171 26.109 73.9016 25.9742 73.7221Z" fill="#F3F0E8"/>
<path d="M28.9842 71.747C28.8944 71.5226 28.6248 71.4328 28.4002 71.5675C28.1756 71.6572 28.0857 71.9266 28.2205 72.151C28.3553 72.3754 28.5799 72.4652 28.8045 72.3306C29.0291 72.2408 29.0741 71.9715 28.9842 71.747Z" fill="#F3F0E8"/>
<path d="M31.9493 70.3555C31.8145 70.3555 31.7246 70.4453 31.6797 70.535C31.6348 70.6248 31.5899 70.7595 31.6348 70.8493C31.6797 70.9839 31.7246 71.0737 31.8145 71.1186C31.9043 71.1635 31.9942 71.2084 32.129 71.2084C32.3536 71.1635 32.4884 70.939 32.4884 70.7146C32.4434 70.4902 32.2188 70.3555 31.9493 70.3555Z" fill="#F3F0E8"/>
<path d="M35.678 70.2208C35.4534 70.1759 35.2288 70.4004 35.1839 70.6248C35.1839 70.8492 35.3186 71.0737 35.5882 71.0737C35.8128 71.1186 36.0374 70.939 36.0374 70.7146C36.0824 70.4901 35.9027 70.2657 35.678 70.2208Z" fill="#F3F0E8"/>
<path d="M39.272 71.1635C39.0474 71.0737 38.7779 71.2083 38.688 71.4328C38.5982 71.6572 38.7329 71.8817 38.9126 71.9714C39.1373 72.0612 39.3619 71.9714 39.4518 71.747C39.6315 71.5226 39.5416 71.2532 39.272 71.1635Z" fill="#F3F0E8"/>
<path d="M42.5067 73.0488C42.327 72.9141 42.0125 72.9141 41.8777 73.1385C41.7429 73.3181 41.7879 73.5874 41.9676 73.7221C42.1473 73.8567 42.4168 73.8567 42.5516 73.6772C42.6864 73.4976 42.6864 73.2283 42.5067 73.0488Z" fill="#F3F0E8"/>
<path d="M45.0224 75.7869C44.8877 75.6074 44.6181 75.5625 44.3935 75.6971C44.2138 75.8318 44.1689 76.1011 44.3036 76.2807C44.4384 76.4602 44.708 76.5051 44.8877 76.4153C45.1123 76.2807 45.2021 75.9665 45.0224 75.7869Z" fill="#F3F0E8"/>
<path d="M46.4151 79.6921C46.6398 79.6473 46.7745 79.3779 46.6847 79.1535C46.5948 78.929 46.3702 78.7944 46.1456 78.8842C45.9209 78.9739 45.7862 79.1984 45.876 79.4228C45.9659 79.6024 46.1905 79.737 46.4151 79.6921Z" fill="#F3F0E8"/>
<path d="M46.9093 82.3854C46.6847 82.3854 46.505 82.6098 46.505 82.8343C46.505 83.0587 46.7296 83.2383 46.9542 83.2383C47.1788 83.2383 47.3585 83.0587 47.3585 82.7894C47.3585 82.5649 47.1339 82.3405 46.9093 82.3854Z" fill="#F3F0E8"/>
<path d="M46.6397 85.9764C46.4151 85.9315 46.1905 86.0662 46.1006 86.2906C46.0557 86.5151 46.1905 86.7395 46.4151 86.8293C46.6397 86.9191 46.8644 86.7395 46.9542 86.5151C46.9991 86.2457 46.8644 86.0213 46.6397 85.9764Z" fill="#F3F0E8"/>
<path d="M45.3818 89.343C45.1572 89.2083 44.8877 89.2981 44.7978 89.4776C44.663 89.6572 44.7529 89.9265 44.9326 90.0612C45.1123 90.1958 45.3818 90.1061 45.5166 89.9265C45.6514 89.7021 45.6065 89.4777 45.3818 89.343Z" fill="#F3F0E8"/>
<path d="M42.5965 92.2158C42.4168 92.3505 42.4168 92.6198 42.5516 92.7993C42.6863 92.9789 43.0008 92.9789 43.1805 92.8442C43.3602 92.6647 43.3602 92.3954 43.2254 92.2607C43.0457 92.0811 42.7762 92.0363 42.5965 92.2158Z" fill="#F3F0E8"/>
<path d="M39.7213 94.1908C39.4967 94.2806 39.4068 94.55 39.5416 94.7744C39.6314 94.9988 39.901 95.0886 40.1256 94.9539C40.3502 94.8642 40.4401 94.5948 40.3053 94.3704C40.2155 94.1908 39.9459 94.1011 39.7213 94.1908Z" fill="#F3F0E8"/>
<path d="M36.7563 95.3579C36.6664 95.3131 36.5766 95.2682 36.4418 95.2682C36.2172 95.3131 36.0824 95.5375 36.0824 95.7619C36.1273 95.9864 36.3519 96.1659 36.5766 96.121C36.7113 96.121 36.8012 96.0312 36.8461 95.9415C36.891 95.8517 36.936 95.717 36.891 95.6273C36.891 95.4926 36.8461 95.4028 36.7563 95.3579Z" fill="#F3F0E8"/>
<path d="M32.9376 95.4028C32.713 95.358 32.4884 95.5375 32.4884 95.7619C32.4435 95.9864 32.6232 96.2108 32.8478 96.2557C33.0724 96.3006 33.297 96.0761 33.342 95.8517C33.342 95.6273 33.1623 95.4477 32.9376 95.4028Z" fill="#F3F0E8"/>
<path d="M29.5682 94.55C29.3436 94.4602 29.119 94.55 29.0291 94.7744C28.9393 94.9988 29.0291 95.2682 29.2538 95.3579C29.4784 95.4477 29.7479 95.313 29.8378 95.0886C29.8827 94.8642 29.7929 94.6397 29.5682 94.55Z" fill="#F3F0E8"/>
<path d="M25.9743 92.8442C25.8395 93.0238 25.8395 93.2931 26.0192 93.4727C26.1989 93.6073 26.5134 93.6073 26.6481 93.3829C26.7829 93.2033 26.738 92.934 26.5583 92.7993C26.4235 92.6198 26.154 92.6647 25.9743 92.8442Z" fill="#F3F0E8"/>
<path d="M23.6382 90.1061C23.4585 90.2407 23.3686 90.5101 23.5034 90.6896C23.6382 90.8692 23.9077 90.914 24.1323 90.7794C24.312 90.6447 24.3569 90.3754 24.2222 90.1958C24.0874 90.0612 23.8178 89.9714 23.6382 90.1061Z" fill="#F3F0E8"/>
<path d="M22.1107 86.8293C21.8861 86.8742 21.7513 87.1435 21.8411 87.3679C21.931 87.5924 22.1556 87.727 22.3802 87.6373C22.6049 87.5475 22.7396 87.323 22.6498 87.0986C22.5599 86.9191 22.3353 86.7844 22.1107 86.8293Z" fill="#F3F0E8"/>
<path d="M22.0658 83.6871C22.0658 83.4627 21.8411 83.2831 21.6165 83.2831C21.3919 83.2831 21.2122 83.4627 21.2122 83.732C21.2122 83.9565 21.4368 84.1809 21.6614 84.136C21.8861 84.0911 22.0658 83.9116 22.0658 83.6871Z" fill="#F3F0E8"/>
<path d="M34.2854 93.5175C39.9672 93.5175 44.5732 88.9153 44.5732 83.2383C44.5732 77.5612 39.9672 72.959 34.2854 72.959C28.6036 72.959 23.9976 77.5612 23.9976 83.2383C23.9976 88.9153 28.6036 93.5175 34.2854 93.5175Z" fill="#709BA6" stroke="#353643" stroke-miterlimit="10"/>
<path d="M34.2854 80.4552C33.0724 77.4477 31.0059 78.1659 31.0059 78.1659C28.8045 78.929 30.0175 82.6996 30.0175 82.6996" stroke="#353643" stroke-width="2" stroke-miterlimit="10" stroke-linecap="round"/>
<path d="M34.2854 80.2757C35.4984 77.2682 37.5649 77.9864 37.5649 77.9864C39.7213 78.7495 38.5533 82.5649 38.5533 82.5649" stroke="#353643" stroke-width="2" stroke-miterlimit="10" stroke-linecap="round"/>
<path d="M34.2854 89.0737V80.0961" stroke="#353643" stroke-width="2" stroke-miterlimit="10" stroke-linecap="round"/>
</svg>
