<svg width="135" height="135" viewBox="0 0 135 135" fill="none" xmlns="http://www.w3.org/2000/svg">
<path d="M135 0H0V135H135V0Z" fill="#FFF1E1"/>
<path d="M94.2093 96.159C108.964 81.4167 108.964 57.5146 94.2093 42.7722C79.4547 28.0298 55.5327 28.0298 40.7781 42.7722C26.0235 57.5146 26.0235 81.4167 40.7781 96.159C55.5327 110.901 79.4547 110.901 94.2093 96.159Z" fill="#EBB264"/>
<path d="M103.605 76.34C103.47 76.2053 103.29 76.0706 103.11 75.936L93.3616 70.5495C93.0921 70.4148 92.8225 70.325 92.553 70.2801L90.9806 70.1455C92.3733 69.7864 93.6761 69.2926 94.7992 68.7539C94.8441 68.7539 94.8442 68.7091 94.8891 68.7091C96.7759 67.8113 98.3034 66.6442 99.2917 65.2976C99.9656 64.4447 100.1 63.3225 99.7859 62.2452L102.886 53.4472C105.941 50.3051 106.615 45.8612 106.659 45.6368C106.659 45.5919 106.659 45.5919 106.659 45.547C107.603 36.345 100.954 30.2852 99.9656 29.4323C97.944 27.3226 95.6977 25.8862 93.2718 25.2129C90.9806 24.5845 89.2734 24.8089 88.6445 24.9436C88.2851 25.0333 87.2069 25.2578 86.8026 26.38C86.4432 27.5022 86.9823 28.355 88.1054 29.7914L89.2735 32.5745L89.1836 32.4398C88.5546 31.5869 87.5214 31.1829 86.4881 31.3176C85.4548 31.4523 84.6012 32.1705 84.1969 33.158C83.3433 35.4473 83.568 39.2178 83.6129 39.6218C83.6129 39.6667 83.6129 39.7116 83.6129 39.7565C84.3317 44.6941 87.3866 48.4198 89.5879 50.5744L88.914 53.3126C88.1503 53.537 87.4764 53.941 86.9373 54.5694L84.4216 57.5769C83.4781 57.128 82.4449 56.8138 81.2768 56.5894L80.8725 55.6019C81.6811 54.6592 82.1304 53.4024 82.1304 52.1455C82.1304 49.138 79.6595 46.6692 76.6495 46.6692C73.6395 46.6692 71.1687 49.138 71.1687 52.1455C71.1687 53.4024 71.573 54.5694 72.3367 55.5121C72.0222 55.961 71.7976 56.4098 71.573 56.7689C70.0455 57.0383 68.8775 57.3076 68.2036 57.4871C67.6196 57.3525 66.5863 57.0831 65.2835 56.8587L64.7893 55.6916C65.598 54.7041 66.0921 53.4921 66.0921 52.1455C66.0921 49.138 63.6213 46.6692 60.6113 46.6692C57.6013 46.6692 55.1304 49.138 55.1304 52.1455C55.1304 53.3575 55.5348 54.5245 56.2536 55.4672C56.0289 55.8712 55.8043 56.1854 55.6246 56.4996C53.8276 56.8138 52.2552 57.3525 50.9973 58.1156L47.9874 54.5245C47.4483 53.8961 46.7744 53.4921 46.0107 53.2677L45.3368 50.5295C47.583 48.3749 50.593 44.6492 51.3118 39.7116C51.3118 39.6667 51.3118 39.6218 51.3118 39.5769C51.3567 39.173 51.5814 35.3575 50.7278 33.1131C50.3684 32.1256 49.4699 31.4523 48.4366 31.2727C47.4033 31.1381 46.3701 31.542 45.7411 32.3949L45.6513 32.5296L46.8193 29.7465C47.9424 28.3101 48.5265 27.4573 48.1221 26.3351C47.7178 25.2129 46.6396 24.9436 46.2802 24.8987C45.6513 24.764 43.9441 24.5396 41.6529 25.168C39.227 25.8413 36.9807 27.2777 34.9591 29.3874C33.9708 30.2403 27.3219 36.3001 28.2653 45.5021C28.2653 45.547 28.2653 45.547 28.2653 45.5919C28.3102 45.7714 28.9841 50.2153 32.039 53.4023L35.1388 62.2003C34.8243 63.2776 34.9591 64.3998 35.633 65.2527C36.6663 66.5993 38.1488 67.7664 40.0356 68.6642C40.0806 68.6642 40.0806 68.7091 40.1255 68.7091C41.2486 69.2477 42.5514 69.6966 43.9441 70.1006L42.3717 70.2352C42.1022 70.2352 41.7877 70.325 41.5631 70.5046L31.8144 75.8911C31.6347 75.9809 31.455 76.1155 31.3202 76.2951C25.6596 82.2651 24.4467 86.7539 24.4017 89.4472C24.4017 90.5694 25.0307 91.512 26.064 91.916C27.0972 92.32 28.2653 92.0058 28.9392 91.1978L36.4416 82.4447L43.8543 78.1355L46.5498 77.8661L44.3484 78.5844C44.1687 78.6292 43.9441 78.7639 43.8093 78.8537L36.0822 84.5544C35.7678 84.7789 35.4533 85.0931 35.2287 85.3624C32.4433 88.9534 31.5448 93.0831 31.2303 95.2377C31.0506 96.3599 31.6796 97.4821 32.7129 97.9309C33.7461 98.4247 34.9591 98.1554 35.7228 97.2576L41.5182 90.4347L46.415 86.709L41.4283 92.7689C41.2935 92.9484 41.1588 93.128 41.0689 93.3524C38.9574 98.7838 38.9125 102.824 39.2719 105.203C39.4067 106.325 40.3052 107.178 41.4283 107.312C42.5514 107.447 43.6296 106.819 44.034 105.786L47.1787 98.0656L49.8293 94.5644C49.0206 96.6292 48.1221 99.1429 48.1671 100.624C48.1671 100.938 48.1671 103.228 48.3468 105.607C48.6163 108.928 49.2453 112.026 51.5814 112.475C51.7611 112.519 51.8958 112.519 52.0755 112.519C52.6146 112.519 53.1537 112.34 53.603 111.981C55.0855 110.814 55.3551 108.12 55.6246 102.599C55.6695 101.971 55.6695 101.432 55.7145 100.983L57.3318 95.911L59.9374 93.5768C60.0722 93.5768 60.207 93.5768 60.3867 93.5768C60.4765 93.5768 60.5664 93.5768 60.6562 93.5768H60.7011C60.791 93.5768 60.8808 93.5769 60.9707 93.532H61.0156C61.1055 93.532 61.1953 93.4871 61.2852 93.4871H61.3301H61.375C61.4649 93.4871 61.5098 93.4422 61.5996 93.4422L61.6895 93.3973C61.7793 93.3973 61.8243 93.3524 61.9141 93.3524L62.0489 93.3075C62.1387 93.3075 62.1837 93.2626 62.2735 93.2177L62.4083 93.1729C62.4981 93.128 62.5431 93.128 62.6329 93.0831L62.7677 93.0382C62.8575 92.9933 62.9025 92.9933 62.9923 92.9484L63.172 92.9035C63.2619 92.8586 63.3068 92.8586 63.3966 92.8138L63.5763 92.724C63.6662 92.6791 63.7111 92.6791 63.801 92.6342L63.9807 92.5444C64.0705 92.4995 64.1154 92.4995 64.2053 92.4546C64.2951 92.4098 64.3401 92.4098 64.4299 92.3649L65.0589 92.0507C65.1487 92.0058 65.1936 91.9609 65.2835 91.9609L65.5081 91.8262C65.598 91.7813 65.6878 91.7365 65.8226 91.6467L66.0023 91.5569C66.1371 91.4671 66.3168 91.3773 66.4515 91.2876C66.6762 91.1978 67.4399 91.1978 68.0688 91.1978H68.2485H68.4282C69.0572 91.1978 69.8209 91.1978 70.0455 91.2876C70.1803 91.3773 70.36 91.4671 70.4948 91.5569L70.6296 91.6467C70.7194 91.6916 70.8542 91.7813 70.944 91.8262L71.1237 91.916C71.2136 91.9609 71.3034 92.0058 71.3484 92.0507L71.9773 92.3649C72.0672 92.4098 72.1121 92.4546 72.202 92.4546L72.3816 92.5444C72.4715 92.5893 72.5164 92.5893 72.6063 92.6342C72.6512 92.6791 72.741 92.6791 72.786 92.724C72.8758 92.7689 72.9207 92.7689 72.9657 92.8138C73.0106 92.8586 73.1004 92.8586 73.1454 92.9035C73.1903 92.9484 73.2802 92.9484 73.3251 92.9933C73.37 93.0382 73.4598 93.0382 73.5048 93.0382C73.5497 93.0831 73.6395 93.0831 73.6845 93.0831L74.0439 93.2177H74.0888C74.1337 93.2177 74.1786 93.2626 74.2236 93.2626L74.4033 93.3075C74.4482 93.3075 74.4931 93.3524 74.583 93.3524C74.6279 93.3524 74.6728 93.3973 74.7627 93.3973H74.8076L77.6379 95.8661L79.3001 100.938C79.345 101.387 79.345 101.926 79.3899 102.554C79.6595 108.076 79.9291 110.769 81.4116 111.936C81.9956 112.385 82.7144 112.564 83.4332 112.43C85.7693 111.981 86.3983 108.839 86.6678 105.562C86.8924 103.183 86.8475 100.894 86.8475 100.579C86.8475 99.098 85.9939 96.5843 85.1853 94.5195L87.8358 98.0207L90.9806 105.741C91.3849 106.774 92.4631 107.402 93.5863 107.268C94.7094 107.133 95.563 106.28 95.7427 105.158C96.0571 102.734 96.0122 98.7389 93.9456 93.3075C93.8558 93.0831 93.7659 92.9035 93.5863 92.724L88.5996 86.7988L93.4964 90.5245L99.2917 97.3474C100.055 98.2452 101.224 98.5145 102.302 98.0207C103.335 97.527 103.964 96.4497 103.784 95.3275C103.47 93.1729 102.526 89.0432 99.7859 85.4522C99.5613 85.138 99.2468 84.8686 98.9323 84.6442L91.2052 78.9435C91.0255 78.8088 90.8458 78.719 90.6661 78.6741L88.4648 77.9559L91.1603 78.2253L98.5729 82.5345L106.075 91.2876C106.794 92.0956 107.962 92.4098 108.951 92.0058C109.984 91.6018 110.658 90.6591 110.613 89.5369C110.478 86.8437 109.22 82.3549 103.605 76.34Z" fill="#EBB264"/>
<path d="M90.2618 56.4996L91.7443 50.2602C91.7443 50.2602 99.6511 49.8113 100.999 52.5944L97.5846 62.335C97.5846 62.3799 90.4415 59.2378 90.2618 56.4996Z" fill="#2D6670" stroke="#353643" stroke-miterlimit="10"/>
<path d="M92.6877 50.754C92.6877 50.754 86.5779 46.3101 85.5896 39.5769C85.5896 39.5769 85.32 35.8962 86.0388 33.966C86.2635 33.3376 87.0721 33.2478 87.4765 33.7415L95.9223 44.9635C95.9223 44.9635 96.4165 51.158 92.6877 50.754Z" fill="#A8494C" stroke="#353643" stroke-miterlimit="10"/>
<path d="M92.1936 47.4772C92.4182 46.9385 92.7327 46.3999 93.0921 45.7714L95.6977 42.9435L89.8575 28.8937C89.8575 28.8937 88.6445 27.3675 88.6894 27.1879C88.7343 27.0084 93.6312 25.8413 98.528 31.0483C98.528 31.0483 105.491 36.7041 104.638 45.4572C104.638 45.4572 103.694 52.1006 98.4831 54.0756C94.305 55.6467 90.4415 51.4722 92.1936 47.4772Z" fill="#BF6A58" stroke="#353643" stroke-miterlimit="10"/>
<path d="M85.0505 69.113C85.0505 69.113 94.1703 68.6642 97.6295 64.1305C98.1237 63.5021 97.8092 62.5594 97.2701 62.0208L91.2951 55.8712C90.5314 55.0632 89.2285 55.1081 88.5097 55.961L82.6246 62.9634L85.0505 69.113Z" fill="#A8494C" stroke="#353643" stroke-miterlimit="10"/>
<path d="M86.4881 58.3849C86.4881 58.3849 94.4398 60.7639 93.9456 66.9584" stroke="#353643" stroke-miterlimit="10"/>
<path d="M85.8591 59.1031C85.8591 59.1031 89.9024 64.1305 89.3633 68.4846" stroke="#353643" stroke-miterlimit="10"/>
<path d="M44.7078 56.4996L43.2253 50.2602C43.2253 50.2602 35.3185 49.8113 33.9708 52.5944L37.3851 62.335C37.3851 62.3799 44.5281 59.2378 44.7078 56.4996Z" fill="#2D6670" stroke="#353643" stroke-miterlimit="10"/>
<path d="M42.237 50.754C42.237 50.754 48.3468 46.3101 49.3351 39.5769C49.3351 39.5769 49.6047 35.8962 48.8859 33.966C48.6612 33.3376 47.8526 33.2478 47.4483 33.7415L39.0024 44.9635C39.0024 44.9635 38.5082 51.158 42.237 50.754Z" fill="#A8494C" stroke="#353643" stroke-miterlimit="10"/>
<path d="M42.7312 47.4772C42.5065 46.9385 42.192 46.3999 41.8327 45.7714L39.227 42.9435L45.0673 28.8937C45.0673 28.8937 46.2802 27.3675 46.2353 27.1879C46.1904 27.0084 41.2936 25.8413 36.3967 31.0483C36.3967 31.0483 29.4333 36.7041 30.2869 45.4572C30.2869 45.4572 31.2303 52.1006 36.4416 54.0756C40.6197 55.6467 44.5282 51.4722 42.7312 47.4772Z" fill="#BF6A58" stroke="#353643" stroke-miterlimit="10"/>
<path d="M49.8742 69.113C49.8742 69.113 40.7544 68.6642 37.2952 64.1305C36.801 63.5021 37.1155 62.5594 37.6546 62.0208L43.6296 55.8712C44.3934 55.0632 45.6962 55.1081 46.415 55.961L52.3002 62.9634L49.8742 69.113Z" fill="#A8494C" stroke="#353643" stroke-miterlimit="10"/>
<path d="M48.4366 58.3849C48.4366 58.3849 40.4849 60.7639 40.9791 66.9584" stroke="#353643" stroke-miterlimit="10"/>
<path d="M49.0656 59.1031C49.0656 59.1031 45.0223 64.1305 45.5614 68.4846" stroke="#353643" stroke-miterlimit="10"/>
<path d="M57.0173 58.5196C56.8825 58.2951 58.9041 55.3325 58.9041 55.3325H62.4083L64.0705 59.2826C64.0256 59.2826 59.7577 63.0981 57.0173 58.5196Z" fill="#A8494C" stroke="#353643" stroke-miterlimit="10"/>
<path d="M60.6113 55.7365C62.5218 55.7365 64.0705 54.189 64.0705 52.2802C64.0705 50.3713 62.5218 48.8238 60.6113 48.8238C58.7008 48.8238 57.1521 50.3713 57.1521 52.2802C57.1521 54.189 58.7008 55.7365 60.6113 55.7365Z" fill="#EAC8AF" stroke="#353643" stroke-miterlimit="10"/>
<path d="M63.1271 52.2802C63.1271 53.6717 62.004 54.7939 60.6113 54.7939C59.2186 54.7939 58.0955 53.6717 58.0955 52.2802C58.0955 50.8886 59.2186 49.7664 60.6113 49.7664C62.004 49.7664 63.1271 50.8886 63.1271 52.2802Z" fill="#353643"/>
<path d="M73.1004 58.5196C72.9657 58.2951 74.9873 55.3325 74.9873 55.3325H78.4915L80.1537 59.2826C80.1537 59.2826 75.8409 63.0981 73.1004 58.5196Z" fill="#A8494C" stroke="#353643" stroke-miterlimit="10"/>
<path d="M51.806 75.3973L43.2702 76.2053L35.1837 80.9185L27.4566 89.9409C27.0972 90.3449 26.4683 90.0756 26.4683 89.5818C26.5132 87.6068 27.4117 83.5669 32.8476 77.7764L42.5964 72.3899L51.222 71.7165L51.806 75.3973Z" fill="#BF6A58" stroke="#353643" stroke-miterlimit="10"/>
<path d="M42.5964 72.345L43.3152 76.2053" stroke="#353643" stroke-miterlimit="10"/>
<path d="M32.8476 77.7315L35.2287 80.9185" stroke="#353643" stroke-miterlimit="10"/>
<path d="M42.3268 72.4796L43.405 76.2053L51.806 75.3973L51.222 71.6716L42.5964 72.345L42.3268 72.4796Z" fill="#A8494C" stroke="#353643" stroke-miterlimit="10"/>
<path d="M54.0972 82.0407L46.999 83.8811L40.1704 89.088L34.2403 96.0456C33.8809 96.4496 33.252 96.1354 33.2969 95.6416C33.6114 93.5319 34.4649 89.896 36.8909 86.709C37.0257 86.5295 37.1604 86.3948 37.3401 86.305L45.0672 80.6043L52.5248 78.0906L54.0972 82.0407Z" fill="#BF6A58" stroke="#353643" stroke-miterlimit="10"/>
<path d="M45.0672 80.6043L46.999 83.8811" stroke="#353643" stroke-miterlimit="10"/>
<path d="M37.2952 86.2601L40.1255 89.088" stroke="#353643" stroke-miterlimit="10"/>
<path d="M52.5248 78.0906L45.2469 80.5594L46.8193 84.0157L46.999 83.8811L54.0972 82.0407L52.5248 78.0906Z" fill="#A8494C" stroke="#353643" stroke-miterlimit="10"/>
<path d="M56.2536 86.8886C55.8043 87.0232 50.2336 90.6142 50.2336 90.6142L45.3368 97.0332L42.1022 105.023C41.9225 105.427 41.2935 105.382 41.2486 104.933C40.9791 103.048 40.9341 99.3224 42.9558 94.0706L48.2569 87.7863L54.2319 84.1055L56.2536 86.8886Z" fill="#BF6A58" stroke="#353643" stroke-miterlimit="10"/>
<path d="M48.3018 87.7863L50.2785 90.6143" stroke="#353643" stroke-miterlimit="10"/>
<path d="M42.9558 94.0706L45.6962 96.5843" stroke="#353643" stroke-miterlimit="10"/>
<path d="M56.2536 86.8886L54.2319 84.1055L48.3018 87.7863L50.4133 90.5245C51.177 90.0307 55.8492 87.0232 56.2536 86.8886Z" fill="#A8494C" stroke="#353643" stroke-miterlimit="10"/>
<path d="M58.0506 88.8636L52.8842 92.4995C52.8842 92.4995 50.0989 98.5145 50.1438 100.579C50.1438 100.579 50.0539 110.095 51.9408 110.455C53.4233 110.769 53.4682 103.362 53.6928 100.579L55.5797 94.7439L60.2968 90.5694L58.0506 88.8636Z" fill="#BF6A58" stroke="#353643" stroke-miterlimit="10"/>
<path d="M52.8842 92.5444L55.5797 94.7439" stroke="#353643" stroke-miterlimit="10"/>
<path d="M50.1438 100.579H53.6929" stroke="#353643" stroke-miterlimit="10"/>
<path d="M58.0506 88.8636L53.1537 92.3649L55.4898 95.0581L55.5797 94.7439L60.2968 90.5694L58.0506 88.8636Z" fill="#A8494C" stroke="#353643" stroke-miterlimit="10"/>
<path d="M83.1637 75.3973L91.6994 76.2053L99.7859 80.9185L107.513 89.9409C107.872 90.3449 108.501 90.0756 108.501 89.5818C108.456 87.6068 107.558 83.5669 102.122 77.7764L92.3733 72.3899L83.7477 71.7165L83.1637 75.3973Z" fill="#BF6A58" stroke="#353643" stroke-miterlimit="10"/>
<path d="M92.3733 72.345L91.6545 76.2053" stroke="#353643" stroke-miterlimit="10"/>
<path d="M102.122 77.7315L99.741 80.9185" stroke="#353643" stroke-miterlimit="10"/>
<path d="M92.6428 72.4796L91.5646 76.2053L83.1637 75.3973L83.7027 71.6716L92.3733 72.345L92.6428 72.4796Z" fill="#A8494C" stroke="#353643" stroke-miterlimit="10"/>
<path d="M80.8725 82.0408L88.0156 83.9261L94.8442 89.133L100.774 96.0906C101.134 96.4946 101.763 96.1804 101.718 95.6866C101.403 93.5769 100.55 89.941 98.1237 86.754C97.9889 86.5745 97.8541 86.4398 97.6744 86.35L89.9473 80.6493L82.4898 78.1356L80.8725 82.0408Z" fill="#BF6A58" stroke="#353643" stroke-miterlimit="10"/>
<path d="M89.9024 80.6043L87.9706 83.8811" stroke="#353643" stroke-miterlimit="10"/>
<path d="M97.6744 86.2601L94.8441 89.088" stroke="#353643" stroke-miterlimit="10"/>
<path d="M82.4448 78.0906L89.7227 80.5594L88.1503 84.0157L87.9706 83.8811L80.8725 82.0407L82.4448 78.0906Z" fill="#A8494C" stroke="#353643" stroke-miterlimit="10"/>
<path d="M78.7161 86.8886C79.1653 87.0232 84.736 90.6142 84.736 90.6142L89.6328 97.0332L92.8674 105.023C93.0471 105.427 93.6761 105.382 93.721 104.933C93.9906 103.048 94.0355 99.3224 92.0139 94.0706L86.7127 87.7863L80.7377 84.1055L78.7161 86.8886Z" fill="#BF6A58" stroke="#353643" stroke-miterlimit="10"/>
<path d="M86.6678 87.7863L84.6911 90.6143" stroke="#353643" stroke-miterlimit="10"/>
<path d="M92.0139 94.0706L89.2735 96.5843" stroke="#353643" stroke-miterlimit="10"/>
<path d="M78.7161 86.8886L80.7377 84.1055L86.6678 87.7863L84.5563 90.5245C83.7926 90.0307 79.1204 87.0232 78.7161 86.8886Z" fill="#A8494C" stroke="#353643" stroke-miterlimit="10"/>
<path d="M76.9191 88.8636L82.0854 92.4995C82.0854 92.4995 84.8708 98.5145 84.8259 100.579C84.8259 100.579 84.9157 110.095 83.0289 110.455C81.5463 110.769 81.5014 103.362 81.2768 100.579L79.3899 94.7439L74.6728 90.5694L76.9191 88.8636Z" fill="#BF6A58" stroke="#353643" stroke-miterlimit="10"/>
<path d="M82.0854 92.5444L79.3899 94.7439" stroke="#353643" stroke-miterlimit="10"/>
<path d="M84.8259 100.579H81.2768" stroke="#353643" stroke-miterlimit="10"/>
<path d="M76.9191 88.8636L81.8159 92.3649L79.4798 95.0581L79.3899 94.7439L74.6728 90.5694L76.9191 88.8636Z" fill="#A8494C" stroke="#353643" stroke-miterlimit="10"/>
<path d="M68.2036 59.7315C68.2036 59.7315 48.7511 53.9859 48.8409 66.5095C48.8859 73.0183 51.7611 84.1953 57.7361 90.3449C59.0838 91.7364 60.2968 92.5444 65.4183 89.5818C66.0472 89.2227 66.9457 89.2676 68.2036 89.2676C69.4615 89.2676 70.4049 89.2676 70.989 89.5818C76.1104 92.5893 77.3234 91.7364 78.6711 90.3449C84.6911 84.1953 87.5214 73.0632 87.5663 66.5095C87.6561 53.9859 68.2036 59.7315 68.2036 59.7315Z" stroke="#353643" stroke-miterlimit="10"/>
<path d="M68.2036 59.7315C68.2036 59.7315 48.7511 53.9859 48.8409 66.5095C48.8859 73.0183 51.7611 84.1953 57.7361 90.3449C59.0838 91.7364 60.2968 92.5444 65.4183 89.5818C66.0472 89.2227 66.9457 89.2676 68.2036 89.2676C69.4615 89.2676 70.4049 89.2676 70.989 89.5818C76.1104 92.5893 77.3234 91.7364 78.6711 90.3449C84.6911 84.1953 87.5214 73.0632 87.5663 66.5095C87.6561 53.9859 68.2036 59.7315 68.2036 59.7315Z" fill="#BF6A58" stroke="#353643" stroke-miterlimit="10"/>
<path d="M70.989 89.5369C73.37 90.9284 74.9424 91.512 76.0206 91.5569C74.2685 89.5818 72.157 86.6192 72.1121 83.4322C72.0672 78.4946 73.9091 64.2203 68.1587 63.951C62.4083 64.2203 64.2502 78.4946 64.2053 83.4322C64.1604 86.5744 62.0489 89.5818 60.2968 91.5569C61.4199 91.512 62.9474 90.9284 65.3733 89.5369C66.0023 89.1778 66.9008 89.2227 68.1587 89.2227C69.4615 89.1778 70.4049 89.1778 70.989 89.5369Z" fill="#2D6670" stroke="#353643" stroke-miterlimit="10"/>
<path d="M69.1021 85.9908C69.0123 86.3499 68.563 86.5295 68.2036 86.3948C67.7993 86.2601 67.5747 85.901 67.7094 85.5419C67.7993 85.1828 68.2485 85.0033 68.6079 85.138C68.9673 85.2726 69.192 85.6317 69.1021 85.9908Z" fill="#EAC8AF"/>
<path d="M69.2818 81.5918C69.1471 82.0407 68.6079 82.2651 68.1138 82.0856C67.6196 81.906 67.3051 81.4123 67.4399 80.9634C67.5747 80.5145 68.1138 80.2901 68.6079 80.4696C69.1471 80.6941 69.4166 81.1878 69.2818 81.5918Z" fill="#EAC8AF"/>
<path d="M69.1021 77.103C69.0123 77.4621 68.563 77.6417 68.2036 77.507C67.7993 77.3724 67.5747 77.0133 67.7094 76.6542C67.7993 76.2951 68.2485 76.1155 68.6079 76.2502C68.9673 76.3849 69.192 76.7888 69.1021 77.103Z" fill="#EAC8AF"/>
<path d="M69.1021 68.2602C69.0123 68.6193 68.563 68.7988 68.2036 68.6641C67.7993 68.5295 67.5747 68.1704 67.7094 67.8113C67.7993 67.4522 68.2485 67.2727 68.6079 67.4073C68.9673 67.542 69.192 67.9011 69.1021 68.2602Z" fill="#EAC8AF"/>
<path d="M69.2818 72.7489C69.1471 73.1978 68.6079 73.4222 68.1138 73.2427C67.6196 73.0631 67.3051 72.5694 67.4399 72.1205C67.5747 71.6716 68.1138 71.4472 68.6079 71.6268C69.1471 71.8063 69.4166 72.3001 69.2818 72.7489Z" fill="#EAC8AF"/>
<path d="M76.6046 55.7365C78.5151 55.7365 80.0638 54.189 80.0638 52.2802C80.0638 50.3713 78.5151 48.8238 76.6046 48.8238C74.6941 48.8238 73.1454 50.3713 73.1454 52.2802C73.1454 54.189 74.6941 55.7365 76.6046 55.7365Z" fill="#EAC8AF" stroke="#353643" stroke-miterlimit="10"/>
<path d="M76.6046 54.7939C77.994 54.7939 79.1204 53.6684 79.1204 52.2802C79.1204 50.8919 77.994 49.7664 76.6046 49.7664C75.2151 49.7664 74.0888 50.8919 74.0888 52.2802C74.0888 53.6684 75.2151 54.7939 76.6046 54.7939Z" fill="#353643"/>
<path d="M67.4848 41.9111C75.6478 41.9111 82.2651 35.2992 82.2651 27.143C82.2651 18.9869 75.6478 12.375 67.4848 12.375C59.3219 12.375 52.7045 18.9869 52.7045 27.143C52.7045 35.2992 59.3219 41.9111 67.4848 41.9111Z" fill="#2D6670" stroke="#353643" stroke-miterlimit="10"/>
<path d="M55.1304 24.4498C55.3551 24.4947 55.5797 24.36 55.6695 24.1356C55.7145 23.9111 55.5797 23.6867 55.3551 23.5969C55.1304 23.5072 54.9058 23.6867 54.816 23.9111C54.7261 24.1356 54.8609 24.4049 55.1304 24.4498Z" fill="#F3F0E8"/>
<path d="M56.9724 20.9037C57.1071 20.7241 57.0173 20.4548 56.8376 20.3201C56.6579 20.1855 56.3883 20.2752 56.2536 20.4548C56.1188 20.6792 56.2086 20.9485 56.3883 21.0383C56.568 21.173 56.8376 21.1281 56.9724 20.9037Z" fill="#F3F0E8"/>
<path d="M59.1737 17.582C59.0389 17.4024 58.7244 17.4024 58.5447 17.5371C58.365 17.7166 58.365 17.986 58.4998 18.1206C58.6795 18.3002 58.9491 18.3002 59.1288 18.1655C59.3085 18.0757 59.3534 17.7615 59.1737 17.582Z" fill="#F3F0E8"/>
<path d="M62.2286 15.6518C62.1387 15.4274 61.8692 15.3376 61.6446 15.4723C61.4199 15.562 61.3301 15.8314 61.4649 16.0558C61.5996 16.2802 61.8243 16.37 62.0489 16.2353C62.2286 16.1007 62.3184 15.8762 62.2286 15.6518Z" fill="#F3F0E8"/>
<path d="M65.1487 14.2603C65.0139 14.2603 64.9241 14.3501 64.8792 14.4398C64.8342 14.5296 64.7893 14.6643 64.8342 14.7541C64.8792 14.8887 64.9241 14.9785 65.0139 15.0234C65.1038 15.0683 65.1936 15.1132 65.3284 15.1132C65.553 15.0683 65.6878 14.8438 65.6878 14.6194C65.6429 14.3949 65.4183 14.2603 65.1487 14.2603Z" fill="#F3F0E8"/>
<path d="M68.8775 14.1256C68.6529 14.0807 68.4282 14.3052 68.3833 14.5296C68.3833 14.754 68.5181 14.9785 68.7876 14.9785C69.0123 15.0234 69.2369 14.8438 69.2369 14.6194C69.2818 14.3949 69.147 14.1705 68.8775 14.1256Z" fill="#F3F0E8"/>
<path d="M72.5164 15.0683C72.2918 14.9785 72.0222 15.1131 71.9324 15.3376C71.8425 15.562 71.9773 15.7865 72.157 15.8762C72.3816 15.966 72.6063 15.8762 72.6961 15.6518C72.8309 15.4274 72.741 15.158 72.5164 15.0683Z" fill="#F3F0E8"/>
<path d="M75.7061 16.9535C75.5264 16.8189 75.2119 16.8189 75.0771 17.0433C74.9424 17.2229 74.9873 17.4922 75.167 17.6269C75.3467 17.7615 75.6162 17.7615 75.751 17.582C75.9307 17.4024 75.8858 17.1331 75.7061 16.9535Z" fill="#F3F0E8"/>
<path d="M78.2219 19.6917C78.0871 19.5121 77.8176 19.4673 77.5929 19.6019C77.4132 19.7366 77.3683 20.0059 77.5031 20.1855C77.6379 20.365 77.9074 20.4099 78.0871 20.3201C78.3117 20.1855 78.4016 19.8712 78.2219 19.6917Z" fill="#F3F0E8"/>
<path d="M79.6146 23.552C79.8392 23.5071 79.974 23.2378 79.8841 23.0134C79.7943 22.7889 79.5696 22.6543 79.345 22.744C79.1204 22.8338 78.9856 23.0583 79.0755 23.2827C79.1653 23.5071 79.3899 23.6418 79.6146 23.552Z" fill="#F3F0E8"/>
<path d="M80.1087 26.2902C79.8841 26.2902 79.7044 26.5146 79.7044 26.7391C79.7044 26.9635 79.929 27.1431 80.1537 27.1431C80.3783 27.1431 80.558 26.9635 80.558 26.6942C80.558 26.4697 80.3334 26.2453 80.1087 26.2902Z" fill="#F3F0E8"/>
<path d="M79.8392 29.8812C79.6146 29.8363 79.3899 29.971 79.3001 30.1954C79.2552 30.4198 79.3899 30.6443 79.6146 30.7341C79.8392 30.8238 80.0638 30.6443 80.1537 30.4198C80.2435 30.1505 80.1087 29.9261 79.8392 29.8812Z" fill="#F3F0E8"/>
<path d="M78.5813 33.2478C78.3567 33.1131 78.0871 33.2029 77.9973 33.3825C77.8625 33.562 77.9523 33.8313 78.132 33.966C78.3117 34.1007 78.5813 34.0109 78.7161 33.8313C78.8508 33.6069 78.8059 33.3824 78.5813 33.2478Z" fill="#F3F0E8"/>
<path d="M75.7959 36.1206C75.6162 36.2552 75.6162 36.5246 75.751 36.7041C75.8858 36.8837 76.2003 36.8837 76.38 36.749C76.5597 36.5695 76.5597 36.3001 76.4249 36.1655C76.2452 35.941 75.9756 35.941 75.7959 36.1206Z" fill="#F3F0E8"/>
<path d="M72.9657 38.0956C72.741 38.1854 72.6512 38.4547 72.786 38.6792C72.8758 38.9036 73.1454 38.9934 73.37 38.8587C73.5946 38.769 73.6845 38.4996 73.5497 38.2752C73.4149 38.0956 73.1454 38.0059 72.9657 38.0956Z" fill="#F3F0E8"/>
<path d="M69.9557 39.2627C69.8658 39.2178 69.776 39.173 69.6412 39.173C69.4166 39.2178 69.2818 39.4423 69.2818 39.6667C69.3267 39.8912 69.5514 40.0707 69.776 40.0258C69.9108 40.0258 70.0006 39.936 70.0455 39.8463C70.0905 39.7565 70.1354 39.6218 70.0905 39.5321C70.1354 39.3974 70.0455 39.3076 69.9557 39.2627Z" fill="#F3F0E8"/>
<path d="M66.182 39.3076C65.9574 39.2627 65.7327 39.4423 65.7327 39.6667C65.6878 39.8912 65.8675 40.1156 66.0921 40.1605C66.3168 40.2054 66.5414 39.9809 66.5863 39.7565C66.5863 39.5321 66.4066 39.3525 66.182 39.3076Z" fill="#F3F0E8"/>
<path d="M62.8126 38.4548C62.588 38.365 62.3634 38.4548 62.2735 38.6792C62.1837 38.9036 62.2735 39.1729 62.4981 39.2627C62.7228 39.3525 62.9923 39.2178 63.0822 38.9934C63.1271 38.769 62.9923 38.5445 62.8126 38.4548Z" fill="#F3F0E8"/>
<path d="M59.2186 36.749C59.0838 36.9286 59.0838 37.1979 59.2635 37.3775C59.4432 37.5121 59.7577 37.5121 59.8925 37.2877C60.0273 37.1081 59.9823 36.8388 59.8026 36.7041C59.6229 36.5246 59.3534 36.5246 59.2186 36.749Z" fill="#F3F0E8"/>
<path d="M56.8376 34.0109C56.6579 34.1455 56.568 34.4148 56.7028 34.5944C56.8376 34.7739 57.1071 34.8188 57.3318 34.6842C57.5115 34.5495 57.5564 34.2802 57.4216 34.1006C57.2868 33.966 57.0622 33.8762 56.8376 34.0109Z" fill="#F3F0E8"/>
<path d="M55.3551 30.7341C55.1304 30.7789 54.9957 31.0483 55.0855 31.2727C55.1754 31.4972 55.4 31.6318 55.6246 31.542C55.8492 31.4523 55.984 31.2278 55.8942 31.0034C55.8043 30.779 55.5797 30.6892 55.3551 30.7341Z" fill="#F3F0E8"/>
<path d="M55.2652 27.5919C55.2652 27.3675 55.0406 27.1879 54.816 27.1879C54.5913 27.1879 54.4116 27.3675 54.4116 27.6368C54.4116 27.8612 54.6363 28.0857 54.8609 28.0408C55.0855 27.9959 55.2652 27.8164 55.2652 27.5919Z" fill="#F3F0E8"/>
<path d="M67.4848 37.4223C73.1666 37.4223 77.7726 32.8201 77.7726 27.143C77.7726 21.4659 73.1666 16.8638 67.4848 16.8638C61.803 16.8638 57.197 21.4659 57.197 27.143C57.197 32.8201 61.803 37.4223 67.4848 37.4223Z" fill="#709BA6" stroke="#353643" stroke-miterlimit="10"/>
<path d="M66.2269 26.5595C66.2269 27.6817 65.2835 28.6243 64.1604 28.6243C63.0372 28.6243 62.0938 27.6817 62.0938 26.5595C62.0938 25.4373 63.0372 24.4947 64.1604 24.4947C65.2835 24.4947 66.2269 25.4373 66.2269 26.5595Z" stroke="#353643" stroke-width="2" stroke-miterlimit="10" stroke-linecap="round" stroke-linejoin="round"/>
<path d="M72.4715 24.1356C72.4715 24.1356 67.8891 20.7241 63.0822 24.764" stroke="#353643" stroke-width="2" stroke-miterlimit="10" stroke-linecap="round" stroke-linejoin="round"/>
<path d="M68.7427 27.8164C68.7876 26.6942 69.7311 25.7964 70.8991 25.8413C72.0222 25.8862 72.9208 26.8288 72.8758 27.9959C72.8309 29.1181 71.8875 30.0159 70.7194 29.971C69.5963 29.9261 68.6978 28.9385 68.7427 27.8164Z" stroke="#353643" stroke-width="2" stroke-miterlimit="10" stroke-linecap="round" stroke-linejoin="round"/>
<path d="M62.4083 29.971C62.4083 29.971 66.8559 33.562 71.7976 29.7016" stroke="#353643" stroke-width="2" stroke-miterlimit="10" stroke-linecap="round" stroke-linejoin="round"/>
</svg>
