<svg width="135" height="135" viewBox="0 0 135 135" fill="none" xmlns="http://www.w3.org/2000/svg">
<path d="M135 0H0V135H135V0Z" fill="#FFF1E1"/>
<path d="M94.2093 96.7494C108.964 81.9708 108.964 58.0101 94.2093 43.2316C79.4547 28.453 55.5327 28.4531 40.7781 43.2316C26.0235 58.0101 26.0235 81.9708 40.7781 96.7494C55.5327 111.528 79.4547 111.528 94.2093 96.7494Z" fill="#EBB264"/>
<path opacity="0.65" d="M90.7274 92.6229L90.6376 92.4429C88.1217 87.7181 79.5411 72.3289 69.7924 61.5744C74.1501 61.0794 75.8572 58.7396 76.4862 57.4346C77.4745 55.3197 76.7108 52.8448 74.7341 51.6749C71.9937 50.055 65.2999 46.0952 62.3797 44.9252C61.2117 44.4302 60.0436 44.0703 58.9205 43.8453C58.7408 41.9104 58.7408 41.0554 58.7857 40.6954C58.8756 39.1655 59.4596 35.2957 63.2333 32.0109C66.8273 28.906 69.7025 28.771 73.1168 31.6509C75.3181 33.7658 77.789 34.3957 79.7657 33.3158C80.7541 32.7758 81.4729 31.7859 81.6076 30.6159C81.6975 29.986 81.967 26.7911 79.1368 22.9663C77.9687 21.4364 76.576 20.0864 74.9587 18.9615C74.8689 18.8715 74.7341 18.8265 74.6443 18.7365C72.8023 17.5216 70.6909 16.6666 68.3997 16.0816C68.3098 16.0816 68.2649 16.0366 68.1751 16.0366C65.6143 15.4517 62.7841 15.2717 59.9538 15.5417C59.9089 15.5417 59.819 15.5417 59.7741 15.5417C58.4713 15.6767 57.2134 15.9016 56.0453 16.2166C54.2932 14.7317 52.0919 13.5618 49.3964 12.6168C46.9705 11.7619 45.0387 11.4469 44.859 11.4019C44.8141 11.4019 44.8141 11.4019 44.7691 11.4019C43.7359 11.2669 42.7026 11.2219 41.6693 11.2669C41.2201 11.2219 40.7259 11.2669 40.2766 11.4019C36.3682 11.9418 32.9089 13.9217 30.2134 17.1616C30.1236 17.2516 30.0787 17.3416 29.9888 17.4316C29.2251 18.3765 28.5063 19.4565 27.8773 20.5814C27.8324 20.6714 27.7875 20.7164 27.7426 20.8064C26.7093 22.7413 26.0354 24.5412 25.676 25.7562C25.3166 26.8361 25.1369 27.6461 25.092 27.9161C24.463 30.6159 24.1935 33.6308 24.2833 36.9156C24.2833 37.1856 24.2833 37.5006 24.3283 37.7706C24.3732 38.2206 24.3732 38.7155 24.4181 39.2105C24.4181 39.3005 24.4181 39.3455 24.4181 39.4355C24.6427 41.8204 25.0021 44.3403 25.5412 46.8601C25.7209 47.6251 25.9006 48.3451 26.0803 49.155L26.6644 51.2699C26.6194 51.4499 26.5296 51.6299 26.4847 51.8099L25.2717 55.9947C22.6211 58.9645 19.6111 65.3992 23.2051 73.4538C22.711 77.7736 21.9023 82.7234 21.3183 84.2083C18.9822 86.5032 16.107 91.183 18.5779 95.8627C18.6228 95.9527 18.6677 96.0427 18.7576 96.1777C19.2517 96.8977 19.7459 97.5727 20.2401 98.1576C20.285 98.2026 20.3299 98.2476 20.3749 98.2926C21.7675 99.9575 23.3399 101.127 25.0471 101.847C25.4963 103.872 26.26 105.852 27.3832 107.832C27.473 108.147 27.7426 109.092 27.2933 109.452C26.0354 110.397 25.4963 112.062 26.0803 113.592C26.6194 115.077 28.102 116.067 29.6743 115.932C30.2134 115.887 34.661 115.482 38.0753 111.567C40.5911 110.262 42.433 108.417 43.6011 106.167C43.7808 106.392 43.9605 106.617 44.1402 106.842C47.3748 110.397 56.3598 116.292 69.2533 116.292C71.1401 116.292 73.1168 116.157 75.1834 115.887C78.6426 115.392 82.5511 114.222 85.6509 112.737C90.4579 110.397 93.4678 107.337 94.6359 103.602C95.2199 102.162 95.2648 101.037 90.7274 92.6229ZM42.5229 27.7811C42.9272 26.2961 43.3765 25.3062 43.4663 25.0812C43.8706 24.4512 44.5445 24.0462 45.3082 23.8213C44.4097 24.9462 43.4663 26.2511 42.5229 27.7811Z" fill="#EBB264"/>
<path d="M94.0069 83.5333C102.17 83.5333 108.787 76.9052 108.787 68.729C108.787 60.5529 102.17 53.9248 94.0069 53.9248C85.844 53.9248 79.2266 60.5529 79.2266 68.729C79.2266 76.9052 85.844 83.5333 94.0069 83.5333Z" fill="#2D6670" stroke="#353643" stroke-miterlimit="10"/>
<path d="M81.6077 65.9842C81.8323 66.0292 82.0569 65.8942 82.1467 65.6692C82.1917 65.4442 82.0569 65.2192 81.8323 65.1293C81.6077 65.0393 81.3831 65.2193 81.2932 65.4442C81.2483 65.7142 81.3831 65.9392 81.6077 65.9842Z" fill="#F3F0E8"/>
<path d="M83.4496 62.4743C83.5844 62.2943 83.4945 62.0244 83.3148 61.8894C83.1351 61.7544 82.8656 61.8444 82.7308 62.0244C82.596 62.2043 82.6859 62.5193 82.8656 62.6093C83.0902 62.6993 83.3597 62.6543 83.4496 62.4743Z" fill="#F3F0E8"/>
<path d="M85.6958 59.1445C85.5611 58.9645 85.2466 58.9645 85.0668 59.0995C84.8871 59.2795 84.8871 59.5495 85.0219 59.6845C85.2016 59.8644 85.4712 59.8644 85.6509 59.7294C85.8306 59.5945 85.8306 59.3245 85.6958 59.1445Z" fill="#F3F0E8"/>
<path d="M88.7058 57.1646C88.6159 56.9397 88.3464 56.8497 88.1218 56.9847C87.8972 57.0746 87.8073 57.3446 87.9421 57.5696C88.0769 57.7945 88.3015 57.8845 88.5261 57.7495C88.7058 57.6596 88.7956 57.3896 88.7058 57.1646Z" fill="#F3F0E8"/>
<path d="M91.6708 55.8147C91.5361 55.8147 91.4462 55.9047 91.4013 55.9947C91.3564 56.0847 91.3115 56.2197 91.3564 56.3097C91.4013 56.4447 91.4462 56.5347 91.5361 56.5797C91.6259 56.6247 91.7158 56.6697 91.8505 56.6697C92.0752 56.6247 92.2099 56.3997 92.2099 56.1747C92.1201 55.9047 91.8955 55.7697 91.6708 55.8147Z" fill="#F3F0E8"/>
<path d="M95.3996 55.6797C95.175 55.6347 94.9504 55.8597 94.9054 56.0846C94.9054 56.3096 95.0402 56.5346 95.3098 56.5346C95.5344 56.5796 95.759 56.3996 95.759 56.1746C95.8039 55.9047 95.6242 55.6797 95.3996 55.6797Z" fill="#F3F0E8"/>
<path d="M98.9936 56.5796C98.769 56.4896 98.4994 56.6246 98.4096 56.8496C98.3197 57.0746 98.4545 57.2997 98.6342 57.3897C98.8588 57.4797 99.0835 57.3897 99.1733 57.1647C99.353 56.9397 99.2182 56.6696 98.9936 56.5796Z" fill="#F3F0E8"/>
<path d="M102.228 58.5146C102.049 58.3796 101.734 58.3796 101.599 58.6046C101.464 58.7846 101.509 59.0546 101.689 59.1896C101.869 59.3245 102.138 59.3245 102.273 59.1446C102.408 58.9196 102.408 58.6496 102.228 58.5146Z" fill="#F3F0E8"/>
<path d="M104.744 61.2144C104.609 61.0344 104.34 60.9894 104.115 61.1244C103.935 61.2594 103.89 61.5294 104.025 61.7094C104.16 61.8894 104.43 61.9344 104.609 61.8444C104.834 61.7094 104.924 61.4394 104.744 61.2144Z" fill="#F3F0E8"/>
<path d="M106.137 65.1292C106.361 65.0842 106.496 64.8143 106.406 64.5892C106.316 64.3642 106.092 64.2292 105.867 64.3192C105.643 64.4092 105.508 64.6342 105.598 64.8593C105.687 65.0393 105.912 65.1743 106.137 65.1292Z" fill="#F3F0E8"/>
<path d="M106.631 67.8291C106.406 67.8291 106.227 68.0541 106.227 68.2791C106.227 68.5041 106.451 68.6841 106.676 68.6841C106.9 68.6841 107.08 68.5041 107.08 68.2341C107.035 68.0091 106.855 67.8291 106.631 67.8291Z" fill="#F3F0E8"/>
<path d="M106.361 71.429C106.137 71.384 105.912 71.519 105.822 71.744C105.777 71.969 105.912 72.1939 106.137 72.2839C106.361 72.3739 106.586 72.1939 106.676 71.969C106.721 71.699 106.586 71.474 106.361 71.429Z" fill="#F3F0E8"/>
<path d="M105.103 74.8037C104.879 74.6687 104.609 74.7587 104.519 74.9387C104.385 75.1187 104.474 75.3887 104.654 75.5237C104.834 75.6587 105.103 75.5687 105.238 75.3887C105.373 75.2087 105.283 74.9387 105.103 74.8037Z" fill="#F3F0E8"/>
<path d="M102.318 77.6836C102.138 77.8186 102.138 78.0886 102.273 78.2686C102.408 78.4486 102.722 78.4486 102.902 78.3136C103.082 78.1336 103.082 77.8636 102.947 77.7286C102.767 77.5486 102.498 77.5486 102.318 77.6836Z" fill="#F3F0E8"/>
<path d="M99.4429 79.6635C99.2183 79.7535 99.1733 80.0235 99.2632 80.2485C99.353 80.4735 99.6226 80.5635 99.8472 80.4285C100.072 80.3385 100.162 80.0685 100.027 79.8435C99.9371 79.6635 99.6675 79.5735 99.4429 79.6635Z" fill="#F3F0E8"/>
<path d="M96.4778 80.8335C96.388 80.7885 96.2981 80.7434 96.1634 80.7434C95.9387 80.7884 95.804 81.0135 95.804 81.2385C95.8489 81.4636 96.0735 81.6436 96.2981 81.5986C96.4329 81.5986 96.5227 81.5086 96.5677 81.4186C96.6126 81.3285 96.6575 81.1935 96.6126 81.1035C96.6126 81.0135 96.5677 80.9235 96.4778 80.8335Z" fill="#F3F0E8"/>
<path d="M92.6592 80.8785C92.4346 80.8335 92.2099 81.0135 92.2099 81.2384C92.165 81.4634 92.3447 81.6884 92.5693 81.7334C92.794 81.7784 93.0186 81.5534 93.0635 81.3284C93.0635 81.1034 92.8838 80.9235 92.6592 80.8785Z" fill="#F3F0E8"/>
<path d="M89.2899 80.0236C89.0652 79.9336 88.8406 80.0236 88.7507 80.2485C88.6609 80.4735 88.7507 80.7435 88.9754 80.8334C89.2 80.9234 89.4696 80.7884 89.5594 80.5635C89.6043 80.3385 89.5145 80.1135 89.2899 80.0236Z" fill="#F3F0E8"/>
<path d="M85.6958 78.3136C85.561 78.4936 85.561 78.7636 85.7407 78.9435C85.9204 79.0785 86.2349 79.0785 86.3697 78.8535C86.5044 78.6736 86.4595 78.4036 86.2798 78.2686C86.1001 78.1336 85.8755 78.1336 85.6958 78.3136Z" fill="#F3F0E8"/>
<path d="M83.3597 75.5686C83.18 75.7037 83.0901 75.9737 83.2249 76.1537C83.3597 76.3337 83.6292 76.3787 83.8539 76.2437C84.0336 76.1087 84.0785 75.8387 83.9437 75.6587C83.809 75.5236 83.5394 75.4336 83.3597 75.5686Z" fill="#F3F0E8"/>
<path d="M81.8322 72.2839C81.6076 72.3289 81.4729 72.5989 81.5627 72.8239C81.6526 73.0489 81.8772 73.1839 82.1018 73.0939C82.3264 73.0039 82.4611 72.7789 82.3713 72.5539C82.2814 72.3739 82.0568 72.2389 81.8322 72.2839Z" fill="#F3F0E8"/>
<path d="M81.7873 69.134C81.7873 68.909 81.5627 68.7291 81.3381 68.7291C81.1134 68.7291 80.9337 68.909 80.9337 69.179C80.9337 69.404 81.1584 69.6289 81.383 69.5839C81.6076 69.5839 81.7873 69.359 81.7873 69.134Z" fill="#F3F0E8"/>
<path d="M101.288 75.9957C105.305 71.9715 105.305 65.4472 101.288 61.423C97.2702 57.3989 90.7564 57.3989 86.7388 61.4231C82.7212 65.4472 82.7212 71.9715 86.7388 75.9956C90.7564 80.0198 97.2702 80.0198 101.288 75.9957Z" fill="#709BA6" stroke="#353643" stroke-miterlimit="10"/>
<path d="M95.3098 71.024C95.175 71.6989 94.9054 72.3289 94.2316 72.6889C93.962 72.8239 93.6925 72.8239 92.7041 72.8239" stroke="#353643" stroke-width="2" stroke-miterlimit="10" stroke-linecap="round" stroke-linejoin="round"/>
<path d="M89.7839 69.584V66.3442C89.7839 66.3442 89.7839 64.7693 91.7606 64.6343C91.7606 64.6343 93.5576 64.4093 93.5576 66.3892C93.5576 67.6041 93.4229 70.2139 95.3547 71.2039" stroke="#353643" stroke-width="2" stroke-miterlimit="10" stroke-linecap="round" stroke-linejoin="round"/>
<path d="M88.7957 64.8144L89.8289 66.0292" stroke="#353643" stroke-width="2" stroke-miterlimit="10" stroke-linecap="round" stroke-linejoin="round"/>
<path d="M94.9953 69.809C94.9953 68.8191 95.8039 68.0091 96.7923 68.0091C97.7806 68.0091 98.5893 68.8191 98.5893 69.809C98.5893 70.799 97.7806 71.609 96.7923 71.609C95.8039 71.609 94.9953 70.799 94.9953 69.809Z" stroke="#353643" stroke-width="2" stroke-miterlimit="10" stroke-linecap="round" stroke-linejoin="round"/>
<path d="M39.5582 49.6501C37.7163 51 33.4933 53.7449 30.6631 51.585C30.6631 51.585 26.2604 38.9406 28.6864 28.7711C28.6864 28.7711 31.6963 13.3819 44.3652 15.0468C44.3652 15.0468 53.44 16.4867 56.1805 21.9764C56.1805 21.9764 44.2304 16.7567 40.3669 23.3264C40.3669 23.3264 36.6381 30.256 39.109 39.1656L42.074 47.5802C42.074 47.5802 40.1872 49.1551 39.5582 49.6501Z" fill="#EAC8AF" stroke="#353643" stroke-miterlimit="10"/>
<path d="M29.1801 26.8811C29.1801 26.8811 35.3798 25.3062 38.5695 29.041" stroke="#353643" stroke-miterlimit="10"/>
<path d="M32.9539 19.6365C32.9539 19.6365 37.4464 18.1965 40.3216 23.3263" stroke="#353643" stroke-miterlimit="10"/>
<path d="M41.3099 14.9117C41.3099 14.9117 45.0836 15.5417 44.9489 20.2214" stroke="#353643" stroke-miterlimit="10"/>
<path d="M48.2733 16.0817C48.2733 16.0817 50.4297 17.2066 49.8906 20.2215" stroke="#353643" stroke-miterlimit="10"/>
<path d="M38.2999 34.6207C37.3565 38.6255 35.0204 45.7801 29.6743 48.21C30.2134 50.2799 30.6627 51.5398 30.6627 51.5398C33.4929 53.6997 37.7159 50.9999 39.5578 49.6049C40.1868 49.11 42.0736 47.535 42.0736 47.535L39.1086 39.1205C38.6144 37.5906 38.3898 36.0607 38.2999 34.6207Z" fill="#BF6A58"/>
<path d="M29.1801 46.1402C29.1801 46.1402 34.3465 41.4154 40.5911 43.4853" stroke="#353643" stroke-miterlimit="10"/>
<path d="M27.9222 37.2756C27.9222 37.2756 33.3582 33.0908 38.3898 35.7907" stroke="#353643" stroke-miterlimit="10"/>
<path d="M39.5582 49.6501C37.7163 51 33.4933 53.7449 30.6631 51.585C30.6631 51.585 26.2604 38.9406 28.6864 28.7711C28.6864 28.7711 31.6963 13.3819 44.3652 15.0468C44.3652 15.0468 53.44 16.4867 56.1805 21.9764C56.1805 21.9764 44.2304 16.7567 40.3669 23.3264C40.3669 23.3264 36.6381 30.256 39.109 39.1656L42.074 47.5802C42.074 47.5802 40.1872 49.1551 39.5582 49.6501Z" stroke="#353643" stroke-miterlimit="10"/>
<path d="M28.102 39.0755C28.102 39.0755 35.245 34.1257 38.5695 36.6006" stroke="#353643" stroke-miterlimit="10"/>
<path d="M31.067 22.4713C31.1569 22.2914 34.8407 22.2464 37.1319 24.3613L38.6144 29.041" stroke="#353643" stroke-miterlimit="10"/>
<path d="M38.9289 90.2831C38.9289 90.2831 46.3864 104.097 35.874 108.732L35.7392 107.472L34.032 92.083L38.9289 90.2831Z" fill="#EAC8AF" stroke="#353643" stroke-miterlimit="10"/>
<path d="M37.5811 90.778C37.5811 90.778 43.8706 103.287 35.7392 107.472L37.5811 90.778Z" fill="#EAC8AF"/>
<path d="M37.5811 90.778C37.5811 90.778 43.8706 103.287 35.7392 107.472" stroke="#353643" stroke-miterlimit="10"/>
<path d="M35.5146 105.402C35.5146 105.402 38.5246 102.072 36.9971 90.958L35.5146 105.402Z" fill="#E19376"/>
<path d="M35.5146 105.402C35.5146 105.402 38.5246 102.072 36.9971 90.958" stroke="#353643" stroke-miterlimit="10"/>
<path d="M28.7758 94.7828C28.7758 94.7828 26.889 99.5526 30.7525 106.347C30.7525 106.347 32.4597 110.217 29.5396 112.422C29.5396 112.422 41.9838 111.612 36.9073 92.4879L28.7758 94.7828Z" fill="#E19376" stroke="#353643" stroke-miterlimit="10"/>
<path d="M31.4713 111.972C31.4713 111.972 37.4015 107.967 35.4247 97.8876L31.4713 111.972Z" fill="#E19376"/>
<path d="M31.4713 111.972C31.4713 111.972 37.4015 107.967 35.4247 97.8876" stroke="#353643" stroke-miterlimit="10"/>
<path d="M40.1418 48.4351C40.1418 48.4351 31.5162 47.7151 30.0786 52.8449L28.5961 57.8846C28.5961 57.8846 22.3066 63.4643 27.0237 72.8239C27.0237 72.8239 25.7209 85.1532 24.2833 86.5032C24.2833 86.5032 19.9705 90.373 21.9472 94.1528C24.2384 97.6176 26.889 99.5525 31.0221 99.0576C32.5944 98.8776 34.3016 98.3826 36.1884 97.5276C36.1884 97.5276 48.453 92.4879 49.3065 84.0733C49.3065 84.0733 48.5428 96.2227 46.3864 101.172C45.8922 102.252 46.1169 103.557 46.9255 104.457C49.8007 107.607 59.9088 114.402 74.8239 112.377C79.7657 111.702 89.3796 108.822 91.3563 102.612C91.6259 101.757 87.942 94.9628 87.4928 94.1528C84.348 88.2581 68.6243 59.9995 55.1917 54.5098C55.1468 54.5548 53.0802 44.6553 40.1418 48.4351Z" fill="#709BA6" stroke="#353643" stroke-miterlimit="10"/>
<path d="M29.0005 90.508C29.0005 90.508 34.1219 92.7128 37.1319 85.3783C37.087 85.3783 33.0886 84.4333 29.0005 90.508Z" fill="#2D6670"/>
<path d="M49.3065 84.0734C59.4596 82.4534 57.3481 70.7539 57.3481 70.7539" stroke="#353643" stroke-miterlimit="10"/>
<path d="M45.9372 67.0641C46.2516 68.549 45.7125 69.944 44.6793 70.169C43.646 70.3939 42.5229 69.404 42.2084 67.8741C41.8939 66.1641 42.4779 65.8041 43.5112 65.5792C44.5445 65.3542 45.5778 65.3992 45.9372 67.0641Z" fill="#471343"/>
<path d="M44.4996 47.6251C43.1967 47.7151 41.7592 47.9851 40.1419 48.4351C40.1419 48.4351 39.3332 48.3451 38.1202 48.4351C38.1202 48.4351 32.1003 52.5748 30.7076 62.0244C30.3931 64.1842 29.0903 70.034 31.4264 70.7989C33.6277 71.5189 35.4247 69.899 35.7392 62.1594C35.9189 57.7946 40.2317 49.425 44.4996 47.6251Z" fill="#2D6670"/>
<path d="M33.3582 67.1542C33.3582 67.5592 32.9988 67.8742 32.5046 67.8742C32.0104 67.8742 31.651 67.5592 31.651 67.1542C31.651 66.7492 32.0104 66.4342 32.5046 66.4342C32.9988 66.4342 33.3582 66.7492 33.3582 67.1542Z" fill="#E19376"/>
<path d="M33.6277 63.1943C33.6277 63.5993 33.2683 63.9143 32.7742 63.9143C32.3249 63.9143 31.9206 63.5993 31.9206 63.1943C31.9206 62.7893 32.28 62.4743 32.7742 62.4743C33.2234 62.4293 33.6277 62.7893 33.6277 63.1943Z" fill="#E19376"/>
<path d="M34.4364 59.2795C34.4364 59.6845 34.077 59.9995 33.5828 59.9995C33.0886 59.9995 32.7292 59.6845 32.7292 59.2795C32.7292 58.8746 33.0886 58.5596 33.5828 58.5596C34.077 58.5596 34.4364 58.8746 34.4364 59.2795Z" fill="#E19376"/>
<path d="M35.1103 56.1747C35.5817 56.1747 35.9638 55.8524 35.9638 55.4547C35.9638 55.0571 35.5817 54.7348 35.1103 54.7348C34.6388 54.7348 34.2567 55.0571 34.2567 55.4547C34.2567 55.8524 34.6388 56.1747 35.1103 56.1747Z" fill="#E19376"/>
<path d="M37.8956 52.1699C37.8956 52.5749 37.5362 52.8899 37.042 52.8899C36.5928 52.8899 36.1884 52.5749 36.1884 52.1699C36.1884 51.7649 36.5478 51.45 37.042 51.45C37.5362 51.45 37.8956 51.7649 37.8956 52.1699Z" fill="#E19376"/>
<path d="M57.3032 76.0187C57.5728 84.9733 50.7891 91.813 48.3182 94.1529C48.9472 89.3381 49.3066 84.1183 49.3066 84.1183C49.3066 84.1183 56.2699 83.3084 57.3032 76.0187Z" fill="#2D6670"/>
<path d="M43.0171 50.64C45.3532 50.865 49.9355 51.09 56.1352 50.595C56.1352 50.595 55.057 43.3054 55.1917 40.5155C55.3714 37.3657 56.7641 32.8659 60.8523 29.3111C63.6376 26.9262 68.8939 23.4164 75.4978 28.9961C75.4978 28.9961 77.1601 30.661 78.0136 30.166C78.0136 30.166 78.2832 27.9611 76.2166 25.1263C70.2416 17.0717 58.022 18.6466 53.9788 20.8515C51.3731 22.2914 47.4197 25.8912 44.1851 32.0559C44.1851 32.0559 41.2201 39.2556 41.3998 42.3604L41.3099 48.7501C41.3099 49.74 42.0287 50.55 43.0171 50.64Z" fill="#EAC8AF" stroke="#353643" stroke-miterlimit="10"/>
<path d="M41.3099 43.1703C41.3099 43.1703 47.1052 38.5805 55.2367 40.4704" stroke="#353643" stroke-miterlimit="10"/>
<path d="M43.8706 32.8658C43.8706 32.8658 50.7442 29.581 56.854 34.4858" stroke="#353643" stroke-miterlimit="10"/>
<path d="M51.0586 23.0113C51.0586 23.0113 60.8972 24.9462 60.2233 29.941" stroke="#353643" stroke-miterlimit="10"/>
<path d="M60.2683 19.1865C60.2683 19.1865 66.2882 21.1214 64.626 26.8362" stroke="#353643" stroke-miterlimit="10"/>
<path d="M67.5012 19.6365C67.5012 19.6365 70.6459 22.2913 68.5345 25.9811" stroke="#353643" stroke-miterlimit="10"/>
<path d="M72.8023 21.8864C72.8023 21.8864 74.1501 23.5963 72.3082 26.8361" stroke="#353643" stroke-miterlimit="10"/>
<path d="M41.3998 42.3604L41.3099 48.75C41.3099 49.74 42.0287 50.595 43.0171 50.685C45.3532 50.9099 49.9355 51.1349 56.1352 50.64" stroke="#353643" stroke-miterlimit="10"/>
<path d="M49.8456 51.2249C49.8456 51.2249 51.9571 44.5203 61.032 48.2101C63.8173 49.335 70.8706 53.5198 72.9371 54.7348C73.3414 54.9598 73.4762 55.4548 73.2965 55.8597C72.9371 56.6247 71.9937 57.7046 69.4329 57.9746C64.5361 58.5596 56.7192 61.0795 49.8906 55.8597" fill="#709BA6"/>
<path d="M49.8456 51.2249C49.8456 51.2249 51.9571 44.5203 61.032 48.2101C63.8173 49.335 70.8706 53.5198 72.9371 54.7348C73.3414 54.9598 73.4762 55.4548 73.2965 55.8597C72.9371 56.6247 71.9937 57.7046 69.4329 57.9746C64.5361 58.5596 56.7192 61.0795 49.8906 55.8597" stroke="#353643" stroke-miterlimit="10" stroke-linecap="round" stroke-linejoin="round"/>
<path d="M48.7674 64.7692C48.7674 64.7692 48.7225 64.6792 48.6776 64.6342C48.6327 64.5892 48.5428 64.5442 48.4979 64.4992C48.3631 64.4092 48.1385 64.4093 47.9588 64.3643C47.5545 64.3643 47.1052 64.4093 46.7009 64.5442C46.2966 64.6792 45.8473 64.8142 45.443 64.9942C45.2184 65.0842 45.0387 65.1742 44.814 65.2642C44.5894 65.3542 44.4097 65.4442 44.23 65.5792C43.5112 66.0292 42.8823 66.6591 42.433 67.3341C41.9838 68.0541 41.8041 68.819 42.1185 69.404C42.2982 69.719 42.1635 70.124 41.8041 70.304C41.4896 70.4839 41.0853 70.349 40.9056 69.989V69.944V69.899C40.6809 69.314 40.636 68.684 40.7708 68.1441C40.9056 67.5591 41.1751 67.1091 41.4896 66.6591C42.1185 65.8042 42.8823 65.1742 43.7808 64.6792C44.0054 64.5442 44.23 64.4543 44.4546 64.3643C44.6793 64.2743 44.9039 64.1843 45.1285 64.0943C45.5778 63.9143 46.027 63.7793 46.5212 63.6893C47.0154 63.5993 47.5095 63.5093 48.0486 63.5993C48.3182 63.6443 48.5877 63.6893 48.8573 63.8243C49.1268 64.0043 49.3515 64.1843 49.4862 64.5892C49.5312 64.7242 49.4413 64.8592 49.3065 64.9042C49.2167 64.9042 49.1718 64.9042 49.0819 64.8592L48.7674 64.7692Z" fill="#471343"/>
<path d="M66.378 58.5596C66.4679 59.0545 66.423 59.5945 66.2882 60.0895C66.1534 60.5845 65.9288 61.0344 65.6593 61.3944C65.1202 62.1144 64.3564 62.5644 63.5478 62.6994C62.7391 62.8344 61.8856 62.6544 61.1218 62.1144C60.7175 61.8444 60.3581 61.4394 60.0886 60.9445C59.819 60.4495 59.6393 59.8195 59.5944 59.2345C59.5495 58.6496 59.6842 58.0196 59.9089 57.5696C60.1335 57.0746 60.448 56.7147 60.7624 56.4897C61.0769 56.2197 61.4363 56.0847 61.7957 55.9947L61.9754 56.4447C61.7059 56.6697 61.5262 56.9846 61.3465 57.2996C61.2117 57.6146 61.1218 57.9746 61.1218 58.2896C61.0769 58.6046 61.1218 58.8746 61.1668 59.1445C61.2566 59.6395 61.5262 60.1345 61.8856 60.4945C62.2899 60.8995 62.829 61.1244 63.3681 61.1244C63.9072 61.1244 64.4463 60.8994 64.8506 60.4495C65.2549 60.0445 65.5245 59.3695 65.5245 58.6946L66.378 58.5596Z" fill="#E19376" stroke="#353643" stroke-miterlimit="10" stroke-linecap="round" stroke-linejoin="round"/>
<path d="M38.255 64.6792C38.255 65.0392 38.5695 65.4442 39.3781 65.2642C39.7375 65.1742 40.0969 65.0392 40.4114 64.8142C41.3548 64.1843 43.9156 62.5193 46.3865 61.7994C46.7459 61.7094 46.7459 61.1694 46.3865 61.0794C45.2633 60.8094 44.4097 60.5394 42.6127 60.8544C41.7142 60.9894 39.1535 62.3843 38.7492 63.1943C38.5695 63.5093 38.255 64.2292 38.255 64.6792Z" fill="#471343"/>
<path d="M28.7309 99.1025C27.6078 97.9326 27.1586 96.1777 27.2933 94.5578C27.4281 92.8929 28.1469 91.3629 29.0903 90.013C30.0338 88.7081 31.2018 87.5381 32.5496 86.6382C33.8973 85.7382 35.5146 85.1533 37.1319 85.3333V85.3782C35.5146 85.2433 33.9872 85.8732 32.6843 86.8182C31.3815 87.7181 30.3033 88.9331 29.4048 90.238C28.5512 91.5429 27.9672 93.0728 27.7875 94.6028C27.5629 96.1327 27.8774 97.7526 28.7309 99.1025Z" fill="#353643"/>
<path d="M24.2833 86.5482C24.8674 88.0781 25.092 89.7431 24.9572 91.363C24.9123 92.1729 24.6877 92.9829 24.4181 93.7928C24.1486 94.5578 23.6993 95.2778 23.2051 95.9077C23.5645 95.1878 23.879 94.4678 24.1036 93.6579C24.2833 92.8929 24.463 92.1279 24.508 91.318C24.5529 90.508 24.5529 89.7431 24.5529 88.9331C24.463 88.1231 24.4181 87.3582 24.2833 86.5482Z" fill="#353643"/>
</svg>
