<svg width="135" height="135" viewBox="0 0 135 135" fill="none" xmlns="http://www.w3.org/2000/svg">
<path d="M135 0H0V135H135V0Z" fill="#FFF1E1"/>
<path d="M94.2093 94.1427C108.964 79.4004 108.964 55.4983 94.2093 40.7559C79.4547 26.0135 55.5327 26.0135 40.7781 40.7559C26.0235 55.4983 26.0235 79.4004 40.7781 94.1427C55.5327 108.885 79.4547 108.885 94.2093 94.1427Z" fill="#EBB264"/>
<g opacity="0.65">
<path opacity="0.65" d="M102.803 87.0968C104.151 86.3337 104.87 84.987 105.094 84.4035C105.813 83.1466 106.038 81.8449 105.678 80.5432C105.543 79.9596 105.274 79.4658 104.959 79.017C105.049 78.8823 105.139 78.7925 105.229 78.6579C106.532 76.6828 105.139 74.1691 104.69 73.4509C104.645 73.406 104.645 73.3611 104.6 73.3162C103.612 71.9696 102.983 69.815 102.803 68.3337C101.949 60.8823 98.9843 56.3038 96.2439 53.6554C96.783 53.2963 97.1873 52.8026 97.6366 52.0395C98.3554 50.7826 98.4902 49.436 98.0409 48.1342C97.0076 44.9921 92.7847 43.1517 90.5384 42.1642L90.179 42.0295C87.1691 40.6829 84.204 39.9198 81.3737 39.7402C81.194 37.8998 80.4303 36.6879 79.7564 35.9248C78.5884 34.6679 76.9262 33.9497 75.3089 33.9946C74.051 34.0395 72.7032 34.5781 71.4453 35.2963C70.7265 33.9946 69.3338 33.5906 68.7947 33.456C63.0893 31.7502 58.7315 34.4884 56.6201 37.6305C56.2157 38.2589 55.7216 39.1118 55.1375 40.2789C50.6001 36.8674 45.5685 38.7527 43.2773 40.4584L43.2324 40.5033C42.4238 41.1317 41.7948 41.8948 41.3905 42.7477C41.3006 42.8824 41.2108 43.0619 41.1659 43.1966C41.1209 43.3312 41.076 43.4659 41.076 43.6006C40.9412 44.0494 40.8514 44.5432 40.8065 45.037C38.3356 45.5756 36.0444 47.6405 33.9779 51.2315C32.9446 52.9821 32.5403 54.5981 31.9562 56.7976C31.6418 57.9646 31.2824 59.3113 30.7882 61.017C30.2491 60.5681 29.5303 60.4335 28.8564 60.6579C28.4521 60.7926 24.8132 62.1392 23.69 65.5955C22.9712 67.795 23.4654 70.219 25.2624 72.7776L25.3073 72.8225L25.3523 72.8674C25.2175 73.0918 25.1276 73.3611 25.0378 73.6304C25.0378 73.6753 24.9929 73.7202 24.9929 73.7651C24.7233 74.618 24.4987 75.5606 24.4088 76.593C24.4088 76.6379 24.4088 76.6828 24.4088 76.7277C24.319 77.8948 24.319 79.2414 24.4538 80.7227C23.1959 84.5382 23.69 89.2514 25.9812 95.1765L26.116 95.4907C26.1609 95.6703 26.2508 95.8499 26.2957 95.9845C26.2957 96.5681 26.5652 97.1067 27.0145 97.4658C27.8231 98.7227 29.0361 99.5755 31.0577 100.249C31.0577 100.384 31.0577 100.473 31.0577 100.608V100.698C31.0577 100.922 31.1027 101.147 31.1027 101.371C31.6867 105.456 35.8198 108.194 42.7382 109.137C43.7715 109.271 44.7599 108.912 45.4337 108.194C46.6916 108.912 48.1292 109.406 49.7915 109.765C53.6999 110.528 57.9678 110.034 60.8879 109.496C62.2357 109.226 63.3139 109.002 64.0327 108.778C67.9412 110.887 72.9728 112.234 78.0493 112.413C78.4985 112.413 78.9029 112.458 79.3072 112.458C86.2256 112.458 89.6399 110.259 91.0775 108.867C91.7963 108.194 92.1557 107.296 92.0659 106.309C92.0659 106.039 91.976 105.77 91.8862 105.546C92.5601 105.635 93.189 105.725 93.8629 105.725C97.0975 105.77 99.9727 104.603 102.084 102.359C102.893 101.506 103.207 100.428 103.028 99.2613C102.848 98.2738 102.264 97.376 101.5 96.5232C102.264 96.1641 102.893 95.6703 103.387 95.2214C104.825 93.9197 105.094 92.5282 105.049 91.5855C105.139 89.1167 103.073 87.3212 102.803 87.0968Z" fill="#EBB264"/>
</g>
<path d="M34.2025 71.8798C34.2025 71.8798 25.2175 67.5706 26.5653 81.0369C26.5653 81.0369 34.2025 78.0294 34.2025 71.8798Z" fill="#E19376" stroke="#471343" stroke-miterlimit="10"/>
<path d="M27.0145 74.3935C27.0145 74.3935 29.126 76.1442 31.4621 75.0668L27.0145 74.3935Z" fill="#E19376"/>
<path d="M27.0145 74.3935C27.0145 74.3935 29.126 76.1442 31.4621 75.0668" stroke="#471343" stroke-miterlimit="10"/>
<path d="M26.4754 76.9072C26.4754 76.9072 28.3173 77.5805 30.2491 76.0992L26.4754 76.9072Z" fill="#E19376"/>
<path d="M26.4754 76.9072C26.4754 76.9072 28.3173 77.5805 30.2491 76.0992" stroke="#471343" stroke-miterlimit="10"/>
<path d="M46.3771 52.8474C46.3771 52.8474 39.9528 45.7552 44.5801 42.0744C44.5801 42.0744 53.7449 35.1617 58.9562 49.5258C58.9562 49.5258 48.9828 50.3337 46.3771 52.8474Z" fill="#E19376" stroke="#471343" stroke-miterlimit="10"/>
<path d="M48.4886 51.5906C48.4886 51.5906 42.5136 40.638 35.8198 52.219C34.2025 55.002 34.2923 57.426 31.8664 64.5182C31.6417 65.2364 28.0028 69.5457 29.5752 62.633C29.5752 62.633 22.4321 65.1018 26.9696 71.6554C26.9696 71.6554 30.6085 76.5481 35.8198 73.5855C35.8198 73.5855 47.7698 61.1517 48.4886 51.5906Z" fill="#E19376" stroke="#471343" stroke-miterlimit="10"/>
<path d="M53.2507 49.9747C53.2507 49.9747 56.4853 41.4909 58.3721 38.7527C59.7199 36.7776 63.0893 33.8151 68.3006 35.3861C69.4237 35.7003 71.1758 36.4634 68.615 39.9647C68.615 39.9647 72.6583 36.1492 75.4436 36.0146C77.2406 35.9248 80.1158 37.6305 79.3072 42.1642C79.3072 42.1642 83.5751 49.3462 72.7931 54.4185C72.7481 54.3736 61.6517 49.032 53.2507 49.9747Z" fill="#E19376" stroke="#471343" stroke-miterlimit="10"/>
<path d="M69.5585 45.845C69.5585 45.845 76.2074 38.0345 89.4153 43.9148C91.6166 44.9023 97.9511 47.416 95.8845 51.0519C95.1657 52.3088 94.8962 52.5781 90.2689 52.0395C90.2689 52.0395 99.2539 54.9123 100.871 68.5581C101.051 70.1292 101.725 72.6878 103.073 74.4833C103.073 74.4833 105.768 78.7477 101.051 78.0743C101.051 78.0743 105.409 80.2738 103.387 83.4609C103.387 83.4609 101.68 88.1741 97.2772 83.2364C97.2772 83.2364 98.8046 86.5132 101.59 88.623C101.59 88.623 104.825 91.3162 102.219 93.6953C100.871 94.9072 99.1191 95.8499 95.0759 94.3237C95.0759 94.3237 103.207 98.3636 100.781 100.922C97.367 104.558 91.7963 104.872 84.1142 100.204C84.1142 100.204 91.9311 105.456 89.8196 107.386C85.1025 111.83 72.1192 111.201 64.437 106.623C64.437 106.623 44.4454 112.817 42.3339 100.204C42.3339 100.204 42.7382 103.077 44.2208 105.546C44.67 106.309 44.086 107.296 43.1426 107.206C39.0993 106.668 31.8215 104.872 33.3938 98.8573" fill="#E19376"/>
<path d="M69.5585 45.845C69.5585 45.845 76.2074 38.0345 89.4153 43.9148C91.6166 44.9023 97.9511 47.416 95.8845 51.0519C95.1657 52.3088 94.8962 52.5781 90.2689 52.0395C90.2689 52.0395 99.2539 54.9123 100.871 68.5581C101.051 70.1292 101.725 72.6878 103.073 74.4833C103.073 74.4833 105.768 78.7477 101.051 78.0743C101.051 78.0743 105.409 80.2738 103.387 83.4609C103.387 83.4609 101.68 88.1741 97.2772 83.2364C97.2772 83.2364 98.8046 86.5132 101.59 88.623C101.59 88.623 104.825 91.3162 102.219 93.6953C100.871 94.9072 99.1191 95.8499 95.0759 94.3237C95.0759 94.3237 103.207 98.3636 100.781 100.922C97.367 104.558 91.7963 104.872 84.1142 100.204C84.1142 100.204 91.9311 105.456 89.8196 107.386C85.1025 111.83 72.1192 111.201 64.437 106.623C64.437 106.623 44.4454 112.817 42.3339 100.204C42.3339 100.204 42.7382 103.077 44.2208 105.546C44.67 106.309 44.086 107.296 43.1426 107.206C39.0993 106.668 31.8215 104.872 33.3938 98.8573" stroke="#471343" stroke-miterlimit="10"/>
<path d="M81.0143 59.0868C80.3404 57.2015 76.2972 62.4534 74.7248 61.2414C73.9162 60.613 73.6915 68.4684 72.7032 68.1541C70.6816 67.4808 68.5252 67.0319 66.4137 67.1666C63.5834 67.3462 60.843 68.5581 58.4619 70.0843C56.036 71.6105 53.8796 73.4958 51.5435 75.1117C50.3305 75.9646 49.0277 76.8175 47.8147 77.6703L33.3489 98.8124C33.1243 99.6653 33.0793 100.428 33.1692 101.102C33.888 101.595 34.6517 101.955 35.4604 102.224C37.6168 102.942 40.2673 102.583 41.8397 100.967C42.0643 101.057 42.2889 101.147 42.5136 101.236C42.3339 100.563 42.2889 100.159 42.2889 100.159C42.3339 100.563 42.4237 100.922 42.5136 101.236C46.0626 102.628 50.3755 101.865 53.2507 99.3511C53.6101 99.0369 53.9245 98.7227 54.3738 98.5431C54.7332 98.4084 55.1824 98.3635 55.5868 98.3635C59.1808 98.184 62.7298 97.4209 66.1441 96.2089C67.8513 95.5805 69.5584 94.8623 71.0409 93.8299C72.8829 92.573 74.3654 90.9122 75.7581 89.1616C77.8246 86.603 79.7115 83.5955 79.8013 80.3187C79.8013 78.3885 81.6882 60.9721 81.0143 59.0868Z" fill="#BF6A58"/>
<path d="M42.4687 60.0295C42.4687 60.0295 36.9878 53.8798 40.4471 51.3661C41.8397 50.3337 42.4237 50.1542 46.3771 52.8025C46.3771 52.8474 47.4554 60.1641 42.4687 60.0295Z" fill="#EAC8AF" stroke="#471343" stroke-miterlimit="10"/>
<path d="M57.3838 49.7053C52.5768 50.1542 44.5802 50.4684 41.1209 60.2539C41.1209 60.2539 35.2807 61.3312 35.8198 68.8274C35.8198 68.8274 34.6517 72.4184 30.2491 76.1441C26.7 79.1067 23.6451 83.5506 27.913 94.5032C29.081 97.5555 29.0361 98.3186 39.6833 100.114C39.6833 100.114 51.6783 101.999 57.3838 91.5855C57.3838 91.5855 67.8064 91.6753 73.0626 83.6404C77.3754 77.0419 85.3721 65.5506 72.7481 54.4185C70.1425 52.0843 66.9528 48.7626 57.3838 49.7053Z" fill="#EAC8AF" stroke="#353643" stroke-miterlimit="10"/>
<path d="M53.2507 49.9746C53.0261 50.0195 47.4105 58.0993 45.5685 63.8449C44.6251 66.7626 48.4437 68.8274 50.3306 66.4035C50.6451 65.9995 50.9595 65.5506 51.274 65.012C51.274 65.012 57.0244 52.8025 66.4137 50.3786C66.4137 50.3337 61.6517 48.1791 53.2507 49.9746Z" fill="#471343" stroke="#353643" stroke-miterlimit="10"/>
<path d="M49.0727 63.9796C48.9828 64.3387 48.5336 64.5183 48.1742 64.3836C47.7698 64.2489 47.5452 63.8898 47.68 63.5307C47.7698 63.1716 48.2191 62.992 48.5785 63.1267C48.9828 63.2614 49.2075 63.6205 49.0727 63.9796Z" fill="#EAC8AF"/>
<path d="M50.3754 60.7028C50.2856 61.0619 49.8363 61.2414 49.4769 61.1068C49.0726 60.9721 48.848 60.613 48.9828 60.2539C49.0726 59.8948 49.5219 59.7153 49.8813 59.8499C50.2407 59.9846 50.4653 60.3437 50.3754 60.7028Z" fill="#EAC8AF"/>
<path d="M52.1276 57.6055C52.0377 57.9646 51.5885 58.1442 51.2291 58.0095C50.8248 57.8748 50.6001 57.5157 50.7349 57.1566C50.8697 56.7975 51.274 56.618 51.6334 56.7527C52.0377 56.8873 52.2624 57.2464 52.1276 57.6055Z" fill="#EAC8AF"/>
<path d="M54.4637 54.7776C54.3738 55.1367 53.9246 55.3162 53.5652 55.1816C53.1608 55.0469 52.9362 54.6878 53.071 54.3287C53.2058 53.9696 53.6101 53.7901 53.9695 53.9247C54.3289 54.0145 54.5535 54.4185 54.4637 54.7776Z" fill="#EAC8AF"/>
<path d="M57.0244 52.4883C56.9345 52.8474 56.4853 53.027 56.1259 52.8923C55.7215 52.7577 55.4969 52.3986 55.6317 52.0395C55.7215 51.6804 56.1708 51.5008 56.5302 51.6355C56.8896 51.7701 57.1142 52.1741 57.0244 52.4883Z" fill="#EAC8AF"/>
<path d="M69.6932 57.426C69.6932 57.426 80.4752 47.416 85.0126 54.3736C86.2256 56.214 86.2705 59.7601 81.823 61.7801C81.823 61.7801 76.7914 64.9222 76.0276 64.4733" fill="#EAC8AF"/>
<path d="M69.6932 57.426C69.6932 57.426 80.4752 47.416 85.0126 54.3736C86.2256 56.214 86.2705 59.7601 81.823 61.7801C81.823 61.7801 76.7914 64.9222 76.0276 64.4733" stroke="#353643" stroke-miterlimit="10"/>
<path d="M76.2523 60.2539C78.1841 59.6255 81.4636 58.3237 81.7781 56.9322C81.8679 56.5282 81.6433 56.1691 81.2839 56.0345C80.2955 55.6305 77.645 55.1367 75.4886 59.3113C75.1741 59.805 75.6683 60.4335 76.2523 60.2539Z" fill="#BF6A58" stroke="#471343" stroke-miterlimit="10"/>
<path d="M64.3921 106.668C64.3921 106.668 56.3056 102.673 55.2723 94.6378" stroke="#471343" stroke-miterlimit="10"/>
<path d="M84.0692 100.249C79.1724 97.78 78.0942 95.8947 77.6899 93.6055C77.1957 90.9571 77.4203 84.4933 72.7481 84.1342" stroke="#471343" stroke-miterlimit="10"/>
<path d="M64.1675 45.2165C64.1675 45.2165 64.437 43.3312 68.6151 39.9647" stroke="#471343" stroke-miterlimit="10"/>
<path d="M45.0744 96.8373C44.7599 96.8373 32.3605 101.102 33.8431 90.9571" stroke="#353643" stroke-miterlimit="10"/>
<path d="M61.6517 70.6678C61.2024 72.0594 60.0793 73.002 59.091 72.6878C58.1026 72.3736 57.6534 70.9821 58.1475 69.5905C58.6866 68.0195 59.4054 67.9746 60.3489 68.2888C61.3372 68.5581 62.1459 69.0968 61.6517 70.6678Z" fill="#471343"/>
<path d="M54.0144 65.0569C53.8347 65.5058 54.0144 66.1342 55.0926 66.3138C55.5418 66.4035 56.0809 66.4035 56.5302 66.3138C57.9678 66.0444 61.9212 65.3711 65.2457 65.7751C65.7398 65.82 66.0094 65.1916 65.6051 64.8774C64.3921 63.9796 63.5385 63.2614 61.1575 62.6778C59.9894 62.4085 56.2157 62.7227 55.3172 63.4858C54.9578 63.8449 54.1941 64.5631 54.0144 65.0569Z" fill="#471343"/>
<path d="M43.9512 64.3836C43.9962 64.8774 43.6367 65.3711 42.5585 65.2814C42.0644 65.2365 41.6151 65.1018 41.1659 64.8774C39.863 64.204 39.5486 63.3063 36.2241 62.6778C35.7299 62.5881 35.685 61.9147 36.1343 61.7352C37.527 61.2414 37.9313 61.1516 40.3572 61.3312C41.076 61.3761 42.4687 61.5107 43.0977 62.4983C43.4121 62.9023 43.9063 63.8 43.9512 64.3836Z" fill="#471343"/>
<path d="M37.8863 68.199C37.9312 69.5456 38.65 70.623 39.5935 70.623C40.492 70.623 41.1658 69.8599 41.1209 68.5581C41.076 67.0319 40.6717 66.583 39.7732 66.583C38.8297 66.583 37.8414 66.7177 37.8863 68.199Z" fill="#471343"/>
<path d="M28.3622 95.9845C28.3622 95.9845 34.2924 97.9146 34.2025 95.0419" stroke="#471343" stroke-miterlimit="10"/>
<path d="M28.5419 84.7625L38.5602 77.401L41.1659 77.8948L41.076 85.5256C41.076 85.5705 30.5186 88.0842 28.5419 84.7625Z" fill="#BF6A58" stroke="#353643" stroke-miterlimit="10"/>
<path d="M28.4521 85.6154C29.3506 87.2763 31.0577 89.79 33.8431 91.002C33.9778 91.0469 34.1575 91.0918 34.2923 91.0469C35.1459 90.8673 38.066 90.0144 41.1658 86.6927C41.6151 86.199 41.2557 85.4359 40.5818 85.4808C38.111 85.6603 33.4837 85.7501 29.2607 84.6279C28.6767 84.4035 28.1376 85.0319 28.4521 85.6154Z" fill="#471343" stroke="#353643" stroke-miterlimit="10"/>
<path d="M60.6633 107.521C60.6633 107.521 53.7449 103.75 53.0261 96.7476" stroke="#471343" stroke-miterlimit="10"/>
<path d="M77.5102 76.0993C77.5102 76.0993 86.585 71.0718 97.2323 83.2813" stroke="#471343" stroke-miterlimit="10"/>
<path d="M79.5767 67.4359C79.5767 67.4359 91.0326 58.4135 95.0759 71.2065C95.0759 71.2065 95.7048 76.593 101.006 78.0743" stroke="#471343" stroke-miterlimit="10"/>
<path d="M43.1426 43.8699C43.1426 43.8699 50.9146 42.9273 50.106 50.9173" stroke="#471343" stroke-miterlimit="10"/>
<path d="M51.9478 50.4235C51.9478 50.4235 50.6001 42.1642 53.7898 41.7153" stroke="#471343" stroke-miterlimit="10"/>
<path d="M84.6083 53.6554C85.0127 53.4759 85.5068 53.3412 85.9561 53.3412C86.4053 53.3412 86.8546 53.3861 87.214 53.5656C87.9777 53.835 88.5168 54.3736 88.8313 55.0469C89.1458 55.6754 89.2356 56.4833 88.9211 57.2913C88.7864 57.6953 88.5168 58.0993 88.1574 58.4584C87.798 58.8175 87.3038 59.1317 86.8097 59.3113C86.3155 59.4908 85.7764 59.5357 85.2822 59.4908C84.833 59.401 84.4286 59.2215 84.1142 58.997C83.7997 58.7726 83.5751 58.5033 83.3954 58.234L83.7548 57.9646C84.0243 58.1442 84.3388 58.234 84.6533 58.2788C84.9677 58.3237 85.2822 58.2788 85.5518 58.234C85.8213 58.1891 86.0459 58.0993 86.2706 58.0095C86.6749 57.7851 87.0343 57.4709 87.2589 57.0669C87.5285 56.618 87.5734 56.1242 87.4386 55.6305C87.3038 55.1816 86.9444 54.7327 86.4952 54.5083C86.0459 54.239 85.417 54.1941 84.833 54.3736L84.6083 53.6554Z" fill="#709BA6" stroke="#353643" stroke-miterlimit="10" stroke-linecap="round" stroke-linejoin="round"/>
<path d="M75.3538 80.0494C75.3538 80.0494 85.8662 76.4135 89.1008 86.4683C89.8646 88.8025 90.8978 92.7526 94.986 94.3237" stroke="#471343" stroke-miterlimit="10"/>
<path d="M93.8629 98.0493C102.026 98.0493 108.643 91.4374 108.643 83.2813C108.643 75.1251 102.026 68.5132 93.8629 68.5132C85.7 68.5132 79.0826 75.1251 79.0826 83.2813C79.0826 91.4374 85.7 98.0493 93.8629 98.0493Z" fill="#2D6670" stroke="#353643" stroke-miterlimit="10"/>
<path d="M81.5085 80.5432C81.7331 80.5881 81.9578 80.4534 82.0476 80.229C82.0925 80.0045 81.9578 79.7801 81.7331 79.6903C81.5085 79.6005 81.2839 79.7801 81.194 80.0045C81.1491 80.2738 81.2839 80.4983 81.5085 80.5432Z" fill="#F3F0E8"/>
<path d="M83.3504 77.0419C83.4852 76.8623 83.3954 76.593 83.2157 76.4583C83.036 76.3237 82.7664 76.4134 82.6317 76.593C82.4969 76.7726 82.5867 77.0868 82.7664 77.1766C82.991 77.3113 83.2606 77.2215 83.3504 77.0419Z" fill="#F3F0E8"/>
<path d="M85.5518 73.7202C85.417 73.5407 85.1025 73.5407 84.9228 73.6753C84.7431 73.8549 84.7431 74.1242 84.8779 74.2589C85.0576 74.4384 85.3271 74.4384 85.5068 74.3038C85.7315 74.1691 85.7315 73.8998 85.5518 73.7202Z" fill="#F3F0E8"/>
<path d="M88.6066 71.7901C88.5168 71.5656 88.2472 71.4759 88.0226 71.6105C87.798 71.7003 87.7082 71.9696 87.8429 72.194C87.9777 72.4185 88.2023 72.5082 88.4269 72.3736C88.6066 72.2389 88.6965 72.0145 88.6066 71.7901Z" fill="#F3F0E8"/>
<path d="M91.5717 70.3985C91.437 70.3985 91.3471 70.4883 91.3022 70.5781C91.2573 70.6679 91.2123 70.8025 91.2573 70.8923C91.3022 71.027 91.3471 71.1168 91.437 71.1616C91.5268 71.2065 91.6166 71.2514 91.7514 71.2514C91.976 71.2065 92.1108 70.9821 92.1108 70.7576C92.021 70.5332 91.7963 70.3537 91.5717 70.3985Z" fill="#F3F0E8"/>
<path d="M95.3005 70.2639C95.0758 70.219 94.8512 70.4434 94.8063 70.6678C94.8063 70.8923 94.9411 71.1167 95.2106 71.1167C95.4353 71.1616 95.6599 70.9821 95.6599 70.7576C95.7048 70.5332 95.5251 70.3087 95.3005 70.2639Z" fill="#F3F0E8"/>
<path d="M98.8945 71.2065C98.6699 71.1167 98.4003 71.2514 98.3105 71.4758C98.2206 71.7003 98.3554 71.9247 98.5351 72.0145C98.7597 72.1043 98.9843 72.0145 99.0742 71.79C99.209 71.5656 99.1191 71.2963 98.8945 71.2065Z" fill="#F3F0E8"/>
<path d="M102.084 73.0918C101.904 72.9571 101.59 72.9571 101.455 73.1816C101.32 73.3611 101.365 73.6304 101.545 73.7651C101.725 73.8998 101.994 73.8998 102.129 73.7202C102.309 73.5407 102.309 73.2264 102.084 73.0918Z" fill="#F3F0E8"/>
<path d="M104.645 75.8299C104.51 75.6504 104.241 75.6055 104.016 75.7402C103.836 75.8748 103.791 76.1442 103.926 76.3237C104.061 76.5033 104.33 76.5482 104.51 76.4584C104.735 76.2788 104.78 76.0095 104.645 75.8299Z" fill="#F3F0E8"/>
<path d="M106.038 79.6903C106.262 79.6454 106.397 79.3761 106.307 79.1516C106.217 78.9272 105.993 78.7925 105.768 78.8823C105.543 78.9721 105.409 79.1965 105.498 79.421C105.588 79.6454 105.813 79.7801 106.038 79.6903Z" fill="#F3F0E8"/>
<path d="M106.487 82.3835C106.262 82.3835 106.082 82.608 106.082 82.8324C106.082 83.0569 106.307 83.2364 106.532 83.2364C106.756 83.2364 106.936 83.0569 106.936 82.7875C106.936 82.5631 106.756 82.3835 106.487 82.3835Z" fill="#F3F0E8"/>
<path d="M106.262 86.0194C106.038 85.9745 105.813 86.1092 105.723 86.3337C105.678 86.5581 105.813 86.7826 106.038 86.8724C106.262 86.9622 106.487 86.7826 106.577 86.5581C106.622 86.2888 106.487 86.0643 106.262 86.0194Z" fill="#F3F0E8"/>
<path d="M105.004 89.386C104.78 89.2514 104.51 89.3411 104.42 89.5207C104.285 89.7002 104.375 89.9696 104.555 90.1042C104.735 90.2389 105.004 90.1491 105.139 89.9696C105.274 89.7451 105.184 89.4758 105.004 89.386Z" fill="#F3F0E8"/>
<path d="M102.219 92.214C102.039 92.3486 102.039 92.6179 102.174 92.7975C102.309 92.977 102.623 92.977 102.803 92.8424C102.983 92.6628 102.983 92.3935 102.848 92.2588C102.623 92.0793 102.354 92.0793 102.219 92.214Z" fill="#F3F0E8"/>
<path d="M99.3437 94.189C99.1191 94.2788 99.0742 94.5481 99.164 94.7726C99.2539 94.997 99.5234 95.0868 99.7481 94.9521C99.9727 94.8623 100.063 94.593 99.9278 94.3685C99.793 94.189 99.5684 94.0992 99.3437 94.189Z" fill="#F3F0E8"/>
<path d="M96.3338 95.401C96.2439 95.3561 96.1541 95.3112 96.0193 95.3112C95.7947 95.3561 95.6599 95.5805 95.6599 95.805C95.7048 96.0294 95.9294 96.2089 96.1541 96.164C96.2888 96.164 96.3787 96.0743 96.4236 95.9845C96.4685 95.8947 96.5135 95.7601 96.4685 95.6703C96.5135 95.5356 96.4236 95.4459 96.3338 95.401Z" fill="#F3F0E8"/>
<path d="M92.5601 95.4459C92.3355 95.401 92.1108 95.5805 92.1108 95.805C92.0659 96.0294 92.2456 96.2539 92.4702 96.2987C92.6949 96.3436 92.9195 96.1192 92.9644 95.8947C92.9644 95.6703 92.7847 95.4459 92.5601 95.4459Z" fill="#F3F0E8"/>
<path d="M89.1907 94.593C88.9661 94.5032 88.7414 94.593 88.6516 94.8174C88.5617 95.0419 88.6516 95.3112 88.8762 95.401C89.1008 95.4907 89.3704 95.3561 89.4602 95.1316C89.5052 94.9072 89.4153 94.6379 89.1907 94.593Z" fill="#F3F0E8"/>
<path d="M85.5967 92.8424C85.4619 93.0219 85.4619 93.2913 85.6416 93.4708C85.8213 93.6055 86.1358 93.6055 86.2705 93.3811C86.4053 93.2015 86.3604 92.9322 86.1807 92.7975C86.001 92.6628 85.7764 92.6628 85.5967 92.8424Z" fill="#F3F0E8"/>
<path d="M83.2157 90.1491C83.036 90.2838 82.9461 90.5531 83.0809 90.7326C83.2157 90.9122 83.4852 90.9571 83.7099 90.8224C83.8896 90.6878 83.9345 90.4184 83.7997 90.2389C83.6649 90.0594 83.4403 90.0145 83.2157 90.1491Z" fill="#F3F0E8"/>
<path d="M81.7332 86.8723C81.5085 86.9172 81.3737 87.1865 81.4636 87.411C81.5534 87.6354 81.7781 87.7701 82.0027 87.6803C82.2273 87.5905 82.3621 87.3661 82.2722 87.1416C82.1824 86.9172 81.9578 86.7825 81.7332 86.8723Z" fill="#F3F0E8"/>
<path d="M81.6433 83.7302C81.6433 83.5057 81.4186 83.3262 81.194 83.3262C80.9694 83.3262 80.7897 83.5057 80.7897 83.7751C80.7897 83.9995 81.0143 84.224 81.239 84.1791C81.4636 84.1342 81.6433 83.9546 81.6433 83.7302Z" fill="#F3F0E8"/>
<path d="M93.8629 93.5606C99.5447 93.5606 104.151 88.9584 104.151 83.2813C104.151 77.6042 99.5447 73.002 93.8629 73.002C88.1811 73.002 83.5751 77.6042 83.5751 83.2813C83.5751 88.9584 88.1811 93.5606 93.8629 93.5606Z" fill="#709BA6" stroke="#353643" stroke-miterlimit="10"/>
<path d="M90.9877 86.0194C92.1786 86.0194 93.1441 85.1553 93.1441 84.0893C93.1441 83.0233 92.1786 82.1591 90.9877 82.1591C89.7968 82.1591 88.8313 83.0233 88.8313 84.0893C88.8313 85.1553 89.7968 86.0194 90.9877 86.0194Z" stroke="#353643" stroke-width="2" stroke-miterlimit="10" stroke-linecap="round" stroke-linejoin="round"/>
<path d="M97.5917 86.9172C97.5917 86.9172 97.0975 88.1292 96.199 88.1292C96.199 88.1292 94.7165 88.1741 95.0759 86.5132C95.4802 84.8075 96.1091 81.3062 96.2888 79.5556C96.3787 78.8374 96.3787 77.7601 94.3121 77.5357C93.4586 77.4459 91.8413 77.4908 92.3354 80.3187C92.5151 81.2613 93.1441 84.0893 93.1441 84.0893" stroke="#353643" stroke-width="2" stroke-miterlimit="10" stroke-linecap="round" stroke-linejoin="round"/>
</svg>
