<svg width="135" height="135" viewBox="0 0 135 135" fill="none" xmlns="http://www.w3.org/2000/svg">
<path d="M135 0H0V135H135V0Z" fill="#FFF1E1"/>
<path d="M94.2093 94.3391C108.964 79.5606 108.964 55.5999 94.2093 40.8214C79.4547 26.0428 55.5327 26.0428 40.7781 40.8214C26.0235 55.5999 26.0235 79.5606 40.7781 94.3392C55.5327 109.118 79.4547 109.118 94.2093 94.3391Z" fill="#EBB264"/>
<g opacity="0.65">
<path opacity="0.65" d="M90.8007 97.2934C90.7557 97.2934 90.7557 97.2484 90.7557 97.2484V93.7386C90.7557 92.7936 90.1268 91.9836 89.2732 91.7137L87.611 91.2187C87.611 91.1287 87.611 91.0387 87.611 90.9937C87.611 90.9487 87.611 90.9487 87.611 90.9037C87.611 90.8587 87.611 90.7687 87.611 90.7237C87.611 90.7237 87.611 90.7237 87.611 90.6787C87.611 90.5887 87.611 90.4987 87.611 90.4537C87.611 86.9889 84.4662 84.379 78.9405 82.9841C78.9405 82.9841 78.8955 82.9841 78.8955 82.9391C78.2217 81.8591 77.5927 80.7342 77.0536 79.4743C77.0087 79.3843 76.9638 79.2493 76.9188 79.1593C76.9188 79.1143 76.8739 79.0693 76.829 79.0243C75.7059 76.4144 74.8523 73.5795 74.1784 70.6097C74.1784 70.5197 74.1784 70.4747 74.1335 70.3847C74.1335 70.2947 74.0886 70.2497 74.0886 70.1597C72.1568 61.2951 72.0669 51.7106 72.2017 46.1759V46.1309C73.1451 45.2759 73.8639 44.106 74.1784 42.846C74.1784 42.801 74.2233 42.801 74.2233 42.801C80.423 42.801 89.5877 42.846 96.1917 42.891C93.7657 40.0562 90.9354 37.5813 87.7458 35.5564C87.6559 35.5564 87.611 35.5564 87.5211 35.6014C82.3098 36.2314 77.5927 35.0164 73.5045 32.0016C73.5045 32.0016 73.4596 31.9566 73.5045 31.9566C73.6842 31.4166 73.7741 30.8316 73.7741 30.2017C71.7525 29.8417 69.641 29.6617 67.5295 29.6617C65.5977 29.6617 63.7109 29.7967 61.869 30.0667C61.869 30.6966 61.9588 31.3266 62.1385 31.9116C62.1385 31.9566 62.1385 31.9566 62.1385 31.9566C58.0503 34.9714 53.3332 36.1864 48.1219 35.5564C47.8973 35.5114 47.6727 35.5114 47.4031 35.4664C36.7559 42.2611 29.7027 54.0955 29.7027 67.5948C29.7027 72.4546 30.6461 77.0894 32.3083 81.3642C33.5213 81.5442 34.7792 81.6342 36.082 81.6342C45.696 81.6342 53.2434 76.9994 53.2434 71.0597C53.2434 70.4747 53.1535 69.8447 53.0187 69.2598C52.7941 68.3598 51.9405 67.7298 50.9971 67.7298H48.8856H48.7059L39.4963 43.026C39.4963 42.981 39.4963 42.936 39.5412 42.936C45.9655 42.891 54.9056 42.846 61.3748 42.846C61.4197 42.846 61.4197 42.846 61.4197 42.891C61.7342 44.196 62.4081 45.3209 63.3964 46.1759V46.2209C63.5312 51.7556 63.4413 61.3401 61.5096 70.1597C61.5096 70.2047 61.4646 70.2497 61.4646 70.2947C61.4646 70.3847 61.4197 70.4747 61.4197 70.5197C60.7908 73.4445 59.9372 76.2794 58.8141 78.8443C58.8141 78.8443 58.8141 78.8893 58.7691 78.8893C58.6793 79.0243 58.6344 79.1593 58.5894 79.2943C58.0054 80.5992 57.3315 81.8591 56.6127 83.0291C56.6127 83.0291 56.6127 83.0291 56.5678 83.0741C55.7142 83.2991 54.8607 83.5691 54.0969 83.884C51.7608 84.784 47.8524 86.8989 47.8524 90.6337C47.8524 90.8137 47.8524 90.9937 47.8524 91.1737C47.8524 91.2187 47.8524 91.2187 47.8074 91.2187L46.28 91.6687C45.3815 91.9387 44.7525 92.7486 44.7525 93.6936V97.2034C44.7525 97.2484 44.7076 97.2484 44.7076 97.2484L44.1236 97.2934C50.5479 102.333 58.6344 105.348 67.4397 105.348C76.245 105.348 84.3764 102.288 90.8007 97.2484V97.2934Z" fill="#EBB264"/>
<path opacity="0.65" d="M96.4612 43.296L88.3747 67.7298H88.195H85.814C84.8706 67.7298 84.0619 68.3598 83.7924 69.2598C83.6576 69.8447 83.5677 70.4297 83.5677 71.0597C83.5677 76.9994 91.1151 81.6342 100.729 81.6342C101.358 81.6342 101.942 81.6342 102.526 81.5892C104.233 77.2694 105.177 72.5446 105.177 67.6398C105.267 58.3253 101.942 49.8657 96.4612 43.296Z" fill="#EBB264"/>
</g>
<path d="M93.9904 99.5882L88.6892 99.1382V93.6485L85.3198 92.6586H68.2034H67.26H50.1885L46.8191 93.6485V99.1382L41.518 99.5882L38.4631 105.168C38.4631 105.168 46.8191 106.338 68.2483 106.338C88.195 106.338 97.0452 105.168 97.0452 105.168L93.9904 99.5882Z" fill="#BF6A58" stroke="#353643" stroke-miterlimit="10"/>
<path d="M85.4995 90.4537C85.4995 94.2785 88.195 99.8132 67.8889 99.8132C48.706 99.8132 49.9189 94.5035 49.9189 90.6787C49.9189 86.8539 57.1519 83.839 67.8889 83.839C78.626 83.839 85.4995 86.6289 85.4995 90.4537Z" fill="#EAC8AF" stroke="#353643" stroke-miterlimit="10"/>
<path d="M85.4995 90.4537C85.4995 94.2785 88.195 99.8132 67.8889 99.8132C48.706 99.8132 49.9189 94.5035 49.9189 90.6787C49.9189 86.8539 57.1519 83.839 67.8889 83.839C78.626 83.839 85.4995 86.6289 85.4995 90.4537Z" fill="#EAC8AF" stroke="#353643" stroke-miterlimit="10"/>
<path d="M67.889 83.839C57.6011 83.839 50.5479 86.5839 49.9639 90.1837C50.3233 93.4685 52.8391 96.7084 67.889 96.7084C81.9954 96.7084 85.0054 94.0535 85.4996 91.1286C85.4996 90.9036 85.4996 90.6787 85.4996 90.4537C85.4996 86.6289 78.671 83.839 67.889 83.839Z" fill="#EAC8AF" stroke="#353643" stroke-miterlimit="10"/>
<path d="M68.2483 85.8639C59.6677 85.8639 53.7825 87.2589 53.2434 89.1038C53.5579 90.7687 55.6244 92.4336 68.2483 92.4336C80.0187 92.4336 82.5345 91.0837 82.9838 89.5987C82.9838 89.4637 82.9838 89.3737 82.9838 89.2388C82.9388 87.2589 77.2333 85.8639 68.2483 85.8639Z" fill="#709BA6" stroke="#353643" stroke-miterlimit="10"/>
<path d="M104.143 36.8613C104.143 36.8613 102.616 38.6162 99.2466 37.5813C97.0003 36.8613 96.012 35.1964 96.012 35.1964C96.012 35.1964 82.7142 42.576 71.0337 32.7215H67.7991H64.5645C52.839 42.576 39.5412 35.1964 39.5412 35.1964C39.5412 35.1964 38.5529 36.8613 36.3066 37.5813C32.8923 38.6162 31.3649 36.8613 31.3649 36.8613L22.6045 41.0011H31.275C31.275 41.0011 58.6793 40.7761 67.26 40.9111V41.0011C67.3498 40.9561 67.7991 40.9561 68.5179 40.9111C69.2816 40.9111 69.7308 40.9561 69.8207 41.0011L69.7758 40.9111C78.0869 40.7761 104.233 41.0011 104.233 41.0011H112.904L104.143 36.8613Z" fill="#BF6A58" stroke="#353643" stroke-miterlimit="10"/>
<path d="M81.007 88.6538C67.3049 76.7294 70.3598 41.3611 70.3598 41.3611H68.2483H67.3049H65.1934C65.1934 41.3611 68.2483 76.7294 54.5462 88.6538C54.5462 88.6538 59.8474 91.1287 67.7541 91.1287C75.7059 91.1287 81.007 88.6538 81.007 88.6538Z" fill="#2D6670" stroke="#353643" stroke-miterlimit="10"/>
<path d="M67.7991 21.0671L64.0254 28.9867H71.5728L67.7991 21.0671Z" fill="#EAC8AF" stroke="#353643" stroke-miterlimit="10"/>
<path d="M35.4081 37.9413L24.3117 71.5996L48.077 71.8246L35.4081 37.9413Z" stroke="#353643" stroke-width="2" stroke-miterlimit="10"/>
<path d="M100.37 37.9413L89.2283 71.5996L112.994 71.8246L100.37 37.9413Z" stroke="#353643" stroke-width="2" stroke-miterlimit="10"/>
<path d="M21.0771 69.7547C20.9872 70.1597 20.8974 70.6097 20.8974 71.0146C20.8974 75.7394 27.6811 79.5642 36.0371 79.5642C44.3932 79.5642 51.1768 75.7394 51.1768 71.0146C51.1768 70.5647 51.1319 70.1597 50.9971 69.7547H21.0771Z" fill="#EAC8AF" stroke="#353643" stroke-miterlimit="10"/>
<path d="M46.3698 69.7547C44.0337 71.8246 40.3499 73.2195 36.1719 73.2195C31.9938 73.2195 28.31 71.8696 25.9739 69.7547H23.4581C23.5929 74.3895 29.2534 78.1243 36.1719 78.1243C43.0903 78.1243 48.706 74.3895 48.8857 69.7547H46.3698Z" fill="#2D6670" stroke="#353643" stroke-miterlimit="10"/>
<path d="M27.2767 72.3646C27.2767 72.7246 26.9622 73.0395 26.513 73.0395C26.0637 73.0395 25.7493 72.7246 25.7493 72.3646C25.7493 72.0046 26.0637 71.6896 26.513 71.6896C26.9622 71.6896 27.2767 72.0046 27.2767 72.3646Z" fill="#E19376"/>
<path d="M46.28 72.3646C46.28 72.7246 45.9655 73.0395 45.5163 73.0395C45.112 73.0395 44.7526 72.7246 44.7526 72.3646C44.7526 72.0046 45.067 71.6896 45.5163 71.6896C45.9655 71.7346 46.28 72.0046 46.28 72.3646Z" fill="#E19376"/>
<path d="M30.4215 74.5695C30.4215 74.9295 30.107 75.2445 29.6578 75.2445C29.2534 75.2445 28.894 74.9295 28.894 74.5695C28.894 74.2095 29.2085 73.8945 29.6578 73.8945C30.0621 73.9395 30.4215 74.2095 30.4215 74.5695Z" fill="#E19376"/>
<path d="M41.1586 74.5695C41.1586 74.9295 40.8441 75.2445 40.3948 75.2445C39.9905 75.2445 39.6311 74.9295 39.6311 74.5695C39.6311 74.2095 39.9456 73.8945 40.3948 73.8945C40.8441 73.9395 41.1586 74.2095 41.1586 74.5695Z" fill="#E19376"/>
<path d="M34.8691 75.9194C35.2908 75.9194 35.6328 75.6172 35.6328 75.2444C35.6328 74.8717 35.2908 74.5695 34.8691 74.5695C34.4473 74.5695 34.1053 74.8717 34.1053 75.2444C34.1053 75.6172 34.4473 75.9194 34.8691 75.9194Z" fill="#E19376"/>
<path d="M67.7541 45.8609C70.2353 45.8609 72.2466 43.8462 72.2466 41.3611C72.2466 38.8759 70.2353 36.8613 67.7541 36.8613C65.273 36.8613 63.2616 38.8759 63.2616 41.3611C63.2616 43.8462 65.273 45.8609 67.7541 45.8609Z" fill="#709BA6" stroke="#353643" stroke-miterlimit="10"/>
<path d="M70.4047 40.9561C69.7758 41.1811 69.0121 41.3611 68.6077 41.8561C68.2034 42.3061 68.0237 42.981 67.7991 43.566C67.6194 42.981 67.3948 42.2611 66.9455 41.8111C66.7209 41.5861 66.4513 41.4511 66.1818 41.3161C65.9122 41.1811 65.463 41.1361 65.1934 40.9561C65.7774 40.7761 66.5412 40.5511 66.9455 40.1012C67.1701 39.8762 67.3049 39.5162 67.4397 39.2462C67.5745 38.9762 67.6194 38.6162 67.7542 38.3463C67.9339 38.9312 68.1585 39.6512 68.5628 40.1012C69.057 40.5961 69.7758 40.7761 70.4047 40.9561Z" fill="#E19376"/>
<path d="M67.7542 34.1165C69.9376 34.1165 71.7076 32.3436 71.7076 30.1566C71.7076 27.9697 69.9376 26.1968 67.7542 26.1968C65.5708 26.1968 63.8008 27.9697 63.8008 30.1566C63.8008 32.3436 65.5708 34.1165 67.7542 34.1165Z" fill="#709BA6" stroke="#353643" stroke-miterlimit="10"/>
<path d="M70.4047 29.9766C69.7758 30.2016 69.0121 30.3816 68.6077 30.8766C68.2034 31.3266 68.0237 32.0015 67.7991 32.5865C67.6194 32.0015 67.3948 31.2816 66.9455 30.8316C66.7209 30.6066 66.4513 30.4716 66.1818 30.3366C65.9122 30.2016 65.463 30.1566 65.1934 29.9766C65.7774 29.7966 66.5412 29.5717 66.9455 29.1217C67.1701 28.8967 67.3049 28.5367 67.4397 28.2667C67.5745 27.9967 67.6194 27.6367 67.7542 27.3668C67.9339 27.9517 68.1585 28.6717 68.5628 29.1217C69.057 29.5717 69.7758 29.7516 70.4047 29.9766Z" fill="#E19376"/>
<path d="M85.7691 69.7547C85.6792 70.1597 85.5894 70.6097 85.5894 71.0146C85.5894 75.7394 92.3731 79.5642 100.729 79.5642C109.085 79.5642 115.869 75.7394 115.869 71.0146C115.869 70.5647 115.824 70.1597 115.689 69.7547H85.7691Z" fill="#EAC8AF" stroke="#353643" stroke-miterlimit="10"/>
<path d="M111.107 69.7547C108.771 71.8246 105.087 73.2195 100.909 73.2195C96.7308 73.2195 93.0469 71.8696 90.7108 69.7547H88.195C88.3298 74.3895 93.9903 78.1243 100.909 78.1243C107.827 78.1243 113.443 74.3895 113.623 69.7547H111.107Z" fill="#2D6670" stroke="#353643" stroke-miterlimit="10"/>
<path d="M91.9687 72.3646C91.9687 72.7246 91.6543 73.0395 91.205 73.0395C90.7557 73.0395 90.4413 72.7246 90.4413 72.3646C90.4413 72.0046 90.7557 71.6896 91.205 71.6896C91.6543 71.6896 91.9687 72.0046 91.9687 72.3646Z" fill="#E19376"/>
<path d="M111.017 72.3646C111.017 72.7246 110.702 73.0395 110.253 73.0395C109.804 73.0395 109.489 72.7246 109.489 72.3646C109.489 72.0046 109.804 71.6896 110.253 71.6896C110.702 71.6896 111.017 72.0046 111.017 72.3646Z" fill="#E19376"/>
<path d="M95.1135 74.5695C95.1135 74.9295 94.799 75.2445 94.3498 75.2445C93.9005 75.2445 93.586 74.9295 93.586 74.5695C93.586 74.2095 93.9005 73.8945 94.3498 73.8945C94.799 73.8945 95.1135 74.2095 95.1135 74.5695Z" fill="#E19376"/>
<path d="M105.895 74.5695C105.895 74.9295 105.581 75.2445 105.132 75.2445C104.727 75.2445 104.368 74.9295 104.368 74.5695C104.368 74.2095 104.683 73.8945 105.132 73.8945C105.536 73.9395 105.895 74.2095 105.895 74.5695Z" fill="#E19376"/>
<path d="M99.606 75.9194C100.028 75.9194 100.37 75.6172 100.37 75.2444C100.37 74.8717 100.028 74.5695 99.606 74.5695C99.1842 74.5695 98.8422 74.8717 98.8422 75.2444C98.8422 75.6172 99.1842 75.9194 99.606 75.9194Z" fill="#E19376"/>
<path d="M60.5661 79.9692C62.3182 80.9142 64.9688 81.5441 67.9338 81.5441C70.7641 81.5441 73.2799 81.0042 75.032 80.1042" fill="#2D6670"/>
<path d="M60.5661 79.9692C62.3182 80.9142 64.9688 81.5441 67.9338 81.5441C70.7641 81.5441 73.2799 81.0042 75.032 80.1042" stroke="#353643" stroke-miterlimit="10"/>
<path d="M63.4413 70.7896C64.7891 71.1046 66.3165 71.2846 67.9338 71.2846C69.4164 71.2846 70.854 71.1496 72.1119 70.8346" fill="#2D6670"/>
<path d="M63.4413 70.7896C64.7891 71.1046 66.3165 71.2846 67.9338 71.2846C69.4164 71.2846 70.854 71.1496 72.1119 70.8346" stroke="#353643" stroke-miterlimit="10"/>
<path d="M46.8191 99.1833C49.874 100.083 57.2417 101.838 68.6077 101.838C79.4796 101.838 86.7125 100.218 89.992 99.2733" stroke="#353643" stroke-miterlimit="10"/>
<path d="M67.7092 48.3808C75.8722 48.3808 82.4895 41.7527 82.4895 33.5765C82.4895 25.4003 75.8722 18.7722 67.7092 18.7722C59.5463 18.7722 52.9289 25.4003 52.9289 33.5765C52.9289 41.7527 59.5463 48.3808 67.7092 48.3808Z" fill="#2D6670" stroke="#353643" stroke-miterlimit="10"/>
<path d="M55.3548 30.8316C55.5795 30.8766 55.8041 30.7416 55.8939 30.5166C55.9389 30.2917 55.8041 30.0667 55.5795 29.9767C55.3548 29.8867 55.1302 30.0667 55.0404 30.2917C54.9954 30.5616 55.1302 30.7866 55.3548 30.8316Z" fill="#F3F0E8"/>
<path d="M57.1968 27.3218C57.3315 27.1418 57.2417 26.8718 57.062 26.7368C56.8823 26.6018 56.6127 26.6918 56.478 26.8718C56.3432 27.0968 56.433 27.3668 56.6127 27.4568C56.8374 27.5918 57.1069 27.5018 57.1968 27.3218Z" fill="#F3F0E8"/>
<path d="M59.443 23.992C59.3082 23.812 58.9938 23.812 58.8141 23.947C58.6344 24.127 58.6344 24.3969 58.7691 24.5319C58.9488 24.7119 59.2184 24.7119 59.3981 24.5769C59.5778 24.4419 59.5778 24.172 59.443 23.992Z" fill="#F3F0E8"/>
<path d="M62.453 22.057C62.3631 21.8321 62.0936 21.7421 61.869 21.8771C61.6443 21.967 61.5545 22.237 61.6893 22.462C61.824 22.687 62.0487 22.777 62.2733 22.642C62.453 22.507 62.5428 22.282 62.453 22.057Z" fill="#F3F0E8"/>
<path d="M65.418 20.6621C65.2833 20.6621 65.1934 20.7521 65.1485 20.8421C65.1036 20.9321 65.0586 21.0671 65.1036 21.1571C65.1485 21.2921 65.1934 21.3821 65.2833 21.4271C65.3731 21.4721 65.463 21.5171 65.5977 21.5171C65.8224 21.4721 65.9571 21.2471 65.9571 21.0221C65.8673 20.7971 65.6427 20.6171 65.418 20.6621Z" fill="#F3F0E8"/>
<path d="M69.1468 20.5271C68.9222 20.4821 68.6976 20.7071 68.6526 20.9321C68.6526 21.1571 68.7874 21.3821 69.057 21.3821C69.2816 21.4271 69.5062 21.2471 69.5062 21.0221C69.5511 20.7971 69.3714 20.5721 69.1468 20.5271Z" fill="#F3F0E8"/>
<path d="M72.7408 21.4721C72.5162 21.3821 72.2467 21.5171 72.1568 21.7421C72.067 21.967 72.2017 22.192 72.3814 22.282C72.606 22.372 72.8307 22.282 72.9205 22.057C73.0553 21.832 72.9654 21.5621 72.7408 21.4721Z" fill="#F3F0E8"/>
<path d="M75.9305 23.362C75.7508 23.227 75.4363 23.227 75.3016 23.452C75.1668 23.632 75.2117 23.9019 75.3914 24.0369C75.5711 24.1719 75.8406 24.1719 75.9754 23.9919C76.1551 23.8119 76.1551 23.497 75.9305 23.362Z" fill="#F3F0E8"/>
<path d="M78.4912 26.1068C78.3564 25.9268 78.0869 25.8819 77.8623 26.0168C77.6825 26.1518 77.6376 26.4218 77.7724 26.6018C77.9072 26.7818 78.1767 26.8268 78.3564 26.7368C78.5811 26.6018 78.626 26.2868 78.4912 26.1068Z" fill="#F3F0E8"/>
<path d="M79.8839 29.9767C80.1085 29.9317 80.2433 29.6617 80.1535 29.4367C80.0636 29.2117 79.839 29.0767 79.6143 29.1667C79.3897 29.2567 79.2549 29.4817 79.3448 29.7067C79.4346 29.9317 79.6593 30.0667 79.8839 29.9767Z" fill="#F3F0E8"/>
<path d="M80.378 32.7215C80.1534 32.7215 79.9737 32.9465 79.9737 33.1715C79.9737 33.3965 80.1983 33.5765 80.423 33.5765C80.6476 33.5765 80.8273 33.3965 80.8273 33.1265C80.7824 32.8565 80.6027 32.6765 80.378 32.7215Z" fill="#F3F0E8"/>
<path d="M80.1085 36.3214C79.8839 36.2764 79.6592 36.4114 79.5694 36.6363C79.5245 36.8613 79.6592 37.0863 79.8839 37.1763C80.1085 37.2663 80.3331 37.0863 80.423 36.8613C80.4679 36.5914 80.3331 36.3664 80.1085 36.3214Z" fill="#F3F0E8"/>
<path d="M78.8506 39.6962C78.626 39.5612 78.3565 39.6512 78.2666 39.8312C78.1318 40.0112 78.2217 40.2812 78.4014 40.4162C78.5811 40.5511 78.8507 40.4612 78.9854 40.2812C79.1202 40.0562 79.0304 39.7862 78.8506 39.6962Z" fill="#F3F0E8"/>
<path d="M76.0653 42.531C75.8856 42.666 75.8856 42.936 76.0203 43.116C76.1551 43.296 76.4696 43.296 76.6493 43.161C76.829 42.981 76.829 42.711 76.6942 42.576C76.5145 42.396 76.245 42.396 76.0653 42.531Z" fill="#F3F0E8"/>
<path d="M73.1901 44.5559C72.9654 44.6459 72.8756 44.9159 73.0104 45.1409C73.1002 45.3659 73.3698 45.4559 73.5944 45.3209C73.819 45.2309 73.9089 44.9609 73.7741 44.7359C73.6842 44.511 73.4147 44.421 73.1901 44.5559Z" fill="#F3F0E8"/>
<path d="M70.225 45.7259C70.1352 45.6809 70.0453 45.6359 69.9105 45.6359C69.6859 45.6809 69.5511 45.9059 69.5511 46.1309C69.5961 46.3559 69.8207 46.5359 70.0453 46.4909C70.1801 46.4909 70.2699 46.4009 70.3149 46.3109C70.3598 46.2209 70.4047 46.0859 70.3598 45.9959C70.3598 45.8609 70.3149 45.7709 70.225 45.7259Z" fill="#F3F0E8"/>
<path d="M66.4064 45.7709C66.1818 45.7259 65.9571 45.9059 65.9571 46.1309C65.9122 46.3558 66.0919 46.5808 66.3165 46.6258C66.5412 46.6708 66.7658 46.4458 66.8107 46.2209C66.8107 45.9959 66.631 45.7709 66.4064 45.7709Z" fill="#F3F0E8"/>
<path d="M63.037 44.916C62.8124 44.826 62.5878 44.916 62.4979 45.1409C62.4081 45.3659 62.4979 45.6359 62.7225 45.7259C62.9472 45.8159 63.2167 45.6809 63.3066 45.4559C63.3515 45.2309 63.2616 44.961 63.037 44.916Z" fill="#F3F0E8"/>
<path d="M59.443 43.161C59.3082 43.341 59.3082 43.611 59.4879 43.791C59.6676 43.926 59.9821 43.926 60.1169 43.701C60.2517 43.521 60.2068 43.251 60.027 43.116C59.8473 42.981 59.6227 42.981 59.443 43.161Z" fill="#F3F0E8"/>
<path d="M57.062 40.4612C56.8823 40.5961 56.7925 40.8661 56.9272 41.0461C57.062 41.2261 57.3315 41.2711 57.5562 41.1361C57.7359 41.0011 57.7808 40.7311 57.646 40.5511C57.5113 40.3712 57.2866 40.3262 57.062 40.4612Z" fill="#F3F0E8"/>
<path d="M55.5795 37.1763C55.3548 37.2213 55.2201 37.4913 55.3099 37.7163C55.3998 37.9413 55.6244 38.0762 55.849 37.9863C56.0736 37.8963 56.2084 37.6713 56.1186 37.4463C56.0287 37.2213 55.8041 37.0863 55.5795 37.1763Z" fill="#F3F0E8"/>
<path d="M55.4896 34.0265C55.4896 33.8015 55.265 33.6215 55.0404 33.6215C54.8157 33.6215 54.636 33.8015 54.636 34.0715C54.636 34.2965 54.8607 34.5214 55.0853 34.4764C55.3548 34.4315 55.5345 34.2515 55.4896 34.0265Z" fill="#F3F0E8"/>
<path d="M77.7377 35.9684C79.0433 30.43 75.6192 24.8799 70.0897 23.5721C64.5602 22.2643 59.0192 25.694 57.7135 31.2325C56.4078 36.771 59.8319 42.321 65.3614 43.6288C70.891 44.9366 76.432 41.5069 77.7377 35.9684Z" fill="#709BA6" stroke="#353643" stroke-miterlimit="10"/>
<path d="M61.7791 35.0614H65.9572C64.9239 34.4764 64.25 33.3965 64.25 32.1815C64.25 30.3366 65.7325 28.8517 67.5744 28.8517C69.4164 28.8517 70.8989 30.3366 70.8989 32.1815C70.8989 33.3065 70.3149 34.3414 69.4613 34.9264H73.7292" stroke="#353643" stroke-width="2" stroke-miterlimit="10" stroke-linecap="round" stroke-linejoin="round"/>
<path d="M61.7791 37.4013H73.6842" stroke="#353643" stroke-width="2" stroke-miterlimit="10" stroke-linecap="round" stroke-linejoin="round"/>
</svg>
