<svg width="135" height="135" viewBox="0 0 135 135" fill="none" xmlns="http://www.w3.org/2000/svg">
<path d="M135 0H0V135H135V0Z" fill="#FFF1E1"/>
<path d="M94.2093 93.7767C108.964 78.9982 108.964 55.0375 94.2092 40.2589C79.4546 25.4804 55.5327 25.4804 40.7781 40.2589C26.0235 55.0374 26.0235 78.9982 40.7781 93.7767C55.5327 108.555 79.4546 108.555 94.2093 93.7767Z" fill="#EBB264"/>
<g opacity="0.65">
<g opacity="0.65">
<path opacity="0.65" d="M28.2907 68.687C29.8631 69.587 32.3789 67.787 33.6817 67.0671C36.2424 65.6271 38.8481 63.8272 40.4654 61.3074C42.2624 63.4223 44.6883 64.9522 47.3838 65.7621C49.4953 66.3921 54.0327 67.4271 53.7632 63.8722C53.5385 60.9474 52.2806 57.9775 51.7415 55.0526C51.2923 52.5778 51.4271 49.9229 51.3372 47.358C51.2474 45.1081 51.3821 45.4681 53.6733 44.5231C56.8181 43.2182 59.9628 42.7682 63.3771 43.0382C61.7149 45.1531 58.8846 47.403 60.6367 50.3729C62.254 53.1627 66.5668 51.3178 69.1275 52.3528C71.4187 53.2527 73.0809 55.2326 75.5967 55.6376C78.427 56.0876 81.2573 55.0077 83.0094 52.7128C86.4237 56.2226 90.7814 60.2724 96.0376 60.0474C101.339 59.8224 104.888 55.9976 104.079 50.7778C103.315 45.7831 100.845 41.1933 97.6998 37.3685C95.9028 35.2086 93.8812 33.2287 91.6349 31.5188C90.6017 30.7538 89.5684 30.0338 88.4902 29.4039C87.6815 28.9089 84.9411 28.0539 84.4469 27.334C84.2223 27.019 84.402 25.3991 84.3571 24.9491C84.2673 24.0941 84.1325 23.1942 83.9079 22.3392C83.6832 21.4843 83.3688 20.6293 82.9195 19.8643C82.3804 18.8744 81.6167 18.0194 80.6733 17.4344C79.3704 16.6245 78.0227 16.5795 76.5401 16.3095C74.5185 15.9495 72.5867 15.2295 70.61 14.6896C67.8696 13.9246 64.9944 13.4296 62.254 14.3296C62.2989 14.5096 62.5685 14.9596 62.5235 15.1396C62.5235 14.8696 62.3438 14.5546 62.254 14.3296C60.2324 14.9596 57.4021 16.5345 56.234 18.2894C53.8979 21.7992 59.244 23.1492 61.1309 24.7691C58.9295 24.0941 56.863 23.0592 55.1109 21.5292C54.0327 20.5843 53.269 19.2794 52.1459 18.3794C51.2024 17.6144 50.0793 17.0745 48.8664 17.0745C45.5868 16.9845 43.1609 20.0893 45.2274 22.9692C43.3406 22.6092 41.274 23.6441 40.1958 25.2191C37.8597 28.7739 42.2624 31.6988 45.3173 32.1937C42.2624 34.2186 40.6451 37.0985 38.1742 39.5734C35.6135 42.0933 33.5918 45.1531 32.1093 48.438C30.4471 52.0828 29.5037 56.0876 28.5602 59.9574C27.9762 61.8923 25.8198 67.2921 28.2907 68.687Z" fill="#EBB264"/>
<path opacity="0.65" d="M111.851 75.5265C110.683 74.1316 107.718 74.9416 106.235 75.1666C103.315 75.6165 100.26 76.4265 97.8794 78.2264C96.8462 75.3915 94.9144 73.0067 92.4435 71.2967C90.6016 70.0368 87.1424 67.9669 86.2888 71.2967C85.4802 74.3566 85.7497 77.7314 85.0758 80.7913C84.4469 83.5812 83.4585 86.866 82.2456 89.4309C82.1108 89.7009 82.1108 90.3309 81.8862 90.5109C81.5268 90.8708 80.0892 90.9158 79.5051 91.0508C78.5168 91.3208 77.5734 91.7258 76.6299 92.0408C72.991 93.2557 69.0376 93.0757 65.3538 92.2658C67.1957 90.2859 70.5201 88.3509 70.61 85.4261C70.7897 80.7013 65.6683 82.0962 62.7032 81.1063C59.6483 80.1163 57.7165 77.0565 54.6167 76.1565C51.4271 75.2116 47.9678 76.0665 45.7665 78.6314C42.5319 75.3916 38.1293 72.6917 33.4121 73.9066C29.0544 75.0316 27.0328 78.1814 27.482 82.5462C28.0661 88.216 30.7167 93.4807 34.2657 97.8005C37.096 101.265 40.6001 104.235 44.5086 106.395C45.9013 107.16 45.452 107.79 45.5419 109.275C45.5868 110.445 45.7216 111.66 46.036 112.83C46.3056 113.73 46.6201 114.585 47.1592 115.35C48.6866 117.645 50.7981 117.915 53.269 118.59C56.4586 119.49 59.4686 121.154 62.7931 121.559C65.7581 121.919 68.3638 121.154 70.8796 119.535C72.6316 118.41 75.1474 116.61 73.3055 114.27C71.9577 112.56 69.442 111.93 68.0044 110.175C72.9461 109.23 78.0675 107.835 82.6499 105.765C85.4801 104.46 87.4569 102.795 89.7031 100.77C90.7364 99.8704 92.2638 99.5104 93.5667 98.8355C97.9693 96.6306 101.608 93.2557 104.528 89.2959C106.235 87.001 107.898 84.6611 109.47 82.3212C110.458 80.9263 113.468 77.4615 111.851 75.5265Z" fill="#EBB264"/>
</g>
</g>
<path d="M67.6454 40.4284C67.6454 40.4284 65.489 44.0282 62.7037 46.9081C61.7603 47.853 62.0747 50.0579 63.3776 49.9229C71.1047 49.113 71.2394 51.9929 75.103 53.3878C77.6188 54.2878 80.4491 53.2078 81.7968 50.8679L82.6504 49.383C82.6055 49.383 78.8318 41.1933 67.6454 40.4284Z" fill="#4D2636" stroke="#353643" stroke-miterlimit="10"/>
<path d="M63.3771 49.9229C71.1042 49.1129 71.2389 51.9928 75.1025 53.3877C75.5517 53.5677 76.0459 53.6577 76.4952 53.7027C74.9677 52.7127 73.2606 51.5428 71.3737 50.0579C71.3737 50.0579 67.8696 46.8631 64.1409 45.3331C63.6916 45.8731 63.1974 46.4131 62.7033 46.9081C61.7598 47.853 62.0294 50.0579 63.3771 49.9229Z" fill="#BF6A58"/>
<path d="M63.3771 49.9229C63.6467 49.7879 70.7898 46.3681 71.0593 40.9234" stroke="#353643" stroke-miterlimit="10"/>
<path d="M69.1275 50.3279C69.3971 50.1929 75.3721 47.313 75.6417 42.5883" stroke="#353643" stroke-miterlimit="10"/>
<path d="M72.452 51.9478C72.8563 51.7228 77.5284 49.6079 79.0109 44.9281" stroke="#353643" stroke-miterlimit="10"/>
<path d="M74.8778 53.3877C74.8778 53.3877 81.1674 50.5529 81.2573 47.358" stroke="#353643" stroke-miterlimit="10"/>
<path d="M67.6454 40.4284C67.6454 40.4284 65.489 44.0282 62.7037 46.9081C61.7603 47.853 62.0747 50.0579 63.3776 49.9229C71.1047 49.113 71.2394 51.9929 75.103 53.3878C77.6188 54.2878 80.4491 53.2078 81.7968 50.8679L82.6504 49.383C82.6055 49.383 78.8318 41.1933 67.6454 40.4284Z" stroke="#353643" stroke-miterlimit="10"/>
<path d="M82.2457 29.2239C82.2457 29.2239 83.4137 19.3695 77.843 18.5145C76.2257 18.2445 76.8546 18.6945 69.9362 16.5796C63.2873 14.5547 60.9063 16.8496 57.8514 19.3244C57.4471 19.6394 57.492 20.3144 57.9862 20.5394C59.9179 21.4843 64.1858 23.4642 65.0843 27.289C65.0843 27.334 79.5052 27.874 82.2457 29.2239Z" fill="#4D2636" stroke="#353643" stroke-miterlimit="10"/>
<path d="M60.5918 17.2545C63.3771 16.9395 68.0942 17.3445 75.7315 20.1794C75.7315 20.1794 78.4719 21.4393 81.6616 22.1143C81.0326 20.3144 79.9095 18.7844 77.8879 18.4694C76.2706 18.1994 76.8995 18.6494 69.9811 16.5345C65.3089 15.1846 62.7482 15.8596 60.5918 17.2545Z" fill="#BF6A58"/>
<path d="M75.5966 18.1994C75.5966 18.1994 79.3706 23.1042 79.4604 28.5489" stroke="#353643" stroke-miterlimit="10"/>
<path d="M75.1924 28.054C74.0244 20.4943 68.9029 16.3995 68.9029 16.3995" stroke="#353643" stroke-miterlimit="10"/>
<path d="M64.2756 15.9046C64.2756 15.9046 71.1491 22.2493 71.0593 27.694" stroke="#353643" stroke-miterlimit="10"/>
<path d="M60.5468 17.2545C60.5468 17.2545 66.7465 19.9094 68.0044 27.424" stroke="#353643" stroke-miterlimit="10"/>
<path d="M82.2457 29.2239C82.2457 29.2239 83.4137 19.3695 77.843 18.5145C76.2257 18.2445 76.8546 18.6945 69.9362 16.5796C63.2873 14.5547 60.9063 16.8496 57.8514 19.3244C57.4471 19.6394 57.492 20.3144 57.9862 20.5394C59.9179 21.4843 64.1858 23.4642 65.0843 27.289C65.0843 27.334 79.5052 27.874 82.2457 29.2239Z" stroke="#353643" stroke-miterlimit="10"/>
<path d="M41.9928 38.8984C41.9928 38.8984 35.4787 42.9932 32.4238 53.1628C32.4238 53.1628 28.9646 64.9522 29.279 66.8871C29.279 66.8871 40.6002 62.6123 39.7915 56.1776C39.7915 56.1776 42.1276 64.0972 51.7416 64.3222C51.7416 64.3222 43.0261 48.708 48.9562 43.4882C49.0011 43.4882 51.7865 38.2235 41.9928 38.8984Z" fill="#4D2636" stroke="#353643" stroke-miterlimit="10"/>
<path d="M35.9729 50.1029C35.4787 54.9626 31.3007 57.0775 31.3007 57.0775C30.8514 58.7424 30.3572 60.6773 29.9529 62.3873C29.9529 62.3873 34.5353 61.4873 36.6468 52.6677C37.5453 48.9779 38.264 41.5983 42.9812 38.8534L41.903 38.8984C38.1742 42.1833 36.3323 46.953 35.9729 50.1029Z" fill="#BF6A58"/>
<path d="M49.7199 60.3174C49.7199 60.3174 39.8364 44.6582 49.046 40.7434L45.9462 39.0334C36.3323 51.5428 51.7864 64.3672 51.7864 64.3672C51.7864 64.3672 50.8879 62.7472 49.8547 60.3624L49.7199 60.3174Z" fill="#BF6A58"/>
<path d="M49.7199 60.3174C49.7199 60.3174 39.8364 44.6582 49.046 40.7433" stroke="#353643" stroke-miterlimit="10"/>
<path d="M51.7864 64.3672C51.7864 64.3672 36.3323 51.5428 45.9462 39.0334" stroke="#353643" stroke-miterlimit="10"/>
<path d="M47.1591 63.5573C47.1591 63.5573 34.8048 53.2977 44.5985 38.8984" stroke="#353643" stroke-miterlimit="10"/>
<path d="M29.3689 65.5371C29.3689 65.5371 35.7033 64.3672 38.0844 55.3676C39.2075 51.1378 39.3422 42.2283 44.0144 38.8534" stroke="#353643" stroke-miterlimit="10"/>
<path d="M29.9529 62.4323C29.9529 62.4323 34.5353 61.5323 36.6468 52.7128C37.5453 49.0229 38.264 41.6433 42.9812 38.8984" stroke="#353643" stroke-miterlimit="10"/>
<path d="M31.3007 57.1225C31.3007 57.1225 35.4787 55.0076 35.9729 50.1479C36.2873 46.998 38.1742 42.2283 41.9479 38.9434" stroke="#353643" stroke-miterlimit="10"/>
<path d="M51.2923 31.2938C51.2923 31.2938 39.1625 35.9286 41.5436 42.5433C41.5436 42.5433 43.9246 46.9081 53.1792 42.5433C59.7832 39.4384 72.8564 40.5634 81.7066 48.483C85.4354 51.8578 92.264 61.4423 100.081 56.6726C102.642 55.0977 103.361 52.4878 100.081 44.6132C100.081 44.6132 92.8031 28.009 72.497 26.524C67.0161 26.1641 63.3322 26.524 51.2923 31.2938Z" fill="#709BA6" stroke="#353643" stroke-miterlimit="10" stroke-linecap="round" stroke-linejoin="round"/>
<path d="M56.0543 34.6686C56.0543 34.6686 72.0028 29.4489 79.0111 33.9487C80.7632 35.0736 84.9861 38.6734 81.9761 41.8233C80.4487 43.4432 78.1575 43.2632 73.2607 40.4283C69.8913 38.4934 66.6567 36.3785 57.8963 38.6284C56.863 38.8984 54.482 39.9334 53.853 37.1435C53.8979 37.1435 53.4038 35.4786 56.0543 34.6686Z" fill="#2D6670" stroke="#353643" stroke-miterlimit="10"/>
<path d="M95.0042 44.6132C95.3636 45.4231 95.6781 46.0981 96.1274 46.683C96.352 46.953 96.5767 47.268 96.8462 47.538C97.1158 47.853 97.4303 48.078 97.7448 48.4379C97.5201 48.4379 97.2955 48.3929 97.0709 48.3479C96.8462 48.258 96.6216 48.213 96.4419 48.078C96.0375 47.853 95.6781 47.538 95.4086 47.178C95.139 46.818 94.9593 46.3681 94.8695 45.9181C94.7796 45.5131 94.8245 45.0181 95.0042 44.6132Z" fill="#353643"/>
<path d="M100.036 56.6726C99.3172 56.5376 98.5984 56.2226 97.9694 55.8177C97.3404 55.4127 96.7564 54.9177 96.2622 54.2877C95.8129 53.6578 95.4535 52.9378 95.3187 52.1728C95.139 51.4079 95.2737 50.5979 95.5433 49.9229C95.6332 50.6879 95.723 51.3629 95.9926 51.9928C96.2621 52.6228 96.5766 53.2078 96.981 53.7478C97.7897 54.8277 98.8679 55.7277 100.036 56.6726Z" fill="#353643"/>
<path d="M63.0626 27.289C63.0626 27.289 55.6949 26.479 51.472 20.6743C51.472 20.6743 49.5402 18.1095 47.1592 19.5044C47.1592 19.5044 44.1492 20.6743 49.7199 24.2742C49.7199 24.2742 54.3921 27.739 60.0077 28.189L63.0626 27.289Z" fill="#2D6670" stroke="#353643" stroke-miterlimit="10"/>
<path d="M51.2923 31.2938L54.7066 29.9889C54.7066 29.9889 47.7432 27.469 45.9911 25.6241C45.2723 24.8141 43.4754 24.2292 41.6784 26.4341C41.6784 26.4341 40.3755 28.7289 45.0926 30.0339L51.2923 31.2938Z" fill="#2D6670" stroke="#353643" stroke-miterlimit="10"/>
<path d="M78.9211 39.6184C79.467 39.6184 79.9095 39.1752 79.9095 38.6284C79.9095 38.0817 79.467 37.6385 78.9211 37.6385C78.3753 37.6385 77.9328 38.0817 77.9328 38.6284C77.9328 39.1752 78.3753 39.6184 78.9211 39.6184Z" fill="#E19376"/>
<path d="M74.249 35.9286C74.249 36.4685 73.7998 36.9185 73.2607 36.9185C72.7216 36.9185 72.2723 36.4685 72.2723 35.9286C72.2723 35.3886 72.7216 34.9386 73.2607 34.9386C73.7998 34.9386 74.249 35.3886 74.249 35.9286Z" fill="#E19376"/>
<path d="M68.4087 35.4336C68.4087 35.9286 68.0044 36.3336 67.5102 36.3336C67.0161 36.3336 66.6118 35.9286 66.6118 35.4336C66.6118 34.9386 67.0161 34.5337 67.5102 34.5337C68.0493 34.5337 68.4087 34.9386 68.4087 35.4336Z" fill="#E19376"/>
<path d="M61.8497 36.1986C62.2715 36.1986 62.6134 35.8561 62.6134 35.4336C62.6134 35.0111 62.2715 34.6686 61.8497 34.6686C61.4279 34.6686 61.0859 35.0111 61.0859 35.4336C61.0859 35.8561 61.4279 36.1986 61.8497 36.1986Z" fill="#E19376"/>
<path d="M56.9079 37.2335C57.3049 37.2335 57.6267 36.9112 57.6267 36.5136C57.6267 36.1159 57.3049 35.7936 56.9079 35.7936C56.5109 35.7936 56.1891 36.1159 56.1891 36.5136C56.1891 36.9112 56.5109 37.2335 56.9079 37.2335Z" fill="#E19376"/>
<path d="M99.6766 43.8932C98.4187 41.4633 93.7465 33.6787 83.9978 29.3589C84.5818 33.5887 87.5019 40.5184 99.6766 43.8932Z" fill="#EAC8AF"/>
<path d="M94.6449 48.5279C95.0941 49.1129 95.0941 49.8328 94.7348 50.1028C94.3305 50.3728 93.6566 50.1478 93.2523 49.5629C92.8031 48.9779 92.8031 48.2579 93.1625 47.988C93.5668 47.673 94.2406 47.943 94.6449 48.5279Z" fill="#E19376"/>
<path d="M87.1426 30.9788C88.5352 34.1287 91.4104 37.7285 97.3854 40.2934C95.3638 37.4585 92.0394 33.8137 87.1426 30.9788Z" fill="#709BA6"/>
<path d="M51.0677 20.1794C50.3938 19.5044 48.9113 18.4694 47.1592 19.4594C47.1592 19.4594 45.9462 19.9094 46.4853 21.1693C46.8897 21.2593 47.3389 21.3043 47.7433 21.3043C49.1359 21.3043 50.3489 20.8543 51.0677 20.1794Z" fill="#709BA6" stroke="#353643" stroke-miterlimit="10" stroke-linecap="round" stroke-linejoin="round"/>
<path d="M41.7233 26.4341C41.7233 26.4341 41.1842 27.379 42.0377 28.414C42.6667 28.279 43.4304 27.874 44.1043 27.289C44.868 26.659 45.3622 25.9391 45.6317 25.3091C44.7782 24.6791 43.2507 24.4992 41.7233 26.4341Z" fill="#709BA6" stroke="#353643" stroke-miterlimit="10" stroke-linecap="round" stroke-linejoin="round"/>
<path d="M61.4454 93.8408C61.4454 93.8408 64.2756 90.1059 67.7798 87.2261C68.9478 86.2811 68.9029 83.7613 67.4204 83.7613C58.7049 83.6713 58.8846 80.4764 54.7515 78.4515C52.056 77.1016 48.7316 78.0016 46.9795 80.4314L45.8564 81.9614C45.8564 81.9614 49.0461 91.5459 61.4454 93.8408Z" fill="#2D6670" stroke="#353643" stroke-miterlimit="10"/>
<path d="M67.4204 83.7613C58.7049 83.6713 58.8846 80.4764 54.7515 78.4515C54.2573 78.2265 53.7632 78.0466 53.2241 77.9566C54.8414 79.2165 56.5934 80.7914 58.4803 82.6813C58.4803 82.6813 62.0294 86.6861 65.9828 88.846C66.5668 88.3061 67.1508 87.7661 67.7798 87.2711C68.9478 86.2812 68.9029 83.7613 67.4204 83.7613Z" fill="#709BA6"/>
<path d="M67.4204 83.7613C67.1059 83.8513 58.7049 86.7761 57.7166 92.8509" stroke="#353643" stroke-miterlimit="10"/>
<path d="M61.041 82.5913C60.7265 82.6813 53.7182 85.2011 52.8197 90.4209" stroke="#353643" stroke-miterlimit="10"/>
<path d="M57.4919 80.3414C57.0427 80.5214 51.5169 82.2763 49.2707 87.3611" stroke="#353643" stroke-miterlimit="10"/>
<path d="M54.9762 78.4514C54.9762 78.4514 47.6085 80.8363 47.0694 84.3912" stroke="#353643" stroke-miterlimit="10"/>
<path d="M61.4454 93.8408C61.4454 93.8408 64.2756 90.1059 67.7798 87.2261C68.9478 86.2811 68.9029 83.7613 67.4204 83.7613C58.7049 83.6713 58.8846 80.4764 54.7515 78.4515C52.056 77.1016 48.7316 78.0016 46.9795 80.4314L45.8564 81.9614C45.8564 81.9614 49.0461 91.5459 61.4454 93.8408Z" stroke="#353643" stroke-miterlimit="10"/>
<path d="M47.8331 105.27C47.8331 105.27 46.0361 115.035 51.5169 116.25C53.0893 116.61 52.5053 116.16 59.2889 118.68C65.8031 121.109 68.3189 118.995 71.5086 116.7C71.9578 116.385 71.9129 115.755 71.4636 115.485C69.6217 114.405 65.4886 112.2 64.8147 108.285C64.8147 108.285 50.4836 106.845 47.8331 105.27Z" fill="#2D6670" stroke="#353643" stroke-miterlimit="10"/>
<path d="M68.6783 118.635C65.848 118.77 61.1758 118.05 53.7632 114.72C53.7632 114.72 51.1126 113.28 47.9679 112.425C48.462 114.27 49.4953 115.845 51.5169 116.295C53.0893 116.655 52.5053 116.205 59.2889 118.725C63.8264 120.39 66.432 119.85 68.6783 118.635Z" fill="#709BA6"/>
<path d="M53.7632 116.745C53.7632 116.745 50.3489 111.57 50.5735 106.17" stroke="#353643" stroke-miterlimit="10"/>
<path d="M54.7964 106.935C55.5152 114.54 60.3222 118.994 60.3222 118.994" stroke="#353643" stroke-miterlimit="10"/>
<path d="M64.9045 119.76C64.9045 119.76 58.4803 112.965 58.9296 107.565" stroke="#353643" stroke-miterlimit="10"/>
<path d="M68.7232 118.59C68.7232 118.59 62.7032 115.53 61.9395 107.925" stroke="#353643" stroke-miterlimit="10"/>
<path d="M47.8331 105.27C47.8331 105.27 46.0361 115.035 51.5169 116.25C53.0893 116.61 52.5053 116.16 59.2889 118.68C65.8031 121.109 68.3189 118.995 71.5086 116.7C71.9578 116.385 71.9129 115.755 71.4637 115.485C69.6217 114.405 65.4886 112.2 64.8147 108.285C64.8147 108.285 50.4836 106.845 47.8331 105.27Z" stroke="#353643" stroke-miterlimit="10"/>
<path d="M88.715 98.7005C88.715 98.7005 96.2624 97.1256 102.597 88.621C102.597 88.621 109.92 78.7665 110.279 76.8316C110.279 76.8316 98.1941 76.9216 96.7116 83.2213C96.7116 83.2213 97.2507 74.9867 88.3106 71.4319C88.3106 71.4319 91.096 89.071 83.7283 91.9508C83.7283 91.9958 79.2807 95.9556 88.715 98.7005Z" fill="#2D6670" stroke="#353643" stroke-miterlimit="10"/>
<path d="M98.2391 90.2859C100.395 85.9211 105.023 85.3361 105.023 85.3361C106.011 83.9412 107.134 82.3213 108.122 80.8364C108.122 80.8364 103.495 80.1164 98.4637 87.631C96.3523 90.7809 93.1177 97.4405 87.7269 98.4305L88.7152 98.7455C93.4322 96.9456 96.8015 93.1207 98.2391 90.2859Z" fill="#709BA6"/>
<path d="M88.8497 75.9766C88.8497 75.9766 92.7132 94.1107 82.7399 94.6057L85.076 97.2606C98.4187 88.891 88.3555 71.4768 88.3555 71.4768C88.3555 71.4768 88.625 73.3217 88.8047 75.8866L88.8497 75.9766Z" fill="#709BA6"/>
<path d="M88.8496 75.9767C88.8496 75.9767 92.7131 94.1108 82.7399 94.6057" stroke="#353643" stroke-miterlimit="10"/>
<path d="M88.3105 71.4319C88.3105 71.4319 98.3736 88.846 85.031 97.2156" stroke="#353643" stroke-miterlimit="10"/>
<path d="M92.3538 73.8167C92.3538 73.8167 100.44 87.7211 86.2438 97.8456" stroke="#353643" stroke-miterlimit="10"/>
<path d="M109.74 78.1365C109.74 78.1365 103.405 77.0565 98.0592 84.6611C95.5433 88.261 92.3536 96.5405 86.7829 98.0704" stroke="#353643" stroke-miterlimit="10"/>
<path d="M108.122 80.8364C108.122 80.8364 103.495 80.1164 98.4637 87.631C96.3523 90.7809 93.1177 97.4405 87.7269 98.4305" stroke="#353643" stroke-miterlimit="10"/>
<path d="M105.023 85.3363C105.023 85.3363 100.395 85.8763 98.239 90.286C96.8463 93.1208 93.4319 96.9456 88.7596 98.7005" stroke="#353643" stroke-miterlimit="10"/>
<path d="M78.8763 105.225C78.8763 105.225 91.2756 101.4 89.3439 94.6507C89.3439 94.6507 87.2324 90.1509 77.7532 93.8857C70.9695 96.5856 57.9862 94.6057 49.675 86.1011C46.1709 82.5012 39.9712 72.4667 31.8847 76.7415C29.2341 78.1364 28.3356 80.7013 31.121 88.8009C31.121 88.8009 37.3206 105.855 57.492 108.6C62.8381 109.32 66.5669 109.185 78.8763 105.225Z" fill="#BF6A58" stroke="#353643" stroke-miterlimit="10"/>
<path d="M74.3388 101.535C74.3388 101.535 58.076 105.72 51.3822 100.77C49.675 99.5105 45.7216 95.6857 48.9113 92.7159C50.5286 91.231 52.8198 91.5009 57.5369 94.6508C60.7715 96.8106 63.8713 99.1505 72.7664 97.4406C73.7997 97.2156 76.2706 96.3607 76.6749 99.1955C76.6749 99.2405 77.0343 100.905 74.3388 101.535Z" fill="#4D2636" stroke="#353643" stroke-miterlimit="10"/>
<path d="M41.903 83.8512C41.4537 83.9861 41.0045 83.9411 40.5552 83.8512C40.106 83.7162 39.7017 83.4912 39.3422 83.1762C39.0278 82.8612 38.7133 82.4563 38.5785 82.0513C38.4887 81.8263 38.4437 81.6013 38.3988 81.3763C38.3539 81.1514 38.3539 80.9264 38.3988 80.7014C38.7133 81.0614 38.9379 81.3763 39.1625 81.6913C39.3872 82.0063 39.6567 82.2763 39.9263 82.5013C40.5103 82.9962 41.0943 83.4012 41.903 83.8512Z" fill="#353643"/>
<path d="M30.492 78.0014C31.3007 79.2614 32.0644 80.4314 33.0528 81.3763C33.5469 81.8263 34.086 82.2313 34.67 82.5913C35.2541 82.9063 35.9279 83.0863 36.6917 83.2663C35.9729 83.4463 35.1642 83.4913 34.4454 83.2213C33.7266 82.9963 33.0078 82.5463 32.4687 82.0063C31.9296 81.4663 31.4804 80.8364 31.1659 80.1164C30.8065 79.4864 30.5819 78.7664 30.492 78.0014Z" fill="#353643"/>
<path d="M50.7981 96.0456C50.8431 95.5056 51.2923 95.1007 51.8314 95.1457C52.3705 95.1906 52.7748 95.6406 52.7299 96.1806C52.685 96.7206 52.2357 97.1255 51.6966 97.0805C51.1575 97.0355 50.7532 96.5856 50.7981 96.0456Z" fill="#EAC8AF"/>
<path d="M56.2341 99.1055C56.279 98.5655 56.7283 98.1605 57.2674 98.2055C57.8064 98.2505 58.2108 98.7005 58.1658 99.2405C58.1209 99.7805 57.6717 100.185 57.1326 100.14C56.6384 100.14 56.1892 99.6455 56.2341 99.1055Z" fill="#EAC8AF"/>
<path d="M62.0294 100.005C62.0743 99.5105 62.4786 99.1505 62.9728 99.1505C63.467 99.1505 63.8264 99.6005 63.8264 100.095C63.8264 100.59 63.3771 100.95 62.8829 100.95C62.3888 100.905 61.9845 100.5 62.0294 100.005Z" fill="#EAC8AF"/>
<path d="M67.8247 100.365C67.8696 99.9605 68.2291 99.6455 68.6334 99.6455C69.0377 99.6905 69.3522 100.05 69.3522 100.455C69.3072 100.86 68.9478 101.175 68.5435 101.175C68.1392 101.13 67.8247 100.77 67.8247 100.365Z" fill="#EAC8AF"/>
<path d="M72.9012 99.6455C72.9462 99.2405 73.2606 98.9705 73.665 98.9705C74.0693 98.9705 74.3389 99.3305 74.3389 99.7354C74.3389 100.14 73.9795 100.41 73.5752 100.41C73.1708 100.41 72.9012 100.005 72.9012 99.6455Z" fill="#EAC8AF"/>
<path d="M37.68 85.5612C37.2757 84.9312 37.2757 84.2562 37.7249 83.9862C38.1742 83.7163 38.8031 83.9862 39.1625 84.6162C39.5669 85.2462 39.5669 85.9212 39.1176 86.1911C38.7133 86.4611 38.0394 86.1911 37.68 85.5612Z" fill="#E19376"/>
<path d="M68.9029 82.3663C77.0659 82.3663 83.6832 75.7382 83.6832 67.562C83.6832 59.3859 77.0659 52.7578 68.9029 52.7578C60.74 52.7578 54.1226 59.3859 54.1226 67.562C54.1226 75.7382 60.74 82.3663 68.9029 82.3663Z" fill="#2D6670" stroke="#353643" stroke-miterlimit="10"/>
<path d="M56.5485 64.8621C56.7732 64.9071 56.9978 64.7721 57.0876 64.5472C57.1775 64.3222 56.9978 64.0972 56.7732 64.0072C56.5485 63.9172 56.3239 64.0972 56.234 64.3222C56.1891 64.5472 56.3239 64.7722 56.5485 64.8621Z" fill="#F3F0E8"/>
<path d="M58.3904 61.3073C58.5252 61.1274 58.4354 60.8574 58.2557 60.7224C58.076 60.5874 57.8064 60.6774 57.6716 60.8574C57.5369 61.0824 57.6267 61.3523 57.8064 61.4423C58.031 61.5773 58.2557 61.4873 58.3904 61.3073Z" fill="#F3F0E8"/>
<path d="M60.5918 57.9774C60.457 57.7974 60.1425 57.7974 59.9628 57.9324C59.7831 58.1124 59.7831 58.3824 59.9179 58.5174C60.0976 58.6974 60.3672 58.6974 60.5469 58.5624C60.7715 58.4274 60.7715 58.1574 60.5918 57.9774Z" fill="#F3F0E8"/>
<path d="M63.6466 56.0426C63.5568 55.8176 63.2873 55.7276 63.0626 55.8626C62.838 55.9526 62.7482 56.2226 62.8829 56.4476C63.0177 56.6726 63.2423 56.7625 63.467 56.6276C63.6467 56.4926 63.7365 56.2676 63.6466 56.0426Z" fill="#F3F0E8"/>
<path d="M66.6117 54.6477C66.477 54.6477 66.3871 54.7377 66.3422 54.8277C66.2973 54.9177 66.2523 55.0527 66.2973 55.1427C66.3422 55.2777 66.3871 55.3677 66.4769 55.4127C66.5668 55.4577 66.6566 55.5027 66.7914 55.5027C67.016 55.4577 67.1508 55.2327 67.1508 55.0077C67.061 54.7827 66.8364 54.6027 66.6117 54.6477Z" fill="#F3F0E8"/>
<path d="M70.2956 54.5127C70.071 54.4677 69.8463 54.6927 69.8014 54.9176C69.8014 55.1426 69.9362 55.3676 70.2057 55.3676C70.4304 55.4126 70.655 55.2326 70.655 55.0076C70.7448 54.7827 70.5651 54.5577 70.2956 54.5127Z" fill="#F3F0E8"/>
<path d="M73.9345 55.4576C73.7099 55.3676 73.4403 55.5026 73.3505 55.7276C73.2606 55.9526 73.3954 56.1776 73.5751 56.2676C73.7997 56.3576 74.0243 56.2676 74.1142 56.0426C74.249 55.8176 74.1591 55.5476 73.9345 55.4576Z" fill="#F3F0E8"/>
<path d="M77.1242 57.3475C76.9445 57.2125 76.6301 57.2126 76.4953 57.4376C76.3606 57.6176 76.4055 57.8876 76.5851 58.0226C76.7648 58.1576 77.0344 58.1576 77.1691 57.9776C77.3488 57.7976 77.3488 57.4826 77.1242 57.3475Z" fill="#F3F0E8"/>
<path d="M79.6847 60.0924C79.5499 59.9124 79.2804 59.8674 79.0558 60.0024C78.8761 60.1374 78.8312 60.4074 78.966 60.5874C79.1007 60.7674 79.3703 60.8124 79.5499 60.7224C79.7296 60.5874 79.8195 60.2724 79.6847 60.0924Z" fill="#F3F0E8"/>
<path d="M81.0775 63.9622C81.3021 63.9172 81.4369 63.6472 81.3471 63.4222C81.2572 63.1973 81.0326 63.0623 80.808 63.1523C80.5833 63.2423 80.4485 63.4672 80.5384 63.6922C80.6283 63.9172 80.8529 64.0522 81.0775 63.9622Z" fill="#F3F0E8"/>
<path d="M81.5267 66.7071C81.302 66.7071 81.1223 66.9321 81.1223 67.1571C81.1223 67.382 81.347 67.562 81.5716 67.562C81.7963 67.562 81.976 67.382 81.976 67.1121C81.976 66.8421 81.7963 66.6621 81.5267 66.7071Z" fill="#F3F0E8"/>
<path d="M81.3022 70.3068C81.0777 70.2618 80.8532 70.3968 80.7633 70.6218C80.7184 70.8469 80.8531 71.0719 81.0777 71.1619C81.3022 71.2519 81.5268 71.0719 81.6166 70.8469C81.6615 70.5768 81.5268 70.3518 81.3022 70.3068Z" fill="#F3F0E8"/>
<path d="M79.9995 73.6817C79.7749 73.5467 79.5054 73.6367 79.4155 73.8167C79.2808 73.9967 79.3706 74.2667 79.5503 74.4017C79.73 74.5367 79.9995 74.4467 80.1342 74.2667C80.3139 74.0417 80.2241 73.7717 79.9995 73.6817Z" fill="#F3F0E8"/>
<path d="M77.2589 76.5166C77.0791 76.6516 77.0792 76.9216 77.2139 77.1016C77.3487 77.2815 77.6632 77.2815 77.8429 77.1466C78.0227 76.9666 78.0226 76.6966 77.8879 76.5616C77.6632 76.3816 77.3936 76.3816 77.2589 76.5166Z" fill="#F3F0E8"/>
<path d="M74.3838 78.5415C74.1591 78.6315 74.0693 78.9015 74.204 79.1265C74.2939 79.3515 74.5635 79.4415 74.7881 79.3065C75.0128 79.2165 75.1026 78.9465 74.9678 78.7215C74.833 78.4965 74.5635 78.4065 74.3838 78.5415Z" fill="#F3F0E8"/>
<path d="M71.3738 79.7114C71.2839 79.6664 71.1941 79.6214 71.0593 79.6214C70.8347 79.6664 70.6999 79.8914 70.6999 80.1164C70.7448 80.3414 70.9694 80.5214 71.1941 80.4764C71.3288 80.4764 71.4187 80.3864 71.4636 80.2964C71.5085 80.2064 71.5535 80.0714 71.5085 79.9814C71.5535 79.8464 71.4636 79.7564 71.3738 79.7114Z" fill="#F3F0E8"/>
<path d="M67.6 79.7564C67.3754 79.7114 67.1508 79.8914 67.1508 80.1164C67.1059 80.3414 67.2856 80.5664 67.5102 80.6114C67.7348 80.6564 67.9594 80.4314 68.0044 80.2064C68.0044 79.9814 67.8247 79.8014 67.6 79.7564Z" fill="#F3F0E8"/>
<path d="M64.2307 78.9015C64.0061 78.8115 63.7815 78.9015 63.6916 79.1265C63.6018 79.3514 63.6916 79.6214 63.9162 79.7114C64.1409 79.8014 64.4104 79.6664 64.5002 79.4414C64.5452 79.2165 64.4553 78.9915 64.2307 78.9015Z" fill="#F3F0E8"/>
<path d="M60.6367 77.1466C60.5019 77.3266 60.502 77.5966 60.6817 77.7765C60.8614 77.9115 61.1758 77.9115 61.3106 77.6866C61.4454 77.5066 61.4005 77.2366 61.2208 77.1016C61.0411 76.9666 60.7715 76.9666 60.6367 77.1466Z" fill="#F3F0E8"/>
<path d="M58.2557 74.4467C58.076 74.5817 57.9861 74.8517 58.1209 75.0317C58.2557 75.2117 58.5252 75.2567 58.7498 75.1217C58.9295 74.9867 58.9744 74.7167 58.8397 74.5367C58.7049 74.3568 58.4803 74.3118 58.2557 74.4467Z" fill="#F3F0E8"/>
<path d="M56.7732 71.1619C56.5486 71.2069 56.4138 71.4769 56.5036 71.7019C56.5935 71.9269 56.8181 72.0619 57.0427 71.9719C57.2673 71.8819 57.4021 71.6569 57.3123 71.4319C57.2224 71.2069 56.9978 71.0719 56.7732 71.1619Z" fill="#F3F0E8"/>
<path d="M56.6833 68.012C56.6833 67.787 56.4587 67.6071 56.234 67.6071C56.0094 67.6071 55.8297 67.7871 55.8297 68.057C55.8297 68.282 56.0544 68.507 56.279 68.462C56.5036 68.417 56.6833 68.237 56.6833 68.012Z" fill="#F3F0E8"/>
<path d="M68.903 77.8665C74.5848 77.8665 79.1909 73.2531 79.1909 67.562C79.1909 61.871 74.5848 57.2576 68.903 57.2576C63.2212 57.2576 58.6151 61.871 58.6151 67.562C58.6151 73.2531 63.2212 77.8665 68.903 77.8665Z" fill="#709BA6" stroke="#353643" stroke-miterlimit="10"/>
<path d="M64.3205 60.7674C66.0726 62.1174 67.1957 64.6822 67.1957 67.6071C67.1957 70.4869 66.0726 72.9618 64.4104 74.3567" stroke="#353643" stroke-width="2" stroke-miterlimit="10" stroke-linecap="round" stroke-linejoin="round"/>
<path d="M73.7997 60.7674C72.0477 62.1174 70.9245 64.6822 70.9245 67.6071C70.9245 70.4869 72.0477 72.9618 73.7099 74.3567" stroke="#353643" stroke-width="2" stroke-miterlimit="10" stroke-linecap="round" stroke-linejoin="round"/>
<path d="M64.3205 67.6071H73.7997" stroke="#353643" stroke-width="2" stroke-miterlimit="10" stroke-linecap="round" stroke-linejoin="round"/>
</svg>
