<svg width="135" height="135" viewBox="0 0 135 135" fill="none" xmlns="http://www.w3.org/2000/svg">
<path d="M135 0H0V135H135V0Z" fill="#FFF1E1"/>
<path d="M94.2093 94.3391C108.964 79.5606 108.964 55.5999 94.2093 40.8214C79.4547 26.0429 55.5327 26.0429 40.7781 40.8214C26.0235 55.5999 26.0235 79.5606 40.7781 94.3391C55.5327 109.118 79.4547 109.118 94.2093 94.3391Z" fill="#EBB264"/>
<g opacity="0.65">
<path opacity="0.65" d="M110.325 41.5795C109.786 40.5896 108.618 40.0946 107.495 40.4096L88.2219 45.8543C87.3683 46.0793 86.6944 46.7993 86.5147 47.6543C86.2901 48.5092 86.6046 49.4092 87.2335 50.0391C87.3234 50.1291 87.3683 50.1741 87.4582 50.2641L78.9673 54.6739L78.9224 54.6289C76.3168 48.0142 72.3185 38.0247 56.3701 35.3249C55.2021 35.1449 53.7645 35.0099 52.237 34.8749C51.8776 34.8299 51.5182 34.8299 51.1139 34.7849C51.1139 34.7399 51.1588 34.6949 51.1588 34.6499C51.1588 34.6049 51.2037 34.5599 51.2037 34.5149C51.2487 34.4699 51.2487 34.3799 51.2936 34.3349C51.2936 34.2899 51.3385 34.2899 51.3385 34.1999C52.0573 32.4 52.3268 29.5651 50.7096 27.4952C49.7212 26.2353 47.7445 24.8854 43.7462 25.4253C41.8593 25.6953 39.2986 26.7753 37.861 29.0252C37.0524 30.2851 36.2438 32.49 37.1422 35.5948C37.9958 38.5197 41.3202 39.9596 44.1954 40.7246C45.5432 46.0793 48.1039 55.8439 51.608 68.8032L48.2836 70.5581L38.4001 67.7233C37.906 67.5883 37.3669 67.6333 36.9176 67.8583L33.1888 69.7932C33.1439 69.8382 33.0541 69.8382 33.0092 69.8832C32.8744 69.9732 32.7845 70.0182 32.6947 70.1532L29.7746 72.898L26.1806 74.6079C25.3719 74.9679 24.9227 75.8229 25.0574 76.6778C25.1473 77.5328 25.8211 78.2528 26.6747 78.4328L34.7163 79.9627C34.7612 80.3227 34.8511 80.6826 35.0308 81.0426C35.1655 81.2676 35.3003 81.4926 35.48 81.6726L31.886 89.6822C31.5266 90.4922 31.7063 91.4371 32.3802 92.0221C32.7845 92.3821 33.2338 92.5621 33.7279 92.5621C34.0873 92.5621 34.4018 92.4721 34.7163 92.2921L38.1755 90.3572L42.084 89.5472C42.2188 89.5022 42.3535 89.5022 42.4883 89.4122C42.5332 89.3672 42.6231 89.3672 42.668 89.3222L46.3968 87.3873C46.846 87.1623 47.2054 86.7574 47.3851 86.2624L50.7545 76.4978L53.3601 75.1479C55.2021 81.8526 57.0889 88.6473 59.0207 95.3969C56.7744 97.1968 54.7528 99.4467 55.0673 102.552C55.4716 106.511 57.3584 108.311 58.8859 109.121C60.009 109.706 61.222 109.976 62.435 109.976C63.9624 109.976 65.4 109.571 66.4333 109.031C69.2186 107.546 70.1171 105.476 70.3867 103.992C70.7461 101.922 70.1171 99.7167 68.7245 98.1418C68.6795 98.0518 68.5897 98.0068 68.5448 97.9168L68.4549 97.8268C68.41 97.7818 68.3201 97.7368 68.2752 97.6468L68.1854 97.5568C68.1404 97.5118 68.0506 97.4668 68.0056 97.4218C68.0955 97.3768 68.1853 97.3318 68.2303 97.2868C69.4882 96.5219 70.7461 95.7569 71.7793 94.902C84.0888 84.8224 82.6961 72.898 81.8875 65.7884L81.8425 65.4284C81.7976 65.1584 81.7976 64.8884 81.7527 64.6184C81.7078 64.3484 81.6628 63.9885 81.573 63.5835C81.4831 63.1335 81.3484 62.5935 81.2136 62.0086C81.1237 61.6486 81.0339 61.2436 80.944 60.8836L90.9623 55.6639C90.9623 55.7989 91.0072 55.8889 91.0072 56.0238C91.0521 56.9688 91.6362 57.7788 92.5347 58.1387C93.3882 58.4987 94.3766 58.3187 95.0954 57.6888L109.696 44.6394C110.639 43.7844 110.864 42.5695 110.325 41.5795ZM67.197 89.4122C65.6696 90.5822 64.187 91.6171 62.8842 92.5621C62.7944 92.6071 62.7494 92.6521 62.6596 92.7421L57.3585 73.123L72.6329 65.2034C72.6779 65.3384 72.6778 65.4284 72.7228 65.5634V65.6084C72.9025 66.5083 73.0822 67.3633 73.2169 68.1733C75.1038 80.4127 71.0156 86.4874 67.197 89.4122ZM54.1688 42.4345C60.9524 43.1545 66.1637 47.7892 69.7577 56.1138C70.0273 56.7888 70.3418 57.5088 70.6113 58.2287L70.7011 58.4987C70.7461 58.6337 70.791 58.7687 70.8359 58.9037L55.6513 66.7783L48.8676 41.7145C50.3951 41.9845 52.1472 42.2095 54.1688 42.4345Z" fill="#EBB264"/>
</g>
<path d="M77.9345 57.4188C75.239 51.1641 72.6333 40.0946 56.0558 37.3047C53.0458 36.8098 47.8345 36.8998 45.139 35.8198C43.926 35.3248 40.5116 32.535 43.1622 29.8801C44.7346 28.2602 48.0591 30.0151 45.5433 31.185C44.9143 31.455 42.8927 31.365 44.1506 34.0199C44.6897 35.2348 47.52 35.9998 48.9127 34.6049C50.3054 33.1649 51.6532 26.4153 44.1506 27.4502C41.8594 27.7652 37.6813 29.8801 39.2088 35.0549C40.1522 38.2047 46.4418 39.5546 54.4385 40.4546C62.4353 41.3095 69.9378 47.1593 73.9811 62.2335C78.0244 77.3078 74.5202 86.3973 68.4553 91.0771C62.0758 96.0269 56.7747 98.4118 57.179 102.327C57.8529 109.076 63.5584 108.311 65.625 107.186C70.432 104.621 68.4553 99.4467 66.1641 98.5918C63.9178 97.7818 62.2106 100.167 62.3454 101.472C62.615 104.396 64.5917 102.327 65.2656 102.552C67.3771 103.317 65.4003 105.071 63.199 104.801C59.4253 104.261 61.5367 100.257 62.3454 99.2217C64.1424 96.9718 68.2306 95.1719 70.6117 93.282C82.7416 83.3825 80.6301 71.7281 79.8663 64.7984C79.6866 63.4035 78.3838 58.4537 77.9345 57.4188Z" fill="#BF6A58" stroke="#471343" stroke-miterlimit="10"/>
<path d="M45.4983 31.1851C44.8244 31.455 42.9376 31.41 44.1506 34.0199C44.6897 35.2349 47.5199 35.9998 48.9126 34.6049C49.2271 34.2899 49.4966 33.7499 49.7213 33.075C48.3735 31.41 46.8011 31.0501 45.4983 31.1851Z" fill="#2D6670" stroke="#471343" stroke-miterlimit="10"/>
<path d="M79.8211 64.7534C79.6864 63.3585 78.3835 58.4537 77.9343 57.3738C77.3502 56.0688 76.8111 54.4939 76.0923 52.874C74.7894 53.549 73.0374 54.4939 71.5997 55.2589C72.4533 57.2838 73.262 59.5787 73.9359 62.1435C74.475 64.1234 74.8793 66.0134 75.1489 67.8133L80.0008 66.4633C79.9559 65.8784 79.8661 65.2934 79.8211 64.7534Z" fill="#471343"/>
<path d="M68.7245 93.597C68.455 93.867 68.0057 93.822 67.7362 93.552C67.4217 93.282 67.4217 92.832 67.6463 92.562C67.9159 92.292 68.3651 92.337 68.6347 92.607C68.9491 92.922 68.9941 93.327 68.7245 93.597Z" fill="#E19376"/>
<path d="M72.0939 90.6721C71.8244 90.9421 71.3751 90.8971 71.1056 90.6271C70.7911 90.3571 70.7911 89.9072 71.0157 89.6372C71.2853 89.3672 71.7345 89.4122 72.0041 89.6822C72.3186 89.9972 72.3635 90.4021 72.0939 90.6721Z" fill="#E19376"/>
<path d="M74.9242 87.2523C74.6546 87.5223 74.2054 87.4773 73.9358 87.2073C73.6213 86.9373 73.6213 86.4873 73.846 86.2173C74.1155 85.9474 74.5648 85.9924 74.8343 86.2623C75.1488 86.5323 75.1937 86.9823 74.9242 87.2523Z" fill="#E19376"/>
<path d="M76.901 82.4825C76.6314 82.7525 76.1822 82.7075 75.9126 82.4375C75.5982 82.1676 75.5982 81.7176 75.8228 81.4476C76.0923 81.1776 76.5416 81.2226 76.8111 81.4926C77.1256 81.8076 77.1705 82.2575 76.901 82.4825Z" fill="#E19376"/>
<path d="M67.2869 43.6494C67.6014 43.8294 67.6913 44.2794 67.4667 44.6394C67.242 44.9994 66.8377 45.1344 66.5232 44.9544C66.2087 44.7744 66.1189 44.3244 66.3435 43.9644C66.5682 43.6044 66.9725 43.4695 67.2869 43.6494Z" fill="#E19376"/>
<path d="M63.8277 40.7696C64.1422 40.9496 64.232 41.3995 64.0074 41.7595C63.7828 42.1195 63.3784 42.2545 63.064 42.0745C62.7495 41.8945 62.6596 41.4445 62.8843 41.0846C63.064 40.7246 63.5132 40.5896 63.8277 40.7696Z" fill="#E19376"/>
<path d="M59.6048 39.1947C59.9192 39.3746 60.0091 39.8246 59.7845 40.1846C59.5598 40.5445 59.1555 40.6795 58.841 40.4996C58.5266 40.3196 58.4367 39.8696 58.6613 39.5096C58.886 39.1497 59.2903 39.0147 59.6048 39.1947Z" fill="#E19376"/>
<path d="M54.5282 38.4297C54.8427 38.6097 54.9326 39.0597 54.7079 39.4196C54.4833 39.7796 54.079 39.9146 53.7645 39.7346C53.4501 39.5546 53.3602 39.1047 53.5848 38.7447C53.8094 38.3847 54.2138 38.2497 54.5282 38.4297Z" fill="#E19376"/>
<path d="M45.1389 35.8198C45.1389 35.8198 51.5632 61.9185 62.3003 99.2217" stroke="#471343" stroke-miterlimit="10"/>
<path d="M46.891 36.3148C46.891 36.3148 46.7113 38.4747 48.1938 39.5546" stroke="#471343" stroke-miterlimit="10"/>
<path d="M49.3618 36.6748L49.9459 39.8246" stroke="#471343" stroke-miterlimit="10"/>
<path d="M63.1089 94.9019C63.1089 94.9019 64.3668 96.6568 63.5132 98.0518" stroke="#471343" stroke-miterlimit="10"/>
<path d="M64.6813 93.777C64.6813 93.777 65.7145 95.7119 65.1754 96.7918" stroke="#471343" stroke-miterlimit="10"/>
<path d="M38.1306 80.9526L33.8627 90.4922L37.5915 88.3773L41.7246 79.1077L38.1306 80.9526Z" fill="#709BA6" stroke="#353643" stroke-miterlimit="10"/>
<path d="M41.8594 78.8377L37.5915 88.3773L41.8145 87.5223L45.4534 76.9928L41.8594 78.8377Z" fill="#EAC8AF" stroke="#353643" stroke-miterlimit="10"/>
<path d="M45.5882 76.9028L41.8145 87.5223L45.5432 85.5424L49.1822 75.0579L45.5882 76.9028Z" fill="#709BA6" stroke="#353643" stroke-miterlimit="10"/>
<path d="M37.4118 78.3878L27.1689 76.4079L31.0324 74.5629L41.0058 76.4978L37.4118 78.3878Z" fill="#709BA6" stroke="#353643" stroke-miterlimit="10"/>
<path d="M41.2753 76.5428L31.0324 74.5629L34.1772 71.5931L44.8693 74.6529L41.2753 76.5428Z" fill="#EAC8AF" stroke="#353643" stroke-miterlimit="10"/>
<path d="M45.0041 74.6079L34.1772 71.5931L37.906 69.6582L48.5981 72.718L45.0041 74.6079Z" fill="#709BA6" stroke="#353643" stroke-miterlimit="10"/>
<path d="M96.5781 50.4441L38.4451 80.5926C37.906 80.8626 37.277 80.6826 37.0075 80.1427L36.9176 80.0077C36.6481 79.4677 36.8278 78.8377 37.3669 78.5677L95.455 48.3742L96.5781 50.4441Z" fill="#2D6670" stroke="#471343" stroke-miterlimit="10"/>
<path d="M88.626 48.5092C89.9289 49.6792 92.939 52.784 93.1187 55.7539C93.1187 56.1138 93.5679 56.2938 93.8375 56.0688L108.438 43.0195C108.753 42.7045 108.483 42.1645 108.034 42.2995L88.7608 47.7442C88.4913 47.8792 88.4014 48.2842 88.626 48.5092Z" fill="#709BA6" stroke="#353643" stroke-miterlimit="10"/>
<path d="M93.7478 51.2091C93.4783 51.4791 93.0291 51.4341 92.7595 51.1641C92.49 50.8941 92.445 50.4441 92.6697 50.1741C92.9392 49.9041 93.3884 49.9491 93.658 50.2191C93.9724 50.4891 94.0174 50.9391 93.7478 51.2091Z" fill="#EAC8AF"/>
<path d="M96.8476 49.4542C96.578 49.7242 96.1288 49.6792 95.8593 49.4092C95.5448 49.1392 95.5448 48.6892 95.7695 48.4192C96.039 48.1492 96.4882 48.1942 96.7577 48.4642C97.0722 48.7792 97.1171 49.2292 96.8476 49.4542Z" fill="#EAC8AF"/>
<path d="M99.7677 48.1942C99.4982 48.4642 99.049 48.4192 98.7794 48.1492C98.465 47.8792 98.465 47.4292 98.6896 47.1593C98.9591 46.8893 99.4083 46.9343 99.6779 47.2043C99.9923 47.4743 100.037 47.9242 99.7677 48.1942Z" fill="#EAC8AF"/>
<path d="M102.778 46.7093C102.508 46.9793 102.059 46.9343 101.789 46.6643C101.475 46.3943 101.475 45.9443 101.7 45.6744C101.969 45.4044 102.418 45.4494 102.688 45.7194C103.002 45.9893 103.047 46.4393 102.778 46.7093Z" fill="#EAC8AF"/>
<path d="M66.1189 98.5918C63.8727 97.7818 62.1655 100.167 62.3003 101.472C62.5699 104.396 64.5465 102.327 65.2204 102.552C65.445 102.642 65.6247 102.732 65.8044 102.822C66.9276 102.012 67.242 100.617 67.3319 99.4467C66.9725 99.0417 66.5682 98.7268 66.1189 98.5918Z" fill="#2D6670" stroke="#471343" stroke-miterlimit="10"/>
<path d="M105.518 43.3795C105.024 43.5595 104.395 43.6944 104.036 44.0994C103.721 44.4594 103.541 44.9994 103.407 45.4944C103.227 45.0444 103.092 44.4144 102.733 44.0544C102.553 43.8744 102.328 43.7844 102.104 43.6494C101.879 43.5595 101.52 43.5145 101.295 43.3345C101.744 43.1545 102.373 43.0195 102.733 42.6595C102.912 42.4795 103.047 42.2095 103.137 41.9845C103.227 41.7595 103.272 41.4446 103.407 41.2646C103.541 41.7145 103.721 42.2995 104.08 42.6595C104.44 43.0645 105.024 43.2445 105.518 43.3795Z" fill="#EAC8AF"/>
<path d="M111.179 43.7844C110.55 44.0094 109.786 44.1894 109.382 44.6844C108.977 45.1344 108.798 45.8093 108.573 46.3943C108.393 45.8093 108.169 45.0894 107.719 44.6394C107.495 44.4144 107.225 44.2794 106.956 44.1444C106.686 44.0094 106.237 43.9644 105.967 43.7844C106.551 43.6044 107.315 43.3795 107.719 42.9295C107.944 42.7045 108.079 42.3445 108.214 42.0745C108.348 41.8045 108.393 41.4445 108.528 41.1746C108.708 41.7595 108.932 42.4795 109.337 42.9295C109.876 43.3795 110.595 43.5594 111.179 43.7844Z" fill="#EBB264"/>
<path d="M98.5547 93.192C106.718 93.192 113.335 86.5639 113.335 78.3877C113.335 70.2116 106.718 63.5835 98.5547 63.5835C90.3918 63.5835 83.7744 70.2116 83.7744 78.3877C83.7744 86.5639 90.3918 93.192 98.5547 93.192Z" fill="#2D6670" stroke="#353643" stroke-miterlimit="10"/>
<path d="M86.1554 75.6429C86.38 75.6879 86.6047 75.5529 86.6946 75.3279C86.7395 75.1029 86.6047 74.8779 86.38 74.7879C86.1554 74.6979 85.9307 74.8779 85.8409 75.1029C85.7959 75.3729 85.9307 75.5979 86.1554 75.6429Z" fill="#F3F0E8"/>
<path d="M88.0422 72.133C88.1769 71.9531 88.0871 71.6831 87.9074 71.5481C87.7278 71.4131 87.4583 71.5031 87.3235 71.6831C87.1888 71.9081 87.2786 72.178 87.4583 72.268C87.638 72.403 87.9074 72.313 88.0422 72.133Z" fill="#F3F0E8"/>
<path d="M90.2436 68.8032C90.1088 68.6232 89.7943 68.6232 89.6146 68.7582C89.4349 68.9382 89.4349 69.2082 89.5696 69.3432C89.7494 69.5232 90.0189 69.5232 90.1986 69.3882C90.3784 69.2532 90.3783 68.9832 90.2436 68.8032Z" fill="#F3F0E8"/>
<path d="M93.2534 66.8233C93.1636 66.5983 92.894 66.5083 92.6693 66.6433C92.4447 66.7333 92.3548 67.0033 92.4896 67.2283C92.6244 67.4533 92.8491 67.5433 93.0737 67.4083C93.2984 67.3183 93.3882 67.0483 93.2534 66.8233Z" fill="#F3F0E8"/>
<path d="M96.2188 65.4734C96.084 65.4734 95.9942 65.5634 95.9493 65.6534C95.9044 65.7434 95.8595 65.8784 95.9044 65.9683C95.9493 66.1033 95.9942 66.1933 96.084 66.2383C96.1739 66.2833 96.2637 66.3283 96.3984 66.3283C96.623 66.2833 96.7577 66.0583 96.7577 65.8334C96.7128 65.6084 96.4883 65.4284 96.2188 65.4734Z" fill="#F3F0E8"/>
<path d="M99.9474 65.3384C99.7228 65.2934 99.4982 65.5184 99.4533 65.7434C99.4533 65.9684 99.5881 66.1933 99.8576 66.1933C100.082 66.2383 100.307 66.0584 100.307 65.8334C100.352 65.6084 100.217 65.3834 99.9474 65.3384Z" fill="#F3F0E8"/>
<path d="M103.586 66.2383C103.362 66.1483 103.092 66.2833 103.002 66.5083C102.913 66.7333 103.047 66.9583 103.227 67.0483C103.452 67.1383 103.676 67.0483 103.766 66.8233C103.901 66.5983 103.811 66.3283 103.586 66.2383Z" fill="#F3F0E8"/>
<path d="M106.776 68.1732C106.596 68.0382 106.282 68.0383 106.147 68.2632C106.012 68.4432 106.057 68.7132 106.237 68.8482C106.417 68.9832 106.686 68.9832 106.821 68.8032C106.956 68.6232 106.956 68.3082 106.776 68.1732Z" fill="#F3F0E8"/>
<path d="M109.292 70.9181C109.157 70.7381 108.887 70.6931 108.663 70.8281C108.483 70.9631 108.438 71.2331 108.573 71.4131C108.708 71.5931 108.977 71.6381 109.157 71.5481C109.382 71.3681 109.472 71.0981 109.292 70.9181Z" fill="#F3F0E8"/>
<path d="M110.684 74.7879C110.909 74.7429 111.044 74.4729 110.954 74.2479C110.864 74.023 110.64 73.888 110.415 73.978C110.19 74.068 110.056 74.2929 110.146 74.5179C110.235 74.7429 110.46 74.8329 110.684 74.7879Z" fill="#F3F0E8"/>
<path d="M111.179 77.4878C110.954 77.4878 110.775 77.7128 110.775 77.9377C110.775 78.1627 110.999 78.3427 111.224 78.3427C111.448 78.3427 111.628 78.1627 111.628 77.8927C111.628 77.6678 111.403 77.4878 111.179 77.4878Z" fill="#F3F0E8"/>
<path d="M110.909 81.0876C110.684 81.0426 110.46 81.1776 110.37 81.4026C110.28 81.6276 110.46 81.8526 110.684 81.9425C110.909 82.0325 111.134 81.8526 111.223 81.6276C111.268 81.4026 111.134 81.1326 110.909 81.0876Z" fill="#F3F0E8"/>
<path d="M109.651 84.4624C109.426 84.3274 109.157 84.4174 109.067 84.5974C108.932 84.7774 109.022 85.0474 109.202 85.1824C109.382 85.3174 109.651 85.2274 109.786 85.0474C109.921 84.8674 109.876 84.5974 109.651 84.4624Z" fill="#F3F0E8"/>
<path d="M106.866 87.3423C106.686 87.4773 106.686 87.7473 106.821 87.9273C106.956 88.1073 107.27 88.1073 107.45 87.9723C107.629 87.7923 107.629 87.5223 107.495 87.3873C107.315 87.2073 107.045 87.2073 106.866 87.3423Z" fill="#F3F0E8"/>
<path d="M104.036 89.3222C103.811 89.4122 103.721 89.6822 103.856 89.9072C103.946 90.1322 104.215 90.2222 104.44 90.0872C104.664 89.9972 104.754 89.7272 104.619 89.5022C104.485 89.3222 104.215 89.2322 104.036 89.3222Z" fill="#F3F0E8"/>
<path d="M101.026 90.5371C100.936 90.4921 100.846 90.4471 100.711 90.4471C100.486 90.4921 100.352 90.7171 100.352 90.9421C100.397 91.1671 100.621 91.3471 100.846 91.3021C100.981 91.3021 101.071 91.2121 101.115 91.1221C101.16 91.0321 101.205 90.8971 101.16 90.8071C101.205 90.6721 101.115 90.5821 101.026 90.5371Z" fill="#F3F0E8"/>
<path d="M97.2518 90.5821C97.0272 90.5371 96.8026 90.7171 96.8026 90.9421C96.7577 91.1671 96.9373 91.3921 97.1619 91.4371C97.3865 91.4821 97.6111 91.2571 97.656 91.0321C97.6111 90.7621 97.4764 90.5821 97.2518 90.5821Z" fill="#F3F0E8"/>
<path d="M93.8376 89.6822C93.613 89.5922 93.3884 89.6822 93.2986 89.9072C93.2087 90.1322 93.2986 90.4022 93.5232 90.4922C93.7478 90.5822 94.0173 90.4472 94.1071 90.2222C94.152 90.0422 94.0622 89.7722 93.8376 89.6822Z" fill="#F3F0E8"/>
<path d="M90.2439 87.9723C90.1092 88.1523 90.1092 88.4223 90.2888 88.6023C90.4684 88.7373 90.7827 88.7373 90.9174 88.5123C91.0521 88.3323 91.0073 88.0623 90.8276 87.9273C90.6929 87.7923 90.4235 87.7923 90.2439 87.9723Z" fill="#F3F0E8"/>
<path d="M87.9075 85.2274C87.7278 85.3624 87.6379 85.6324 87.7727 85.8124C87.9075 85.9924 88.177 86.0374 88.4016 85.9024C88.5813 85.7674 88.6262 85.4974 88.4915 85.3174C88.3567 85.1824 88.0872 85.1374 87.9075 85.2274Z" fill="#F3F0E8"/>
<path d="M86.38 81.9876C86.1554 82.0326 86.0206 82.3025 86.1105 82.5275C86.2003 82.7525 86.4249 82.8875 86.6496 82.7975C86.8742 82.7075 87.009 82.4825 86.9192 82.2575C86.8293 82.0326 86.6047 81.8976 86.38 81.9876Z" fill="#F3F0E8"/>
<path d="M86.3353 78.7927C86.3353 78.5678 86.1106 78.3878 85.8859 78.3878C85.6612 78.3878 85.4814 78.5678 85.4814 78.8377C85.4814 79.0627 85.7061 79.2877 85.9308 79.2427C86.1555 79.2427 86.3353 79.0177 86.3353 78.7927Z" fill="#F3F0E8"/>
<path d="M98.5548 88.6923C104.237 88.6923 108.843 84.0788 108.843 78.3878C108.843 72.6967 104.237 68.0833 98.5548 68.0833C92.873 68.0833 88.267 72.6967 88.267 78.3878C88.267 84.0788 92.873 88.6923 98.5548 88.6923Z" fill="#709BA6" stroke="#353643" stroke-miterlimit="10"/>
<path d="M103.227 73.753L93.4784 83.0675" stroke="#353643" stroke-width="2" stroke-miterlimit="10" stroke-linecap="round" stroke-linejoin="round"/>
<path d="M94.0173 78.3878L98.33 82.5275" stroke="#353643" stroke-width="2" stroke-miterlimit="10" stroke-linecap="round" stroke-linejoin="round"/>
<path d="M97.6561 73.753H103.227V79.1077" stroke="#353643" stroke-width="2" stroke-miterlimit="10" stroke-linecap="round" stroke-linejoin="round"/>
</svg>
