<svg width="135" height="135" viewBox="0 0 135 135" fill="none" xmlns="http://www.w3.org/2000/svg">
<path d="M135 0H0V135H135V0Z" fill="#FFF1E1"/>
<path d="M94.2093 94.3391C108.964 79.5606 108.964 55.5999 94.2092 40.8214C79.4546 26.0428 55.5327 26.0428 40.7781 40.8214C26.0235 55.5999 26.0235 79.5606 40.7781 94.3391C55.5327 109.118 79.4546 109.118 94.2093 94.3391Z" fill="#EBB264"/>
<path d="M99.8021 55.5727C99.7572 55.5727 99.7572 55.5727 99.7123 55.5727C99.5326 55.6177 95.7589 56.1577 92.8837 58.7226C91.8953 58.3176 90.6824 58.1376 89.1998 58.0926C88.3463 58.0476 87.2231 58.0926 86.2348 58.3626C85.8304 57.7776 84.9319 57.0577 83.0451 57.3726H83.0002L80.709 57.8226L76.3962 55.9327C76.7556 55.6627 77.115 55.3477 77.4744 54.9428C77.699 54.6728 78.1932 53.9528 78.4178 53.0979C79.1816 53.0079 79.8105 52.4679 80.0801 51.7479C80.125 51.6579 80.125 51.5679 80.1699 51.4779C80.2598 51.2529 80.3496 50.893 80.4395 50.758C80.5742 50.668 80.8887 50.578 81.1133 50.488C81.2032 50.443 81.338 50.398 81.4278 50.398C82.2365 50.128 82.8205 49.363 82.7756 48.4631C82.7756 47.6081 82.2365 46.8432 81.3829 46.5282C81.293 46.4832 81.2032 46.4832 81.0684 46.4382C80.8438 46.3482 80.5293 46.2582 80.3945 46.1682C80.3047 46.0332 80.1699 45.6732 80.125 45.4482L80.0351 45.2232C79.8105 44.5033 79.1366 43.9633 78.3729 43.8733C77.6092 43.7833 76.8455 44.0983 76.4411 44.7733C76.1716 45.1782 76.0368 45.6282 75.947 45.8982C75.947 45.9432 75.902 45.9882 75.902 46.0332C75.902 46.0782 75.8571 46.1682 75.8122 46.2582C75.6774 46.3032 75.4528 46.3932 75.2731 46.4832C75.1383 46.3032 75.0485 46.1232 75.0035 45.9432C74.9586 45.8532 74.9137 45.6732 75.0934 45.3582C75.6325 44.7733 77.2498 43.0184 78.5077 40.7685C80.3945 37.3486 80.6191 34.1988 79.2265 31.6339C75.5426 30.419 71.5892 29.789 67.5011 29.789C66.5127 29.789 65.5244 29.834 64.536 29.924C64.9403 30.149 65.3446 30.374 65.749 30.599C63.7723 32.5789 62.155 35.7737 63.5027 40.7685C63.5926 41.1734 64.3114 44.1433 65.9287 46.8882C65.9287 46.9332 65.9736 46.9332 65.9736 46.9782C67.0069 48.7331 68.0851 49.948 69.2082 50.803L65.4345 50.263C64.0868 50.038 61.3913 50.443 59.8189 53.2778C59.8189 53.3228 59.7739 53.3678 59.6841 53.5478L57.8871 52.0179C57.6625 51.7929 57.4379 51.6579 57.3031 51.5229L55.9553 45.4032L55.2365 38.7436L56.5843 31.3639C49.3064 33.5688 42.972 37.8886 38.2998 43.6033C38.2549 44.9083 38.3897 46.2582 38.7491 47.6081C38.4795 50.488 39.2432 53.5028 40.2316 56.0227C38.8838 56.2477 37.7158 56.8327 36.8622 57.7776C36.8173 57.8226 36.7724 57.8676 36.7274 57.9126C35.9637 58.7676 35.6942 59.6225 35.6043 59.8475L33.3131 67.1822L31.6509 68.4871L31.606 68.5321C29.764 70.062 30.2133 71.502 30.5278 72.0419C31.4712 73.7968 33.987 73.4369 34.616 73.2569C35.5594 72.9869 36.3231 72.5369 36.997 72.0869L36.2782 77.8916L34.616 79.7816L34.571 79.8266C32.9986 81.7165 33.5827 83.0214 34.0768 83.6064C35.3797 85.2263 37.9853 84.3713 38.5693 84.0563C39.2432 83.6964 39.7823 83.3364 40.2765 82.8864L40.6808 88.7361L39.0186 91.481C39.0186 91.481 39.0186 91.526 38.9737 91.526C38.8838 91.706 38.794 91.841 38.7041 92.021C39.8722 93.4159 41.175 94.7208 42.5228 95.9358C43.2416 95.6658 43.8256 95.3058 44.0053 95.1708C46.9254 92.8309 47.8239 89.6811 48.0935 87.6562L51.1933 96.4757L49.8006 99.5806C49.8006 99.5806 49.8006 99.6256 49.7557 99.6256C49.576 100.076 49.4412 100.481 49.3963 100.841C51.1034 101.785 52.9004 102.595 54.7423 103.27C55.0568 103.045 55.3264 102.82 55.4162 102.73C59.8638 98.2307 57.8871 93.1009 57.5726 92.4259L54.338 84.5513C54.2482 84.3263 54.338 84.0563 54.5626 83.9213C55.1017 83.6064 55.5061 83.3814 55.7307 83.2914C57.2582 84.1913 58.9653 84.9113 60.4029 85.4513C60.1333 89.2311 60.5377 92.3809 61.6608 94.7658C62.6042 96.7907 63.907 98.0057 65.0751 98.7706C65.12 98.8606 65.12 98.9506 65.165 99.0406C65.3447 99.3556 66.5576 101.785 68.759 103.09C68.9387 103.945 69.298 104.8 69.7922 105.52C77.9236 105.025 85.3363 102.01 91.2664 97.1957C88.8854 95.1258 84.4827 92.2909 78.5526 92.8309C78.5077 92.8309 78.5077 92.8309 78.4628 92.8309C78.3729 92.8309 76.7107 93.1009 74.7789 93.9559C73.6108 92.5609 72.3979 91.661 71.2748 91.391C71.0951 90.941 70.9603 90.401 70.8255 89.8161C72.8921 89.9061 74.734 89.6811 75.5426 89.5911C76.9802 89.9511 78.912 89.8611 81.3829 89.3661L85.516 88.8261C87.3579 90.446 90.5027 92.1559 93.7373 90.806C93.9619 90.716 94.2314 90.581 94.4561 90.401C94.501 90.356 94.5908 90.311 94.6358 90.266L94.6807 90.221C95.2198 89.8161 96.1183 89.0061 96.298 87.7462C96.4327 87.0262 96.2081 86.2612 95.669 85.7213C95.5792 85.6313 95.4444 85.4963 95.3096 85.4513C95.9386 84.9113 96.5226 84.3263 96.9718 83.6064C97.2414 83.7414 97.5559 83.8314 97.9153 83.8764C98.5442 83.9214 99.2181 83.6964 99.7123 83.2464C99.9818 83.0214 100.162 82.7514 100.296 82.4814C100.386 82.3014 100.476 82.0764 100.566 81.8964C100.656 81.6715 100.701 81.4015 100.746 81.1315C100.925 80.0065 100.835 77.9366 98.2298 75.9117L97.7356 75.5068C97.6008 75.1918 97.4211 74.7868 97.1516 74.2918L97.1066 74.2018C97.0617 74.1568 97.0168 74.0668 97.0168 74.0218C96.9718 73.9768 96.9719 73.9318 96.9269 73.8418L96.8371 73.6618C96.7922 73.5719 96.7472 73.5269 96.7023 73.4819V73.4369C96.6574 73.3919 96.6574 73.3469 96.6124 73.3019C96.5226 73.1669 96.4327 73.0769 96.3429 72.9419L96.298 72.8519C96.2081 72.7619 96.1632 72.6269 96.0733 72.5369L95.9835 72.4019C95.8937 72.3119 95.8487 72.2219 95.7589 72.1319L95.669 71.9969C95.6241 71.9519 95.6241 71.9069 95.5792 71.8619C97.466 73.7068 100.431 75.9567 104.205 76.7217C104.879 73.8418 105.283 70.872 105.283 67.7671C105.283 63.5823 104.609 59.5775 103.351 55.8427C102.228 55.4827 101.06 55.4827 99.8021 55.5727ZM65.3447 56.7427C65.3896 56.6527 65.4345 56.5627 65.4794 56.4727L65.6591 56.5177C65.5693 56.5627 65.4345 56.6527 65.3447 56.7427Z" fill="#EBB264"/>
<path d="M65.2999 62.8174C65.2999 62.8174 66.2882 63.2224 68.5794 60.6575C68.8489 60.3875 69.2083 59.8026 69.6576 59.3076C70.2865 58.6326 71.4995 58.4526 72.2632 58.9476L76.9803 61.6025C76.9803 61.6025 80.3946 63.1774 83.6292 61.1525C83.9886 60.9275 85.8305 58.9476 83.4045 59.3976L80.4844 59.9825L72.1734 56.3827C72.1734 56.3827 69.8373 55.2578 67.636 57.4627C67.1418 57.9576 65.5245 59.3526 64.671 60.0275C64.2217 60.3875 63.9522 60.9275 63.9522 61.5125C63.9971 62.0525 64.2666 62.6374 65.2999 62.8174Z" fill="#A8494C" stroke="#353643" stroke-miterlimit="10"/>
<path d="M70.9153 56.0677C70.9153 56.0677 69.6125 57.5527 70.7356 58.6776L70.9153 56.0677Z" fill="#A8494C"/>
<path d="M70.9153 56.0677C70.9153 56.0677 69.6125 57.5527 70.7356 58.6776" stroke="#353643" stroke-miterlimit="10"/>
<path d="M80.4395 59.9376C80.4395 59.9376 76.3513 59.7576 76.9802 61.5575L80.4395 59.9376Z" fill="#A8494C"/>
<path d="M80.4395 59.9376C80.4395 59.9376 76.3513 59.7576 76.9802 61.5575" stroke="#353643" stroke-miterlimit="10"/>
<path d="M40.8156 47.3832C40.8156 47.3832 50.3847 48.7781 53.9787 45.7183L53.2149 38.6536C53.2149 38.6536 45.4429 33.1639 41.5344 38.1136C41.4895 38.1136 39.333 43.1534 40.8156 47.3832Z" fill="#BF6A58" stroke="#353643" stroke-miterlimit="10"/>
<path d="M53.17 38.6986C53.17 38.6986 52.0469 37.8886 50.3846 37.1687C50.3397 39.1036 50.5194 41.0385 50.9686 42.8834C51.2831 44.2783 51.373 45.6733 51.4628 47.0232C52.4512 46.7082 53.3048 46.3032 53.9787 45.7633L53.17 38.6986Z" fill="#709BA6"/>
<path d="M40.8156 47.3832C40.8156 47.3832 50.3847 48.7781 53.9787 45.7183L53.2149 38.6536C53.2149 38.6536 45.4429 33.1639 41.5344 38.1136C41.4895 38.1136 39.333 43.1534 40.8156 47.3832Z" stroke="#353643" stroke-miterlimit="10"/>
<path d="M52.3613 41.5784C52.6308 41.8034 52.6758 42.2084 52.4062 42.5234C52.1816 42.8384 51.7772 42.9284 51.5077 42.7034C51.2381 42.4784 51.1932 42.0734 51.4627 41.7584C51.6874 41.4884 52.0917 41.3985 52.3613 41.5784Z" fill="#EAC8AF"/>
<path d="M49.576 24.4793C49.576 24.4793 40.0968 31.9489 41.5344 38.1136C41.5344 38.1136 49.3064 40.8585 53.2149 38.6536L55.1916 27.8991C55.1467 27.9441 53.3497 24.0743 49.576 24.4793Z" fill="#BF6A58" stroke="#353643" stroke-miterlimit="10"/>
<path d="M55.1467 27.9441C55.1467 27.9441 54.967 27.5391 54.5627 26.9991C53.7989 27.1791 53.2149 27.8991 52.7656 28.6191C50.7889 31.8139 50.1599 35.6837 50.4744 39.5085C51.4628 39.4186 52.4062 39.1486 53.17 38.7436L55.1467 27.9441Z" fill="#709BA6"/>
<path d="M49.576 24.4793C49.576 24.4793 40.0968 31.9489 41.5344 38.1136C41.5344 38.1136 49.3064 40.8585 53.2149 38.6536L55.1916 27.8991C55.1467 27.9441 53.3497 24.0743 49.576 24.4793Z" stroke="#353643" stroke-miterlimit="10"/>
<path d="M52.8106 32.6689C53.0801 32.8939 53.1251 33.2989 52.8555 33.6139C52.6309 33.9288 52.2266 34.0188 51.957 33.7938C51.6875 33.5689 51.6425 33.1639 51.9121 32.8489C52.1367 32.5339 52.541 32.4439 52.8106 32.6689Z" fill="#EAC8AF"/>
<path d="M58.2465 21.2395C56.0002 21.6894 51.2382 22.1844 49.5759 24.4793C49.5759 24.4793 48.4079 29.2491 55.1466 27.9441L61.3912 26.4142C62.8737 26.0542 63.9519 24.7043 63.907 23.1744C63.8172 21.6894 62.694 20.3395 58.2465 21.2395Z" fill="#BF6A58" stroke="#353643" stroke-miterlimit="10"/>
<path d="M61.4362 25.8742C61.6608 26.2342 66.2881 28.1241 69.5227 30.599C70.9154 31.6789 72.8921 31.6789 74.1949 30.464L74.2398 30.419C74.8238 29.879 74.9586 29.0241 74.5543 28.3041C73.3862 26.2342 69.9719 21.1494 64.1766 21.2394C64.1766 21.2394 58.7857 21.2844 61.4362 25.8742Z" fill="#BF6A58" stroke="#353643" stroke-miterlimit="10"/>
<path d="M76.8454 31.6789C75.0484 29.564 71.9935 29.024 69.5226 30.329C66.872 31.6789 63.9519 34.5138 65.5243 40.2285C65.5243 40.2285 68.3995 52.9629 76.486 49.993C76.486 49.993 71.3196 47.3382 73.521 44.0533C73.4761 44.0533 81.0235 36.6737 76.8454 31.6789Z" fill="#4D2636" stroke="#EAC8AF" stroke-width="0.5" stroke-miterlimit="10"/>
<path d="M73.5659 41.3535C73.8355 41.5784 73.8804 41.9834 73.6108 42.2984C73.3862 42.6134 72.9819 42.7034 72.7123 42.4784C72.4428 42.2534 72.3979 41.8484 72.6674 41.5335C72.892 41.2185 73.2964 41.1285 73.5659 41.3535Z" fill="#EAC8AF"/>
<path d="M75.902 38.2486C76.1716 38.4736 76.2165 38.8786 75.9469 39.1936C75.7223 39.5085 75.318 39.5985 75.0484 39.3736C74.7789 39.1486 74.734 38.7436 75.0035 38.4286C75.2281 38.1136 75.6325 38.0236 75.902 38.2486Z" fill="#EAC8AF"/>
<path d="M76.8454 34.8738C77.115 35.0987 77.1599 35.5037 76.8904 35.8187C76.6657 36.1337 76.2614 36.2237 75.9919 35.9987C75.7223 35.7737 75.6774 35.3687 75.9469 35.0538C76.1716 34.7388 76.5759 34.6488 76.8454 34.8738Z" fill="#EAC8AF"/>
<path d="M75.902 31.4989C76.1716 31.7239 76.2165 32.1289 75.9469 32.4439C75.7223 32.7589 75.318 32.8489 75.0484 32.6239C74.7789 32.3989 74.734 31.9939 75.0035 31.6789C75.2281 31.3639 75.6325 31.274 75.902 31.4989Z" fill="#EAC8AF"/>
<path d="M95.1749 68.2172C95.1749 68.2172 99.0833 73.7069 105.103 74.6518C105.103 74.6518 108.383 74.9218 110.09 74.2919C110.629 74.0669 110.764 73.3469 110.27 72.9869L100.296 65.3373C100.341 65.3373 94.8155 64.8873 95.1749 68.2172Z" fill="#A8494C" stroke="#353643" stroke-miterlimit="10"/>
<path d="M78.3729 67.5872C78.8221 67.1822 80.9336 65.2473 86.2797 64.7073C86.2797 64.7073 90.3679 62.9074 86.684 61.1525C86.684 61.1525 77.6541 61.1975 74.8238 66.0122L78.3729 67.5872Z" fill="#BF6A58" stroke="#353643" stroke-miterlimit="10"/>
<path d="M68.3546 86.5312C68.3546 86.5312 68.5343 92.8759 70.9603 94.1359C70.9603 94.1359 73.0268 97.9607 69.2531 97.9157C69.2531 97.9157 60.7623 98.4106 62.4694 84.0563C62.5143 84.0114 67.4112 81.2215 68.3546 86.5312Z" fill="#BF6A58" stroke="#353643" stroke-miterlimit="10"/>
<path d="M60.9869 77.5317C60.9869 77.5317 58.6059 80.2316 55.6857 80.9965C55.1916 81.1315 54.2931 81.5815 53.4844 82.0765C52.4062 82.7064 51.957 84.0564 52.4062 85.2263L55.6408 93.1459C55.6408 93.1459 57.6624 97.4207 53.9337 101.201C53.4844 101.65 50.2498 103.54 51.5976 100.346L53.3047 96.5208L49.2165 85.0013C49.2165 85.0013 47.4195 81.5815 51.1034 79.2866C52.1816 78.6116 57.9769 75.2818 57.9769 75.2818C57.9769 75.2818 61.2565 74.6069 60.9869 77.5317Z" fill="#A8494C" stroke="#353643" stroke-miterlimit="10"/>
<path d="M52.6308 72.132C52.6308 72.132 52.6757 73.4819 48.5876 75.1918C48.1384 75.3718 47.2848 75.5968 46.4761 75.9118C45.3979 76.3618 44.6342 77.8017 44.9487 78.8816L46.1167 85.7213C46.1167 85.7213 46.566 90.5361 42.7474 93.5509C42.2981 93.9109 39.1534 95.3058 40.7258 92.516L42.7025 89.2311L41.8938 77.6217C41.8938 77.6217 41.5344 74.3369 45.1733 72.6269C45.982 72.267 48.363 70.872 49.531 70.1521C50.16 69.7921 50.9237 69.6571 51.6425 69.9271C52.2714 70.2421 52.9004 70.827 52.6308 72.132Z" fill="#A8494C" stroke="#353643" stroke-miterlimit="10"/>
<path d="M60.897 59.3526C60.897 59.3526 61.7955 59.4426 63.1433 56.7427C63.2781 56.4277 63.4578 55.8427 63.7273 55.3478C64.0867 54.6278 65.0751 54.1778 65.8388 54.4478L70.4212 55.5278C70.4212 55.5278 73.6558 56.0677 75.902 53.5929C76.1716 53.3229 77.2498 51.208 75.2731 52.1529L72.937 53.3679L65.12 52.2879C65.12 52.2879 62.9187 51.9279 61.5709 54.2678C61.2564 54.8078 60.2231 56.3377 59.684 57.1027C59.4145 57.5077 59.2797 58.0476 59.4594 58.5426C59.6391 59.0376 59.9985 59.4876 60.897 59.3526Z" fill="#A8494C" stroke="#353643" stroke-miterlimit="10"/>
<path d="M48.8573 66.5072C48.8573 66.5072 48.6776 67.6322 45.1285 68.3521C44.7242 68.4421 44.0054 68.4421 43.3315 68.6221C42.388 68.8471 41.5345 69.837 41.6243 70.782L41.4895 76.4517C41.4895 76.4517 41.0852 80.4116 37.5361 82.2565C37.1318 82.4815 34.3464 83.1114 36.0536 81.0865L38.1651 78.7466L39.3331 69.2521C39.3331 69.2521 39.5577 66.5522 42.7475 65.7422C43.4663 65.5622 45.5777 64.7973 46.656 64.4373C47.24 64.2123 47.869 64.2573 48.4081 64.6173C48.9022 64.9323 49.2616 65.5172 48.8573 66.5072Z" fill="#A8494C" stroke="#353643" stroke-miterlimit="10"/>
<path d="M46.1167 59.5325C46.1167 59.5325 45.8022 60.4775 42.6575 60.5225C42.2981 60.5225 41.6691 60.4325 41.0402 60.4775C40.2315 60.5225 39.333 61.2425 39.2432 62.0974L38.2549 66.9572C38.2549 66.9572 37.3114 70.287 33.987 71.322C33.5827 71.457 31.1567 71.547 32.9088 70.107L35.0652 68.3971L37.5361 60.4325C37.5361 60.4325 38.165 58.1376 40.9953 57.9576C41.6242 57.9126 43.556 57.5976 44.5443 57.4177C45.0834 57.3277 45.6225 57.4626 46.0268 57.8226C46.3862 58.1826 46.6558 58.7226 46.1167 59.5325Z" fill="#A8494C" stroke="#353643" stroke-miterlimit="10"/>
<path d="M44.9487 60.7025C44.9487 60.7025 39.9171 53.5028 40.8156 47.3831C40.8156 47.3831 48.8122 42.8384 53.9786 45.7182L55.6857 53.5478C55.6857 53.5928 45.1733 56.4727 44.9487 60.7025Z" fill="#BF6A58" stroke="#353643" stroke-miterlimit="10"/>
<path d="M51.2832 44.8633C51.6875 48.2831 51.2832 51.523 52.4063 54.6728C54.2482 53.9528 55.6857 53.5479 55.6857 53.5479L53.9337 45.7182C53.1251 45.2683 52.2266 44.9983 51.2832 44.8633Z" fill="#709BA6"/>
<path d="M44.9487 60.7025C44.9487 60.7025 39.9171 53.5028 40.8156 47.3831C40.8156 47.3831 48.8122 42.8384 53.9786 45.7182L55.6857 53.5478C55.6857 53.5928 45.1733 56.4727 44.9487 60.7025Z" stroke="#353643" stroke-miterlimit="10"/>
<path d="M53.17 49.678C53.4395 49.903 53.4844 50.308 53.2149 50.623C52.9903 50.938 52.5859 51.028 52.3164 50.803C52.0468 50.578 52.0019 50.173 52.2715 49.858C52.4961 49.543 52.9004 49.498 53.17 49.678Z" fill="#EAC8AF"/>
<path d="M53.3945 76.6767C53.3945 76.6767 44.2298 71.772 44.095 59.9825C44.095 59.9825 46.4311 52.1529 55.6857 52.7829C55.6857 52.7829 66.7373 62.3674 69.2981 63.8974C69.2981 63.9424 58.6508 64.3473 53.3945 76.6767Z" fill="#BF6A58" stroke="#353643" stroke-miterlimit="10"/>
<path d="M51.9121 53.0529C52.1367 54.1779 52.4961 55.2578 53.125 56.3827C54.8322 59.4426 56.5843 62.5024 58.9204 65.0673C59.5044 65.6973 60.313 66.3273 61.2565 66.8672C65.4345 64.0774 69.2981 63.9424 69.2981 63.9424C66.6924 62.3674 55.6858 52.8279 55.6858 52.8279C54.2931 52.6929 53.0352 52.7829 51.9121 53.0529Z" fill="#709BA6"/>
<path d="M53.3945 76.6767C53.3945 76.6767 44.2298 71.772 44.095 59.9825C44.095 59.9825 46.4311 52.1529 55.6857 52.7829C55.6857 52.7829 66.7373 62.3674 69.2981 63.8974C69.2981 63.9424 58.6508 64.3473 53.3945 76.6767Z" stroke="#353643" stroke-miterlimit="10"/>
<path d="M61.4362 61.2875C61.7057 61.5125 61.7506 61.9175 61.4811 62.2324C61.2564 62.5474 60.8521 62.6374 60.5826 62.4124C60.313 62.1874 60.2681 61.7825 60.5377 61.4675C60.7623 61.1525 61.1666 61.0625 61.4362 61.2875Z" fill="#EAC8AF"/>
<path d="M59.1899 58.5876C59.4594 58.8126 59.5043 59.2176 59.2348 59.5326C59.0101 59.8476 58.6058 59.9376 58.3363 59.7126C58.0667 59.4876 58.0218 59.0826 58.2914 58.7676C58.516 58.4526 58.9203 58.3626 59.1899 58.5876Z" fill="#EAC8AF"/>
<path d="M56.4495 55.5278C56.719 55.7528 56.764 56.1577 56.4944 56.4727C56.2698 56.7877 55.8655 56.8777 55.5959 56.6527C55.3264 56.4277 55.2814 56.0227 55.551 55.7078C55.7756 55.3928 56.1799 55.3028 56.4495 55.5278Z" fill="#EAC8AF"/>
<path d="M64.4461 84.6413C64.4461 84.6413 54.338 81.7615 52.4062 77.5767C52.4062 77.5767 55.3713 61.6925 70.0168 62.9974L74.3296 65.3373L64.4461 84.6413Z" fill="#BF6A58" stroke="#353643" stroke-miterlimit="10"/>
<path d="M70.0168 62.9974C65.5243 62.5924 62.155 63.8073 59.5942 65.6973C62.2897 67.9921 67.9503 69.837 71.0052 70.557C71.1849 70.602 71.4095 70.647 71.5892 70.692L74.3297 65.3373L70.0168 62.9974Z" fill="#709BA6"/>
<path d="M64.4461 84.6413C64.4461 84.6413 54.338 81.7615 52.4062 77.5767C52.4062 77.5767 55.3713 61.6925 70.0168 62.9974L74.3296 65.3373L64.4461 84.6413Z" stroke="#353643" stroke-miterlimit="10"/>
<path d="M68.9836 66.1022C69.2531 66.3272 69.2981 66.7322 69.0285 67.0472C68.8039 67.3622 68.3996 67.4522 68.13 67.2272C67.8605 67.0022 67.8155 66.5972 68.0851 66.2822C68.3097 66.0123 68.714 65.9223 68.9836 66.1022Z" fill="#EAC8AF"/>
<path d="M66.962 64.5273C67.2316 64.7523 67.2765 65.1573 67.007 65.4723C66.7823 65.7873 66.378 65.8773 66.1084 65.6523C65.8389 65.4273 65.7939 65.0223 66.0635 64.7073C66.2881 64.4373 66.6925 64.3473 66.962 64.5273Z" fill="#EAC8AF"/>
<path d="M75.6774 87.1162C75.6774 87.1162 66.5576 88.6912 62.8737 84.5514C62.8737 84.5514 59.3696 67.8572 74.2847 65.1123L81.4727 67.9922C81.5176 68.0372 71.5443 81.7615 75.6774 87.1162Z" fill="#BF6A58" stroke="#353643" stroke-miterlimit="10"/>
<path d="M74.3296 65.3373C70.8255 65.9672 68.3097 67.4072 66.5576 69.2071C68.2199 69.7921 69.8372 70.242 71.0052 70.557C73.1616 71.052 75.3629 71.007 77.5193 71.592C78.0584 71.727 78.5526 71.907 79.0468 72.1319C80.3945 69.8371 81.5176 68.2621 81.5176 68.2621L74.3296 65.3373Z" fill="#709BA6"/>
<path d="M75.6774 87.3412C75.6774 87.3412 66.5576 88.9161 62.8737 84.7763C62.8737 84.7763 59.3696 68.0821 74.2847 65.3373L81.4727 68.2171C81.5176 68.2621 71.5443 81.9864 75.6774 87.3412Z" stroke="#353643" stroke-miterlimit="10"/>
<path d="M76.8454 68.8471C77.115 69.0721 77.1599 69.4771 76.8904 69.7921C76.6657 70.1071 76.2614 70.1971 75.9919 69.9721C75.7223 69.7471 75.6774 69.3421 75.9469 69.0271C76.1716 68.7121 76.5759 68.6221 76.8454 68.8471Z" fill="#EAC8AF"/>
<path d="M73.5659 67.7222C73.8355 67.9472 73.8804 68.3521 73.6108 68.6671C73.3862 68.9821 72.9819 69.0721 72.7123 68.8471C72.4428 68.6221 72.3979 68.2172 72.6674 67.9022C72.892 67.5872 73.2964 67.4972 73.5659 67.7222Z" fill="#EAC8AF"/>
<path d="M73.9253 105.295C73.9253 105.295 77.8338 110.785 83.8537 111.73C83.8537 111.73 87.1333 112 88.8404 111.37C89.3795 111.145 89.5143 110.425 89.0201 110.065L79.0467 102.415C79.0917 102.415 73.5659 101.965 73.9253 105.295Z" fill="#A8494C" stroke="#353643" stroke-miterlimit="10"/>
<path d="M66.9619 98.0057C66.9619 98.0057 68.4445 100.976 70.7356 101.651C72.3979 102.101 77.6541 100.751 73.4311 95.3958C72.8022 94.6309 70.7806 92.381 69.8371 93.5059C69.8371 93.5059 71.3197 95.2608 70.3313 96.0708C70.3313 96.0708 66.6025 95.8908 66.9619 98.0057Z" fill="#BF6A58" stroke="#353643" stroke-miterlimit="10"/>
<path d="M76.8455 105.79C77.3396 105.565 77.8338 105.34 78.3729 105.025L80.9336 102.73L93.4677 108.04C93.4677 108.04 94.8155 109.12 94.9952 109.075C95.1299 109.03 96.2531 104.665 91.5809 100.256C91.5809 100.256 86.5493 94.0009 78.7323 94.7209C78.7323 94.7209 72.8022 95.5308 70.9603 100.166C69.5227 103.81 73.2514 107.32 76.8455 105.79Z" fill="#BF6A58" stroke="#353643" stroke-miterlimit="10"/>
<path d="M98.095 68.6671C98.5891 68.4421 99.0833 68.2172 99.6224 67.9022L102.183 65.6073L114.717 70.917C114.717 70.917 116.065 71.997 116.245 71.952C116.379 71.907 117.503 67.5422 112.83 63.1324C112.83 63.1324 107.799 56.8777 99.9818 57.5977C99.9818 57.5977 94.0517 58.4076 92.2098 63.0424C90.8171 66.7322 94.501 70.2421 98.095 68.6671Z" fill="#BF6A58" stroke="#353643" stroke-miterlimit="10"/>
<path d="M82.4611 67.8572C82.4611 67.8572 68.7589 73.0769 74.5543 86.2163C74.5543 86.2163 74.5992 88.4662 80.9785 87.1612L86.2348 86.5313C86.2348 86.5313 89.4694 90.2211 92.9286 88.7812C93.3778 88.6012 94.0966 88.0162 94.2314 87.3412C94.2763 87.1162 94.0966 86.9363 93.872 86.9813C93.4677 87.0262 92.7938 87.0262 92.075 86.4863C91.7605 86.2613 90.907 85.5413 90.907 85.5413C90.907 85.5413 96.2081 83.6064 95.8038 80.1866C95.8038 80.1866 97.3312 80.1416 97.8254 81.5365C97.9153 81.8065 98.3645 81.7165 98.4993 81.4465C98.9036 80.6366 99.1732 79.1516 96.9718 77.4417L96.0284 76.6318C96.0733 76.6318 93.6923 68.3072 82.4611 67.8572Z" fill="#BF6A58" stroke="#353643" stroke-miterlimit="10"/>
<path d="M86.0551 86.5312H86.2348C86.2348 86.5312 89.4694 90.2211 92.9286 88.7811C93.3779 88.6012 94.0967 88.0162 94.2314 87.3412C94.2764 87.1162 94.0967 86.9362 93.872 86.9812C93.4677 87.0262 92.7938 87.0262 92.075 86.4862C91.8504 86.3063 91.3113 85.9013 91.0418 85.6763C90.7722 85.6763 90.5026 85.6313 90.2331 85.6313C88.5709 85.6313 87.0434 85.9913 86.0551 86.5312Z" fill="#A8494C" stroke="#353643" stroke-miterlimit="10"/>
<path d="M97.0168 77.4417L96.0734 76.6317C96.0734 76.6317 96.0734 76.5867 96.0284 76.5417C95.8038 77.2167 95.714 77.9816 95.714 78.7916C95.714 79.2866 95.7589 79.7366 95.8487 80.1415C96.0734 80.1415 97.3762 80.2315 97.8254 81.4915C97.9153 81.7615 98.3645 81.6715 98.4993 81.4015C98.9486 80.5915 99.2181 79.1066 97.0168 77.4417Z" fill="#A8494C" stroke="#353643" stroke-miterlimit="10"/>
<path d="M82.4161 67.9022C82.4161 67.9022 69.343 72.9869 74.2847 85.4513C74.4195 85.4513 86.4594 86.2163 87.8521 78.8816C88.1216 77.5317 84.7972 70.872 89.0201 72.8519C89.7389 73.2119 92.2098 74.9218 92.7938 75.4618C93.3329 75.9568 94.456 76.6317 95.7589 75.6868C94.7705 73.5719 91.4011 68.2171 82.4161 67.9022Z" fill="#EAC8AF"/>
<path d="M82.0568 78.6566C82.2814 79.6466 81.922 80.5466 81.2481 80.7265C80.5742 80.9065 79.8105 80.2316 79.6308 79.2416C79.4062 78.1167 79.8105 77.8467 80.4844 77.7117C81.1583 77.5317 81.8321 77.5317 82.0568 78.6566Z" fill="#471343"/>
<path d="M77.115 76.4967C77.0252 76.7217 77.115 77.0817 77.6991 77.1717C77.9686 77.2167 78.2382 77.2167 78.4628 77.1717C79.2265 77.0367 81.338 76.6767 83.135 76.8567C83.4045 76.9017 83.5393 76.5417 83.3147 76.4068C82.6857 75.9118 82.1915 75.5518 80.9336 75.2368C80.3047 75.1018 78.2831 75.2368 77.7889 75.6868C77.6092 75.8218 77.2049 76.2268 77.115 76.4967Z" fill="#471343"/>
<path d="M93.2431 72.4019C93.4677 73.3919 93.1083 74.2918 92.4344 74.4718C91.7605 74.6518 90.9968 73.9769 90.8171 72.9869C90.5925 71.862 90.9968 71.592 91.6707 71.457C92.2996 71.277 92.9735 71.322 93.2431 72.4019Z" fill="#471343"/>
<path d="M90.1432 69.8371C89.6491 70.827 89.6042 71.412 89.5143 72.177C89.4694 72.4469 89.8288 72.5819 90.0085 72.3569C90.4577 71.772 90.9968 71.187 91.491 70.692C91.0867 70.377 90.6374 70.1071 90.1432 69.8371Z" fill="#471343"/>
<path d="M88.0767 73.1669C88.5259 71.412 87.0883 69.6121 85.2913 68.1721C84.3928 68.0371 83.4494 67.9022 82.4161 67.9022C82.4161 67.9022 79.5859 69.0271 77.0251 71.457C77.2048 71.502 77.3396 71.547 77.5193 71.592C79.9003 72.2219 82.0118 73.6169 84.2581 74.7418C84.9319 75.1018 85.7406 75.4168 86.4594 75.1918C87.268 74.9218 87.8521 74.0669 88.0767 73.1669Z" fill="#709BA6"/>
<path d="M82.4162 67.9022C82.4162 67.9022 68.759 73.2119 74.6441 86.3062C74.6441 86.3062 74.6891 88.5561 81.0684 87.2062L86.2797 86.5312C86.2797 86.5312 89.5592 90.221 93.0185 88.7361C93.4677 88.5561 94.1865 87.9712 94.2764 87.2962C94.3213 87.0712 94.1416 86.8912 93.917 86.9362C93.5126 86.9812 92.8388 86.9812 92.12 86.4862C91.8055 86.2612 90.9519 85.5413 90.9519 85.5413C90.9519 85.5413 96.2081 83.5614 95.8038 80.1416C95.8038 80.1416 97.3313 80.0966 97.8254 81.4915C97.9153 81.7615 98.4095 81.6715 98.4993 81.4015C98.9036 80.5915 99.1283 79.1066 96.9719 77.3967L96.0284 76.6317C96.0734 76.5417 93.6025 68.2621 82.4162 67.9022Z" stroke="#353643" stroke-miterlimit="10"/>
<path d="M85.8305 71.817C86.1 72.042 86.1449 72.4469 85.8754 72.7619C85.6508 73.0769 85.2464 73.1669 84.9769 72.9419C84.7073 72.7169 84.6624 72.3119 84.932 71.997C85.1566 71.682 85.5609 71.592 85.8305 71.817Z" fill="#EAC8AF"/>
<path d="M83.3596 69.6571C83.6291 69.8821 83.674 70.2871 83.4045 70.602C83.1799 70.917 82.7755 71.007 82.506 70.782C82.2364 70.557 82.1915 70.1521 82.4611 69.8371C82.6857 69.5221 83.09 69.4321 83.3596 69.6571Z" fill="#EAC8AF"/>
<path d="M86.9536 65.8322C86.9536 65.8322 90.1882 66.5072 92.1649 65.3823C93.6025 64.5723 95.9386 60.3425 89.1549 60.1625C88.1666 60.1175 85.1566 60.2075 85.3812 61.4675C85.3812 61.4675 87.6724 61.4675 87.6724 62.5474C87.6724 62.5024 85.1117 64.8873 86.9536 65.8322Z" fill="#BF6A58" stroke="#353643" stroke-miterlimit="10"/>
<path d="M67.7257 45.8982C67.7257 45.8982 65.2998 35.5937 69.5227 30.329" stroke="#EAC8AF" stroke-width="0.5" stroke-miterlimit="10"/>
<path d="M53.3498 96.5658C53.3498 96.5658 53.0354 93.6859 56.0452 94.6759" stroke="#353643" stroke-miterlimit="10"/>
<path d="M48.8123 82.5265C48.8123 82.5265 51.3281 80.4115 52.2715 83.8314" stroke="#353643" stroke-miterlimit="10"/>
<path d="M42.6576 89.2761C42.6576 89.2761 43.2416 84.9113 46.1168 85.7663" stroke="#353643" stroke-miterlimit="10"/>
<path d="M41.9387 76.4517C41.9387 76.4517 44.6342 75.1468 45.5328 76.6767L41.9387 76.4517Z" fill="#A8494C"/>
<path d="M41.9387 76.4517C41.9387 76.4517 44.6342 75.1468 45.5328 76.6767" stroke="#353643" stroke-miterlimit="10"/>
<path d="M38.165 78.7466C38.165 78.7466 38.4795 75.9118 41.4895 76.4518L38.165 78.7466Z" fill="#A8494C"/>
<path d="M38.165 78.7466C38.165 78.7466 38.4795 75.9118 41.4895 76.4518" stroke="#353643" stroke-miterlimit="10"/>
<path d="M39.6026 68.2621C39.6026 68.2621 41.2199 67.2272 42.6576 68.9371L39.6026 68.2621Z" fill="#A8494C"/>
<path d="M39.6026 68.2621C39.6026 68.2621 41.2199 67.2272 42.6576 68.9371" stroke="#353643" stroke-miterlimit="10"/>
<path d="M35.0652 68.3972C35.0652 68.3972 36.1883 66.3722 38.2549 66.9572L35.0652 68.3972Z" fill="#A8494C"/>
<path d="M35.0652 68.3972C35.0652 68.3972 36.1883 66.3722 38.2549 66.9572" stroke="#353643" stroke-miterlimit="10"/>
<path d="M38.2549 59.1726C38.2549 59.1726 40.2765 59.4876 40.4113 60.6125L38.2549 59.1726Z" fill="#A8494C"/>
<path d="M38.2549 59.1726C38.2549 59.1726 40.2765 59.4876 40.4113 60.6125" stroke="#353643" stroke-miterlimit="10"/>
<path d="M72.9819 53.3679C72.9819 53.3679 70.9603 54.3578 71.3646 55.6627L72.9819 53.3679Z" fill="#A8494C"/>
<path d="M72.9819 53.3679C72.9819 53.3679 70.9603 54.3578 71.3646 55.6627" stroke="#353643" stroke-miterlimit="10"/>
<path d="M64.6258 52.2879C64.6258 52.2879 63.5028 54.2678 65.075 54.4478L64.6258 52.2879Z" fill="#A8494C"/>
<path d="M64.6258 52.2879C64.6258 52.2879 63.5028 54.2678 65.075 54.4478" stroke="#353643" stroke-miterlimit="10"/>
<path d="M80.709 48.5081C80.0801 48.7331 79.3163 48.9131 78.912 49.4081C78.5077 49.858 78.328 50.533 78.1034 51.118C77.9237 50.533 77.699 49.813 77.2498 49.3631C77.0252 49.1381 76.7556 49.0031 76.4861 48.8681C76.2165 48.7331 75.7673 48.6881 75.4977 48.5081C76.0817 48.3281 76.8455 48.1031 77.2498 47.6531C77.4744 47.4281 77.6092 47.0682 77.744 46.7982C77.8787 46.5282 77.9237 46.1682 78.0584 45.8982C78.2381 46.4832 78.4628 47.2032 78.8671 47.6531C79.3613 48.1031 80.125 48.2831 80.709 48.5081Z" fill="#EAC8AF"/>
<path d="M94.6807 56.9677C102.844 56.9677 109.461 50.3396 109.461 42.1634C109.461 33.9872 102.844 27.3591 94.6807 27.3591C86.5177 27.3591 79.9003 33.9872 79.9003 42.1634C79.9003 50.3396 86.5177 56.9677 94.6807 56.9677Z" fill="#2D6670" stroke="#353643" stroke-miterlimit="10"/>
<path d="M82.3263 39.4185C82.5509 39.4635 82.7755 39.3286 82.8654 39.1036C82.9103 38.8786 82.7756 38.6536 82.5509 38.5636C82.3263 38.4736 82.1017 38.6536 82.0118 38.8786C81.9669 39.1486 82.1017 39.3736 82.3263 39.4185Z" fill="#F3F0E8"/>
<path d="M84.1682 35.9087C84.303 35.7287 84.2132 35.4587 84.0335 35.3238C83.8538 35.1888 83.5842 35.2788 83.4494 35.4588C83.3147 35.6837 83.4045 35.9537 83.5842 36.0437C83.8088 36.1337 84.0784 36.0887 84.1682 35.9087Z" fill="#F3F0E8"/>
<path d="M86.3696 32.5789C86.2348 32.3989 85.9203 32.3989 85.7406 32.5339C85.5609 32.7139 85.5609 32.9839 85.6957 33.1189C85.8754 33.2988 86.1449 33.2988 86.3246 33.1639C86.5493 33.0289 86.5493 32.7589 86.3696 32.5789Z" fill="#F3F0E8"/>
<path d="M89.4245 30.599C89.3346 30.374 89.0651 30.284 88.8404 30.419C88.6158 30.509 88.5259 30.779 88.6607 31.004C88.7955 31.2289 89.0201 31.3189 89.2448 31.1839C89.4245 31.094 89.5143 30.824 89.4245 30.599Z" fill="#F3F0E8"/>
<path d="M92.3895 29.249C92.2547 29.249 92.1649 29.339 92.1199 29.429C92.075 29.519 92.0301 29.654 92.075 29.744C92.1199 29.879 92.1649 29.969 92.2547 30.014C92.3446 30.059 92.4344 30.104 92.5692 30.104C92.7938 30.059 92.9286 29.834 92.9286 29.609C92.8387 29.384 92.6141 29.204 92.3895 29.249Z" fill="#F3F0E8"/>
<path d="M96.1183 29.114C95.8936 29.069 95.669 29.294 95.6241 29.519C95.6241 29.744 95.7589 29.969 96.0284 29.969C96.253 30.014 96.4777 29.834 96.4777 29.609C96.5226 29.339 96.3429 29.159 96.1183 29.114Z" fill="#F3F0E8"/>
<path d="M99.7123 30.014C99.4877 29.924 99.2181 30.059 99.1283 30.284C99.0384 30.509 99.1732 30.734 99.3529 30.824C99.5775 30.914 99.8021 30.824 99.892 30.599C100.027 30.374 99.9369 30.104 99.7123 30.014Z" fill="#F3F0E8"/>
<path d="M102.902 31.9489C102.722 31.8139 102.408 31.8139 102.273 32.0389C102.138 32.2189 102.183 32.4889 102.363 32.6239C102.543 32.7589 102.812 32.7589 102.947 32.5789C103.127 32.3989 103.127 32.0839 102.902 31.9489Z" fill="#F3F0E8"/>
<path d="M105.463 34.6938C105.328 34.5138 105.058 34.4688 104.834 34.6038C104.654 34.7388 104.609 35.0088 104.744 35.1888C104.879 35.3688 105.148 35.4138 105.328 35.3238C105.553 35.1438 105.597 34.8738 105.463 34.6938Z" fill="#F3F0E8"/>
<path d="M106.855 38.5636C107.08 38.5186 107.215 38.2486 107.125 38.0236C107.035 37.7986 106.81 37.6636 106.586 37.7536C106.361 37.8436 106.226 38.0686 106.316 38.2936C106.406 38.4736 106.631 38.6086 106.855 38.5636Z" fill="#F3F0E8"/>
<path d="M107.305 41.2635C107.08 41.2635 106.9 41.4885 106.9 41.7134C106.9 41.9384 107.125 42.1184 107.35 42.1184C107.574 42.1184 107.754 41.9384 107.754 41.6684C107.754 41.4435 107.574 41.2635 107.305 41.2635Z" fill="#F3F0E8"/>
<path d="M107.08 44.8633C106.855 44.8183 106.631 44.9533 106.541 45.1783C106.496 45.4032 106.631 45.6282 106.855 45.7182C107.08 45.8082 107.305 45.6282 107.394 45.4032C107.439 45.1783 107.305 44.9083 107.08 44.8633Z" fill="#F3F0E8"/>
<path d="M105.822 48.2381C105.597 48.1031 105.328 48.1931 105.238 48.3731C105.103 48.5531 105.193 48.8231 105.373 48.9581C105.553 49.0931 105.822 49.0031 105.957 48.8231C106.092 48.6431 106.002 48.3731 105.822 48.2381Z" fill="#F3F0E8"/>
<path d="M103.037 51.118C102.857 51.2529 102.857 51.5229 102.992 51.7029C103.127 51.8829 103.441 51.8829 103.621 51.7479C103.8 51.5679 103.8 51.2979 103.666 51.163C103.486 50.983 103.171 50.983 103.037 51.118Z" fill="#F3F0E8"/>
<path d="M100.162 53.0979C99.9369 53.1879 99.847 53.4579 99.9818 53.6828C100.072 53.9078 100.341 53.9978 100.566 53.8628C100.79 53.7728 100.88 53.5028 100.746 53.2779C100.611 53.0979 100.386 53.0079 100.162 53.0979Z" fill="#F3F0E8"/>
<path d="M97.1965 54.2678C97.1066 54.2228 97.0168 54.1778 96.882 54.1778C96.6574 54.2228 96.5226 54.4478 96.5226 54.6728C96.5675 54.8978 96.7921 55.0778 97.0168 55.0328C97.1515 55.0328 97.2414 54.9428 97.2863 54.8528C97.3312 54.7628 97.3762 54.6278 97.3312 54.5378C97.3312 54.4478 97.2863 54.3578 97.1965 54.2678Z" fill="#F3F0E8"/>
<path d="M93.3779 54.3578C93.1532 54.3128 92.9286 54.4928 92.9286 54.7178C92.8837 54.9428 93.0634 55.1678 93.288 55.2128C93.5126 55.2578 93.7373 55.0328 93.7822 54.8078C93.7822 54.5378 93.6025 54.3578 93.3779 54.3578Z" fill="#F3F0E8"/>
<path d="M90.0085 53.4579C89.7839 53.3679 89.5593 53.4579 89.4694 53.6828C89.3795 53.9078 89.4694 54.1778 89.694 54.2678C89.9187 54.3578 90.1882 54.2228 90.2781 53.9978C90.323 53.8178 90.2331 53.5479 90.0085 53.4579Z" fill="#F3F0E8"/>
<path d="M86.4145 51.7479C86.2797 51.9279 86.2797 52.1979 86.4594 52.3779C86.6391 52.5129 86.9536 52.5129 87.0883 52.2879C87.2231 52.1079 87.1782 51.8379 86.9985 51.7029C86.8188 51.5679 86.5942 51.5679 86.4145 51.7479Z" fill="#F3F0E8"/>
<path d="M84.0334 49.0031C83.8537 49.1381 83.7639 49.4081 83.8987 49.5881C84.0335 49.768 84.303 49.813 84.5276 49.678C84.7073 49.5431 84.7522 49.2731 84.6175 49.0931C84.4827 48.9581 84.2581 48.8681 84.0334 49.0031Z" fill="#F3F0E8"/>
<path d="M82.5509 45.7183C82.3263 45.7633 82.1915 46.0332 82.2814 46.2582C82.3712 46.4832 82.5958 46.6182 82.8205 46.5282C83.0451 46.4382 83.1799 46.2132 83.09 45.9882C83.0002 45.8082 82.7756 45.6733 82.5509 45.7183Z" fill="#F3F0E8"/>
<path d="M82.4611 42.5684C82.4611 42.3434 82.2364 42.1634 82.0118 42.1634C81.7872 42.1634 81.6075 42.3434 81.6075 42.6134C81.6075 42.8384 81.8321 43.0634 82.0567 43.0184C82.2814 43.0184 82.4611 42.7934 82.4611 42.5684Z" fill="#F3F0E8"/>
<path d="M101.967 49.4552C105.985 45.4311 105.985 38.9067 101.967 34.8826C97.9496 30.8585 91.4358 30.8585 87.4182 34.8826C83.4006 38.9067 83.4006 45.4311 87.4182 49.4552C91.4358 53.4793 97.9496 53.4793 101.967 49.4552Z" fill="#709BA6" stroke="#353643" stroke-miterlimit="10"/>
<path d="M94.5908 45.1333V38.6536C94.5908 37.8436 93.917 37.1686 93.0185 37.1686C92.1649 37.1686 91.4461 37.8436 91.4461 38.6536V45.1333" stroke="#353643" stroke-width="2" stroke-miterlimit="10" stroke-linecap="round" stroke-linejoin="round"/>
<path d="M94.5908 45.1332V38.6536C94.5908 37.8436 95.2647 37.1686 96.1632 37.1686C97.0168 37.1686 97.7356 37.8436 97.7356 38.6536V45.1332C97.7356 45.1332 97.6907 46.6632 99.1283 46.5282" stroke="#353643" stroke-width="2" stroke-miterlimit="10" stroke-linecap="round" stroke-linejoin="round"/>
<path d="M90.4128 37.5286L91.491 38.6536" stroke="#353643" stroke-width="2" stroke-miterlimit="10" stroke-linecap="round" stroke-linejoin="round"/>
<path d="M99.9818 46.8432L99.0384 45.7182L98.5442 47.1132L99.9818 46.8432Z" fill="#353643"/>
</svg>
