<svg width="135" height="135" viewBox="0 0 135 135" fill="none" xmlns="http://www.w3.org/2000/svg">
<path d="M135 0H0V135H135V0Z" fill="#FFF1E1"/>
<path d="M94.2093 94.9652C108.964 80.2228 108.964 56.3207 94.2093 41.5784C79.4547 26.836 55.5327 26.836 40.7781 41.5784C26.0235 56.3207 26.0235 80.2228 40.7781 94.9652C55.5327 109.708 79.4547 109.708 94.2093 94.9652Z" fill="#EBB264" stroke="#4D2636" stroke-miterlimit="10"/>
<g opacity="0.65">
<path opacity="0.65" d="M111.968 64.0435C111.698 57.5797 106.622 52.3727 100.153 51.9239C100.108 51.9239 100.108 51.9239 100.063 51.9239L91.9314 51.7892C91.4821 50.263 90.6735 48.6022 89.4605 46.7169C89.146 46.268 88.8315 45.7742 88.5171 45.2805C85.7766 41.1957 82.3623 36.1234 85.0129 29.48C85.2375 28.8965 85.1926 28.268 84.8781 27.7294C84.5637 27.1907 84.0246 26.8316 83.4405 26.7419C81.5537 26.4277 77.6003 27.3703 76.2076 33.071C76.2076 33.1159 76.2076 33.1159 76.2076 33.1608C76.1627 33.3404 75.4888 37.1558 76.8366 44.3378C76.9713 45.1009 77.151 45.864 77.2858 46.6271C77.4206 47.3004 77.6003 48.0186 75.7584 48.4675C75.6685 48.4675 75.6236 48.5124 75.4888 48.5124C75.399 48.5573 75.2642 48.5573 75.1294 48.6022C73.1976 47.9737 71.3108 47.5249 69.8283 47.3004C68.9747 46.2231 63.9431 40.5673 53.7451 44.6969C52.9814 45.0112 52.7118 45.3703 51.3641 48.3328C50.825 48.2431 50.3757 48.1982 50.196 48.1982C50.0163 48.1982 49.7917 48.1982 49.612 48.1982H49.4323C49.2975 48.1982 49.1628 48.1982 49.0729 48.1533C49.028 48.1533 48.9381 48.1533 48.8932 48.1533C48.7584 48.1533 48.6686 48.1084 48.5787 48.1084H48.444C48.3092 48.1084 48.1744 48.0635 48.0396 48.0186C47.2759 47.884 46.647 47.6146 46.3325 47.3453C46.1977 47.2106 45.9282 46.9413 46.1079 46.0885C48.0396 37.3802 47.231 32.7568 47.1861 32.5773C47.1861 32.5324 47.1861 32.5324 47.1861 32.4875C45.8383 26.7868 41.8849 25.8441 39.9531 26.1583C39.3691 26.2481 38.83 26.6072 38.5155 27.1459C38.2011 27.6845 38.1561 28.3129 38.3808 28.8965C40.9864 35.5847 37.617 40.657 34.8766 44.6969C34.5621 45.1907 34.2027 45.6845 33.9332 46.1333C29.3958 53.2256 31.1029 56.3677 33.439 59.1957L33.4839 59.2405C33.9781 59.8241 34.8317 60.5423 37.0779 61.2156C34.2926 63.1458 29.5755 67.051 27.5089 68.7567C26.3858 69.6994 26.1612 71.3602 26.9698 72.5722C27.6886 73.6046 29.1262 74.8166 31.9565 74.8615C32.1362 75.3552 32.4057 75.8041 32.6753 76.2081C33.1695 76.8365 33.7535 77.4201 34.4723 77.7792C34.4723 77.7792 34.4723 77.7792 34.5172 77.7792C35.7302 78.4076 37.1229 78.5423 38.4257 78.1832C38.4257 78.1832 38.4257 78.1832 38.4706 78.1832C38.83 78.0485 39.2343 77.9138 39.5488 77.6894C38.6054 80.4275 36.8084 84.3777 35.5954 86.8016C35.5505 86.8465 35.5505 86.8914 35.5056 86.9363C35.3259 87.43 35.1462 87.9687 35.0563 88.5073C33.7535 90.1682 33.3492 92.233 33.8883 94.1183C34.7418 96.8564 35.82 99.1457 37.1229 100.941C37.1678 101.839 37.3924 102.692 37.7967 103.41C38.246 104.263 38.9648 104.981 39.8633 105.565C40.6719 106.103 41.5255 106.418 42.1545 106.642H42.1994L42.2892 106.687C42.6037 106.777 42.9631 106.911 43.4124 107.001C43.8167 107.091 44.2659 107.136 44.6703 107.181C45.434 107.225 46.2426 107.27 47.0513 107.181C47.0513 107.181 47.0513 107.181 47.0962 107.181C48.444 107.046 49.6569 106.821 50.7351 106.373C54.9132 106.148 58.7767 105.026 61.3374 104.128C63.8083 103.23 65.8299 101.525 66.9531 99.2804C67.6269 97.9786 67.9863 96.632 68.0313 95.2854C68.5254 94.6569 69.0196 94.0734 69.3341 93.6245C69.379 93.6245 69.4239 93.6245 69.4689 93.6245H69.5138C69.6486 93.6245 69.7384 93.6245 69.8732 93.6694H69.9181C70.0529 93.6694 70.1427 93.7143 70.2775 93.7143H70.3224C70.4572 93.7143 70.592 93.7592 70.7268 93.8041H70.8166C70.9514 93.8489 71.1311 93.849 71.2659 93.8938H71.3108C71.4456 93.9387 71.6253 93.9836 71.76 94.0285H71.805C71.9847 94.0734 72.1194 94.1183 72.2991 94.2081L72.389 94.2529C72.5687 94.2978 72.7484 94.3876 72.9281 94.4325H72.973C73.1527 94.5223 73.3324 94.5672 73.557 94.6569L73.6469 94.7018C73.8266 94.7916 74.0512 94.8814 74.2758 94.9711L74.3208 95.016C75.983 100.313 73.0179 106.283 72.973 106.328C72.6136 107.046 72.7035 107.899 73.1976 108.527C73.602 109.021 74.186 109.29 74.77 109.29C74.9497 109.29 75.1294 109.245 75.3091 109.201L89.5054 105.161C91.2126 105.654 92.9197 105.565 94.537 104.846C97.5021 103.5 100.018 99.9986 101.95 94.4774C102.579 92.637 103.702 90.5273 104.96 88.1033C108.329 81.8191 112.372 73.9188 111.968 64.0435Z" fill="#EBB264"/>
</g>
<path d="M74.8598 107.315C74.8598 107.315 78.6336 100.043 76.0279 93.5796C76.0279 93.5796 91.0778 95.5547 93.0994 102.108L74.8598 107.315Z" fill="#A8494C" stroke="#353643" stroke-miterlimit="10" stroke-linecap="round" stroke-linejoin="round"/>
<path d="M65.6952 92.637C65.6952 92.637 70.8615 87.1607 87.4389 101.704C90.2242 104.173 95.8848 106.014 100.108 93.849C102.534 86.8914 110.485 77.1956 109.946 64.1333C109.722 58.7019 105.454 54.3029 100.018 53.9438L77.4655 53.4949L65.6952 92.637Z" fill="#BF6A58" stroke="#353643" stroke-miterlimit="10" stroke-linecap="round" stroke-linejoin="round"/>
<path d="M67.5371 86.622L66.9081 88.642C66.7733 89.6744 66.9081 90.7517 67.4023 91.829C68.9747 91.425 71.6702 91.4699 76.0279 93.6245C79.577 91.6046 83.171 86.7567 82.0928 75.2206C82.0928 75.1757 70.4572 80.2929 67.5371 86.622Z" fill="#A8494C"/>
<path d="M50.1511 63.4151C50.1511 63.4151 47.1411 57.4002 39.0996 62.2929C36.6287 63.7742 30.5638 68.8016 28.8117 70.2829C28.4973 70.5522 28.4074 71.046 28.677 71.4051C29.1262 72.0784 30.2044 72.9313 32.6753 72.8415C37.3924 72.6171 45.1644 73.829 50.8699 67.859" fill="#2D6670"/>
<path d="M50.1511 63.4151C50.1511 63.4151 47.1411 57.4002 39.0996 62.2929C36.6287 63.7742 30.5638 68.8016 28.8117 70.2829C28.4973 70.5522 28.4074 71.046 28.677 71.4051C29.1262 72.0784 30.2044 72.9313 32.6753 72.8415C37.3924 72.6171 45.1644 73.829 50.8699 67.859" stroke="#353643" stroke-miterlimit="10" stroke-linecap="round" stroke-linejoin="round"/>
<path d="M49.3425 48.5573C49.3425 48.5573 57.9231 49.2306 55.7218 56.5922C55.7218 56.5922 55.0479 62.2031 47.0064 61.0361C47.0064 61.0361 33.8883 59.869 31.9116 57.445C29.9349 55.066 27.8234 52.5523 32.5854 45.1009C35.6403 40.3428 41.7951 33.0261 37.9315 23.1957C37.9315 23.1957 42.1095 22.5224 43.5921 28.7169C43.5921 28.7169 44.5355 33.6546 42.3791 43.3054C41.9748 45.1009 42.1095 48.4675 49.3425 48.5573Z" fill="#EAC8AF" stroke="#353643" stroke-miterlimit="10" stroke-linecap="round" stroke-linejoin="round"/>
<path d="M49.3425 48.5573C48.2193 48.5573 47.231 48.4675 46.4223 48.288C41.1212 49.2755 37.2127 52.6421 37.2127 56.682C37.2127 57.7593 37.4822 58.7468 37.9764 59.6894C42.1994 60.5423 47.0064 60.9912 47.0064 60.9912C55.0479 62.1583 55.7218 56.5473 55.7218 56.5473C57.9231 49.2306 49.3425 48.5573 49.3425 48.5573Z" fill="#709BA6" stroke="#353643" stroke-miterlimit="10" stroke-linecap="round" stroke-linejoin="round"/>
<path d="M30.2044 54.8865C30.2044 54.8865 35.0114 43.8441 43.3225 46.9413L30.2044 54.8865Z" fill="#EAC8AF"/>
<path d="M30.2044 54.8865C30.2044 54.8865 35.0114 43.8441 43.3225 46.9413" stroke="#353643" stroke-miterlimit="10" stroke-linecap="round" stroke-linejoin="round"/>
<path d="M43.3225 36.3478C43.3225 36.3478 40.6719 34.5523 37.2127 37.5149L43.3225 36.3478Z" fill="#EAC8AF"/>
<path d="M43.3225 36.3478C43.3225 36.3478 40.6719 34.5523 37.2127 37.5149" stroke="#353643" stroke-miterlimit="10" stroke-linecap="round" stroke-linejoin="round"/>
<path d="M58.1478 48.3777C55.9464 48.7368 51.9481 49.9937 49.8366 51.5648C47.1411 53.5847 42.3791 60.0036 41.7501 63.5049C41.211 66.5124 42.5139 72.5722 42.1545 75.6246C41.7501 78.8565 37.3475 87.7442 37.3475 87.7442C36.3591 90.2579 36.7635 93.0859 38.4257 95.1956L43.8616 102.198C43.8616 102.198 58.1478 100.807 62.191 98.5173C64.2126 97.3502 68.4356 91.6495 68.4356 91.6495C68.4356 91.6495 72.973 88.1931 76.567 84.6021C78.2742 82.8964 79.7567 81.1906 80.4306 79.844C81.2841 78.1383 82.0479 75.5797 82.542 72.662C83.6652 65.9737 83.3956 57.4899 80.1161 53.854C77.5554 50.9812 71.76 49.6346 67.9414 49.1408C65.4705 48.7368 60.5737 47.9738 58.1478 48.3777Z" fill="#BF6A58" stroke="#353643" stroke-miterlimit="10" stroke-linecap="round" stroke-linejoin="round"/>
<path d="M54.5088 46.5822C54.2393 46.672 47.2759 61.8889 46.3325 69.071C45.8383 72.7517 50.7801 74.3677 52.5321 71.0909C52.8017 70.5522 53.0712 69.9687 53.3408 69.2505C53.3408 69.2505 57.6536 53.4949 68.3008 48.6471C68.3008 48.6022 64.1677 42.6321 54.5088 46.5822Z" fill="#471343" stroke="#353643" stroke-miterlimit="10" stroke-linecap="round" stroke-linejoin="round"/>
<path d="M50.5105 68.4874C50.4656 68.9363 50.0163 69.2056 49.5222 69.1607C49.028 69.1158 48.6686 68.667 48.7135 68.263C48.7584 67.8141 49.2077 67.5448 49.7018 67.5897C50.196 67.6346 50.6004 68.0834 50.5105 68.4874Z" fill="#EAC8AF"/>
<path d="M52.2626 63.2356C52.2177 63.6844 51.7684 63.9538 51.2742 63.9089C50.78 63.864 50.4206 63.4151 50.4656 63.0111C50.5105 62.5622 50.9597 62.2929 51.4539 62.3378C51.9481 62.3827 52.3075 62.7867 52.2626 63.2356Z" fill="#EAC8AF"/>
<path d="M54.0243 58.7297C54.0836 58.2874 53.733 57.8755 53.2412 57.8097C52.7494 57.7438 52.3027 58.049 52.2433 58.4912C52.184 58.9335 52.5346 59.3454 53.0264 59.4112C53.5182 59.4771 53.965 59.1719 54.0243 58.7297Z" fill="#EAC8AF"/>
<path d="M56.0812 54.4376C56.0363 54.8865 55.5871 55.1558 55.0929 55.1109C54.5987 55.066 54.2393 54.6171 54.2842 54.2131C54.3292 53.7643 54.7784 53.4949 55.2726 53.5398C55.7668 53.5847 56.1262 53.9887 56.0812 54.4376Z" fill="#EAC8AF"/>
<path d="M59.7201 49.3653C59.6303 50.1732 58.7767 50.7119 57.8782 50.5772C56.9797 50.4426 56.3058 49.7244 56.4406 48.9164C56.5305 48.1084 57.384 47.5698 58.2825 47.7044C59.181 47.8391 59.8549 48.5573 59.7201 49.3653Z" fill="#EAC8AF"/>
<path d="M66.0546 68.3976C66.369 69.8341 66.2343 70.1034 64.9764 71.2705C64.2576 71.9438 63.1794 70.9114 62.9098 69.4749C62.5953 67.859 63.404 66.5573 64.3923 66.3328C65.3358 66.1084 65.6952 66.7817 66.0546 68.3976Z" fill="#471343"/>
<path d="M68.0762 67.051C67.8516 66.7368 67.5371 66.4226 67.1777 66.243C66.8183 66.0635 66.4589 66.0186 66.0995 66.1084C65.3358 66.2879 64.6619 66.8715 64.0779 67.5448C63.5388 68.1732 63.1794 68.9812 62.9098 69.834C62.5953 70.6869 62.3707 71.5847 62.1461 72.4824C62.0562 72.8415 61.6968 73.066 61.3374 72.9762C60.978 72.8864 60.7534 72.5273 60.8433 72.1682V72.1233C61.1577 71.2256 61.4273 70.3278 61.7867 69.4301C62.1461 68.5323 62.5953 67.6345 63.3141 66.8715C63.6735 66.5124 64.0329 66.1981 64.4373 65.8839C64.8865 65.6146 65.3358 65.3453 65.9198 65.3004C66.4589 65.2106 67.0429 65.3453 67.5371 65.6146C67.9863 65.8839 68.3457 66.2879 68.6153 66.7368C68.7051 66.8715 68.6602 67.0959 68.4805 67.1857C68.3907 67.2755 68.211 67.2306 68.0762 67.051Z" fill="#471343"/>
<path d="M57.0246 69.071C57.1594 69.4301 57.6087 69.5647 58.4173 68.8465C58.7767 68.5323 59.0912 68.1732 59.3607 67.7692C60.1245 66.5573 62.9997 63.5498 66.3241 62.6969C66.8183 62.5622 66.9081 62.0236 66.4589 61.9338C65.1111 61.7543 64.0329 61.5298 61.607 62.5174C60.3491 62.9213 57.2043 65.9288 57.0696 67.1857C56.9348 67.6346 56.8449 68.6221 57.0246 69.071Z" fill="#471343"/>
<path d="M44.6703 88.5522C46.1977 88.9113 47.815 88.7318 49.2077 88.0585C52.4423 86.4425 58.7318 83.9288 61.6519 86.9363C61.6519 86.9363 68.3907 92.0086 65.1111 98.3826C64.1677 100.223 62.5504 101.57 60.6186 102.243C57.2493 103.455 50.1062 105.475 44.1761 103.724C40.9864 102.782 37.7967 100.178 35.7302 93.4899C34.9665 91.0659 36.8533 88.5522 39.3242 87.8789C40.7169 87.5647 42.5588 88.0585 44.6703 88.5522Z" fill="#EAC8AF" stroke="#353643" stroke-miterlimit="10" stroke-linecap="round" stroke-linejoin="round"/>
<path d="M48.5787 96.4973C48.5787 96.4973 53.1611 98.4724 55.8117 91.9188C55.8566 91.9188 52.2626 91.0659 48.5787 96.4973Z" fill="#2D6670"/>
<path d="M44.9848 97.1258C44.9848 97.1258 40.4024 99.1008 37.7518 92.5472C37.7518 92.5921 41.3458 91.7393 44.9848 97.1258Z" fill="#2D6670"/>
<path d="M42.1994 95.42C42.0646 95.7343 41.8849 96.0036 41.7501 96.3178C41.6154 96.632 41.4806 96.9013 41.3458 97.2155C41.0763 97.7991 40.8966 98.3826 40.7618 98.9662C40.627 99.5497 40.5372 100.088 40.5821 100.537C40.627 100.986 40.7618 101.345 41.0313 101.659C41.256 101.929 41.6154 102.198 42.0197 102.423C42.424 102.647 42.9631 102.827 43.5022 102.961C43.637 103.006 43.7718 103.051 43.9065 103.051C44.0413 103.096 44.1312 103.096 44.2659 103.141C44.4906 103.186 44.7601 103.186 45.0297 103.23C45.5688 103.275 46.1528 103.275 46.7368 103.23C47.3208 103.186 47.8599 103.096 48.399 103.006C48.9381 102.916 49.4772 102.737 49.9265 102.557C50.3757 102.378 50.7801 102.108 51.1395 101.839C51.4539 101.57 51.7235 101.211 51.9481 100.851L52.038 100.717C52.0829 100.672 52.0829 100.627 52.0829 100.537L52.2177 100.178C52.2626 99.9537 52.3075 99.6844 52.3524 99.415C52.3974 99.1457 52.3524 98.8764 52.3974 98.5622C52.3974 98.2929 52.3524 97.9786 52.3075 97.6644C52.1727 96.4525 51.7684 95.1956 51.409 93.8939L51.5887 93.8041C52.3075 94.9263 52.9365 96.0934 53.3408 97.3502C53.3857 97.4849 53.4306 97.6644 53.4755 97.844C53.5205 98.0235 53.5654 98.1582 53.6103 98.3377C53.6553 98.652 53.7451 99.0111 53.7451 99.3253C53.79 99.6395 53.7451 99.9986 53.7451 100.313L53.6553 100.807C53.6553 100.986 53.5654 101.121 53.5205 101.3C53.2959 101.929 52.9365 102.557 52.4872 103.051C51.993 103.545 51.4539 103.949 50.825 104.263C49.612 104.891 48.2193 105.161 46.8716 105.295C46.1977 105.34 45.5238 105.34 44.85 105.295C44.4906 105.25 44.1761 105.206 43.8167 105.161C43.4573 105.116 43.1428 104.981 42.8283 104.891C42.1994 104.667 41.5704 104.398 40.9864 104.038C40.4024 103.679 39.9082 103.186 39.5488 102.557C39.1894 101.974 39.0996 101.255 39.1445 100.582C39.1894 99.9088 39.414 99.2355 39.6836 98.652C39.9531 98.0235 40.3125 97.4849 40.7169 96.9462C41.1212 96.4076 41.5255 95.9138 42.0197 95.42H42.1994Z" fill="#471343" stroke="#353643" stroke-miterlimit="10" stroke-linecap="round" stroke-linejoin="round"/>
<path d="M34.3375 74.9961C34.023 74.5473 33.7535 74.0086 33.6636 73.4251C33.5289 72.8415 33.5738 72.258 33.7086 71.8091C33.8433 71.3154 34.1129 70.9563 34.3824 70.642C34.652 70.3727 35.0114 70.1483 35.3259 70.0136L35.5505 70.4176C35.3259 70.642 35.1911 71.0011 35.1012 71.3154C35.0114 71.6296 34.9665 71.9887 35.0114 72.258C35.0114 72.5722 35.1012 72.7966 35.1462 73.066C35.3259 73.5597 35.5954 73.9637 35.9997 74.2779C36.4041 74.5922 36.9432 74.7717 37.4823 74.6819C38.0214 74.5922 38.4706 74.3228 38.83 73.8291C39.0546 73.5149 39.1894 73.1558 39.2343 72.7518H40.0879C40.0879 72.9762 40.0879 73.1557 40.0879 73.3802C40.043 73.874 39.8633 74.3228 39.6836 74.6819C39.2793 75.445 38.6054 75.9388 37.8866 76.1632C37.1678 76.3877 36.3142 76.3428 35.5056 75.9388C35.0563 75.7592 34.652 75.445 34.3375 74.9961Z" fill="#EAC8AF" stroke="#353643" stroke-miterlimit="10" stroke-linecap="round" stroke-linejoin="round"/>
<path d="M72.3441 48.3777C72.3441 48.3777 63.2243 49.0959 65.5604 56.9064C65.5604 56.9064 66.2792 62.8764 74.8149 61.6196C74.8149 61.6196 88.7417 60.3627 90.8532 57.8041C92.9197 55.2455 95.2109 52.5972 90.1343 44.6521C86.8997 39.6246 80.3407 31.8142 84.4738 21.3553C84.4738 21.3553 80.0262 20.6371 78.4539 27.1907C78.4539 27.1907 77.4655 32.4426 79.7567 42.677C80.2059 44.6969 80.0712 48.288 72.3441 48.3777Z" fill="#EAC8AF" stroke="#353643" stroke-miterlimit="10" stroke-linecap="round" stroke-linejoin="round"/>
<path d="M74.8149 61.6196C74.8149 61.6196 84.4738 60.7667 88.9214 58.9712C73.9164 59.8241 76.1178 47.9288 76.1178 47.9288C75.1294 48.1982 73.9164 48.3328 72.3441 48.3777C72.3441 48.3777 63.2243 49.0959 65.5604 56.9064C65.5604 56.9064 66.2792 62.8316 74.8149 61.6196Z" fill="#709BA6"/>
<path d="M76.1178 47.9289C76.3873 47.8391 70.6369 63.4151 90.8532 57.8041L76.1178 47.9289Z" fill="#EAC8AF"/>
<path d="M76.1178 47.9289C76.3873 47.8391 70.6369 63.4151 90.8532 57.8041" stroke="#353643" stroke-miterlimit="10" stroke-linecap="round" stroke-linejoin="round"/>
<path d="M72.3441 48.3777C72.3441 48.3777 67.1328 54.3478 74.8149 61.6196" stroke="#353643" stroke-miterlimit="10" stroke-linecap="round" stroke-linejoin="round"/>
<path d="M79.2176 39.9837C79.2176 39.9837 81.7334 35.7643 86.2259 38.9513L79.2176 39.9837Z" fill="#EAC8AF"/>
<path d="M79.2176 39.9837C79.2176 39.9837 81.7334 35.7643 86.2259 38.9513" stroke="#353643" stroke-miterlimit="10" stroke-linecap="round" stroke-linejoin="round"/>
<path d="M72.3441 48.3777C72.3441 48.3777 63.2243 49.0959 65.5604 56.9064C65.5604 56.9064 66.2792 62.8765 74.8149 61.6196C74.8149 61.6196 88.7417 60.3627 90.8532 57.8041C92.9197 55.2455 95.2109 52.5972 90.1343 44.6521C86.8997 39.6246 80.3407 31.8142 84.4738 21.3553C84.4738 21.3553 80.0262 20.6371 78.4539 27.1907C78.4539 27.1907 77.4655 32.4426 79.7567 42.677C80.2059 44.6969 80.0712 48.288 72.3441 48.3777Z" stroke="#353643" stroke-miterlimit="10" stroke-linecap="round" stroke-linejoin="round"/>
<path d="M76.4772 63.1907C76.4772 63.1907 79.4871 57.1757 87.5287 62.0685C89.9996 63.5498 96.0645 68.5772 97.8165 70.0585C98.131 70.3278 98.2209 70.8216 97.9513 71.1807C97.5021 71.854 96.4239 72.7069 93.953 72.6171C89.2359 72.3927 81.4638 73.6046 75.7584 67.6346" fill="#2D6670"/>
<path d="M76.4772 63.1907C76.4772 63.1907 79.4871 57.1757 87.5287 62.0685C89.9996 63.5498 96.0645 68.5772 97.8165 70.0585C98.131 70.3278 98.2209 70.8216 97.9513 71.1807C97.5021 71.854 96.4239 72.7069 93.953 72.6171C89.2359 72.3927 81.4638 73.6046 75.7584 67.6346" stroke="#353643" stroke-miterlimit="10" stroke-linecap="round" stroke-linejoin="round"/>
<path d="M91.0329 72.6171C91.0329 73.1109 90.8981 73.6046 90.7184 74.0535C90.5387 74.5024 90.2691 74.8615 89.9547 75.1757C89.3257 75.8041 88.562 76.0734 87.7983 76.0734C87.0345 76.0734 86.2259 75.8041 85.5969 75.1308C85.2825 74.8166 85.0129 74.3677 84.8332 73.8739C84.6535 73.3802 84.5637 72.7518 84.6535 72.1682C84.6984 71.5847 84.9231 71.046 85.1926 70.642C85.4622 70.238 85.8216 69.9238 86.181 69.7443C86.5404 69.5647 86.8998 69.475 87.2592 69.4301L87.349 69.8789C87.0795 70.0585 86.8099 70.3278 86.6302 70.5971C86.4505 70.8665 86.3157 71.1807 86.2708 71.4949C86.181 71.7642 86.181 72.0336 86.181 72.3029C86.181 72.7966 86.3607 73.2904 86.6751 73.6944C86.9896 74.1433 87.4389 74.4575 87.978 74.5473C88.5171 74.637 89.0562 74.5024 89.5054 74.1433C89.9547 73.7842 90.3141 73.2455 90.4039 72.5722L91.0329 72.6171Z" fill="#EAC8AF" stroke="#353643" stroke-miterlimit="10" stroke-linecap="round" stroke-linejoin="round"/>
<path d="M62.5504 43.0361C70.7134 43.0361 77.3307 36.4242 77.3307 28.2681C77.3307 20.1119 70.7134 13.5 62.5504 13.5C54.3875 13.5 47.7701 20.1119 47.7701 28.2681C47.7701 36.4242 54.3875 43.0361 62.5504 43.0361Z" fill="#2D6670" stroke="#353643" stroke-miterlimit="10"/>
<path d="M50.1511 25.5299C50.3757 25.5748 50.6004 25.4401 50.6902 25.2157C50.7351 24.9912 50.6004 24.7668 50.3757 24.677C50.1511 24.5873 49.9265 24.7668 49.8366 24.9912C49.7917 25.2606 49.9265 25.485 50.1511 25.5299Z" fill="#F3F0E8"/>
<path d="M52.038 22.0287C52.1728 21.8491 52.0829 21.5798 51.9032 21.4451C51.7235 21.3105 51.4539 21.4002 51.3192 21.5798C51.1844 21.7593 51.2742 22.0736 51.4539 22.1633C51.6336 22.2531 51.9032 22.2082 52.038 22.0287Z" fill="#F3F0E8"/>
<path d="M54.2393 18.707C54.1045 18.5274 53.79 18.5274 53.6103 18.6621C53.4306 18.8416 53.4306 19.111 53.5654 19.2456C53.7451 19.4252 54.0147 19.4252 54.1944 19.2905C54.3741 19.1558 54.3741 18.8865 54.2393 18.707Z" fill="#F3F0E8"/>
<path d="M57.2493 16.7319C57.1594 16.5075 56.8898 16.4177 56.6652 16.5524C56.4406 16.6421 56.3507 16.9115 56.4855 17.1359C56.6203 17.3603 56.8449 17.4501 57.0695 17.3155C57.2492 17.2257 57.3391 16.9564 57.2493 16.7319Z" fill="#F3F0E8"/>
<path d="M60.2143 15.3853C60.0795 15.3853 59.9897 15.4751 59.9447 15.5648C59.8998 15.6546 59.8549 15.7893 59.8998 15.8791C59.9447 16.0137 59.9897 16.1035 60.0795 16.1484C60.1694 16.1933 60.2592 16.2382 60.394 16.2382C60.6187 16.1933 60.7534 15.9688 60.7534 15.7444C60.6636 15.52 60.4389 15.3404 60.2143 15.3853Z" fill="#F3F0E8"/>
<path d="M63.9431 15.2506C63.7185 15.2057 63.4938 15.4302 63.4489 15.6546C63.4489 15.879 63.5837 16.1035 63.8532 16.1035C64.0778 16.1484 64.3025 15.9688 64.3025 15.7444C64.3474 15.4751 64.1677 15.2955 63.9431 15.2506Z" fill="#F3F0E8"/>
<path d="M67.5371 16.1484C67.3124 16.0586 67.0429 16.1933 66.953 16.4177C66.8632 16.6421 66.998 16.8666 67.1777 16.9564C67.4023 17.0461 67.6269 16.9564 67.7168 16.7319C67.8965 16.5075 67.7617 16.2382 67.5371 16.1484Z" fill="#F3F0E8"/>
<path d="M70.7717 18.0786C70.592 17.9439 70.2775 17.9439 70.1427 18.1683C70.0079 18.3479 70.0529 18.6172 70.2326 18.7519C70.4123 18.8865 70.6818 18.8865 70.8166 18.707C70.9514 18.4825 70.9514 18.2132 70.7717 18.0786Z" fill="#F3F0E8"/>
<path d="M73.2875 20.7718C73.1527 20.5923 72.8832 20.5474 72.6585 20.682C72.4788 20.8167 72.4339 21.086 72.5687 21.2656C72.7035 21.4451 72.973 21.49 73.1527 21.4002C73.3773 21.2656 73.4672 20.9963 73.2875 20.7718Z" fill="#F3F0E8"/>
<path d="M74.6802 24.677C74.9048 24.6321 75.0396 24.3628 74.9497 24.1384C74.8599 23.9139 74.6352 23.7793 74.4106 23.8691C74.186 23.9588 74.0512 24.1833 74.1411 24.4077C74.2309 24.5873 74.4555 24.7219 74.6802 24.677Z" fill="#F3F0E8"/>
<path d="M75.1743 27.3703C74.9497 27.3703 74.77 27.5947 74.77 27.8192C74.77 28.0436 74.9946 28.2232 75.2193 28.2232C75.4439 28.2232 75.6236 28.0436 75.6236 27.7743C75.5787 27.5498 75.399 27.3703 75.1743 27.3703Z" fill="#F3F0E8"/>
<path d="M74.9048 30.9613C74.6802 30.9164 74.4555 31.0511 74.3657 31.2755C74.3208 31.5 74.4555 31.7244 74.6802 31.8142C74.9048 31.904 75.1294 31.7244 75.2193 31.5C75.2642 31.2306 75.1294 31.0062 74.9048 30.9613Z" fill="#F3F0E8"/>
<path d="M73.6469 34.3279C73.4223 34.1932 73.1527 34.283 73.0628 34.4625C72.9281 34.6421 73.0179 34.9114 73.1976 35.0461C73.3773 35.1808 73.6469 35.091 73.7817 34.9114C73.9164 34.7319 73.8715 34.4625 73.6469 34.3279Z" fill="#F3F0E8"/>
<path d="M70.8615 37.2007C70.6818 37.3354 70.6818 37.6047 70.8166 37.7842C70.9514 37.9638 71.2659 37.9638 71.4456 37.8291C71.6253 37.6496 71.6253 37.3802 71.4905 37.2456C71.3108 37.066 71.0412 37.066 70.8615 37.2007Z" fill="#F3F0E8"/>
<path d="M67.9864 39.1758C67.7617 39.2655 67.7168 39.5349 67.8067 39.7593C67.8965 39.9837 68.166 40.0735 68.3907 39.9388C68.6153 39.8491 68.7051 39.5797 68.5704 39.3553C68.4805 39.1758 68.211 39.086 67.9864 39.1758Z" fill="#F3F0E8"/>
<path d="M65.0213 40.3428C64.9314 40.298 64.8416 40.2531 64.7068 40.2531C64.4822 40.298 64.3474 40.5224 64.3474 40.7468C64.3923 40.9713 64.617 41.1508 64.8416 41.1059C64.9764 41.1059 65.0662 41.0162 65.1111 40.9264C65.1561 40.8366 65.201 40.7019 65.1561 40.6122C65.1561 40.5224 65.1111 40.4326 65.0213 40.3428Z" fill="#F3F0E8"/>
<path d="M61.2027 40.4326C60.978 40.3877 60.7534 40.5673 60.7534 40.7917C60.7085 41.0161 60.8882 41.2406 61.1128 41.2855C61.3374 41.3304 61.5621 41.1059 61.607 40.8815C61.607 40.6122 61.4273 40.4326 61.2027 40.4326Z" fill="#F3F0E8"/>
<path d="M57.8333 39.5349C57.6087 39.4451 57.384 39.5349 57.2942 39.7593C57.2043 39.9837 57.2942 40.2531 57.5188 40.3428C57.7434 40.4326 58.013 40.298 58.1028 40.0735C58.1478 39.8491 58.0579 39.6246 57.8333 39.5349Z" fill="#F3F0E8"/>
<path d="M54.2393 37.8291C54.1045 38.0087 54.1045 38.278 54.2842 38.4576C54.4639 38.5922 54.7784 38.5922 54.9132 38.3678C55.048 38.1882 55.003 37.9189 54.8233 37.7842C54.6436 37.6496 54.419 37.6496 54.2393 37.8291Z" fill="#F3F0E8"/>
<path d="M51.9032 35.091C51.7235 35.2256 51.6336 35.495 51.7684 35.6745C51.9032 35.8541 52.1727 35.899 52.3974 35.7643C52.5771 35.6296 52.622 35.3603 52.4872 35.1808C52.3524 35.0461 52.0829 34.9563 51.9032 35.091Z" fill="#F3F0E8"/>
<path d="M50.3758 31.8142C50.1511 31.8591 50.0163 32.1284 50.1062 32.3528C50.196 32.5773 50.4207 32.7119 50.6453 32.6222C50.8699 32.5324 51.0047 32.3079 50.9149 32.0835C50.825 31.904 50.6004 31.7693 50.3758 31.8142Z" fill="#F3F0E8"/>
<path d="M50.3308 28.672C50.3308 28.4476 50.1062 28.2681 49.8816 28.2681C49.6569 28.2681 49.4772 28.4476 49.4772 28.7169C49.4772 28.9414 49.7019 29.1658 49.9265 29.1209C50.1511 29.1209 50.3308 28.8965 50.3308 28.672Z" fill="#F3F0E8"/>
<path d="M62.5504 38.5473C68.2322 38.5473 72.8382 33.9451 72.8382 28.268C72.8382 22.591 68.2322 17.9888 62.5504 17.9888C56.8686 17.9888 52.2626 22.591 52.2626 28.268C52.2626 33.9451 56.8686 38.5473 62.5504 38.5473Z" fill="#709BA6" stroke="#353643" stroke-miterlimit="10"/>
<path d="M62.5504 32.667C64.6345 32.667 66.3241 30.9789 66.3241 28.8965C66.3241 26.8141 64.6345 25.1259 62.5504 25.1259C60.4662 25.1259 58.7767 26.8141 58.7767 28.8965C58.7767 30.9789 60.4662 32.667 62.5504 32.667Z" stroke="#353643" stroke-width="2" stroke-miterlimit="10" stroke-linecap="round" stroke-linejoin="round"/>
<path d="M58.1478 23.9139C58.1478 23.9139 59.6752 25.1259 62.6403 25.1259C62.6403 25.1259 64.7517 25.3952 66.9531 23.9139" stroke="#353643" stroke-width="2" stroke-miterlimit="10" stroke-linecap="round" stroke-linejoin="round"/>
<path d="M62.5504 28.5374C62.7301 28.5374 62.9098 28.672 62.9098 28.8965C62.9098 29.076 62.775 29.2556 62.5504 29.2556C62.3258 29.2556 62.191 29.1209 62.191 28.8965C62.191 28.7169 62.3258 28.5374 62.5504 28.5374ZM62.5504 27.6396C61.8765 27.6396 61.2925 28.1783 61.2925 28.8965C61.2925 29.5698 61.8316 30.1533 62.5504 30.1533C63.2692 30.1533 63.8083 29.6147 63.8083 28.8965C63.7634 28.2232 63.2243 27.6396 62.5504 27.6396Z" fill="#353643"/>
</svg>
