<svg width="135" height="135" viewBox="0 0 135 135" fill="none" xmlns="http://www.w3.org/2000/svg">
<path d="M135 0H0V135H135V0Z" fill="#FFF1E1"/>
<path d="M94.2093 94.1428C108.964 79.4004 108.964 55.4983 94.2093 40.7559C79.4547 26.0136 55.5327 26.0136 40.7781 40.7559C26.0235 55.4983 26.0235 79.4004 40.7781 94.1428C55.5327 108.885 79.4546 108.885 94.2093 94.1428Z" fill="#EBB264"/>
<path d="M98.2979 57.2159C100.998 40.2244 89.4008 24.2632 72.3953 21.5655C55.3897 18.8678 39.4152 30.4551 36.7152 47.4466C34.0153 64.4381 45.6123 80.3993 62.6179 83.097C79.6234 85.7947 95.5979 74.2074 98.2979 57.2159Z" fill="#EAC8AF"/>
<path d="M66.3534 39.0253V21.16" stroke="#353643" stroke-miterlimit="10" stroke-linecap="round" stroke-linejoin="round"/>
<path d="M72.3284 36.9156L78.4382 27.3994" stroke="#353643" stroke-miterlimit="10" stroke-linecap="round" stroke-linejoin="round"/>
<path d="M74.6645 41.7185L89.5347 32.6512" stroke="#353643" stroke-miterlimit="10" stroke-linecap="round" stroke-linejoin="round"/>
<path d="M79.9657 46.1175L93.8025 43.2896" stroke="#353643" stroke-miterlimit="10" stroke-linecap="round" stroke-linejoin="round"/>
<path d="M59.6596 36.9156L53.7744 28.0727" stroke="#353643" stroke-miterlimit="10" stroke-linecap="round" stroke-linejoin="round"/>
<path d="M53.999 40.2821L45.9575 36.3769" stroke="#353643" stroke-miterlimit="10" stroke-linecap="round" stroke-linejoin="round"/>
<path d="M50.4949 44.5913L38.6796 41.9879" stroke="#353643" stroke-miterlimit="10" stroke-linecap="round" stroke-linejoin="round"/>
<path d="M88.9507 61.4691L94.0271 65.1499" stroke="#353643" stroke-miterlimit="10" stroke-linecap="round" stroke-linejoin="round"/>
<path d="M87.6479 40.0577L92.7693 37.8133" stroke="#353643" stroke-miterlimit="10" stroke-linecap="round" stroke-linejoin="round"/>
<path d="M50.8094 33.549L47.1255 30.0926" stroke="#353643" stroke-miterlimit="10" stroke-linecap="round" stroke-linejoin="round"/>
<path d="M70.2619 27.9829L71.2502 23.135" stroke="#353643" stroke-miterlimit="10" stroke-linecap="round" stroke-linejoin="round"/>
<path d="M62.0406 28.6562L61.0522 24.9305" stroke="#353643" stroke-miterlimit="10" stroke-linecap="round" stroke-linejoin="round"/>
<path d="M46.6314 98.5464C46.6314 98.5464 31.851 89.9728 30.0091 75.0701C29.4251 70.312 29.2903 62.3669 31.5365 56.0377" stroke="#353643" stroke-miterlimit="10" stroke-linecap="round" stroke-linejoin="round"/>
<path d="M31.5365 55.7684C31.4467 55.0053 31.267 54.2422 30.9974 53.524C30.8626 53.1649 30.683 52.8058 30.4583 52.5365C30.054 52.0427 29.4251 51.7734 28.841 51.504C28.2121 51.2347 27.5831 51.0103 26.9093 50.9654C26.7296 50.9654 26.5049 50.9654 26.3252 51.0552C26.0557 51.1898 25.9209 51.4592 25.876 51.7285C25.6963 52.5365 26.1006 53.4342 26.7295 54.0178C27.3585 54.6013 28.1672 54.9155 29.0207 55.0951C29.8294 55.3195 30.683 55.4542 31.4916 55.7235L31.5365 55.7684Z" fill="#2D6670" stroke="#353643" stroke-miterlimit="10" stroke-linecap="round" stroke-linejoin="round"/>
<path d="M31.5365 55.3644C30.638 53.7484 30.5931 51.6836 31.4467 50.0228C31.7611 49.3943 32.2553 48.721 32.1655 48.0028C32.0756 47.2397 31.3119 46.6562 30.5482 46.6113C30.1438 46.5664 29.7395 46.6562 29.425 46.8806C29.0656 47.1499 28.886 47.5539 28.7961 47.9579C28.3918 49.3046 28.3019 50.741 28.6613 52.0876C29.0207 53.4342 29.8743 54.6911 31.0424 55.4542C31.1322 55.4991 31.267 55.5888 31.3568 55.5439C31.4018 55.4991 31.5365 55.3644 31.5365 55.3644Z" fill="#709BA6" stroke="#353643" stroke-miterlimit="10" stroke-linecap="round" stroke-linejoin="round"/>
<path d="M31.1771 54.9604C30.1888 53.8382 30.2786 52.5365 30.4583 51.0103C30.638 49.529 31.267 48.0926 31.9858 46.7908C32.2553 46.2522 32.6596 45.6686 33.2437 45.4891C33.6929 45.3544 34.1422 45.4891 34.5914 45.6686C35.0856 45.8482 35.5349 46.1175 35.8044 46.5215C35.9841 46.8806 35.9841 47.3295 35.8943 47.7335C35.6247 48.9006 34.7711 49.7983 34.0523 50.6961C33.4683 51.4143 32.9292 52.1325 32.435 52.8956C31.9408 53.7036 31.4467 54.6013 31.4017 55.5439L31.1771 54.9604Z" fill="#A8494C" stroke="#353643" stroke-miterlimit="10" stroke-linecap="round" stroke-linejoin="round"/>
<path d="M31.4018 55.6337C31.4018 53.4791 32.3003 51.3245 33.8726 49.8432C34.0973 49.6188 34.3668 49.3943 34.6364 49.2597C34.9508 49.125 35.2653 49.0352 35.6247 48.9903C36.2537 48.9006 36.9275 49.0352 37.5115 49.3046C37.826 49.4392 38.1854 49.7086 38.2303 50.0677C38.2753 50.2921 38.1854 50.5614 38.0956 50.7859C37.5565 52.0876 36.4783 53.1649 35.2653 53.8831C34.0523 54.6462 33.064 55.0053 31.7162 55.4542L31.4018 55.6337Z" fill="#709BA6" stroke="#353643" stroke-miterlimit="10" stroke-linecap="round" stroke-linejoin="round"/>
<path d="M31.4018 55.7235C32.7046 56.2622 34.232 56.3519 35.5798 55.9031C36.9275 55.4093 38.0507 54.3769 38.5449 53.0302C38.6796 52.716 38.7246 52.3569 38.5449 52.0876C38.455 51.908 38.2753 51.8182 38.1405 51.7285C37.1522 51.1898 35.8494 51.3694 34.861 51.908C33.8726 52.4467 33.064 53.3444 32.3452 54.1973C31.9858 54.6462 31.4018 55.7235 31.4018 55.7235Z" fill="#2D6670" stroke="#353643" stroke-miterlimit="10" stroke-linecap="round" stroke-linejoin="round"/>
<path d="M29.9192 65.1499C29.3801 64.8357 28.7512 64.7011 28.1672 64.4317C26.0557 63.534 24.4833 61.5589 24.0341 59.3145C25.4717 59.5838 26.8643 60.302 27.8527 61.3345C28.886 62.4118 29.5149 63.1749 29.7395 64.6562L29.9192 65.1499Z" fill="#2D6670" stroke="#353643" stroke-miterlimit="10" stroke-linecap="round" stroke-linejoin="round"/>
<path d="M29.9641 65.5539C32.1205 65.509 34.2769 64.6561 35.8942 63.2197C36.3884 62.7709 36.8377 62.2771 37.1521 61.6935C37.4217 61.11 37.5565 60.3918 37.3768 59.7634C35.7595 59.9429 34.1422 60.5265 32.7944 61.4691C31.4467 62.4566 30.4134 63.8482 30.0091 65.4192L29.9641 65.5539Z" fill="#2D6670" stroke="#353643" stroke-miterlimit="10" stroke-linecap="round" stroke-linejoin="round"/>
<path d="M29.6946 74.9354C29.1106 74.3519 28.1671 74.307 27.4034 74.0377C26.6846 73.7683 26.1006 73.2746 25.6064 72.7359C25.0224 72.1075 24.4833 71.4342 24.2137 70.6262C23.8993 69.8182 23.8543 68.9205 24.1239 68.1574C25.0673 68.6961 26.0108 69.2796 26.8643 69.9529C27.628 70.5364 28.3468 71.1649 28.8859 71.9728C29.1555 72.3768 29.425 73.0501 29.5149 73.7683L29.6946 74.9354Z" fill="#2D6670" stroke="#353643" stroke-miterlimit="10" stroke-linecap="round" stroke-linejoin="round"/>
<path d="M29.9641 75.3843C30.638 75.0701 31.3568 74.9803 32.0307 74.7559C33.064 74.4417 34.0074 73.8132 34.7262 73.0501C35.6697 72.0626 36.2537 70.6262 35.8044 69.3694C34.7711 70.4467 33.064 70.6711 31.9858 71.7035C31.0423 72.6461 30.8627 73.5888 30.1439 74.7559L29.9641 75.3843Z" fill="#2D6670" stroke="#353643" stroke-miterlimit="10" stroke-linecap="round" stroke-linejoin="round"/>
<path d="M32.0756 83.2845C31.3568 82.7459 30.638 82.2521 29.9192 81.7135C29.3352 81.2646 28.7062 80.8157 27.9425 80.681C27.3136 80.5464 26.6397 80.681 25.9658 80.7259C25.5166 80.7259 25.1122 80.7259 24.663 80.6361C25.0224 80.9952 25.4716 81.2197 25.876 81.4441C27.7628 82.3419 29.0656 82.9703 31.1322 83.2845H32.0756Z" fill="#2D6670" stroke="#353643" stroke-miterlimit="10" stroke-linecap="round" stroke-linejoin="round"/>
<path d="M32.435 83.3294C34.7262 82.1174 36.2536 79.6486 36.4333 77.09C34.6813 77.3145 33.0191 78.5713 32.5698 80.2771C32.3452 81.1748 32.3003 81.8481 32.3901 82.7908L32.435 83.3294Z" fill="#2D6670" stroke="#353643" stroke-miterlimit="10" stroke-linecap="round" stroke-linejoin="round"/>
<path d="M37.3319 90.9154C36.4783 90.6012 35.7595 89.9279 34.861 89.7484C34.232 89.6137 33.5581 89.7484 32.8843 89.7933C32.2104 89.883 31.5365 89.883 30.9525 89.5688C31.1322 90.1523 31.7611 90.5114 32.3452 90.7359C33.8277 91.3194 35.5348 91.3643 37.0174 90.9154H37.3319Z" fill="#2D6670" stroke="#353643" stroke-miterlimit="10" stroke-linecap="round" stroke-linejoin="round"/>
<path d="M37.6463 90.7807C38.0057 89.9728 38.9491 89.6137 39.3535 88.8506C39.7129 88.1324 39.4882 87.2795 39.2187 86.5164C38.8593 85.4391 38.4999 84.3169 38.1854 83.2396C36.9275 84.9902 36.6131 85.5738 36.7478 87.7284C36.7928 88.1773 36.7029 89.7034 37.3768 90.5563L37.6463 90.7807Z" fill="#2D6670" stroke="#353643" stroke-miterlimit="10" stroke-linecap="round" stroke-linejoin="round"/>
<path d="M87.6479 98.9503C87.6479 98.9503 102.428 90.3768 104.27 75.4741C104.854 70.716 104.989 62.7709 102.743 56.4417" stroke="#353643" stroke-miterlimit="10" stroke-linecap="round" stroke-linejoin="round"/>
<path d="M102.787 56.1724C102.877 55.4093 103.057 54.6462 103.327 53.928C103.461 53.5689 103.641 53.2098 103.866 52.9405C104.27 52.4467 104.899 52.1774 105.483 51.908C106.112 51.6387 106.741 51.4143 107.415 51.3694C107.595 51.3694 107.819 51.3694 107.999 51.4592C108.268 51.5938 108.403 51.8631 108.448 52.1325C108.628 52.9404 108.224 53.8382 107.595 54.4217C106.966 55.0053 106.157 55.3195 105.303 55.4991C104.495 55.7235 103.641 55.8582 102.832 56.1275L102.787 56.1724Z" fill="#2D6670" stroke="#353643" stroke-miterlimit="10" stroke-linecap="round" stroke-linejoin="round"/>
<path d="M102.743 55.7235C103.641 54.1075 103.686 52.0427 102.833 50.3819C102.518 49.7534 102.024 49.0801 102.114 48.3619C102.204 47.5988 102.967 47.0153 103.731 46.9704C104.135 46.9255 104.54 47.0153 104.854 47.2397C105.214 47.509 105.393 47.913 105.483 48.317C105.887 49.6636 105.977 51.1001 105.618 52.4467C105.258 53.7933 104.405 55.0502 103.237 55.8133C103.147 55.8581 103.012 55.9479 102.922 55.903C102.877 55.8582 102.743 55.7235 102.743 55.7235Z" fill="#709BA6" stroke="#353643" stroke-miterlimit="10" stroke-linecap="round" stroke-linejoin="round"/>
<path d="M103.102 55.3195C104.09 54.1973 104.001 52.8956 103.821 51.3694C103.641 49.8881 103.012 48.4517 102.293 47.15C102.024 46.6113 101.62 46.0278 101.036 45.8482C100.586 45.7136 100.137 45.8482 99.6878 46.0278C99.1936 46.2073 98.7443 46.4767 98.4748 46.8806C98.2951 47.2397 98.2951 47.6886 98.3849 48.0926C98.6545 49.2597 99.5081 50.1574 100.227 51.0552C100.811 51.7734 101.35 52.4916 101.844 53.2547C102.338 54.0627 102.833 54.9604 102.877 55.9031L103.102 55.3195Z" fill="#A8494C" stroke="#353643" stroke-miterlimit="10" stroke-linecap="round" stroke-linejoin="round"/>
<path d="M102.877 56.0377C102.877 53.8831 101.979 51.7285 100.407 50.2472C100.182 50.0228 99.9124 49.7983 99.6428 49.6637C99.3284 49.529 99.0139 49.4392 98.6545 49.3943C98.0255 49.3046 97.3517 49.4392 96.7676 49.7085C96.4532 49.8432 96.0938 50.1125 96.0488 50.4716C96.0039 50.6961 96.0938 50.9654 96.1836 51.1898C96.7227 52.4916 97.8009 53.5689 99.0139 54.2871C100.227 55.0502 101.215 55.4093 102.563 55.8582L102.877 56.0377Z" fill="#709BA6" stroke="#353643" stroke-miterlimit="10" stroke-linecap="round" stroke-linejoin="round"/>
<path d="M102.877 56.1275C101.575 56.6661 100.047 56.7559 98.6993 56.307C97.3516 55.8133 96.2285 54.7809 95.7343 53.4342C95.5995 53.12 95.5546 52.7609 95.7343 52.4916C95.8242 52.312 96.0038 52.2223 96.1386 52.1325C97.127 51.5938 98.4298 51.7734 99.4181 52.312C100.406 52.8507 101.215 53.7484 101.934 54.6013C102.293 55.0502 102.877 56.1275 102.877 56.1275Z" fill="#2D6670" stroke="#353643" stroke-miterlimit="10" stroke-linecap="round" stroke-linejoin="round"/>
<path d="M104.405 65.5539C104.944 65.2397 105.573 65.105 106.157 64.8357C108.268 63.9379 109.841 61.9629 110.29 59.7185C108.852 59.9878 107.46 60.706 106.471 61.7384C105.438 62.8157 104.809 63.5788 104.585 65.0601L104.405 65.5539Z" fill="#2D6670" stroke="#353643" stroke-miterlimit="10" stroke-linecap="round" stroke-linejoin="round"/>
<path d="M104.315 65.9579C102.159 65.913 100.002 65.0601 98.3849 63.6237C97.8907 63.1749 97.4415 62.6811 97.127 62.0976C96.8575 61.514 96.7227 60.7958 96.9024 60.1674C98.5197 60.3469 100.137 60.9305 101.485 61.8731C102.832 62.8606 103.866 64.2522 104.27 65.8232L104.315 65.9579Z" fill="#2D6670" stroke="#353643" stroke-miterlimit="10" stroke-linecap="round" stroke-linejoin="round"/>
<path d="M104.629 75.3394C105.214 74.7559 106.157 74.711 106.921 74.4417C107.639 74.1723 108.223 73.6786 108.718 73.1399C109.302 72.5115 109.841 71.8382 110.11 71.0302C110.425 70.2222 110.47 69.3245 110.2 68.5614C109.257 69.1 108.313 69.6836 107.46 70.3569C106.696 70.9404 105.977 71.5688 105.438 72.3768C105.169 72.7808 104.899 73.4541 104.809 74.1723L104.629 75.3394Z" fill="#2D6670" stroke="#353643" stroke-miterlimit="10" stroke-linecap="round" stroke-linejoin="round"/>
<path d="M104.36 75.7434C103.686 75.4292 102.967 75.3394 102.293 75.115C101.26 74.8008 100.317 74.1723 99.5979 73.4092C98.6545 72.4217 98.0704 70.9853 98.5197 69.7285C99.553 70.8058 101.26 71.0302 102.338 72.0626C103.282 73.0053 103.461 73.9479 104.18 75.115L104.36 75.7434Z" fill="#2D6670" stroke="#353643" stroke-miterlimit="10" stroke-linecap="round" stroke-linejoin="round"/>
<path d="M102.204 83.6885C102.922 83.1499 103.641 82.6561 104.36 82.1175C104.944 81.6686 105.573 81.2197 106.337 81.085C106.966 80.9504 107.639 81.085 108.313 81.1299C108.763 81.1299 109.167 81.1299 109.616 81.0402C109.257 81.3993 108.808 81.6237 108.403 81.8481C106.516 82.7459 105.214 83.3743 103.147 83.6885H102.204Z" fill="#2D6670" stroke="#353643" stroke-miterlimit="10" stroke-linecap="round" stroke-linejoin="round"/>
<path d="M101.889 83.6886C99.598 82.4766 98.0705 80.0078 97.8908 77.4492C99.6429 77.6736 101.305 78.9304 101.754 80.6362C101.979 81.5339 102.024 82.2073 101.934 83.1499L101.889 83.6886Z" fill="#2D6670" stroke="#353643" stroke-miterlimit="10" stroke-linecap="round" stroke-linejoin="round"/>
<path d="M96.9474 91.2746C97.801 90.9603 98.5198 90.287 99.4183 90.1075C100.047 89.9728 100.721 90.1075 101.395 90.1524C102.069 90.2421 102.743 90.2421 103.327 89.9279C103.147 90.5115 102.518 90.8706 101.934 91.095C100.452 91.6786 98.7444 91.7235 97.2618 91.2746H96.9474Z" fill="#2D6670" stroke="#353643" stroke-miterlimit="10" stroke-linecap="round" stroke-linejoin="round"/>
<path d="M96.6329 91.1399C96.2735 90.3319 95.33 89.9728 94.9257 89.2097C94.5663 88.4915 94.7909 87.6387 95.0605 86.8756C95.4199 85.7983 95.7793 84.6761 96.0938 83.5988C97.3517 85.3494 97.6662 85.9329 97.5314 88.0875C97.4865 88.5364 97.5763 90.0626 96.9024 90.9155L96.6329 91.1399Z" fill="#2D6670" stroke="#353643" stroke-miterlimit="10" stroke-linecap="round" stroke-linejoin="round"/>
<path opacity="0.65" d="M97.6661 89.1199C97.5763 88.8057 97.4864 88.4915 97.3516 88.1773C96.0039 84.0925 93.4881 79.4242 89.939 74.1723C90.2535 73.3195 90.6578 72.1075 91.1071 70.716C91.4215 70.1773 92.2302 68.6511 92.6794 67.0801C93.0388 65.7783 93.0388 64.4766 93.0837 63.6237C93.0837 63.3993 93.0837 63.2197 93.0837 63.0851C93.1736 62.4118 93.2185 61.8282 93.2185 61.3344C93.2185 61.0651 93.2185 60.7958 93.2185 60.4816C93.2185 57.9679 93.2635 55.0951 92.4548 52.1325C92.32 51.5489 92.1403 50.9654 91.9157 50.3819V50.337C91.6911 49.7085 91.4215 49.0801 91.1071 48.4517C91.6012 48.0926 91.8708 47.5539 91.9157 46.9255C91.9606 46.2971 91.6911 45.7135 91.2418 45.2647C91.0621 45.13 89.8941 44.1425 88.0971 44.1425C87.9623 44.0078 87.8725 43.918 87.7377 43.7834C86.7943 38.3071 83.2452 34.1325 77.4049 31.5739C72.3733 29.3744 66.7577 29.0153 63.5231 29.3295C56.5148 30.0926 51.8426 34.1774 48.9674 37.9031C48.3384 37.7684 47.6646 37.948 47.1704 38.3969C46.6762 38.8457 46.4516 39.4742 46.4965 40.1475C46.5414 40.5515 46.6313 40.9555 46.7211 41.3146C46.5864 41.5839 46.4516 41.8083 46.3168 42.0776C46.0024 42.347 45.7328 42.6163 45.4183 42.8856C43.0373 42.4816 40.8809 43.4243 40.6114 43.5589C40.0273 43.8283 39.623 44.3669 39.4882 45.0402C39.3535 45.6687 39.5781 46.342 40.0273 46.7908C40.4766 47.2846 40.9708 47.6886 41.4649 48.0028C40.9258 48.9455 40.5215 49.8432 40.207 50.6961C39.8476 51.145 39.6679 51.6836 39.7578 52.2671C39.1288 55.2297 39.9824 57.2946 40.9707 58.5963C41.9591 61.4242 44.2503 63.2646 45.6879 64.2521C46.182 66.2721 46.3617 69.2347 44.9241 72.9604C44.8343 73.1399 44.7894 73.3195 44.6995 73.4541C44.2952 74.307 43.7561 75.0701 43.1271 75.7883C42.9924 75.923 42.8576 76.0576 42.7228 76.1923C42.5881 76.3269 42.4533 76.4616 42.2736 76.5963C40.7911 77.898 35.8942 82.5663 35.8942 89.0302C35.8942 92.9354 37.6463 96.6162 41.1055 99.9379C41.2403 100.073 41.42 100.207 41.5548 100.342C41.5997 100.387 41.6446 100.432 41.6896 100.432L41.7794 100.521C41.8692 100.611 41.9591 100.701 42.049 100.746C42.0939 100.791 42.1388 100.836 42.2286 100.88L42.3634 100.97C42.4533 101.015 42.5431 101.105 42.5881 101.15C42.633 101.195 42.7228 101.24 42.7677 101.284L42.9025 101.374C42.9924 101.419 43.0822 101.509 43.1271 101.554C43.1721 101.599 43.2619 101.644 43.3069 101.688L43.4416 101.778C43.5315 101.823 43.5764 101.868 43.6662 101.913C43.7112 101.958 43.801 102.003 43.846 102.048L44.0256 102.137C44.0706 102.182 44.1604 102.227 44.2054 102.272C44.2952 102.317 44.385 102.362 44.4749 102.452L44.5647 102.496C44.6097 102.541 44.6995 102.586 44.7445 102.586C44.8343 102.631 44.9241 102.676 45.014 102.766L45.2836 102.945C45.4183 102.99 45.5531 103.08 45.643 103.125L45.8676 103.215C46.0024 103.304 46.1371 103.349 46.2719 103.394L46.4516 103.484C46.5864 103.574 46.7212 103.619 46.8559 103.708L46.9907 103.798C47.1255 103.888 47.3052 103.933 47.44 104.023L47.7095 104.157C47.7993 104.202 47.8443 104.202 47.9341 104.247L48.1138 104.337C48.2935 104.427 48.4283 104.472 48.608 104.561H48.6529C48.8326 104.651 49.0123 104.696 49.192 104.786H49.237L50.0007 105.1C50.1355 105.145 50.2702 105.19 50.4499 105.279L53.7295 106.581C55.1221 107.165 56.4249 107.703 57.593 108.287C62.4449 110.531 63.1637 111.564 63.2086 111.564V111.609C63.2535 111.698 63.3434 111.833 63.4782 112.013L66.2635 115.604C66.6229 116.097 67.207 116.367 67.791 116.367H67.8359C68.4199 116.367 68.959 116.097 69.3634 115.693L69.9923 114.975C70.8908 113.943 71.969 113 73.0921 112.192C73.5863 111.833 74.0805 111.519 74.5746 111.205C75.4282 110.711 76.3267 110.262 77.2701 109.903C77.4498 109.813 77.6296 109.768 77.8542 109.678C81.7177 108.377 85.132 107.03 87.9623 105.683C88.4565 105.459 88.9506 105.19 89.3999 104.965C90.3882 104.472 91.3317 103.933 92.1403 103.439C92.8142 103.035 93.4431 102.631 93.9822 102.227C94.3866 101.958 94.746 101.644 95.0605 101.374C96.4082 100.207 97.2618 99.085 97.6661 97.9179C97.8907 97.4241 98.2951 96.3468 98.2951 94.5513C98.6095 93.0252 98.2951 91.1399 97.6661 89.1199Z" fill="#EBB264"/>
<path d="M47.1255 45.2198C47.1255 45.2198 51.5731 32.6961 63.7029 31.3944C70.4416 30.6762 85.9408 33.4143 85.9408 46.9255C85.9408 46.9255 62.1754 40.4168 47.1255 45.2198Z" fill="#4D2636" stroke="#EBB264" stroke-width="0.5" stroke-miterlimit="10"/>
<path d="M86.9739 73.4092L85.3117 67.7534L80.8192 63.5339C80.5497 65.4192 54.1338 63.1299 46.2719 60.5265C46.2719 60.5265 49.9558 65.6885 46.7661 73.7683C46.0922 75.4741 44.9691 77.0002 43.5764 78.2122C39.9375 81.3543 33.4683 89.8381 42.4982 98.5912C44.6097 100.656 48.1139 102.272 50.8992 103.304C55.841 105.1 63.9274 108.601 65.1404 110.576C65.1853 110.666 65.2303 110.711 65.2752 110.801L68.0605 114.392L68.6895 113.673C71.0256 110.98 74.0356 109.005 77.4049 107.838C83.964 105.594 94.7909 101.329 96.0488 97.2446C96.0937 97.2446 99.7326 91.2296 86.9739 73.4092Z" fill="#4D2636" stroke="#353643" stroke-miterlimit="10"/>
<path d="M58.6712 106.491L58.7162 106.132C58.7162 106.132 46.227 97.7832 51.3485 90.3319C54.1787 86.1573 56.0207 79.6486 55.212 71.9728C53.9541 67.7983 52.3368 62.5015 46.3169 60.5265C46.3169 60.5265 50.0007 65.6885 46.811 73.7683C46.1372 75.4741 45.014 77.0002 43.6214 78.2122C39.9824 81.3543 33.5132 89.8381 42.5432 98.5912C44.6546 100.656 48.1588 102.272 50.9441 103.304C53.1455 104.112 56.0656 105.279 58.6712 106.491Z" fill="#4D2636" stroke="#EBB264" stroke-width="0.5" stroke-miterlimit="10"/>
<path d="M42.5432 98.5912C44.6097 100.611 47.9342 102.182 50.7195 103.215C47.1255 100.566 42.4084 95.3593 46.4067 87.9977C46.4067 87.9977 54.628 76.1474 51.5731 64.0277C50.3152 62.5464 48.6529 61.2895 46.3618 60.5265C46.3618 60.5265 50.0456 65.6885 46.856 73.7683C46.1821 75.4741 45.059 77.0002 43.6663 78.2122C39.9375 81.3543 33.4683 89.8381 42.5432 98.5912Z" fill="#4D2636" stroke="#EBB264" stroke-width="0.5" stroke-miterlimit="10"/>
<path d="M83.8741 88.4915C78.6628 79.1099 78.8425 72.1972 79.3367 69.1C76.7311 71.2995 70.8459 77.494 72.6878 87.459C72.6878 87.459 74.2602 96.3019 70.3517 104.875C86.3001 97.5139 86.3899 93.0251 83.8741 88.4915Z" fill="#4D2636" stroke="#EBB264" stroke-width="0.5" stroke-miterlimit="10"/>
<path d="M96.0938 97.2446C96.0938 97.2446 99.7327 91.2297 86.974 73.4093L85.3118 67.7534L84.1887 67.8432C83.9191 69.7285 83.5597 75.7883 87.3783 86.292C89.355 91.7683 89.3999 101.644 75.0239 106.043C72.9574 106.671 69.8127 107.21 68.4649 110.576L68.1504 114.347L68.7794 113.629C71.1155 110.935 74.1254 108.96 77.4948 107.793C84.0089 105.594 94.8359 101.329 96.0938 97.2446Z" fill="#4D2636" stroke="#EBB264" stroke-width="0.5" stroke-miterlimit="10"/>
<path d="M51.8426 67.3045C51.8426 67.3045 48.9674 64.6561 46.856 62.322C45.2387 60.5265 44.8343 57.923 46.0473 55.8133C47.1255 53.9729 49.3268 52.6262 53.999 54.8706L51.8426 67.3045Z" fill="#4D2636" stroke="#353643" stroke-miterlimit="10"/>
<path d="M55.796 76.9554C55.796 76.9554 61.816 86.1125 56.4699 91.8581L51.6629 94.5513C50.7644 95.0451 50.7195 96.302 51.5731 96.8855L67.6562 107.389C68.2403 107.793 69.0489 107.703 69.588 107.21L83.5597 95.1349C84.2336 94.4616 84.4133 92.5763 83.5597 92.1723L80.2353 90.3768C73.6313 88.2671 76.0123 79.3793 77.5398 74.1723C77.4499 74.2172 71.1604 80.4117 55.796 76.9554Z" fill="#E19376"/>
<path d="M55.796 76.9554C55.796 76.9554 61.816 86.1124 56.4699 91.8581C56.4699 91.8581 71.5647 87.6386 73.2719 77.9878L67.6562 77.9429C64.6912 78.2122 60.7827 78.0776 55.796 76.9554Z" fill="#BF6A58"/>
<path d="M50.8543 48.1374C49.237 51.3693 47.7545 54.4666 49.1471 61.0202C49.1471 61.0202 50.6297 65.7783 50.0007 69.0102C49.866 69.6386 49.9109 70.312 50.1804 70.8955C51.5282 74.2172 58.0423 84.272 65.1405 84.8556C65.2752 84.8556 65.41 84.8556 65.5448 84.8556C67.2969 84.7209 78.7079 82.5214 82.1222 67.3045C82.1222 67.3045 83.425 62.8157 83.5148 55.9479C83.5597 49.2596 79.1122 43.3344 72.643 41.6287C70.6662 41.0901 68.5099 40.7759 66.3085 40.8207C66.3085 40.8207 60.3335 40.731 55.2569 43.4691C53.3252 44.5464 51.7977 46.2073 50.8543 48.1374Z" fill="#E19376"/>
<path d="M55.9757 79.4242C58.5814 82.2072 61.771 84.5863 65.0955 84.8556C65.2303 84.8556 65.365 84.8556 65.4998 84.8556C67.2519 84.7209 80.0555 81.6686 82.3467 65.913" stroke="#353643" stroke-width="0.5" stroke-miterlimit="10" stroke-linecap="round" stroke-linejoin="round"/>
<path d="M80.5048 72.4217C80.5048 72.4217 85.7161 72.3319 86.6146 67.3045C86.6146 67.3045 87.3334 64.297 87.3783 62.3669C87.3783 61.3793 86.8841 60.4367 86.0305 59.9878C85.132 59.5389 83.8292 59.5389 82.6162 62.0526L80.5048 72.4217Z" fill="#BF6A58" stroke="#353643" stroke-width="0.5" stroke-miterlimit="10" stroke-linecap="round" stroke-linejoin="round"/>
<path d="M81.583 72.2421C81.583 72.2421 81.9424 75.0252 84.2336 74.4865C85.4465 74.2172 87.1537 72.5564 85.5813 69.5489C85.5364 69.4142 85.4016 69.1898 85.2669 69.0102C85.1321 68.7858 84.8625 68.696 84.6379 68.8307L84.0539 69.1449C83.8293 69.2796 83.7394 69.5489 83.8293 69.7733C84.1437 70.4017 84.6828 71.7035 84.2336 72.5115C84.0539 72.8257 83.3351 73.0501 82.8409 71.9279L81.583 72.2421Z" fill="#EAC8AF"/>
<path d="M61.9957 39.4741C61.9957 39.4741 53.1455 37.4542 46.1821 45.0402C43.846 47.5539 37.6463 55.903 45.3285 59.5389C45.3285 59.5838 51.4383 44.4567 61.9957 39.4741Z" fill="#4D2636" stroke="#EBB264" stroke-width="0.5" stroke-miterlimit="10"/>
<path d="M65.994 63.7584C66.0389 63.8033 66.1737 63.893 66.3085 63.893C66.4433 63.9379 66.623 63.9828 66.7577 63.9828C66.9374 64.0277 67.0273 64.0277 67.207 64.0277C67.3418 64.0277 67.4765 63.9828 67.6562 63.9379C68.3301 63.8033 69.004 63.7135 69.6779 63.6686C70.3517 63.6237 70.9357 63.3095 71.5198 63.3544C72.1038 63.3993 72.6429 63.5788 73.4965 63.893L73.5863 64.0726C73.4066 64.5215 73.1371 64.8357 72.8226 65.105C72.5081 65.3743 72.1038 65.509 71.7444 65.5988C70.9807 65.8232 70.2619 65.4641 69.588 65.3743C68.9141 65.2397 68.2852 65.105 67.6113 64.9255C67.4316 64.8806 67.2519 64.8357 67.0722 64.7908C66.8925 64.7459 66.6679 64.5664 66.578 64.5215C66.4432 64.4317 66.2635 64.3419 66.1288 64.2521C66.0389 64.2072 65.994 64.1624 65.9041 64.0726C65.8592 63.9828 65.7694 63.893 65.7694 63.7584H65.994Z" fill="#353643"/>
<path d="M58.7162 64.3868C58.7162 64.5664 58.5814 64.701 58.5365 64.7908C58.4466 64.8806 58.3568 64.9704 58.222 65.0601C58.0423 65.1948 57.8177 65.3294 57.593 65.4641C57.3235 65.6437 57.009 65.7334 56.7844 65.7783C56.5148 65.8681 56.2902 65.8681 56.0656 65.913C55.841 65.9579 55.6163 66.0028 55.3468 66.0925C55.1222 66.1823 54.8526 66.1823 54.628 66.1374C54.4932 66.0925 54.4034 66.0477 54.3135 66.0028C54.2686 65.9579 54.2237 65.913 54.1338 65.913C54.044 65.8681 53.999 65.8232 53.9092 65.7783C53.8193 65.7334 53.7744 65.6437 53.6845 65.5988C53.5947 65.509 53.5498 65.4192 53.4599 65.3295C53.3251 65.1499 53.2802 64.7908 53.4599 64.6112L53.6845 64.5664C53.9092 64.6112 53.9541 64.4766 54.044 64.3868C54.1338 64.297 54.1787 64.2073 54.2237 64.1624C54.2686 64.1175 54.2686 64.1175 54.3135 64.0726C54.3584 64.0277 54.4483 64.0277 54.4932 63.9828C54.628 63.9379 54.7178 63.893 54.8077 63.893C55.0323 63.8482 55.2569 63.9379 55.4366 64.0277C55.6613 64.1175 55.841 64.2073 56.0656 64.2521C56.2902 64.297 56.5148 64.3868 56.6945 64.4317C56.8742 64.4766 57.054 64.5664 57.1887 64.5664C57.4134 64.5664 57.638 64.5215 57.8626 64.5215C58.0423 64.4766 58.3118 64.4317 58.3568 64.3419L58.7162 64.3868Z" fill="#353643"/>
<path opacity="0.5" d="M59.2103 75.3843C59.2103 75.3843 61.7261 75.1599 63.1637 75.7883C63.1637 75.7883 63.9724 74.9803 66.623 75.0252C66.9824 75.0252 67.5664 74.9354 67.9707 74.5763C68.0606 74.5314 68.1504 74.5763 68.1055 74.711C67.7461 75.4741 66.578 76.7309 63.1188 76.9105C63.0739 76.9105 63.029 76.9105 62.9391 76.9105C62.4899 76.7758 59.9291 76.5514 59.2103 75.3843Z" fill="#A8494C"/>
<path d="M63.1637 76.8656C63.1188 76.8656 63.0739 76.8656 62.984 76.8656C62.5797 76.8207 60.8725 76.7309 59.8393 76.0127C59.9291 76.4616 60.2436 77.4043 61.0073 77.8532C62.2203 78.5265 65.1853 78.7958 66.4432 77.2696C66.4432 77.2696 67.0273 76.6412 67.4316 75.6087C66.8027 76.2821 65.4998 76.7758 63.1637 76.8656Z" fill="#A8494C"/>
<path d="M67.4765 75.5638C66.7577 76.2372 65.4998 76.7758 63.1188 76.8656C63.0739 76.8656 63.0289 76.8656 62.9391 76.8656C62.5348 76.8207 60.8276 76.7309 59.7943 76.0127" stroke="#353643" stroke-width="0.5" stroke-miterlimit="10" stroke-linecap="round" stroke-linejoin="round"/>
<path d="M66.1737 58.9554C65.9491 59.2247 65.8592 59.5389 66.578 59.7634C66.8925 59.8532 67.2519 59.8981 67.5664 59.8532C68.7344 59.7634 72.3284 59.5838 74.7094 60.4816C74.7094 60.4816 73.3617 58.5514 70.3517 58.327C70.3517 58.327 68.8692 58.1923 67.0273 58.4616C66.7128 58.5514 66.3983 58.6861 66.1737 58.9554Z" fill="#4D2636"/>
<path d="M59.6146 58.6412C59.8392 58.8656 59.974 59.1349 59.3001 59.4492C58.9857 59.5838 58.6712 59.6287 58.3118 59.6736C57.1438 59.7185 53.8643 60.2571 51.618 61.3345C51.618 61.3345 52.4267 59.1798 55.3917 58.6412C55.3917 58.6412 56.8293 58.327 58.7161 58.3718C59.0755 58.327 59.39 58.4167 59.6146 58.6412Z" fill="#4D2636"/>
<path d="M60.3334 65.105C60.2885 66.0477 60.1088 67.0352 59.8393 67.9329C59.5248 68.9654 59.0306 69.6387 58.4915 70.4916C58.3567 70.7609 58.177 70.9853 58.222 71.2995C58.3118 72.1973 59.7943 72.5115 60.5131 72.6013C61.4566 72.6911 62.4 72.1973 63.2536 71.8382C63.8825 71.6138 63.2985 71.1649 62.8492 71.3444C61.9957 71.6586 61.3218 72.0177 60.3784 71.8382C58.5814 71.4791 59.4799 70.6262 60.019 69.6387C60.7827 68.2472 61.187 66.5863 61.2769 64.9704C61.3218 64.5215 60.3334 64.701 60.3334 65.105Z" fill="#BF6A58"/>
<path d="M83.2902 66.5414C83.2902 66.5414 83.7394 62.6811 86.6595 63.5339" stroke="#353643" stroke-miterlimit="10"/>
<path d="M74.0805 67.9778C74.0805 68.3818 73.7211 68.696 73.2269 68.696C72.7777 68.696 72.3734 68.3818 72.3734 67.9778C72.3734 67.5738 72.7327 67.2596 73.2269 67.2596C73.7211 67.2147 74.0805 67.5738 74.0805 67.9778Z" fill="#EAC8AF"/>
<path d="M75.7427 66.4068C76.2142 66.4068 76.5963 66.0852 76.5963 65.6886C76.5963 65.2919 76.2142 64.9704 75.7427 64.9704C75.2713 64.9704 74.8892 65.2919 74.8892 65.6886C74.8892 66.0852 75.2713 66.4068 75.7427 66.4068Z" fill="#EAC8AF"/>
<path d="M75.7427 63.5788C76.2142 63.5788 76.5963 63.2573 76.5963 62.8606C76.5963 62.464 76.2142 62.1424 75.7427 62.1424C75.2713 62.1424 74.8892 62.464 74.8892 62.8606C74.8892 63.2573 75.2713 63.5788 75.7427 63.5788Z" fill="#EAC8AF"/>
<path d="M54.2686 69.2347C54.74 69.2347 55.1222 68.9131 55.1222 68.5165C55.1222 68.1198 54.74 67.7983 54.2686 67.7983C53.7972 67.7983 53.415 68.1198 53.415 68.5165C53.415 68.9131 53.7972 69.2347 54.2686 69.2347Z" fill="#EAC8AF"/>
<path d="M50.8992 66.2272C50.8992 66.6312 51.2586 66.9454 51.7528 66.9454C52.202 66.9454 52.6063 66.6312 52.6063 66.2272C52.6063 65.8232 52.2469 65.509 51.7528 65.509C51.3035 65.509 50.8992 65.8232 50.8992 66.2272Z" fill="#EAC8AF"/>
<path d="M50.8992 63.3993C50.8992 63.8033 51.2586 64.1175 51.7528 64.1175C52.202 64.1175 52.6063 63.8033 52.6063 63.3993C52.6063 62.9953 52.2469 62.6811 51.7528 62.6811C51.3035 62.6811 50.8992 62.9953 50.8992 63.3993Z" fill="#EAC8AF"/>
<path d="M61.816 39.7435C61.816 39.7435 55.212 51.6836 69.5431 56.2622C73.1371 57.3843 78.8425 59.135 81.7627 64.9704L87.6478 74.5314C87.6478 74.5314 91.152 65.0153 91.1969 61.2896C91.2418 55.2297 91.8259 47.6886 80.954 41.3146C80.954 41.3146 73.2719 36.4218 61.816 39.7435Z" fill="#4D2636" stroke="#EBB264" stroke-width="0.5" stroke-miterlimit="10"/>
<path d="M63.0739 39.4741C63.0739 39.4741 62.0407 50.337 78.7528 57.1599C82.5714 58.731 87.7377 61.5589 89.2652 69.8631C89.2652 69.8631 90.2535 68.2471 90.7477 66.4965C91.152 65.0152 91.0173 63.4891 91.1071 62.8157C91.1071 62.8157 90.5231 57.2945 79.8759 53.7484C75.1588 52.1774 67.3867 48.3619 66.4433 39.0253L66.1738 38.9804C65.2303 38.8457 64.242 38.9804 63.3884 39.3844L63.0739 39.4741Z" fill="#4D2636" stroke="#EBB264" stroke-width="0.5" stroke-miterlimit="10"/>
<path d="M91.0172 55.7235C91.0172 55.7235 75.8326 48.7659 73.8559 45.9829C73.8559 45.9829 69.7677 42.0328 72.0589 38.7111C72.0589 38.7559 89.939 40.6412 91.0172 55.7235Z" stroke="#EBB264" stroke-width="0.5" stroke-miterlimit="10"/>
<path d="M61.816 39.7435C61.816 39.7435 61.2769 53.9729 49.8659 57.8332C49.8659 57.8332 45.3285 59.5838 47.7095 63.1748C47.7095 63.1748 39.5781 59.2696 43.6214 51.908C43.8909 51.4143 44.2503 50.9205 44.6097 50.4716C45.5082 49.4392 47.6197 47.105 50.45 44.5913C53.0556 42.2572 56.2902 40.731 59.7045 40.1026L61.816 39.7435Z" fill="#4D2636" stroke="#EBB264" stroke-width="0.5" stroke-miterlimit="10"/>
<path d="M87.1536 49.3045C87.1536 49.3045 85.6711 52.5365 90.2085 54.2422C90.2085 54.2422 90.2085 51.7734 87.1536 49.3045Z" fill="#2D6670"/>
<path d="M86.8841 49.3046C85.8509 51.6387 88.0073 53.524 89.9839 54.2871C90.0738 54.332 90.4781 54.332 90.4781 54.1525C90.4332 52.1774 88.8159 50.3819 87.4232 49.2148C87.2885 49.125 86.7943 49.2597 86.8841 49.3495C88.2768 50.5165 89.8941 52.3121 89.8941 54.2422C90.0738 54.1973 90.2535 54.1525 90.3882 54.1076C88.5014 53.3445 86.39 51.5041 87.3783 49.2597C87.4681 49.1699 86.9291 49.1699 86.8841 49.3046Z" fill="#353643"/>
<path d="M81.9873 46.9255C81.9873 46.9255 80.37 50.4268 85.2668 52.2672C85.2668 52.2672 85.2668 49.5739 81.9873 46.9255Z" fill="#2D6670"/>
<path d="M81.7627 46.746C80.5497 49.3943 83.1554 51.5489 85.3567 52.4018C85.4017 52.4018 85.5365 52.4467 85.5365 52.3569C85.4915 50.1574 83.6945 48.1375 82.1221 46.8357C81.9424 46.7011 81.583 46.6562 81.8975 46.9255C83.2003 48.0028 84.3684 49.3494 84.8626 51.0103C84.9524 51.2347 85.1321 51.7734 85.0423 51.9978C84.9974 52.0876 83.5148 51.1898 83.2902 51.0103C82.167 50.0676 81.583 48.4517 82.2119 47.0602C82.2568 46.9255 81.8076 46.6113 81.7627 46.746Z" fill="#353643"/>
<path d="M89.8941 46.8357C89.8941 46.8357 87.4682 44.726 84.8625 48.2273C84.8175 48.2273 86.974 48.8108 89.8941 46.8357Z" fill="#2D6670"/>
<path d="M90.0288 46.746C88.142 45.1749 85.8958 46.4317 84.5929 48.0926C84.5031 48.2273 84.8175 48.4068 84.9074 48.4068C86.6595 48.9006 88.6811 47.9579 90.1187 47.0153C90.2984 46.8806 89.8491 46.5664 89.7144 46.6562C88.3666 47.5539 86.4798 48.4966 84.8176 48.0477C84.9074 48.1375 84.9972 48.2721 85.132 48.3619C86.1653 47.0602 88.1869 45.534 89.8042 46.9255C89.939 47.1051 90.2984 46.9704 90.0288 46.746Z" fill="#353643"/>
<path d="M85.4465 44.0527C85.4465 44.0527 82.5713 41.943 79.9657 46.1175C79.9657 46.1175 82.3916 46.5664 85.4465 44.0527Z" fill="#709BA6"/>
<path d="M85.7161 44.0976C85.177 43.6936 84.4582 43.5589 83.7843 43.514C81.9424 43.3794 80.6395 44.6362 79.6961 46.0726L79.8758 46.1175C82.0322 46.5215 84.1437 45.3993 85.7161 44.0976C85.6712 44.1425 85.3118 43.918 85.177 44.0078C84.1437 44.8607 82.9757 45.5789 81.6279 45.8931C81.2685 45.9829 80.8192 46.0726 80.4149 46.0726C80.37 46.0726 80.0106 46.1175 80.0106 46.0726C80.1004 46.2971 80.8642 45.2646 80.9091 45.2198C81.8975 44.0078 83.6945 42.9754 85.177 44.0527C85.3118 44.0976 85.6712 44.0527 85.7161 44.0976Z" fill="#353643"/>
<path d="M77.4948 45.2198C77.4948 45.2198 76.2819 49.3046 80.999 50.9205C80.999 50.9205 80.0106 47.2397 77.4948 45.2198Z" fill="#709BA6"/>
<path d="M77.2253 45.13C76.4166 47.9579 78.618 50.1574 81.0889 51.0552C81.0889 51.0552 81.2686 51.1 81.2237 51.0552C80.6396 48.9006 79.3817 46.746 77.6745 45.3096C77.5847 45.2647 77.0905 45.0402 77.2702 45.2198C78.5281 46.2971 79.4715 47.6886 80.1454 49.2148C80.2802 49.5739 80.6845 50.1574 80.6396 50.5614L80.7295 50.8307C80.4599 51.0103 79.202 49.9779 78.9324 49.7085C77.8093 48.6312 77.3151 46.9255 77.7194 45.3993C77.7644 45.2647 77.2702 45.0402 77.2253 45.13Z" fill="#353643"/>
<path d="M72.014 43.6487C72.014 43.6487 70.3069 47.3744 75.5181 49.3494C75.5181 49.3045 75.5181 46.4766 72.014 43.6487Z" fill="#2D6670"/>
<path d="M71.7444 43.7385C70.5314 46.3869 73.0023 48.5415 75.2485 49.4392C75.3384 49.4841 75.7877 49.3046 75.7877 49.2148C75.7427 46.9704 73.9008 44.8607 72.2835 43.5141C72.1487 43.4243 71.7893 43.7385 71.7444 43.7385C73.3617 45.0851 75.2036 47.15 75.2485 49.4392C75.4282 49.3494 75.608 49.3046 75.7877 49.2148C73.5863 48.317 71.0705 46.2073 72.2835 43.5589C72.2386 43.5589 71.7893 43.6038 71.7444 43.7385Z" fill="#353643"/>
<path d="M81.4032 42.6163C81.4032 42.6163 76.8209 41.1799 74.979 44.3669C74.9341 44.3669 77.6745 45.1749 81.4032 42.6163Z" fill="#2D6670"/>
<path d="M81.2236 42.4368C78.9324 41.7186 76.1021 41.9879 74.7544 44.1874C74.7095 44.2772 75.0689 44.5016 75.1587 44.5465C77.3601 45.1749 79.8759 43.9629 81.6279 42.7959C81.6279 42.7959 81.2685 42.3919 81.1787 42.4368C79.4266 43.6038 76.9557 44.8158 74.7993 44.1874C74.9341 44.322 75.0689 44.4118 75.2036 44.5465C76.5514 42.3919 79.3368 42.0777 81.583 42.7959C81.6729 42.7959 81.3135 42.4816 81.2236 42.4368Z" fill="#353643"/>
<path d="M75.9674 40.9554C75.9674 40.9554 70.9807 39.7435 69.7227 43.2896C69.7227 43.2896 72.8675 42.8856 75.9674 40.9554Z" fill="#709BA6"/>
<path d="M76.1471 40.8208C73.6762 40.2372 70.5314 40.731 69.4982 43.3345C69.4532 43.4692 69.6329 43.4692 69.7228 43.4692C72.014 43.155 74.2153 42.2123 76.192 41.0452C76.5065 40.8657 76.0123 40.8208 75.8326 40.9106C73.9907 41.9879 71.9241 42.8856 69.7677 43.155C69.8576 43.1998 69.9025 43.2447 69.9923 43.2896C70.9358 40.9555 73.6313 40.5963 75.8326 41.135C76.0123 41.1799 76.4615 40.8657 76.1471 40.8208Z" fill="#353643"/>
<path d="M66.0389 42.8857C66.0389 42.8857 64.3318 46.6113 69.5431 48.5864C69.5431 48.5864 69.543 45.7585 66.0389 42.8857Z" fill="#2D6670"/>
<path d="M65.8592 42.6612C64.6013 45.4891 67.2519 47.8682 69.588 48.8108C69.6329 48.8108 69.6779 48.8108 69.6779 48.7659C69.6329 46.342 67.7012 44.1425 65.994 42.7061C65.7694 42.5265 65.9491 43.0203 66.0389 43.1101C67.4316 44.2772 68.6895 45.7136 69.1837 47.5091C69.2286 47.5988 69.4532 48.2273 69.3185 48.3619C69.2735 48.4517 67.5215 47.3744 67.4316 47.2846C66.1737 46.342 65.4549 44.6363 66.1288 43.1101C66.2636 42.9754 65.9042 42.5714 65.8592 42.6612Z" fill="#353643"/>
<path d="M62.2652 43.0203C62.2652 43.0203 65.5897 45.3993 61.9957 49.7085C62.0406 49.7085 60.648 47.1948 62.2652 43.0203Z" fill="#2D6670"/>
<path d="M61.9956 43.1101C64.3317 44.8607 63.2535 47.8682 61.7261 49.7535C61.9058 49.7086 62.0855 49.6637 62.2652 49.6188C61.187 47.6437 61.771 44.9056 62.5347 42.9305C62.5347 42.9754 62.0855 42.9754 61.9956 43.1101C61.2769 45.0851 60.6479 47.7784 61.7261 49.7983C61.771 49.8881 62.2203 49.7086 62.2652 49.6637C63.7477 47.7784 64.8708 44.726 62.5347 42.9754C62.4449 42.8407 62.0406 43.1101 61.9956 43.1101Z" fill="#353643"/>
<path d="M69.2286 37.8582C69.2286 37.8582 65.1853 37.2747 64.781 42.8407C64.781 42.8407 67.5214 42.0328 69.2286 37.8582Z" fill="#709BA6"/>
<path d="M69.3185 37.6787C66.2636 37.2747 64.7361 40.2821 64.5115 42.8856C64.5115 43.0652 64.7361 43.0652 64.826 43.0203C67.0722 42.3021 68.5996 39.923 69.4981 37.9031C69.6329 37.6338 69.0938 37.6338 69.004 37.8582C68.2402 39.6986 66.8026 42.0776 64.781 42.7061C64.8709 42.7509 65.0056 42.7958 65.0955 42.8407C65.2752 40.6412 66.4432 37.7235 69.1837 38.0826C69.4083 38.0826 69.7228 37.7235 69.3185 37.6787Z" fill="#353643"/>
<path d="M59.6596 36.9156C59.6596 36.9156 63.7028 37.4542 62.5797 42.9305C62.5348 42.9305 60.1538 41.4043 59.6596 36.9156Z" fill="#2D6670"/>
<path d="M59.7494 37.1849C61.5015 37.4542 62.5348 39.0253 62.5797 40.731C62.5797 41.0003 62.5797 42.6612 62.4 42.6612C62.3102 42.6612 61.9508 42.3021 61.9058 42.2123C60.5581 40.8657 60.019 38.9355 59.7943 37.14C59.7943 37.0053 59.4799 36.6462 59.5248 36.736C59.7943 38.9804 60.6479 41.8532 62.6696 43.1998H62.7145C63.1638 40.731 62.5797 37.1849 59.5697 36.736C59.4799 36.6911 59.6146 37.14 59.7494 37.1849Z" fill="#353643"/>
<path d="M57.9075 43.2447C57.9075 43.2447 60.3784 44.322 56.7844 48.5863C56.8293 48.5863 53.9541 46.342 57.9075 43.2447Z" fill="#2D6670"/>
<path d="M57.8626 43.4692C59.7944 44.3669 57.2786 47.5988 56.6047 48.4068C56.6945 48.4068 56.8293 48.4068 56.9192 48.4068C55.0323 46.8806 56.6496 44.5914 58.0872 43.4692C58.3119 43.2896 57.9525 42.8407 57.7728 43.0203C56.0656 44.4118 54.5382 47.0153 56.7395 48.7659C56.8293 48.8557 56.9641 48.9006 57.054 48.7659C57.9974 47.6437 60.4233 44.0976 57.9974 43.0203C57.638 42.8407 57.5931 43.3345 57.8626 43.4692Z" fill="#353643"/>
<path d="M53.9541 37.8582C53.9541 37.8582 58.6712 38.8906 58.177 43.1549C58.177 43.1549 54.4932 42.347 53.9541 37.8582Z" fill="#709BA6"/>
<path d="M53.999 38.1275C56.3801 38.6662 58.1771 40.5964 57.9524 43.1101C58.0423 43.0203 58.1321 42.9754 58.222 42.8856C55.9308 42.347 54.5831 40.0577 54.2686 37.9031C54.2237 37.5889 53.6846 37.4991 53.7744 37.8133C54.0889 40.2821 55.6613 42.7958 58.2669 43.3794C58.4017 43.4243 58.4915 43.2896 58.5365 43.1549C58.806 40.327 56.7395 38.1724 54.044 37.5889C53.6396 37.544 53.6846 38.0378 53.999 38.1275Z" fill="#353643"/>
<path d="M52.4716 45.3096C52.4716 45.3096 54.9425 46.3869 51.3484 50.6512C51.3934 50.6512 48.5182 48.4068 52.4716 45.3096Z" fill="#709BA6"/>
<path d="M52.3368 45.4442C54.3584 46.342 51.7528 49.7534 51.1238 50.5614C51.2586 50.5614 51.3934 50.6063 51.5281 50.6063C49.5514 49.0352 51.2586 46.6562 52.6962 45.4891C52.8759 45.3544 52.3817 45.0851 52.202 45.2198C50.5398 46.6113 49.0573 49.0801 51.1687 50.7859C51.2586 50.8756 51.4832 50.9205 51.5731 50.8307C52.5165 49.7085 54.9424 46.2971 52.5614 45.2198C52.3368 45.0402 52.0223 45.2646 52.3368 45.4442Z" fill="#353643"/>
<path d="M48.5182 39.923C48.5182 39.923 53.2353 40.9554 52.7411 45.2198C52.7411 45.2198 49.0573 44.4118 48.5182 39.923Z" fill="#2D6670"/>
<path d="M48.4283 40.1924C50.8543 40.731 52.6962 42.7061 52.4716 45.2647C52.6064 45.1749 52.6962 45.0851 52.831 44.9953C50.4949 44.4567 49.1022 42.1225 48.7877 39.8781C48.7428 39.5639 48.2486 39.7884 48.2486 40.0577C48.5631 42.4816 50.0905 44.9056 52.6513 45.4891C52.831 45.534 52.9657 45.3544 53.0107 45.2198C53.2802 42.4367 51.2586 40.327 48.608 39.7435C48.2935 39.6088 48.1139 40.1026 48.4283 40.1924Z" fill="#353643"/>
<path d="M46.227 48.317C46.227 48.317 48.9225 48.6312 46.7661 53.7485C46.7661 53.7485 43.3518 52.4467 46.227 48.317Z" fill="#2D6670"/>
<path d="M46.0922 48.4517C48.3385 48.721 46.9008 52.716 46.4516 53.7484C46.5864 53.7036 46.7661 53.6587 46.9008 53.6138C44.5648 52.6711 45.4183 49.933 46.4516 48.3619C46.5864 48.1375 46.0473 48.1375 45.9574 48.317C44.7894 50.1125 44.0257 52.9405 46.5415 53.928C46.6762 53.9729 46.9458 53.928 46.9907 53.7933C47.5298 52.4916 48.8775 48.5415 46.3168 48.2273C46.1371 48.1375 45.7328 48.4068 46.0922 48.4517Z" fill="#353643"/>
<path d="M41.5099 45.4442C41.5099 45.4442 45.8676 43.3794 48.0689 47.0602C48.0689 47.0602 44.6546 48.6761 41.5099 45.4442Z" fill="#709BA6"/>
<path d="M41.7794 45.4891C43.4416 44.726 45.643 44.6362 47.0357 45.9829C47.2154 46.1624 47.8443 46.7909 47.7545 46.9704C47.7095 47.0602 47.2603 47.15 47.1704 47.15C45.1937 47.7335 43.217 46.8806 41.7794 45.4891C41.6896 45.3545 41.2853 45.3993 41.2403 45.3545C43.0373 47.1051 45.9125 48.1824 48.3385 47.1051C48.3385 47.1051 48.3385 47.1051 48.3385 47.0602C46.811 44.6811 43.7561 44.1874 41.2403 45.3096C41.2403 45.3545 41.6446 45.5789 41.7794 45.4891Z" fill="#353643"/>
<path d="M90.1187 50.9205C85.132 47.5539 79.2468 45.2198 73.4515 43.8731C61.8609 41.135 50.2702 43.514 41.5997 51.908C41.465 52.0427 41.8693 52.4018 42.049 52.2672C50.6746 43.9629 62.1754 41.6288 73.6312 44.322C79.2468 45.6238 85.2668 48.0477 89.939 51.1898C90.2085 51.3694 90.4332 51.1001 90.1187 50.9205Z" fill="#EBB264"/>
<g opacity="0.3">
<path opacity="0.3" d="M72.0589 69.6836C71.7893 69.6387 71.5647 69.6387 71.2952 69.7285C70.9807 69.7733 70.7111 69.8631 70.3967 69.9529C70.0373 70.0427 69.6779 70.1773 69.5431 70.6262C69.4532 70.9404 69.588 71.2546 69.8126 71.524C70.3517 72.1075 71.2053 72.0626 71.9241 72.1075C72.4632 72.1075 73.0023 72.0626 73.5414 71.883C73.8559 71.7933 74.1704 71.6137 74.395 71.3444C74.5747 71.12 74.6645 70.8058 74.5298 70.4915C74.3501 70.0876 73.8559 69.9529 73.4516 69.908C72.9574 69.7733 72.4183 69.7285 72.0589 69.6836Z" fill="#BF6A58"/>
</g>
<g opacity="0.3">
<path opacity="0.3" d="M55.3019 70.6262C55.0323 70.5813 54.8077 70.5813 54.5381 70.6711C54.2237 70.716 53.9541 70.8057 53.6396 70.8955C53.2802 70.9853 52.9208 71.12 52.786 71.5688C52.6962 71.8831 52.831 72.1973 53.0556 72.4666C53.5947 73.0502 54.4483 73.0053 55.1671 73.0501C55.7062 73.0501 56.2453 73.0053 56.7844 72.8257C57.0989 72.7359 57.4134 72.5564 57.638 72.2871C57.8177 72.0626 57.9075 71.7484 57.7727 71.4342C57.593 71.0302 57.0989 70.8955 56.6945 70.8506C56.2004 70.716 55.6163 70.6711 55.3019 70.6262Z" fill="#BF6A58"/>
</g>
<path d="M66.6229 115.379C74.7859 115.379 81.4032 108.767 81.4032 100.611C81.4032 92.455 74.7859 85.8431 66.6229 85.8431C58.46 85.8431 51.8426 92.455 51.8426 100.611C51.8426 108.767 58.46 115.379 66.6229 115.379Z" fill="#2D6670" stroke="#353643" stroke-miterlimit="10"/>
<path d="M54.2236 97.873C54.4482 97.9179 54.6729 97.7833 54.7627 97.5588C54.8076 97.3344 54.6729 97.1099 54.4482 97.0201C54.2236 96.9304 53.999 97.1099 53.9092 97.3344C53.8642 97.6037 53.999 97.8282 54.2236 97.873Z" fill="#F3F0E8"/>
<path d="M56.1105 94.3718C56.2452 94.1922 56.1554 93.9229 55.9757 93.7882C55.796 93.6536 55.5265 93.7433 55.3917 93.9229C55.2569 94.1024 55.3468 94.4167 55.5265 94.5064C55.7062 94.6411 55.9757 94.5513 56.1105 94.3718Z" fill="#F3F0E8"/>
<path d="M58.3118 91.0501C58.1771 90.8705 57.8626 90.8705 57.6829 91.0052C57.5032 91.1848 57.5032 91.4541 57.6379 91.5888C57.8177 91.7683 58.0872 91.7683 58.2669 91.6336C58.4466 91.499 58.4466 91.2296 58.3118 91.0501Z" fill="#F3F0E8"/>
<path d="M61.3218 89.1199C61.2319 88.8955 60.9624 88.8057 60.7378 88.9403C60.5131 89.0301 60.4233 89.2995 60.5581 89.5239C60.6929 89.7483 60.9175 89.8381 61.1421 89.7035C61.3218 89.5688 61.4116 89.3444 61.3218 89.1199Z" fill="#F3F0E8"/>
<path d="M64.2868 87.7285C64.1521 87.7285 64.0622 87.8182 64.0173 87.908C63.9724 87.9978 63.9275 88.1324 63.9724 88.2222C64.0173 88.3568 64.0622 88.4466 64.1521 88.4915C64.2419 88.5364 64.3317 88.5812 64.4665 88.5812C64.6911 88.5364 64.8259 88.3119 64.8259 88.0875C64.7361 87.8631 64.5564 87.6836 64.2868 87.7285Z" fill="#F3F0E8"/>
<path d="M68.0156 87.5938C67.791 87.5489 67.5664 87.7733 67.5215 87.9977C67.5215 88.2222 67.6562 88.4466 67.9258 88.4466C68.1504 88.4915 68.375 88.3119 68.375 88.0875C68.4199 87.8631 68.2402 87.6386 68.0156 87.5938Z" fill="#F3F0E8"/>
<path d="M71.6096 88.5364C71.385 88.4466 71.1155 88.5813 71.0256 88.8057C70.9358 89.0301 71.0705 89.2546 71.2502 89.3443C71.4748 89.4341 71.6995 89.3443 71.7893 89.1199C71.969 88.8955 71.8792 88.6262 71.6096 88.5364Z" fill="#F3F0E8"/>
<path d="M74.8442 90.4217C74.6645 90.287 74.35 90.287 74.2153 90.5114C74.0805 90.691 74.1254 90.9603 74.3051 91.095C74.4848 91.2297 74.7544 91.2297 74.8891 91.0501C75.0239 90.8706 75.0239 90.5563 74.8442 90.4217Z" fill="#F3F0E8"/>
<path d="M77.36 93.1598C77.2253 92.9802 76.9557 92.9353 76.7311 93.07C76.5514 93.2047 76.5065 93.474 76.6412 93.6536C76.776 93.8331 77.0456 93.878 77.2253 93.7882C77.4499 93.6536 77.5397 93.3393 77.36 93.1598Z" fill="#F3F0E8"/>
<path d="M78.7528 97.0202C78.9774 96.9753 79.1122 96.706 79.0223 96.4815C78.9325 96.2571 78.7078 96.1224 78.4832 96.2122C78.2585 96.302 78.1238 96.5264 78.2136 96.7509C78.3035 96.9753 78.5281 97.11 78.7528 97.0202Z" fill="#F3F0E8"/>
<path d="M79.2469 99.7583C79.0223 99.7583 78.8426 99.9828 78.8426 100.207C78.8426 100.432 79.0672 100.611 79.2918 100.611C79.5164 100.611 79.6961 100.432 79.6961 100.162C79.6961 99.893 79.4715 99.7134 79.2469 99.7583Z" fill="#F3F0E8"/>
<path d="M78.9774 103.349C78.7527 103.304 78.5281 103.439 78.4382 103.664C78.3933 103.888 78.5281 104.112 78.7527 104.202C78.9774 104.292 79.202 104.112 79.2919 103.888C79.3368 103.619 79.202 103.394 78.9774 103.349Z" fill="#F3F0E8"/>
<path d="M77.7194 106.716C77.4948 106.581 77.2252 106.671 77.1354 106.851C77.0006 107.03 77.0905 107.299 77.2702 107.434C77.4499 107.569 77.7195 107.479 77.8542 107.299C77.989 107.075 77.9441 106.806 77.7194 106.716Z" fill="#F3F0E8"/>
<path d="M74.9341 109.544C74.7544 109.678 74.7544 109.948 74.8892 110.127C75.0239 110.307 75.3384 110.307 75.5181 110.172C75.6978 109.993 75.6978 109.723 75.563 109.589C75.3833 109.409 75.1138 109.409 74.9341 109.544Z" fill="#F3F0E8"/>
<path d="M72.0589 111.564C71.8343 111.654 71.7444 111.923 71.8792 112.147C71.969 112.372 72.2386 112.461 72.4632 112.327C72.6878 112.237 72.7777 111.968 72.6429 111.743C72.553 111.519 72.2835 111.429 72.0589 111.564Z" fill="#F3F0E8"/>
<path d="M69.0938 112.731C69.004 112.686 68.9141 112.641 68.7793 112.641C68.5547 112.686 68.42 112.91 68.42 113.135C68.4649 113.359 68.6895 113.539 68.9141 113.494C69.0489 113.494 69.1387 113.404 69.1837 113.314C69.2286 113.225 69.2735 113.09 69.2286 113C69.2286 112.866 69.1837 112.776 69.0938 112.731Z" fill="#F3F0E8"/>
<path d="M65.2752 112.776C65.0506 112.731 64.826 112.91 64.826 113.135C64.781 113.359 64.9607 113.584 65.1853 113.629C65.41 113.673 65.6346 113.449 65.6795 113.225C65.6795 113 65.4998 112.776 65.2752 112.776Z" fill="#F3F0E8"/>
<path d="M61.9058 111.923C61.6812 111.833 61.4566 111.923 61.3667 112.147C61.2769 112.372 61.3667 112.641 61.5914 112.731C61.816 112.821 62.0855 112.686 62.1754 112.462C62.2203 112.237 62.1305 111.968 61.9058 111.923Z" fill="#F3F0E8"/>
<path d="M58.3118 110.172C58.1771 110.352 58.177 110.621 58.3567 110.801C58.5364 110.935 58.8509 110.935 58.9857 110.711C59.1205 110.531 59.0755 110.262 58.8958 110.127C58.7611 109.993 58.4915 109.993 58.3118 110.172Z" fill="#F3F0E8"/>
<path d="M55.9757 107.479C55.796 107.614 55.7062 107.883 55.841 108.063C55.9757 108.242 56.2453 108.287 56.4699 108.152C56.6496 108.018 56.6945 107.748 56.5597 107.569C56.425 107.389 56.1554 107.344 55.9757 107.479Z" fill="#F3F0E8"/>
<path d="M54.4483 104.202C54.2237 104.247 54.0889 104.516 54.1787 104.741C54.2686 104.965 54.4932 105.1 54.7178 105.01C54.9425 104.92 55.0772 104.696 54.9874 104.471C54.8975 104.247 54.6729 104.112 54.4483 104.202Z" fill="#F3F0E8"/>
<path d="M54.4034 101.06C54.4034 100.836 54.1787 100.656 53.9541 100.656C53.7295 100.656 53.5498 100.836 53.5498 101.105C53.5498 101.329 53.7744 101.554 53.999 101.509C54.2236 101.464 54.4034 101.284 54.4034 101.06Z" fill="#F3F0E8"/>
<path d="M73.8902 107.87C77.9078 103.856 77.9078 97.3474 73.8902 93.3331C69.8726 89.3188 63.3588 89.3188 59.3412 93.3331C55.3236 97.3473 55.3236 103.856 59.3412 107.87C63.3588 111.884 69.8726 111.884 73.8902 107.87Z" fill="#709BA6" stroke="#353643" stroke-miterlimit="10"/>
<path d="M66.5331 103.574V97.1099C66.5331 96.3019 65.8592 95.6286 64.9607 95.6286C64.1071 95.6286 63.3883 96.3019 63.3883 97.1099V103.574" stroke="#353643" stroke-width="2" stroke-miterlimit="10" stroke-linecap="round" stroke-linejoin="round"/>
<path d="M69.6329 104.472V97.1099C69.6329 96.3019 68.959 95.6286 68.0605 95.6286C67.207 95.6286 66.4882 96.3019 66.4882 97.1099V103.574" stroke="#353643" stroke-width="2" stroke-miterlimit="10" stroke-linecap="round" stroke-linejoin="round"/>
<path d="M62.3102 96.0326L63.4333 97.11" stroke="#353643" stroke-width="2" stroke-miterlimit="10" stroke-linecap="round" stroke-linejoin="round"/>
<path d="M67.8809 104.696C67.8809 104.696 71.0256 102.227 71.4299 100.073C71.5647 99.3992 72.0139 96.9304 69.6329 98.0077" stroke="#353643" stroke-width="2" stroke-miterlimit="10" stroke-linecap="round" stroke-linejoin="round"/>
</svg>
